  0
SECTION
  2
HEADER
  9
$ACADVER
  1
AC1024
  9
$ACADMAINTVER
 70
6
  9
$DWGCODEPAGE
  3
ANSI_1252
  9
$LASTSAVEDBY
  1
ezdxf
  9
$INSBASE
 10
0.0
 20
0.0
 30
0.0
  9
$EXTMIN
 10
1e+20
 20
1e+20
 30
1e+20
  9
$EXTMAX
 10
-1e+20
 20
-1e+20
 30
-1e+20
  9
$LIMMIN
 10
0.0
 20
0.0
  9
$LIMMAX
 10
420.0
 20
297.0
  9
$ORTHOMODE
 70
0
  9
$REGENMODE
 70
1
  9
$FILLMODE
 70
1
  9
$QTEXTMODE
 70
0
  9
$MIRRTEXT
 70
1
  9
$LTSCALE
 40
1.0
  9
$ATTMODE
 70
1
  9
$TEXTSIZE
 40
2.5
  9
$TRACEWID
 40
1.0
  9
$TEXTSTYLE
  7
Standard
  9
$CLAYER
  8
0
  9
$CELTYPE
  6
ByLayer
  9
$CECOLOR
 62
256
  9
$CELTSCALE
 40
1.0
  9
$DISPSILH
 70
0
  9
$DIMSCALE
 40
1.0
  9
$DIMASZ
 40
2.5
  9
$DIMEXO
 40
0.625
  9
$DIMDLI
 40
3.75
  9
$DIMRND
 40
0.0
  9
$DIMDLE
 40
0.0
  9
$DIMEXE
 40
1.25
  9
$DIMTP
 40
0.0
  9
$DIMTM
 40
0.0
  9
$DIMTXT
 40
2.5
  9
$DIMCEN
 40
2.5
  9
$DIMTSZ
 40
0.0
  9
$DIMTOL
 70
0
  9
$DIMLIM
 70
0
  9
$DIMTIH
 70
0
  9
$DIMTOH
 70
0
  9
$DIMSE1
 70
0
  9
$DIMSE2
 70
0
  9
$DIMTAD
 70
1
  9
$DIMZIN
 70
8
  9
$DIMBLK
  1

  9
$DIMASO
 70
1
  9
$DIMSHO
 70
1
  9
$DIMPOST
  1

  9
$DIMAPOST
  1

  9
$DIMALT
 70
0
  9
$DIMALTD
 70
3
  9
$DIMALTF
 40
0.03937007874
  9
$DIMLFAC
 40
1.0
  9
$DIMTOFL
 70
1
  9
$DIMTVP
 40
0.0
  9
$DIMTIX
 70
0
  9
$DIMSOXD
 70
0
  9
$DIMSAH
 70
0
  9
$DIMBLK1
  1

  9
$DIMBLK2
  1

  9
$DIMSTYLE
  2
ISO-25
  9
$DIMCLRD
 70
0
  9
$DIMCLRE
 70
0
  9
$DIMCLRT
 70
0
  9
$DIMTFAC
 40
1.0
  9
$DIMGAP
 40
0.625
  9
$DIMJUST
 70
0
  9
$DIMSD1
 70
0
  9
$DIMSD2
 70
0
  9
$DIMTOLJ
 70
0
  9
$DIMTZIN
 70
8
  9
$DIMALTZ
 70
0
  9
$DIMALTTZ
 70
0
  9
$DIMUPT
 70
0
  9
$DIMDEC
 70
2
  9
$DIMTDEC
 70
2
  9
$DIMALTU
 70
2
  9
$DIMALTTD
 70
3
  9
$DIMTXSTY
  7
Standard
  9
$DIMAUNIT
 70
0
  9
$DIMADEC
 70
0
  9
$DIMALTRND
 40
0.0
  9
$DIMAZIN
 70
0
  9
$DIMDSEP
 70
44
  9
$DIMATFIT
 70
3
  9
$DIMFRAC
 70
0
  9
$DIMLDRBLK
  1

  9
$DIMLUNIT
 70
2
  9
$DIMLWD
 70
-2
  9
$DIMLWE
 70
-2
  9
$DIMTMOVE
 70
0
  9
$DIMFXL
 40
1.0
  9
$DIMFXLON
 70
0
  9
$DIMJOGANG
 40
0.785398163397
  9
$DIMTFILL
 70
0
  9
$DIMTFILLCLR
 70
0
  9
$DIMARCSYM
 70
0
  9
$DIMLTYPE
  6

  9
$DIMLTEX1
  6

  9
$DIMLTEX2
  6

  9
$DIMTXTDIRECTION
 70
0
  9
$LUNITS
 70
2
  9
$LUPREC
 70
4
  9
$SKETCHINC
 40
1.0
  9
$FILLETRAD
 40
10.0
  9
$AUNITS
 70
0
  9
$AUPREC
 70
2
  9
$MENU
  1
.
  9
$ELEVATION
 40
0.0
  9
$PELEVATION
 40
0.0
  9
$THICKNESS
 40
0.0
  9
$LIMCHECK
 70
0
  9
$CHAMFERA
 40
0.0
  9
$CHAMFERB
 40
0.0
  9
$CHAMFERC
 40
0.0
  9
$CHAMFERD
 40
0.0
  9
$SKPOLY
 70
0
  9
$TDCREATE
 40
2461310.874548611
  9
$TDUCREATE
 40
2458532.153996898
  9
$TDUPDATE
 40
2461310.8745601852
  9
$TDUUPDATE
 40
2458532.1544311
  9
$TDINDWG
 40
0.0
  9
$TDUSRTIMER
 40
0.0
  9
$USRTIMER
 70
1
  9
$ANGBASE
 50
0.0
  9
$ANGDIR
 70
0
  9
$PDMODE
 70
0
  9
$PDSIZE
 40
0.0
  9
$PLINEWID
 40
0.0
  9
$SPLFRAME
 70
0
  9
$SPLINETYPE
 70
6
  9
$SPLINESEGS
 70
8
  9
$HANDSEED
  5
B6
  9
$SURFTAB1
 70
6
  9
$SURFTAB2
 70
6
  9
$SURFTYPE
 70
6
  9
$SURFU
 70
6
  9
$SURFV
 70
6
  9
$UCSBASE
  2

  9
$UCSNAME
  2

  9
$UCSORG
 10
0.0
 20
0.0
 30
0.0
  9
$UCSXDIR
 10
1.0
 20
0.0
 30
0.0
  9
$UCSYDIR
 10
0.0
 20
1.0
 30
0.0
  9
$UCSORTHOREF
  2

  9
$UCSORTHOVIEW
 70
0
  9
$UCSORGTOP
 10
0.0
 20
0.0
 30
0.0
  9
$UCSORGBOTTOM
 10
0.0
 20
0.0
 30
0.0
  9
$UCSORGLEFT
 10
0.0
 20
0.0
 30
0.0
  9
$UCSORGRIGHT
 10
0.0
 20
0.0
 30
0.0
  9
$UCSORGFRONT
 10
0.0
 20
0.0
 30
0.0
  9
$UCSORGBACK
 10
0.0
 20
0.0
 30
0.0
  9
$PUCSBASE
  2

  9
$PUCSNAME
  2

  9
$PUCSORG
 10
0.0
 20
0.0
 30
0.0
  9
$PUCSXDIR
 10
1.0
 20
0.0
 30
0.0
  9
$PUCSYDIR
 10
0.0
 20
1.0
 30
0.0
  9
$PUCSORTHOREF
  2

  9
$PUCSORTHOVIEW
 70
0
  9
$PUCSORGTOP
 10
0.0
 20
0.0
 30
0.0
  9
$PUCSORGBOTTOM
 10
0.0
 20
0.0
 30
0.0
  9
$PUCSORGLEFT
 10
0.0
 20
0.0
 30
0.0
  9
$PUCSORGRIGHT
 10
0.0
 20
0.0
 30
0.0
  9
$PUCSORGFRONT
 10
0.0
 20
0.0
 30
0.0
  9
$PUCSORGBACK
 10
0.0
 20
0.0
 30
0.0
  9
$USERI1
 70
0
  9
$USERI2
 70
0
  9
$USERI3
 70
0
  9
$USERI4
 70
0
  9
$USERI5
 70
0
  9
$USERR1
 40
0.0
  9
$USERR2
 40
0.0
  9
$USERR3
 40
0.0
  9
$USERR4
 40
0.0
  9
$USERR5
 40
0.0
  9
$WORLDVIEW
 70
1
  9
$SHADEDGE
 70
3
  9
$SHADEDIF
 70
70
  9
$TILEMODE
 70
1
  9
$MAXACTVP
 70
64
  9
$PINSBASE
 10
0.0
 20
0.0
 30
0.0
  9
$PLIMCHECK
 70
0
  9
$PEXTMIN
 10
1e+20
 20
1e+20
 30
1e+20
  9
$PEXTMAX
 10
-1e+20
 20
-1e+20
 30
-1e+20
  9
$PLIMMIN
 10
0.0
 20
0.0
  9
$PLIMMAX
 10
420.0
 20
297.0
  9
$UNITMODE
 70
0
  9
$VISRETAIN
 70
1
  9
$PLINEGEN
 70
0
  9
$PSLTSCALE
 70
1
  9
$TREEDEPTH
 70
3020
  9
$CMLSTYLE
  2
Standard
  9
$CMLJUST
 70
0
  9
$CMLSCALE
 40
20.0
  9
$PROXYGRAPHICS
 70
1
  9
$MEASUREMENT
 70
1
  9
$CELWEIGHT
370
-1
  9
$ENDCAPS
280
0
  9
$JOINSTYLE
280
0
  9
$LWDISPLAY
290
0
  9
$INSUNITS
 70
4
  9
$HYPERLINKBASE
  1

  9
$STYLESHEET
  1

  9
$XEDIT
290
1
  9
$CEPSNTYPE
380
0
  9
$PSTYLEMODE
290
1
  9
$FINGERPRINTGUID
  2
{ED141D5F-F441-48B1-A157-D30C66722F48}
  9
$VERSIONGUID
  2
{A4FE5D73-1E69-4179-B487-96397CD1BBE8}
  9
$EXTNAMES
290
1
  9
$PSVPSCALE
 40
0.0
  9
$OLESTARTUP
290
0
  9
$SORTENTS
280
127
  9
$INDEXCTL
280
0
  9
$HIDETEXT
280
1
  9
$XCLIPFRAME
280
1
  9
$HALOGAP
280
0
  9
$OBSCOLOR
 70
257
  9
$OBSLTYPE
280
0
  9
$INTERSECTIONDISPLAY
280
0
  9
$INTERSECTIONCOLOR
 70
257
  9
$DIMASSOC
280
2
  9
$PROJECTNAME
  1

  9
$CAMERADISPLAY
290
0
  9
$LENSLENGTH
 40
50.0
  9
$CAMERAHEIGHT
 40
0.0
  9
$STEPSPERSEC
 40
24.0
  9
$STEPSIZE
 40
100.0
  9
$3DDWFPREC
 40
2.0
  9
$PSOLWIDTH
 40
0.005
  9
$PSOLHEIGHT
 40
0.08
  9
$LOFTANG1
 40
1.570796326795
  9
$LOFTANG2
 40
1.570796326795
  9
$LOFTMAG1
 40
0.0
  9
$LOFTMAG2
 40
0.0
  9
$LOFTPARAM
 70
7
  9
$LOFTNORMALS
280
1
  9
$LATITUDE
 40
37.795
  9
$LONGITUDE
 40
-122.394
  9
$NORTHDIRECTION
 40
0.0
  9
$TIMEZONE
 70
-8000
  9
$LIGHTGLYPHDISPLAY
280
1
  9
$TILEMODELIGHTSYNCH
280
1
  9
$CMATERIAL
347
20
  9
$SOLIDHIST
280
0
  9
$SHOWHIST
280
1
  9
$DWFFRAME
280
2
  9
$DGNFRAME
280
2
  9
$REALWORLDSCALE
290
1
  9
$INTERFERECOLOR
 62
256
  9
$CSHADOW
280
0
  9
$SHADOWPLANELOCATION
 40
0.0
  0
ENDSEC
  0
SECTION
  2
CLASSES
  0
CLASS
  1
ACDBDICTIONARYWDFLT
  2
AcDbDictionaryWithDefault
  3
ObjectDBX Classes
 90
0
 91
0
280
0
281
0
  0
CLASS
  1
SUN
  2
AcDbSun
  3
SCENEOE
 90
1153
 91
0
280
0
281
0
  0
CLASS
  1
VISUALSTYLE
  2
AcDbVisualStyle
  3
ObjectDBX Classes
 90
4095
 91
0
280
0
281
0
  0
CLASS
  1
MATERIAL
  2
AcDbMaterial
  3
ObjectDBX Classes
 90
1153
 91
0
280
0
281
0
  0
CLASS
  1
SCALE
  2
AcDbScale
  3
ObjectDBX Classes
 90
1153
 91
0
280
0
281
0
  0
CLASS
  1
TABLESTYLE
  2
AcDbTableStyle
  3
ObjectDBX Classes
 90
4095
 91
0
280
0
281
0
  0
CLASS
  1
MLEADERSTYLE
  2
AcDbMLeaderStyle
  3
ACDB_MLEADERSTYLE_CLASS
 90
4095
 91
0
280
0
281
0
  0
CLASS
  1
DICTIONARYVAR
  2
AcDbDictionaryVar
  3
ObjectDBX Classes
 90
0
 91
0
280
0
281
0
  0
CLASS
  1
CELLSTYLEMAP
  2
AcDbCellStyleMap
  3
ObjectDBX Classes
 90
1152
 91
0
280
0
281
0
  0
CLASS
  1
MENTALRAYRENDERSETTINGS
  2
AcDbMentalRayRenderSettings
  3
SCENEOE
 90
1024
 91
0
280
0
281
0
  0
CLASS
  1
ACDBDETAILVIEWSTYLE
  2
AcDbDetailViewStyle
  3
ObjectDBX Classes
 90
1025
 91
0
280
0
281
0
  0
CLASS
  1
ACDBSECTIONVIEWSTYLE
  2
AcDbSectionViewStyle
  3
ObjectDBX Classes
 90
1025
 91
0
280
0
281
0
  0
CLASS
  1
RASTERVARIABLES
  2
AcDbRasterVariables
  3
ISM
 90
0
 91
0
280
0
281
0
  0
CLASS
  1
ACDBPLACEHOLDER
  2
AcDbPlaceHolder
  3
ObjectDBX Classes
 90
0
 91
0
280
0
281
0
  0
CLASS
  1
LAYOUT
  2
AcDbLayout
  3
ObjectDBX Classes
 90
0
 91
0
280
0
281
0
  0
ENDSEC
  0
SECTION
  2
TABLES
  0
TABLE
  2
VPORT
  5
8
330
0
100
AcDbSymbolTable
 70
1
  0
VPORT
  5
23
330
8
100
AcDbSymbolTableRecord
100
AcDbViewportTableRecord
  2
*Active
 70
0
 10
0.0
 20
0.0
 11
1.0
 21
1.0
 12
0.0
 22
0.0
 13
0.0
 23
0.0
 14
0.5
 24
0.5
 15
0.5
 25
0.5
 16
0.0
 26
0.0
 36
1.0
 17
0.0
 27
0.0
 37
0.0
 40
1000.0
 41
1.34
 42
50.0
 43
0.0
 44
0.0
 50
0.0
 51
0.0
 71
0
 72
1000
 73
1
 74
3
 75
0
 76
0
 77
0
 78
0
281
0
 65
0
146
0.0
  0
ENDTAB
  0
TABLE
  2
LTYPE
  5
2
330
0
100
AcDbSymbolTable
 70
3
  0
LTYPE
  5
24
330
2
100
AcDbSymbolTableRecord
100
AcDbLinetypeTableRecord
  2
ByBlock
 70
0
  3

 72
65
 73
0
 40
0.0
  0
LTYPE
  5
25
330
2
100
AcDbSymbolTableRecord
100
AcDbLinetypeTableRecord
  2
ByLayer
 70
0
  3

 72
65
 73
0
 40
0.0
  0
LTYPE
  5
26
330
2
100
AcDbSymbolTableRecord
100
AcDbLinetypeTableRecord
  2
Continuous
 70
0
  3

 72
65
 73
0
 40
0.0
  0
ENDTAB
  0
TABLE
  2
LAYER
  5
1
330
0
100
AcDbSymbolTable
 70
8
  0
LAYER
  5
27
330
1
100
AcDbSymbolTableRecord
100
AcDbLayerTableRecord
  2
0
 70
0
 62
7
  6
Continuous
370
-3
390
13
347
21
  0
LAYER
  5
28
330
1
100
AcDbSymbolTableRecord
100
AcDbLayerTableRecord
  2
Defpoints
 70
0
 62
7
  6
Continuous
290
0
370
-3
390
13
347
21
  0
LAYER
  5
2F
330
1
100
AcDbSymbolTableRecord
100
AcDbLayerTableRecord
  2
CUT_OUTER
 70
0
 62
7
  6
Continuous
370
-3
390
13
347
21
  0
LAYER
  5
30
330
1
100
AcDbSymbolTableRecord
100
AcDbLayerTableRecord
  2
CUT_HOLES
 70
0
 62
7
  6
Continuous
370
-3
390
13
347
21
  0
LAYER
  5
31
330
1
100
AcDbSymbolTableRecord
100
AcDbLayerTableRecord
  2
CUT_INNER
 70
0
 62
7
  6
Continuous
370
-3
390
13
347
21
  0
LAYER
  5
32
330
1
100
AcDbSymbolTableRecord
100
AcDbLayerTableRecord
  2
PART_MARK_NO_CUT
 70
0
 62
7
  6
Continuous
370
-3
390
13
347
21
  0
LAYER
  5
33
330
1
100
AcDbSymbolTableRecord
100
AcDbLayerTableRecord
  2
STOCK_NO_CUT
 70
0
 62
7
  6
Continuous
370
-3
390
13
347
21
  0
LAYER
  5
7B
330
1
100
AcDbSymbolTableRecord
100
AcDbLayerTableRecord
  2
MACHINING_NOTES
 70
0
 62
7
  6
Continuous
370
-3
390
13
347
21
  0
ENDTAB
  0
TABLE
  2
STYLE
  5
5
330
0
100
AcDbSymbolTable
 70
1
  0
STYLE
  5
29
330
5
100
AcDbSymbolTableRecord
100
AcDbTextStyleTableRecord
  2
Standard
 70
0
 40
0.0
 41
1.0
 50
0.0
 71
0
 42
2.5
  3
txt
  4

  0
ENDTAB
  0
TABLE
  2
VIEW
  5
7
330
0
100
AcDbSymbolTable
 70
0
  0
ENDTAB
  0
TABLE
  2
UCS
  5
6
330
0
100
AcDbSymbolTable
 70
0
  0
ENDTAB
  0
TABLE
  2
APPID
  5
3
330
0
100
AcDbSymbolTable
 70
3
  0
APPID
  5
2A
330
3
100
AcDbSymbolTableRecord
100
AcDbRegAppTableRecord
  2
ACAD
 70
0
  0
APPID
  5
B3
330
3
100
AcDbSymbolTableRecord
100
AcDbRegAppTableRecord
  2
HATCHBACKGROUNDCOLOR
 70
0
  0
APPID
  5
B4
330
3
100
AcDbSymbolTableRecord
100
AcDbRegAppTableRecord
  2
EZDXF
 70
0
  0
ENDTAB
  0
TABLE
  2
DIMSTYLE
  5
4
330
0
100
AcDbSymbolTable
 70
1
100
AcDbDimStyleTable
  0
DIMSTYLE
105
2B
330
4
100
AcDbSymbolTableRecord
100
AcDbDimStyleTableRecord
  2
Standard
 70
0
 40
1.0
 41
2.5
 42
0.625
 43
3.75
 44
1.25
 45
0.0
 46
0.0
 47
0.0
 48
0.0
 49
2.5
140
2.5
141
2.5
142
0.0
143
0.03937007874
144
1.0
145
0.0
146
1.0
147
0.625
148
0.0
 69
0
 70
0
 71
0
 72
0
 73
0
 74
0
 75
0
 76
0
 77
1
 78
8
 79
3
170
0
171
3
172
1
173
0
174
0
175
0
176
0
177
0
178
0
179
2
271
2
272
2
273
2
274
3
275
0
276
0
277
2
278
44
279
0
280
0
281
0
282
0
283
0
284
8
285
0
286
0
288
0
289
3
290
0
371
-2
372
-2
  0
ENDTAB
  0
TABLE
  2
BLOCK_RECORD
  5
9
330
0
100
AcDbSymbolTable
 70
2
  0
BLOCK_RECORD
  5
17
330
9
100
AcDbSymbolTableRecord
100
AcDbBlockTableRecord
  2
*Model_Space
340
1A
 70
0
280
1
281
0
  0
BLOCK_RECORD
  5
1B
330
9
100
AcDbSymbolTableRecord
100
AcDbBlockTableRecord
  2
*Paper_Space
340
1E
 70
0
280
1
281
0
  0
ENDTAB
  0
ENDSEC
  0
SECTION
  2
BLOCKS
  0
BLOCK
  5
18
330
17
100
AcDbEntity
  8
0
100
AcDbBlockBegin
  2
*Model_Space
 70
0
 10
0.0
 20
0.0
 30
0.0
  3
*Model_Space
  1

  0
ENDBLK
  5
19
330
17
100
AcDbEntity
  8
0
100
AcDbBlockEnd
  0
BLOCK
  5
1C
330
1B
100
AcDbEntity
  8
0
100
AcDbBlockBegin
  2
*Paper_Space
 70
0
 10
0.0
 20
0.0
 30
0.0
  3
*Paper_Space
  1

  0
ENDBLK
  5
1D
330
1B
100
AcDbEntity
  8
0
100
AcDbBlockEnd
  0
ENDSEC
  0
SECTION
  2
ENTITIES
  0
LWPOLYLINE
  5
34
330
17
100
AcDbEntity
  8
STOCK_NO_CUT
100
AcDbPolyline
 90
4
 70
1
 10
0.0
 20
0.0
 10
1219.2
 20
0.0
 10
1219.2
 20
2438.4
 10
0.0
 20
2438.4
  0
LWPOLYLINE
  5
35
330
17
100
AcDbEntity
  8
CUT_OUTER
100
AcDbPolyline
 90
4
 70
1
 10
10.0
 20
10.0
 10
60.8
 20
10.0
 10
60.8
 20
1460.0
 10
10.0
 20
1460.0
  0
TEXT
  5
36
330
17
100
AcDbEntity
  8
PART_MARK_NO_CUT
100
AcDbText
 10
12.0
 20
12.0
 30
0.0
 40
3.0
  1
CAP_SPACER #1
100
AcDbText
  0
LWPOLYLINE
  5
37
330
17
100
AcDbEntity
  8
CUT_OUTER
100
AcDbPolyline
 90
4
 70
1
 10
66.8
 20
10.0
 10
117.6
 20
10.0
 10
117.6
 20
1460.0
 10
66.8
 20
1460.0
  0
TEXT
  5
38
330
17
100
AcDbEntity
  8
PART_MARK_NO_CUT
100
AcDbText
 10
68.8
 20
12.0
 30
0.0
 40
3.0
  1
CAP_SPACER #2
100
AcDbText
  0
LWPOLYLINE
  5
39
330
17
100
AcDbEntity
  8
CUT_OUTER
100
AcDbPolyline
 90
80
 70
1
 10
10.0
 20
1477.2000000000003
 10
1130.0
 20
1466.0
 10
1130.0
 20
1522.40184760381
 10
1113.3239999999998
 20
1522.40184760381
 10
1113.3239999999998
 20
1502.40184760381
 10
1109.724
 20
1502.40184760381
 10
1109.724
 20
1522.40184760381
 10
1053.3239999999998
 20
1522.40184760381
 10
1053.3239999999998
 20
1502.40184760381
 10
1049.724
 20
1502.40184760381
 10
1049.724
 20
1522.40184760381
 10
993.3239999999998
 20
1522.40184760381
 10
993.3239999999998
 20
1502.40184760381
 10
989.7239999999999
 20
1502.40184760381
 10
989.7239999999999
 20
1522.40184760381
 10
933.324
 20
1522.40184760381
 10
933.324
 20
1502.40184760381
 10
929.724
 20
1502.40184760381
 10
929.724
 20
1522.40184760381
 10
873.324
 20
1522.40184760381
 10
873.324
 20
1502.40184760381
 10
869.724
 20
1502.40184760381
 10
869.724
 20
1522.40184760381
 10
813.324
 20
1522.40184760381
 10
813.324
 20
1502.40184760381
 10
809.724
 20
1502.40184760381
 10
809.724
 20
1522.40184760381
 10
753.324
 20
1522.40184760381
 10
753.324
 20
1502.40184760381
 10
749.724
 20
1502.40184760381
 10
749.724
 20
1522.40184760381
 10
693.324
 20
1522.40184760381
 10
693.324
 20
1502.40184760381
 10
689.724
 20
1502.40184760381
 10
689.724
 20
1522.40184760381
 10
633.324
 20
1522.40184760381
 10
633.324
 20
1502.40184760381
 10
629.724
 20
1502.40184760381
 10
629.724
 20
1522.40184760381
 10
573.324
 20
1522.40184760381
 10
573.324
 20
1502.40184760381
 10
569.724
 20
1502.40184760381
 10
569.724
 20
1522.40184760381
 10
513.3240000000001
 20
1522.40184760381
 10
513.3240000000001
 20
1502.40184760381
 10
509.724
 20
1502.40184760381
 10
509.724
 20
1522.40184760381
 10
453.324
 20
1522.40184760381
 10
453.324
 20
1502.40184760381
 10
449.724
 20
1502.40184760381
 10
449.724
 20
1522.40184760381
 10
393.324
 20
1522.40184760381
 10
393.324
 20
1502.40184760381
 10
389.724
 20
1502.40184760381
 10
389.724
 20
1522.40184760381
 10
333.324
 20
1522.40184760381
 10
333.324
 20
1502.40184760381
 10
329.724
 20
1502.40184760381
 10
329.724
 20
1522.40184760381
 10
273.324
 20
1522.40184760381
 10
273.324
 20
1502.40184760381
 10
269.724
 20
1502.40184760381
 10
269.724
 20
1522.40184760381
 10
213.324
 20
1522.40184760381
 10
213.324
 20
1502.40184760381
 10
209.724
 20
1502.40184760381
 10
209.724
 20
1522.40184760381
 10
153.324
 20
1522.40184760381
 10
153.324
 20
1502.40184760381
 10
149.724
 20
1502.40184760381
 10
149.724
 20
1522.40184760381
 10
93.324
 20
1522.40184760381
 10
93.324
 20
1502.40184760381
 10
89.724
 20
1502.40184760381
 10
89.724
 20
1522.40184760381
 10
33.324
 20
1522.40184760381
 10
33.324
 20
1502.40184760381
 10
29.724
 20
1502.40184760381
 10
29.724
 20
1522.40184760381
 10
10.0
 20
1522.40184760381
  0
TEXT
  5
3A
330
17
100
AcDbEntity
  8
PART_MARK_NO_CUT
100
AcDbText
 10
12.0
 20
1468.0
 30
0.0
 40
3.0
  1
WP_COMB #1
100
AcDbText
  0
LWPOLYLINE
  5
3B
330
17
100
AcDbEntity
  8
CUT_OUTER
100
AcDbPolyline
 90
80
 70
1
 10
1181.2018476038097
 20
10.000000000000002
 10
1192.40184760381
 20
1130.0
 10
1136.0
 20
1130.0
 10
1136.0
 20
1113.3239999999998
 10
1156.0
 20
1113.3239999999998
 10
1156.0
 20
1109.724
 10
1136.0
 20
1109.724
 10
1136.0
 20
1053.3239999999998
 10
1156.0
 20
1053.3239999999998
 10
1156.0
 20
1049.724
 10
1136.0
 20
1049.724
 10
1136.0
 20
993.3239999999998
 10
1156.0
 20
993.3239999999998
 10
1156.0
 20
989.7239999999999
 10
1136.0
 20
989.7239999999999
 10
1136.0
 20
933.324
 10
1156.0
 20
933.324
 10
1156.0
 20
929.724
 10
1136.0
 20
929.724
 10
1136.0
 20
873.324
 10
1156.0
 20
873.324
 10
1156.0
 20
869.724
 10
1136.0
 20
869.724
 10
1136.0
 20
813.324
 10
1156.0
 20
813.324
 10
1156.0
 20
809.724
 10
1136.0
 20
809.724
 10
1136.0
 20
753.324
 10
1156.0
 20
753.324
 10
1156.0
 20
749.724
 10
1136.0
 20
749.724
 10
1136.0
 20
693.324
 10
1156.0
 20
693.324
 10
1156.0
 20
689.724
 10
1136.0
 20
689.724
 10
1136.0
 20
633.324
 10
1156.0
 20
633.324
 10
1156.0
 20
629.724
 10
1136.0
 20
629.724
 10
1136.0
 20
573.324
 10
1156.0
 20
573.324
 10
1156.0
 20
569.724
 10
1136.0
 20
569.724
 10
1136.0
 20
513.3240000000001
 10
1156.0
 20
513.3240000000001
 10
1156.0
 20
509.724
 10
1136.0
 20
509.724
 10
1136.0
 20
453.324
 10
1156.0
 20
453.324
 10
1156.0
 20
449.724
 10
1136.0
 20
449.724
 10
1136.0
 20
393.324
 10
1156.0
 20
393.324
 10
1156.0
 20
389.724
 10
1136.0
 20
389.724
 10
1136.0
 20
333.324
 10
1156.0
 20
333.324
 10
1156.0
 20
329.724
 10
1136.0
 20
329.724
 10
1136.0
 20
273.324
 10
1156.0
 20
273.324
 10
1156.0
 20
269.724
 10
1136.0
 20
269.724
 10
1136.0
 20
213.324
 10
1156.0
 20
213.324
 10
1156.0
 20
209.724
 10
1136.0
 20
209.724
 10
1136.0
 20
153.324
 10
1156.0
 20
153.324
 10
1156.0
 20
149.724
 10
1136.0
 20
149.724
 10
1136.0
 20
93.324
 10
1156.0
 20
93.324
 10
1156.0
 20
89.724
 10
1136.0
 20
89.724
 10
1136.0
 20
33.324000000000005
 10
1156.0
 20
33.324000000000005
 10
1156.0
 20
29.724000000000004
 10
1136.0
 20
29.724000000000004
 10
1136.0
 20
10.000000000000004
  0
TEXT
  5
3C
330
17
100
AcDbEntity
  8
PART_MARK_NO_CUT
100
AcDbText
 10
1138.0
 20
12.0
 30
0.0
 40
3.0
  1
WP_COMB #2
100
AcDbText
  0
LWPOLYLINE
  5
3D
330
17
100
AcDbEntity
  8
CUT_OUTER
100
AcDbPolyline
 90
4
 70
1
 10
123.6
 20
10.0
 10
1089.696
 20
10.0
 10
1089.696
 20
40.0
 10
123.6
 20
40.0
  0
CIRCLE
  5
3E
330
17
100
AcDbEntity
  8
CUT_HOLES
100
AcDbCircle
 10
151.648
 20
25.0
 30
0.0
 40
3.3
  0
CIRCLE
  5
3F
330
17
100
AcDbEntity
  8
CUT_HOLES
100
AcDbCircle
 10
381.648
 20
25.0
 30
0.0
 40
3.3
  0
CIRCLE
  5
40
330
17
100
AcDbEntity
  8
CUT_HOLES
100
AcDbCircle
 10
606.648
 20
25.0
 30
0.0
 40
3.3
  0
CIRCLE
  5
41
330
17
100
AcDbEntity
  8
CUT_HOLES
100
AcDbCircle
 10
831.648
 20
25.0
 30
0.0
 40
3.3
  0
CIRCLE
  5
42
330
17
100
AcDbEntity
  8
CUT_HOLES
100
AcDbCircle
 10
1061.648
 20
25.0
 30
0.0
 40
3.3
  0
TEXT
  5
43
330
17
100
AcDbEntity
  8
PART_MARK_NO_CUT
100
AcDbText
 10
125.6
 20
12.0
 30
0.0
 40
3.0
  1
WT_RIM_FRONT #1
100
AcDbText
  0
LWPOLYLINE
  5
44
330
17
100
AcDbEntity
  8
CUT_OUTER
100
AcDbPolyline
 90
4
 70
1
 10
1125.696
 20
10.0
 10
1125.696
 20
976.096
 10
1095.696
 20
976.096
 10
1095.696
 20
10.000000000000002
  0
CIRCLE
  5
45
330
17
100
AcDbEntity
  8
CUT_HOLES
100
AcDbCircle
 10
1110.696
 20
38.048
 30
0.0
 40
3.3
  0
CIRCLE
  5
46
330
17
100
AcDbEntity
  8
CUT_HOLES
100
AcDbCircle
 10
1110.696
 20
268.048
 30
0.0
 40
3.3
  0
CIRCLE
  5
47
330
17
100
AcDbEntity
  8
CUT_HOLES
100
AcDbCircle
 10
1110.696
 20
493.048
 30
0.0
 40
3.3
  0
CIRCLE
  5
48
330
17
100
AcDbEntity
  8
CUT_HOLES
100
AcDbCircle
 10
1110.696
 20
718.048
 30
0.0
 40
3.3
  0
CIRCLE
  5
49
330
17
100
AcDbEntity
  8
CUT_HOLES
100
AcDbCircle
 10
1110.696
 20
948.048
 30
0.0
 40
3.3
  0
TEXT
  5
4A
330
17
100
AcDbEntity
  8
PART_MARK_NO_CUT
100
AcDbText
 10
1097.696
 20
12.0
 30
0.0
 40
3.0
  1
WT_RIM_REAR #1
100
AcDbText
  0
LWPOLYLINE
  5
4B
330
17
100
AcDbEntity
  8
CUT_OUTER
100
AcDbPolyline
 90
4
 70
1
 10
1136.0
 20
1136.0
 10
1166.0
 20
1136.0
 10
1166.0
 20
1742.096
 10
1136.0
 20
1742.096
  0
CIRCLE
  5
4C
330
17
100
AcDbEntity
  8
CUT_HOLES
100
AcDbCircle
 10
1151.0
 20
1324.048
 30
0.0
 40
3.3
  0
CIRCLE
  5
4D
330
17
100
AcDbEntity
  8
CUT_HOLES
100
AcDbCircle
 10
1151.0
 20
1489.048
 30
0.0
 40
3.3
  0
CIRCLE
  5
4E
330
17
100
AcDbEntity
  8
CUT_HOLES
100
AcDbCircle
 10
1151.0
 20
1654.048
 30
0.0
 40
3.3
  0
TEXT
  5
4F
330
17
100
AcDbEntity
  8
PART_MARK_NO_CUT
100
AcDbText
 10
1138.0
 20
1138.0
 30
0.0
 40
3.0
  1
WT_RIM_LEFT #1
100
AcDbText
  0
LWPOLYLINE
  5
50
330
17
100
AcDbEntity
  8
CUT_OUTER
100
AcDbPolyline
 90
4
 70
1
 10
1172.0
 20
1136.0
 10
1202.0
 20
1136.0
 10
1202.0
 20
1742.096
 10
1172.0
 20
1742.096
  0
CIRCLE
  5
51
330
17
100
AcDbEntity
  8
CUT_HOLES
100
AcDbCircle
 10
1187.0
 20
1324.048
 30
0.0
 40
3.3
  0
CIRCLE
  5
52
330
17
100
AcDbEntity
  8
CUT_HOLES
100
AcDbCircle
 10
1187.0
 20
1489.048
 30
0.0
 40
3.3
  0
CIRCLE
  5
53
330
17
100
AcDbEntity
  8
CUT_HOLES
100
AcDbCircle
 10
1187.0
 20
1654.048
 30
0.0
 40
3.3
  0
TEXT
  5
54
330
17
100
AcDbEntity
  8
PART_MARK_NO_CUT
100
AcDbText
 10
1174.0
 20
1138.0
 30
0.0
 40
3.0
  1
WT_RIM_RIGHT #1
100
AcDbText
  0
LWPOLYLINE
  5
55
330
17
100
AcDbEntity
  8
CUT_OUTER
100
AcDbPolyline
 90
4
 70
1
 10
123.6
 20
46.0
 10
1023.6
 20
46.0
 10
1023.6
 20
62.24000000000001
 10
123.6
 20
62.24000000000001
  0
TEXT
  5
56
330
17
100
AcDbEntity
  8
PART_MARK_NO_CUT
100
AcDbText
 10
125.6
 20
48.0
 30
0.0
 40
3.0
  1
WP_CRADLE_WEB_1_1 #1
100
AcDbText
  0
LWPOLYLINE
  5
57
330
17
100
AcDbEntity
  8
CUT_OUTER
100
AcDbPolyline
 90
4
 70
1
 10
1045.3919999999998
 20
46.0
 10
1045.3919999999998
 20
946.0
 10
1029.6
 20
946.0
 10
1029.6
 20
46.0
  0
TEXT
  5
58
330
17
100
AcDbEntity
  8
PART_MARK_NO_CUT
100
AcDbText
 10
1031.6
 20
48.0
 30
0.0
 40
3.0
  1
WP_CRADLE_WEB_1_2 #1
100
AcDbText
  0
LWPOLYLINE
  5
59
330
17
100
AcDbEntity
  8
CUT_OUTER
100
AcDbPolyline
 90
4
 70
1
 10
123.6
 20
68.24000000000001
 10
1023.6
 20
68.24000000000001
 10
1023.6
 20
79.48000000000002
 10
123.6
 20
79.48000000000002
  0
TEXT
  5
5A
330
17
100
AcDbEntity
  8
PART_MARK_NO_CUT
100
AcDbText
 10
125.6
 20
70.24000000000001
 30
0.0
 40
3.0
  1
WP_CRADLE_WEB_2_1 #1
100
AcDbText
  0
LWPOLYLINE
  5
5B
330
17
100
AcDbEntity
  8
CUT_OUTER
100
AcDbPolyline
 90
4
 70
1
 10
123.6
 20
85.48000000000002
 10
1023.6
 20
85.48000000000002
 10
1023.6
 20
96.27200000000005
 10
123.6
 20
96.27200000000005
  0
TEXT
  5
5C
330
17
100
AcDbEntity
  8
PART_MARK_NO_CUT
100
AcDbText
 10
125.6
 20
87.48000000000002
 30
0.0
 40
3.0
  1
WP_CRADLE_WEB_2_2 #1
100
AcDbText
  0
LWPOLYLINE
  5
5D
330
17
100
AcDbEntity
  8
CUT_OUTER
100
AcDbPolyline
 90
128
 70
1
 10
213.6
 20
1027.096
 10
213.54579552923275
 20
1029.3040453447338
 10
213.38331270024887
 20
1031.5067713148303
 10
213.11294294841514
 20
1033.6988713504913
 10
212.73533761814537
 20
1035.8750644907257
 10
212.25140639375448
 20
1038.030108095647
 10
211.66231510794938
 20
1040.1588104764508
 10
210.96948293323592
 20
1042.25604340265
 10
210.1745789630079
 20
1044.316754456429
 10
209.27951819055494
 20
1046.3359792043627
 10
208.28645689567597
 20
1048.30885315717
 10
207.19778745001224
 20
1050.230623488695
 10
206.01613255361454
 20
1052.096660485882
 10
204.74433891662903
 20
1053.9024687021595
 10
203.38547040132318
 20
1055.643697787364
 10
201.94280064097316
 20
1057.3161529681158
 10
200.41980515339463
 20
1058.9158051533946
 10
198.82015296811582
 20
1060.438800640973
 10
197.14769778736405
 20
1061.8814704013232
 10
195.4064687021595
 20
1063.240338916629
 10
193.6006604858821
 20
1064.5121325536145
 10
191.73462348869498
 20
1065.6937874500122
 10
189.8128531571699
 20
1066.782456895676
 10
187.8399792043627
 20
1067.775518190555
 10
185.82075445642903
 20
1068.670578963008
 10
183.7600434026499
 20
1069.465482933236
 10
181.6628104764508
 20
1070.1583151079494
 10
179.53410809564687
 20
1070.7474063937545
 10
177.37906449072577
 20
1071.2313376181453
 10
175.20287135049128
 20
1071.6089429484152
 10
173.01077131483024
 20
1071.8793127002489
 10
170.8080453447338
 20
1072.0417955292328
 10
168.6
 20
1072.096
 10
166.39195465526618
 20
1072.0417955292328
 10
164.18922868516975
 20
1071.8793127002489
 10
161.9971286495087
 20
1071.6089429484152
 10
159.82093550927422
 20
1071.2313376181453
 10
157.66589190435312
 20
1070.7474063937545
 10
155.5371895235492
 20
1070.1583151079494
 10
153.4399565973501
 20
1069.465482933236
 10
151.37924554357096
 20
1068.670578963008
 10
149.3600207956373
 20
1067.775518190555
 10
147.3871468428301
 20
1066.782456895676
 10
145.465376511305
 20
1065.6937874500122
 10
143.5993395141179
 20
1064.5121325536145
 10
141.7935312978405
 20
1063.240338916629
 10
140.05230221263594
 20
1061.8814704013232
 10
138.37984703188417
 20
1060.438800640973
 10
136.78019484660535
 20
1058.9158051533946
 10
135.25719935902686
 20
1057.3161529681158
 10
133.8145295986768
 20
1055.643697787364
 10
132.45566108337098
 20
1053.9024687021595
 10
131.18386744638545
 20
1052.096660485882
 10
130.00221254998775
 20
1050.230623488695
 10
128.91354310432402
 20
1048.30885315717
 10
127.92048180944505
 20
1046.3359792043627
 10
127.0254210369921
 20
1044.316754456429
 10
126.23051706676407
 20
1042.25604340265
 10
125.5376848920506
 20
1040.1588104764508
 10
124.94859360624551
 20
1038.030108095647
 10
124.46466238185462
 20
1035.875064490726
 10
124.08705705158485
 20
1033.6988713504913
 10
123.81668729975114
 20
1031.5067713148303
 10
123.65420447076724
 20
1029.3040453447338
 10
123.6
 20
1027.096
 10
123.65420447076724
 20
1024.8879546552662
 10
123.81668729975112
 20
1022.6852286851698
 10
124.08705705158485
 20
1020.4931286495088
 10
124.46466238185462
 20
1018.3169355092742
 10
124.94859360624551
 20
1016.1618919043532
 10
125.53768489205059
 20
1014.0331895235493
 10
126.23051706676407
 20
1011.9359565973501
 10
127.02542103699209
 20
1009.8752455435709
 10
127.92048180944504
 20
1007.8560207956373
 10
128.91354310432402
 20
1005.8831468428301
 10
130.00221254998775
 20
1003.961376511305
 10
131.18386744638545
 20
1002.0953395141179
 10
132.45566108337096
 20
1000.2895312978405
 10
133.8145295986768
 20
998.5483022126359
 10
135.25719935902683
 20
996.8758470318842
 10
136.78019484660535
 20
995.2761948466053
 10
138.37984703188414
 20
993.7531993590269
 10
140.05230221263594
 20
992.3105295986768
 10
141.7935312978405
 20
990.9516610833709
 10
143.5993395141179
 20
989.6798674463855
 10
145.465376511305
 20
988.4982125499878
 10
147.38714684283008
 20
987.409543104324
 10
149.3600207956373
 20
986.416481809445
 10
151.37924554357093
 20
985.5214210369921
 10
153.4399565973501
 20
984.726517066764
 10
155.5371895235492
 20
984.0336848920506
 10
157.66589190435312
 20
983.4445936062456
 10
159.8209355092742
 20
982.9606623818546
 10
161.99712864950868
 20
982.5830570515849
 10
164.18922868516978
 20
982.3126872997511
 10
166.39195465526618
 20
982.1502044707672
 10
168.6
 20
982.096
 10
170.80804534473378
 20
982.1502044707672
 10
173.0107713148302
 20
982.3126872997511
 10
175.20287135049128
 20
982.5830570515849
 10
177.37906449072577
 20
982.9606623818546
 10
179.53410809564687
 20
983.4445936062456
 10
181.66281047645077
 20
984.0336848920506
 10
183.76004340264987
 20
984.726517066764
 10
185.82075445642903
 20
985.5214210369921
 10
187.8399792043627
 20
986.416481809445
 10
189.81285315716988
 20
987.409543104324
 10
191.73462348869498
 20
988.4982125499878
 10
193.6006604858821
 20
989.6798674463855
 10
195.4064687021595
 20
990.9516610833709
 10
197.14769778736405
 20
992.3105295986768
 10
198.82015296811582
 20
993.7531993590269
 10
200.41980515339463
 20
995.2761948466053
 10
201.94280064097313
 20
996.8758470318842
 10
203.38547040132315
 20
998.5483022126359
 10
204.74433891662903
 20
1000.2895312978405
 10
206.01613255361454
 20
1002.0953395141179
 10
207.19778745001224
 20
1003.961376511305
 10
208.28645689567597
 20
1005.8831468428301
 10
209.27951819055494
 20
1007.8560207956373
 10
210.1745789630079
 20
1009.8752455435709
 10
210.96948293323592
 20
1011.9359565973501
 10
211.66231510794938
 20
1014.0331895235491
 10
212.25140639375448
 20
1016.1618919043531
 10
212.73533761814537
 20
1018.3169355092742
 10
213.11294294841514
 20
1020.4931286495087
 10
213.38331270024887
 20
1022.6852286851698
 10
213.54579552923275
 20
1024.8879546552662
  0
CIRCLE
  5
5E
330
17
100
AcDbEntity
  8
CUT_HOLES
100
AcDbCircle
 10
193.34873734152916
 20
1051.8447373415293
 30
0.0
 40
3.3
  0
CIRCLE
  5
5F
330
17
100
AcDbEntity
  8
CUT_HOLES
100
AcDbCircle
 10
143.85126265847083
 20
1051.8447373415293
 30
0.0
 40
3.3
  0
CIRCLE
  5
60
330
17
100
AcDbEntity
  8
CUT_HOLES
100
AcDbCircle
 10
143.85126265847083
 20
1002.3472626584709
 30
0.0
 40
3.3
  0
CIRCLE
  5
61
330
17
100
AcDbEntity
  8
CUT_HOLES
100
AcDbCircle
 10
193.34873734152916
 20
1002.3472626584709
 30
0.0
 40
3.3
  0
CIRCLE
  5
62
330
17
100
AcDbEntity
  8
CUT_HOLES
100
AcDbCircle
 10
168.6
 20
1027.096
 30
0.0
 40
24.25
  0
TEXT
  5
63
330
17
100
AcDbEntity
  8
PART_MARK_NO_CUT
100
AcDbText
 10
125.6
 20
984.096
 30
0.0
 40
3.0
  1
H_WT_WASHOUT_FLANGE #1
100
AcDbText
  0
LWPOLYLINE
  5
64
330
17
100
AcDbEntity
  8
CUT_OUTER
100
AcDbPolyline
 90
4
 70
1
 10
123.6
 20
102.27200000000005
 10
1023.6
 20
102.27200000000005
 10
1023.6
 20
108.76200000000006
 10
123.6
 20
108.76200000000006
  0
TEXT
  5
65
330
17
100
AcDbEntity
  8
PART_MARK_NO_CUT
100
AcDbText
 10
125.6
 20
104.27200000000005
 30
0.0
 40
3.0
  1
WP_CRADLE_WEB_3_1 #1
100
AcDbText
  0
LWPOLYLINE
  5
66
330
17
100
AcDbEntity
  8
CUT_OUTER
100
AcDbPolyline
 90
4
 70
1
 10
123.6
 20
114.76200000000006
 10
1023.6
 20
114.76200000000006
 10
1023.6
 20
120.80400000000009
 10
123.6
 20
120.80400000000009
  0
TEXT
  5
67
330
17
100
AcDbEntity
  8
PART_MARK_NO_CUT
100
AcDbText
 10
125.6
 20
116.76200000000006
 30
0.0
 40
3.0
  1
WP_CRADLE_WEB_3_2 #1
100
AcDbText
  0
LWPOLYLINE
  5
68
330
17
100
AcDbEntity
  8
CUT_OUTER
100
AcDbPolyline
 90
4
 70
1
 10
123.6
 20
1078.096
 10
174.39999999999998
 20
1078.096
 10
174.39999999999998
 20
1152.896
 10
123.6
 20
1152.896
  0
TEXT
  5
69
330
17
100
AcDbEntity
  8
PART_MARK_NO_CUT
100
AcDbText
 10
125.6
 20
1080.096
 30
0.0
 40
3.0
  1
MOD_XM_END_PLATE #1
100
AcDbText
  0
LWPOLYLINE
  5
6A
330
17
100
AcDbEntity
  8
CUT_OUTER
100
AcDbPolyline
 90
4
 70
1
 10
123.6
 20
1158.896
 10
174.39999999999998
 20
1158.896
 10
174.39999999999998
 20
1233.696
 10
123.6
 20
1233.696
  0
TEXT
  5
6B
330
17
100
AcDbEntity
  8
PART_MARK_NO_CUT
100
AcDbText
 10
125.6
 20
1160.896
 30
0.0
 40
3.0
  1
MOD_XM_END_PLATE #2
100
AcDbText
  0
LWPOLYLINE
  5
6C
330
17
100
AcDbEntity
  8
CUT_OUTER
100
AcDbPolyline
 90
4
 70
1
 10
123.6
 20
1239.696
 10
174.39999999999998
 20
1239.696
 10
174.39999999999998
 20
1314.4959999999999
 10
123.6
 20
1314.4959999999999
  0
TEXT
  5
6D
330
17
100
AcDbEntity
  8
PART_MARK_NO_CUT
100
AcDbText
 10
125.6
 20
1241.696
 30
0.0
 40
3.0
  1
MOD_XM_END_PLATE #3
100
AcDbText
  0
LWPOLYLINE
  5
6E
330
17
100
AcDbEntity
  8
CUT_OUTER
100
AcDbPolyline
 90
4
 70
1
 10
123.6
 20
1320.4959999999999
 10
174.39999999999998
 20
1320.4959999999999
 10
174.39999999999998
 20
1395.2959999999998
 10
123.6
 20
1395.2959999999998
  0
TEXT
  5
6F
330
17
100
AcDbEntity
  8
PART_MARK_NO_CUT
100
AcDbText
 10
125.6
 20
1322.4959999999999
 30
0.0
 40
3.0
  1
MOD_XM_END_PLATE #4
100
AcDbText
  0
LWPOLYLINE
  5
70
330
17
100
AcDbEntity
  8
CUT_OUTER
100
AcDbPolyline
 90
4
 70
1
 10
198.39999999999995
 20
1401.2959999999998
 10
198.39999999999995
 20
1452.0959999999998
 10
123.6
 20
1452.0959999999998
 10
123.6
 20
1401.2959999999998
  0
TEXT
  5
71
330
17
100
AcDbEntity
  8
PART_MARK_NO_CUT
100
AcDbText
 10
125.6
 20
1403.2959999999998
 30
0.0
 40
3.0
  1
MOD_XM_END_PLATE #5
100
AcDbText
  0
LWPOLYLINE
  5
72
330
17
100
AcDbEntity
  8
CUT_OUTER
100
AcDbPolyline
 90
4
 70
1
 10
180.39999999999998
 20
1078.096
 10
231.2
 20
1078.096
 10
231.2
 20
1152.896
 10
180.39999999999998
 20
1152.896
  0
TEXT
  5
73
330
17
100
AcDbEntity
  8
PART_MARK_NO_CUT
100
AcDbText
 10
182.39999999999998
 20
1080.096
 30
0.0
 40
3.0
  1
MOD_XM_END_PLATE #6
100
AcDbText
  0
LWPOLYLINE
  5
74
330
17
100
AcDbEntity
  8
CUT_OUTER
100
AcDbPolyline
 90
4
 70
1
 10
219.6
 20
982.096
 10
270.4
 20
982.096
 10
270.4
 20
1056.896
 10
219.6
 20
1056.896
  0
TEXT
  5
75
330
17
100
AcDbEntity
  8
PART_MARK_NO_CUT
100
AcDbText
 10
221.6
 20
984.096
 30
0.0
 40
3.0
  1
MOD_XM_END_PLATE #7
100
AcDbText
  0
LWPOLYLINE
  5
76
330
17
100
AcDbEntity
  8
CUT_OUTER
100
AcDbPolyline
 90
4
 70
1
 10
180.39999999999998
 20
1158.896
 10
231.2
 20
1158.896
 10
231.2
 20
1233.696
 10
180.39999999999998
 20
1233.696
  0
TEXT
  5
77
330
17
100
AcDbEntity
  8
PART_MARK_NO_CUT
100
AcDbText
 10
182.39999999999998
 20
1160.896
 30
0.0
 40
3.0
  1
MOD_XM_END_PLATE #8
100
AcDbText
  0
LWPOLYLINE
  5
78
330
17
100
AcDbEntity
  8
CUT_OUTER
100
AcDbPolyline
 90
4
 70
1
 10
180.39999999999998
 20
1239.696
 10
225.39999999999998
 20
1239.696
 10
225.39999999999998
 20
1299.696
 10
180.39999999999998
 20
1299.696
  0
CIRCLE
  5
79
330
17
100
AcDbEntity
  8
CUT_HOLES
100
AcDbCircle
 10
212.79999999999998
 20
1259.696
 30
0.0
 40
5.5
  0
CIRCLE
  5
7A
330
17
100
AcDbEntity
  8
CUT_HOLES
100
AcDbCircle
 10
212.79999999999998
 20
1286.696
 30
0.0
 40
5.025
  0
MTEXT
  5
7C
330
17
100
AcDbEntity
  8
MACHINING_NOTES
100
AcDbMText
 10
245.39999999999998
 20
1299.696
 30
0.0
 40
3.0
 41
150.0
 71
1
  1
Face top after welding; the six pad tops define the bed seating plane.\PØ11 clearance hole concentric with the ledger sleeve below.\PFront pads: ream the pin hole/slot to the measured Ø10 pin plus 0.05 mm.
  0
TEXT
  5
7D
330
17
100
AcDbEntity
  8
PART_MARK_NO_CUT
100
AcDbText
 10
182.39999999999998
 20
1241.696
 30
0.0
 40
3.0
  1
J_PAD_FRONT_ROUND #1
100
AcDbText
  0
LWPOLYLINE
  5
7E
330
17
100
AcDbEntity
  8
CUT_OUTER
100
AcDbPolyline
 90
4
 70
1
 10
180.39999999999998
 20
1305.696
 10
225.39999999999998
 20
1305.696
 10
225.39999999999998
 20
1365.696
 10
180.39999999999998
 20
1365.696
  0
CIRCLE
  5
7F
330
17
100
AcDbEntity
  8
CUT_HOLES
100
AcDbCircle
 10
212.79999999999998
 20
1335.696
 30
0.0
 40
5.5
  0
MTEXT
  5
80
330
17
100
AcDbEntity
  8
MACHINING_NOTES
100
AcDbMText
 10
245.39999999999998
 20
1365.696
 30
0.0
 40
3.0
 41
150.0
 71
1
  1
Face top after welding; the six pad tops define the bed seating plane.\PØ11 clearance hole concentric with the ledger sleeve below.\PFront pads: ream the pin hole/slot to the measured Ø10 pin plus 0.05 mm.
  0
TEXT
  5
81
330
17
100
AcDbEntity
  8
PART_MARK_NO_CUT
100
AcDbText
 10
182.39999999999998
 20
1307.696
 30
0.0
 40
3.0
  1
J_PAD_PLAIN #1
100
AcDbText
  0
LWPOLYLINE
  5
82
330
17
100
AcDbEntity
  8
CUT_OUTER
100
AcDbPolyline
 90
4
 70
1
 10
204.39999999999995
 20
1371.696
 10
249.39999999999995
 20
1371.696
 10
249.39999999999995
 20
1431.696
 10
204.39999999999995
 20
1431.696
  0
CIRCLE
  5
83
330
17
100
AcDbEntity
  8
CUT_HOLES
100
AcDbCircle
 10
236.79999999999995
 20
1401.696
 30
0.0
 40
5.5
  0
MTEXT
  5
84
330
17
100
AcDbEntity
  8
MACHINING_NOTES
100
AcDbMText
 10
269.4
 20
1431.696
 30
0.0
 40
3.0
 41
150.0
 71
1
  1
Face top after welding; the six pad tops define the bed seating plane.\PØ11 clearance hole concentric with the ledger sleeve below.\PFront pads: ream the pin hole/slot to the measured Ø10 pin plus 0.05 mm.
  0
TEXT
  5
85
330
17
100
AcDbEntity
  8
PART_MARK_NO_CUT
100
AcDbText
 10
206.39999999999995
 20
1373.696
 30
0.0
 40
3.0
  1
J_PAD_PLAIN #2
100
AcDbText
  0
LWPOLYLINE
  5
86
330
17
100
AcDbEntity
  8
CUT_OUTER
100
AcDbPolyline
 90
4
 70
1
 10
231.39999999999998
 20
1239.696
 10
276.4
 20
1239.696
 10
276.4
 20
1299.696
 10
231.39999999999998
 20
1299.696
  0
CIRCLE
  5
87
330
17
100
AcDbEntity
  8
CUT_HOLES
100
AcDbCircle
 10
263.79999999999995
 20
1269.696
 30
0.0
 40
5.5
  0
MTEXT
  5
88
330
17
100
AcDbEntity
  8
MACHINING_NOTES
100
AcDbMText
 10
296.4
 20
1299.696
 30
0.0
 40
3.0
 41
150.0
 71
1
  1
Face top after welding; the six pad tops define the bed seating plane.\PØ11 clearance hole concentric with the ledger sleeve below.\PFront pads: ream the pin hole/slot to the measured Ø10 pin plus 0.05 mm.
  0
TEXT
  5
89
330
17
100
AcDbEntity
  8
PART_MARK_NO_CUT
100
AcDbText
 10
233.39999999999998
 20
1241.696
 30
0.0
 40
3.0
  1
J_PAD_PLAIN #3
100
AcDbText
  0
LWPOLYLINE
  5
8A
330
17
100
AcDbEntity
  8
CUT_OUTER
100
AcDbPolyline
 90
4
 70
1
 10
231.39999999999998
 20
1305.696
 10
276.4
 20
1305.696
 10
276.4
 20
1365.696
 10
231.39999999999998
 20
1365.696
  0
CIRCLE
  5
8B
330
17
100
AcDbEntity
  8
CUT_HOLES
100
AcDbCircle
 10
263.79999999999995
 20
1335.696
 30
0.0
 40
5.5
  0
MTEXT
  5
8C
330
17
100
AcDbEntity
  8
MACHINING_NOTES
100
AcDbMText
 10
296.4
 20
1365.696
 30
0.0
 40
3.0
 41
150.0
 71
1
  1
Face top after welding; the six pad tops define the bed seating plane.\PØ11 clearance hole concentric with the ledger sleeve below.\PFront pads: ream the pin hole/slot to the measured Ø10 pin plus 0.05 mm.
  0
TEXT
  5
8D
330
17
100
AcDbEntity
  8
PART_MARK_NO_CUT
100
AcDbText
 10
233.39999999999998
 20
1307.696
 30
0.0
 40
3.0
  1
J_PAD_PLAIN #4
100
AcDbText
  0
LWPOLYLINE
  5
8E
330
17
100
AcDbEntity
  8
CUT_OUTER
100
AcDbPolyline
 90
4
 70
1
 10
255.39999999999995
 20
1371.696
 10
300.4
 20
1371.696
 10
300.4
 20
1431.696
 10
255.39999999999995
 20
1431.696
  0
CIRCLE
  5
8F
330
17
100
AcDbEntity
  8
CUT_HOLES
100
AcDbCircle
 10
267.9999999999999
 20
1391.696
 30
0.0
 40
5.5
  0
LWPOLYLINE
  5
90
330
17
100
AcDbEntity
  8
CUT_HOLES
100
AcDbPolyline
 90
4
 70
1
 10
265.02499999999986
 20
1413.6709999999998
 10
270.97499999999985
 20
1413.6709999999998
 42
1.0
 10
270.97499999999985
 20
1423.721
 10
265.02499999999986
 20
1423.721
 42
1.0
  0
MTEXT
  5
91
330
17
100
AcDbEntity
  8
MACHINING_NOTES
100
AcDbMText
 10
320.4
 20
1431.696
 30
0.0
 40
3.0
 41
150.0
 71
1
  1
Face top after welding; the six pad tops define the bed seating plane.\PØ11 clearance hole concentric with the ledger sleeve below.\PFront pads: ream the pin hole/slot to the measured Ø10 pin plus 0.05 mm.
  0
TEXT
  5
92
330
17
100
AcDbEntity
  8
PART_MARK_NO_CUT
100
AcDbText
 10
257.4
 20
1373.696
 30
0.0
 40
3.0
  1
J_PAD_FRONT_SLOT #1
100
AcDbText
  0
LWPOLYLINE
  5
93
330
17
100
AcDbEntity
  8
CUT_OUTER
100
AcDbPolyline
 90
3
 70
1
 10
237.2
 20
1062.896
 10
282.2
 20
1062.896
 10
237.2
 20
1122.896
  0
TEXT
  5
94
330
17
100
AcDbEntity
  8
PART_MARK_NO_CUT
100
AcDbText
 10
239.2
 20
1064.896
 30
0.0
 40
3.0
  1
J_REFILL_GUSSET #1
100
AcDbText
  0
LWPOLYLINE
  5
95
330
17
100
AcDbEntity
  8
CUT_OUTER
100
AcDbPolyline
 90
4
 70
1
 10
276.4
 20
982.096
 10
327.2
 20
982.096
 10
327.2
 20
1032.896
 10
276.4
 20
1032.896
  0
CIRCLE
  5
96
330
17
100
AcDbEntity
  8
CUT_HOLES
100
AcDbCircle
 10
301.79999999999995
 20
1007.496
 30
0.0
 40
8.5
  0
TEXT
  5
97
330
17
100
AcDbEntity
  8
PART_MARK_NO_CUT
100
AcDbText
 10
278.4
 20
984.096
 30
0.0
 40
3.0
  1
FT_LEG_CLOSURE #1
100
AcDbText
  0
LWPOLYLINE
  5
98
330
17
100
AcDbEntity
  8
CUT_OUTER
100
AcDbPolyline
 90
4
 70
1
 10
237.2
 20
1128.896
 10
288.0
 20
1128.896
 10
288.0
 20
1179.696
 10
237.2
 20
1179.696
  0
CIRCLE
  5
99
330
17
100
AcDbEntity
  8
CUT_HOLES
100
AcDbCircle
 10
262.59999999999997
 20
1154.296
 30
0.0
 40
8.5
  0
TEXT
  5
9A
330
17
100
AcDbEntity
  8
PART_MARK_NO_CUT
100
AcDbText
 10
239.2
 20
1130.896
 30
0.0
 40
3.0
  1
FT_LEG_CLOSURE #2
100
AcDbText
  0
LWPOLYLINE
  5
9B
330
17
100
AcDbEntity
  8
CUT_OUTER
100
AcDbPolyline
 90
4
 70
1
 10
288.2
 20
1038.896
 10
339.0
 20
1038.896
 10
339.0
 20
1089.696
 10
288.2
 20
1089.696
  0
CIRCLE
  5
9C
330
17
100
AcDbEntity
  8
CUT_HOLES
100
AcDbCircle
 10
313.59999999999997
 20
1064.296
 30
0.0
 40
8.5
  0
TEXT
  5
9D
330
17
100
AcDbEntity
  8
PART_MARK_NO_CUT
100
AcDbText
 10
290.2
 20
1040.896
 30
0.0
 40
3.0
  1
FT_LEG_CLOSURE #3
100
AcDbText
  0
LWPOLYLINE
  5
9E
330
17
100
AcDbEntity
  8
CUT_OUTER
100
AcDbPolyline
 90
4
 70
1
 10
333.2
 20
982.096
 10
384.0
 20
982.096
 10
384.0
 20
1032.896
 10
333.2
 20
1032.896
  0
CIRCLE
  5
9F
330
17
100
AcDbEntity
  8
CUT_HOLES
100
AcDbCircle
 10
358.59999999999997
 20
1007.496
 30
0.0
 40
8.5
  0
TEXT
  5
A0
330
17
100
AcDbEntity
  8
PART_MARK_NO_CUT
100
AcDbText
 10
335.2
 20
984.096
 30
0.0
 40
3.0
  1
FT_LEG_CLOSURE #4
100
AcDbText
  0
LWPOLYLINE
  5
A1
330
17
100
AcDbEntity
  8
CUT_OUTER
100
AcDbPolyline
 90
4
 70
1
 10
282.4
 20
1185.696
 10
333.2
 20
1185.696
 10
333.2
 20
1236.4959999999999
 10
282.4
 20
1236.4959999999999
  0
CIRCLE
  5
A2
330
17
100
AcDbEntity
  8
CUT_HOLES
100
AcDbCircle
 10
307.79999999999995
 20
1211.096
 30
0.0
 40
8.5
  0
TEXT
  5
A3
330
17
100
AcDbEntity
  8
PART_MARK_NO_CUT
100
AcDbText
 10
284.4
 20
1187.696
 30
0.0
 40
3.0
  1
FT_LEG_CLOSURE #5
100
AcDbText
  0
LWPOLYLINE
  5
A4
330
17
100
AcDbEntity
  8
CUT_OUTER
100
AcDbPolyline
 90
4
 70
1
 10
294.0
 20
1095.696
 10
344.8
 20
1095.696
 10
344.8
 20
1146.4959999999999
 10
294.0
 20
1146.4959999999999
  0
CIRCLE
  5
A5
330
17
100
AcDbEntity
  8
CUT_HOLES
100
AcDbCircle
 10
319.4
 20
1121.096
 30
0.0
 40
8.5
  0
TEXT
  5
A6
330
17
100
AcDbEntity
  8
PART_MARK_NO_CUT
100
AcDbText
 10
296.0
 20
1097.696
 30
0.0
 40
3.0
  1
FT_LEG_CLOSURE #6
100
AcDbText
  0
LWPOLYLINE
  5
A7
330
17
100
AcDbEntity
  8
CUT_OUTER
100
AcDbPolyline
 90
4
 70
1
 10
324.0
 20
1152.4959999999999
 10
324.0
 20
1178.4959999999999
 10
294.0
 20
1178.4959999999999
 10
294.0
 20
1152.4959999999999
  0
CIRCLE
  5
A8
330
17
100
AcDbEntity
  8
CUT_HOLES
100
AcDbCircle
 10
309.0
 20
1171.4959999999999
 30
0.0
 40
3.3
  0
TEXT
  5
A9
330
17
100
AcDbEntity
  8
PART_MARK_NO_CUT
100
AcDbText
 10
296.0
 20
1154.4959999999999
 30
0.0
 40
3.0
  1
WP_HOLD_TAB_1 #1
100
AcDbText
  0
LWPOLYLINE
  5
AA
330
17
100
AcDbEntity
  8
CUT_OUTER
100
AcDbPolyline
 90
4
 70
1
 10
360.0
 20
1152.4959999999999
 10
360.0
 20
1178.4959999999999
 10
330.0
 20
1178.4959999999999
 10
330.0
 20
1152.4959999999999
  0
CIRCLE
  5
AB
330
17
100
AcDbEntity
  8
CUT_HOLES
100
AcDbCircle
 10
345.0
 20
1159.4959999999999
 30
0.0
 40
3.3
  0
TEXT
  5
AC
330
17
100
AcDbEntity
  8
PART_MARK_NO_CUT
100
AcDbText
 10
332.0
 20
1154.4959999999999
 30
0.0
 40
3.0
  1
WP_HOLD_TAB_2 #1
100
AcDbText
  0
LWPOLYLINE
  5
AD
330
17
100
AcDbEntity
  8
CUT_OUTER
100
AcDbPolyline
 90
4
 70
1
 10
1081.3919999999998
 20
46.0
 10
1081.3919999999998
 20
72.0
 10
1051.3919999999998
 20
72.0
 10
1051.3919999999998
 20
46.0
  0
CIRCLE
  5
AE
330
17
100
AcDbEntity
  8
CUT_HOLES
100
AcDbCircle
 10
1066.3919999999998
 20
65.0
 30
0.0
 40
3.3
  0
TEXT
  5
AF
330
17
100
AcDbEntity
  8
PART_MARK_NO_CUT
100
AcDbText
 10
1053.3919999999998
 20
48.0
 30
0.0
 40
3.0
  1
WP_HOLD_TAB_3 #1
100
AcDbText
  0
LWPOLYLINE
  5
B0
330
17
100
AcDbEntity
  8
CUT_OUTER
100
AcDbPolyline
 90
4
 70
1
 10
1081.3919999999998
 20
78.0
 10
1081.3919999999998
 20
104.0
 10
1051.3919999999998
 20
104.0
 10
1051.3919999999998
 20
78.0
  0
CIRCLE
  5
B1
330
17
100
AcDbEntity
  8
CUT_HOLES
100
AcDbCircle
 10
1066.3919999999998
 20
85.0
 30
0.0
 40
3.3
  0
TEXT
  5
B2
330
17
100
AcDbEntity
  8
PART_MARK_NO_CUT
100
AcDbText
 10
1053.3919999999998
 20
80.0
 30
0.0
 40
3.0
  1
WP_HOLD_TAB_4 #1
100
AcDbText
  0
ENDSEC
  0
SECTION
  2
OBJECTS
  0
DICTIONARY
  5
A
330
0
100
AcDbDictionary
281
1
  3
ACAD_COLOR
350
B
  3
ACAD_GROUP
350
C
  3
ACAD_LAYOUT
350
D
  3
ACAD_MATERIAL
350
E
  3
ACAD_MLEADERSTYLE
350
F
  3
ACAD_MLINESTYLE
350
10
  3
ACAD_PLOTSETTINGS
350
11
  3
ACAD_PLOTSTYLENAME
350
12
  3
ACAD_SCALELIST
350
14
  3
ACAD_TABLESTYLE
350
15
  3
ACAD_VISUALSTYLE
350
16
  3
EZDXF_META
350
2D
  0
DICTIONARY
  5
B
330
A
100
AcDbDictionary
281
1
  0
DICTIONARY
  5
C
330
A
100
AcDbDictionary
281
1
  0
DICTIONARY
  5
D
330
A
100
AcDbDictionary
281
1
  3
Model
350
1A
  3
Layout1
350
1E
  0
DICTIONARY
  5
E
330
A
100
AcDbDictionary
281
1
  3
ByBlock
350
1F
  3
ByLayer
350
20
  3
Global
350
21
  0
DICTIONARY
  5
F
330
A
100
AcDbDictionary
281
1
  3
Standard
350
2C
  0
DICTIONARY
  5
10
330
A
100
AcDbDictionary
281
1
  3
Standard
350
22
  0
DICTIONARY
  5
11
330
A
100
AcDbDictionary
281
1
  0
ACDBDICTIONARYWDFLT
  5
12
330
A
100
AcDbDictionary
281
1
  3
Normal
350
13
100
AcDbDictionaryWithDefault
340
13
  0
ACDBPLACEHOLDER
  5
13
330
12
  0
DICTIONARY
  5
14
330
A
100
AcDbDictionary
281
1
  0
DICTIONARY
  5
15
330
A
100
AcDbDictionary
281
1
  0
DICTIONARY
  5
16
330
A
100
AcDbDictionary
281
1
  0
LAYOUT
  5
1A
330
D
100
AcDbPlotSettings
  1

  4
A3
  6

 40
7.5
 41
20.0
 42
7.5
 43
20.0
 44
420.0
 45
297.0
 46
0.0
 47
0.0
 48
0.0
 49
0.0
140
0.0
141
0.0
142
1.0
143
1.0
 70
1024
 72
1
 73
0
 74
5
  7

 75
16
 76
0
 77
2
 78
300
147
1.0
148
0.0
149
0.0
100
AcDbLayout
  1
Model
 70
1
 71
0
 10
0.0
 20
0.0
 11
420.0
 21
297.0
 12
0.0
 22
0.0
 32
0.0
 14
1e+20
 24
1e+20
 34
1e+20
 15
-1e+20
 25
-1e+20
 35
-1e+20
146
0.0
 13
0.0
 23
0.0
 33
0.0
 16
1.0
 26
0.0
 36
0.0
 17
0.0
 27
1.0
 37
0.0
 76
1
330
17
  0
LAYOUT
  5
1E
330
D
100
AcDbPlotSettings
  1

  4
A3
  6

 40
7.5
 41
20.0
 42
7.5
 43
20.0
 44
420.0
 45
297.0
 46
0.0
 47
0.0
 48
0.0
 49
0.0
140
0.0
141
0.0
142
1.0
143
1.0
 70
0
 72
1
 73
0
 74
5
  7

 75
16
 76
0
 77
2
 78
300
147
1.0
148
0.0
149
0.0
100
AcDbLayout
  1
Layout1
 70
1
 71
1
 10
0.0
 20
0.0
 11
420.0
 21
297.0
 12
0.0
 22
0.0
 32
0.0
 14
1e+20
 24
1e+20
 34
1e+20
 15
-1e+20
 25
-1e+20
 35
-1e+20
146
0.0
 13
0.0
 23
0.0
 33
0.0
 16
1.0
 26
0.0
 36
0.0
 17
0.0
 27
1.0
 37
0.0
 76
1
330
1B
  0
MATERIAL
  5
1F
102
{ACAD_REACTORS
330
E
102
}
330
E
100
AcDbMaterial
  1
ByBlock
  2

 70
0
 40
1.0
 71
1
 41
1.0
 91
-1023410177
 42
1.0
 72
1
  3

 73
1
 74
1
 75
1
 44
0.5
 73
0
 45
1.0
 46
1.0
 77
1
  4

 78
1
 79
1
170
1
 48
1.0
171
1
  6

172
1
173
1
174
1
140
1.0
141
1.0
175
1
  7

176
1
177
1
178
1
143
1.0
179
1
  8

270
1
271
1
272
1
145
1.0
146
1.0
273
1
  9

274
1
275
1
276
1
 42
1.0
 72
1
  3

 73
1
 74
1
 75
1
 94
63
  0
MATERIAL
  5
20
102
{ACAD_REACTORS
330
E
102
}
330
E
100
AcDbMaterial
  1
ByLayer
  2

 70
0
 40
1.0
 71
1
 41
1.0
 91
-1023410177
 42
1.0
 72
1
  3

 73
1
 74
1
 75
1
 44
0.5
 73
0
 45
1.0
 46
1.0
 77
1
  4

 78
1
 79
1
170
1
 48
1.0
171
1
  6

172
1
173
1
174
1
140
1.0
141
1.0
175
1
  7

176
1
177
1
178
1
143
1.0
179
1
  8

270
1
271
1
272
1
145
1.0
146
1.0
273
1
  9

274
1
275
1
276
1
 42
1.0
 72
1
  3

 73
1
 74
1
 75
1
 94
63
  0
MATERIAL
  5
21
102
{ACAD_REACTORS
330
E
102
}
330
E
100
AcDbMaterial
  1
Global
  2

 70
0
 40
1.0
 71
1
 41
1.0
 91
-1023410177
 42
1.0
 72
1
  3

 73
1
 74
1
 75
1
 44
0.5
 73
0
 45
1.0
 46
1.0
 77
1
  4

 78
1
 79
1
170
1
 48
1.0
171
1
  6

172
1
173
1
174
1
140
1.0
141
1.0
175
1
  7

176
1
177
1
178
1
143
1.0
179
1
  8

270
1
271
1
272
1
145
1.0
146
1.0
273
1
  9

274
1
275
1
276
1
 42
1.0
 72
1
  3

 73
1
 74
1
 75
1
 94
63
  0
MLINESTYLE
  5
22
102
{ACAD_REACTORS
330
10
102
}
330
10
100
AcDbMlineStyle
  2
Standard
 70
0
  3

 62
256
 51
90.0
 52
90.0
 71
2
 49
0.5
 62
256
  6
BYLAYER
 49
-0.5
 62
256
  6
BYLAYER
  0
MLEADERSTYLE
  5
2C
102
{ACAD_REACTORS
330
F
102
}
330
F
100
AcDbMLeaderStyle
179
2
170
2
171
1
172
0
 90
2
 40
0.0
 41
0.0
173
1
 91
-1056964608
 92
-2
290
1
 42
2.0
291
1
 43
8.0
  3
Standard
 44
4.0
300

342
29
174
1
175
1
176
0
178
1
 93
-1056964608
 45
4.0
292
0
297
0
 46
4.0
 94
-1056964608
 47
1.0
 49
1.0
140
1.0
294
1
141
0.0
177
0
142
1.0
295
0
296
0
143
3.75
271
0
272
9
273
9
  0
DICTIONARY
  5
2D
330
A
100
AcDbDictionary
280
1
281
1
  3
CREATED_BY_EZDXF
350
2E
  3
WRITTEN_BY_EZDXF
350
B5
  0
DICTIONARYVAR
  5
2E
330
2D
100
DictionaryVariables
280
0
  1
1.4.4 @ 2026-09-26T20:59:21.874812+00:00
  0
DICTIONARYVAR
  5
B5
330
2D
100
DictionaryVariables
280
0
  1
1.4.4 @ 2026-09-26T20:59:22.256275+00:00
  0
ENDSEC
  0
EOF
