  0
SECTION
  2
HEADER
  9
$ACADVER
  1
AC1024
  9
$ACADMAINTVER
 70
6
  9
$DWGCODEPAGE
  3
ANSI_1252
  9
$LASTSAVEDBY
  1
ezdxf
  9
$INSBASE
 10
0.0
 20
0.0
 30
0.0
  9
$EXTMIN
 10
1e+20
 20
1e+20
 30
1e+20
  9
$EXTMAX
 10
-1e+20
 20
-1e+20
 30
-1e+20
  9
$LIMMIN
 10
0.0
 20
0.0
  9
$LIMMAX
 10
420.0
 20
297.0
  9
$ORTHOMODE
 70
0
  9
$REGENMODE
 70
1
  9
$FILLMODE
 70
1
  9
$QTEXTMODE
 70
0
  9
$MIRRTEXT
 70
1
  9
$LTSCALE
 40
1.0
  9
$ATTMODE
 70
1
  9
$TEXTSIZE
 40
2.5
  9
$TRACEWID
 40
1.0
  9
$TEXTSTYLE
  7
Standard
  9
$CLAYER
  8
0
  9
$CELTYPE
  6
ByLayer
  9
$CECOLOR
 62
256
  9
$CELTSCALE
 40
1.0
  9
$DISPSILH
 70
0
  9
$DIMSCALE
 40
1.0
  9
$DIMASZ
 40
2.5
  9
$DIMEXO
 40
0.625
  9
$DIMDLI
 40
3.75
  9
$DIMRND
 40
0.0
  9
$DIMDLE
 40
0.0
  9
$DIMEXE
 40
1.25
  9
$DIMTP
 40
0.0
  9
$DIMTM
 40
0.0
  9
$DIMTXT
 40
2.5
  9
$DIMCEN
 40
2.5
  9
$DIMTSZ
 40
0.0
  9
$DIMTOL
 70
0
  9
$DIMLIM
 70
0
  9
$DIMTIH
 70
0
  9
$DIMTOH
 70
0
  9
$DIMSE1
 70
0
  9
$DIMSE2
 70
0
  9
$DIMTAD
 70
1
  9
$DIMZIN
 70
8
  9
$DIMBLK
  1

  9
$DIMASO
 70
1
  9
$DIMSHO
 70
1
  9
$DIMPOST
  1

  9
$DIMAPOST
  1

  9
$DIMALT
 70
0
  9
$DIMALTD
 70
3
  9
$DIMALTF
 40
0.03937007874
  9
$DIMLFAC
 40
1.0
  9
$DIMTOFL
 70
1
  9
$DIMTVP
 40
0.0
  9
$DIMTIX
 70
0
  9
$DIMSOXD
 70
0
  9
$DIMSAH
 70
0
  9
$DIMBLK1
  1

  9
$DIMBLK2
  1

  9
$DIMSTYLE
  2
ISO-25
  9
$DIMCLRD
 70
0
  9
$DIMCLRE
 70
0
  9
$DIMCLRT
 70
0
  9
$DIMTFAC
 40
1.0
  9
$DIMGAP
 40
0.625
  9
$DIMJUST
 70
0
  9
$DIMSD1
 70
0
  9
$DIMSD2
 70
0
  9
$DIMTOLJ
 70
0
  9
$DIMTZIN
 70
8
  9
$DIMALTZ
 70
0
  9
$DIMALTTZ
 70
0
  9
$DIMUPT
 70
0
  9
$DIMDEC
 70
2
  9
$DIMTDEC
 70
2
  9
$DIMALTU
 70
2
  9
$DIMALTTD
 70
3
  9
$DIMTXSTY
  7
Standard
  9
$DIMAUNIT
 70
0
  9
$DIMADEC
 70
0
  9
$DIMALTRND
 40
0.0
  9
$DIMAZIN
 70
0
  9
$DIMDSEP
 70
44
  9
$DIMATFIT
 70
3
  9
$DIMFRAC
 70
0
  9
$DIMLDRBLK
  1

  9
$DIMLUNIT
 70
2
  9
$DIMLWD
 70
-2
  9
$DIMLWE
 70
-2
  9
$DIMTMOVE
 70
0
  9
$DIMFXL
 40
1.0
  9
$DIMFXLON
 70
0
  9
$DIMJOGANG
 40
0.785398163397
  9
$DIMTFILL
 70
0
  9
$DIMTFILLCLR
 70
0
  9
$DIMARCSYM
 70
0
  9
$DIMLTYPE
  6

  9
$DIMLTEX1
  6

  9
$DIMLTEX2
  6

  9
$DIMTXTDIRECTION
 70
0
  9
$LUNITS
 70
2
  9
$LUPREC
 70
4
  9
$SKETCHINC
 40
1.0
  9
$FILLETRAD
 40
10.0
  9
$AUNITS
 70
0
  9
$AUPREC
 70
2
  9
$MENU
  1
.
  9
$ELEVATION
 40
0.0
  9
$PELEVATION
 40
0.0
  9
$THICKNESS
 40
0.0
  9
$LIMCHECK
 70
0
  9
$CHAMFERA
 40
0.0
  9
$CHAMFERB
 40
0.0
  9
$CHAMFERC
 40
0.0
  9
$CHAMFERD
 40
0.0
  9
$SKPOLY
 70
0
  9
$TDCREATE
 40
2461310.6015046295
  9
$TDUCREATE
 40
2458532.153996898
  9
$TDUPDATE
 40
2461310.6015046295
  9
$TDUUPDATE
 40
2458532.1544311
  9
$TDINDWG
 40
0.0
  9
$TDUSRTIMER
 40
0.0
  9
$USRTIMER
 70
1
  9
$ANGBASE
 50
0.0
  9
$ANGDIR
 70
0
  9
$PDMODE
 70
0
  9
$PDSIZE
 40
0.0
  9
$PLINEWID
 40
0.0
  9
$SPLFRAME
 70
0
  9
$SPLINETYPE
 70
6
  9
$SPLINESEGS
 70
8
  9
$HANDSEED
  5
157
  9
$SURFTAB1
 70
6
  9
$SURFTAB2
 70
6
  9
$SURFTYPE
 70
6
  9
$SURFU
 70
6
  9
$SURFV
 70
6
  9
$UCSBASE
  2

  9
$UCSNAME
  2

  9
$UCSORG
 10
0.0
 20
0.0
 30
0.0
  9
$UCSXDIR
 10
1.0
 20
0.0
 30
0.0
  9
$UCSYDIR
 10
0.0
 20
1.0
 30
0.0
  9
$UCSORTHOREF
  2

  9
$UCSORTHOVIEW
 70
0
  9
$UCSORGTOP
 10
0.0
 20
0.0
 30
0.0
  9
$UCSORGBOTTOM
 10
0.0
 20
0.0
 30
0.0
  9
$UCSORGLEFT
 10
0.0
 20
0.0
 30
0.0
  9
$UCSORGRIGHT
 10
0.0
 20
0.0
 30
0.0
  9
$UCSORGFRONT
 10
0.0
 20
0.0
 30
0.0
  9
$UCSORGBACK
 10
0.0
 20
0.0
 30
0.0
  9
$PUCSBASE
  2

  9
$PUCSNAME
  2

  9
$PUCSORG
 10
0.0
 20
0.0
 30
0.0
  9
$PUCSXDIR
 10
1.0
 20
0.0
 30
0.0
  9
$PUCSYDIR
 10
0.0
 20
1.0
 30
0.0
  9
$PUCSORTHOREF
  2

  9
$PUCSORTHOVIEW
 70
0
  9
$PUCSORGTOP
 10
0.0
 20
0.0
 30
0.0
  9
$PUCSORGBOTTOM
 10
0.0
 20
0.0
 30
0.0
  9
$PUCSORGLEFT
 10
0.0
 20
0.0
 30
0.0
  9
$PUCSORGRIGHT
 10
0.0
 20
0.0
 30
0.0
  9
$PUCSORGFRONT
 10
0.0
 20
0.0
 30
0.0
  9
$PUCSORGBACK
 10
0.0
 20
0.0
 30
0.0
  9
$USERI1
 70
0
  9
$USERI2
 70
0
  9
$USERI3
 70
0
  9
$USERI4
 70
0
  9
$USERI5
 70
0
  9
$USERR1
 40
0.0
  9
$USERR2
 40
0.0
  9
$USERR3
 40
0.0
  9
$USERR4
 40
0.0
  9
$USERR5
 40
0.0
  9
$WORLDVIEW
 70
1
  9
$SHADEDGE
 70
3
  9
$SHADEDIF
 70
70
  9
$TILEMODE
 70
1
  9
$MAXACTVP
 70
64
  9
$PINSBASE
 10
0.0
 20
0.0
 30
0.0
  9
$PLIMCHECK
 70
0
  9
$PEXTMIN
 10
1e+20
 20
1e+20
 30
1e+20
  9
$PEXTMAX
 10
-1e+20
 20
-1e+20
 30
-1e+20
  9
$PLIMMIN
 10
0.0
 20
0.0
  9
$PLIMMAX
 10
420.0
 20
297.0
  9
$UNITMODE
 70
0
  9
$VISRETAIN
 70
1
  9
$PLINEGEN
 70
0
  9
$PSLTSCALE
 70
1
  9
$TREEDEPTH
 70
3020
  9
$CMLSTYLE
  2
Standard
  9
$CMLJUST
 70
0
  9
$CMLSCALE
 40
20.0
  9
$PROXYGRAPHICS
 70
1
  9
$MEASUREMENT
 70
1
  9
$CELWEIGHT
370
-1
  9
$ENDCAPS
280
0
  9
$JOINSTYLE
280
0
  9
$LWDISPLAY
290
0
  9
$INSUNITS
 70
4
  9
$HYPERLINKBASE
  1

  9
$STYLESHEET
  1

  9
$XEDIT
290
1
  9
$CEPSNTYPE
380
0
  9
$PSTYLEMODE
290
1
  9
$FINGERPRINTGUID
  2
{7DFFBDBC-9BA5-4610-9F24-E32ED918A7C6}
  9
$VERSIONGUID
  2
{0092378F-BBAE-484A-8A1F-1E44A2404836}
  9
$EXTNAMES
290
1
  9
$PSVPSCALE
 40
0.0
  9
$OLESTARTUP
290
0
  9
$SORTENTS
280
127
  9
$INDEXCTL
280
0
  9
$HIDETEXT
280
1
  9
$XCLIPFRAME
280
1
  9
$HALOGAP
280
0
  9
$OBSCOLOR
 70
257
  9
$OBSLTYPE
280
0
  9
$INTERSECTIONDISPLAY
280
0
  9
$INTERSECTIONCOLOR
 70
257
  9
$DIMASSOC
280
2
  9
$PROJECTNAME
  1

  9
$CAMERADISPLAY
290
0
  9
$LENSLENGTH
 40
50.0
  9
$CAMERAHEIGHT
 40
0.0
  9
$STEPSPERSEC
 40
24.0
  9
$STEPSIZE
 40
100.0
  9
$3DDWFPREC
 40
2.0
  9
$PSOLWIDTH
 40
0.005
  9
$PSOLHEIGHT
 40
0.08
  9
$LOFTANG1
 40
1.570796326795
  9
$LOFTANG2
 40
1.570796326795
  9
$LOFTMAG1
 40
0.0
  9
$LOFTMAG2
 40
0.0
  9
$LOFTPARAM
 70
7
  9
$LOFTNORMALS
280
1
  9
$LATITUDE
 40
37.795
  9
$LONGITUDE
 40
-122.394
  9
$NORTHDIRECTION
 40
0.0
  9
$TIMEZONE
 70
-8000
  9
$LIGHTGLYPHDISPLAY
280
1
  9
$TILEMODELIGHTSYNCH
280
1
  9
$CMATERIAL
347
20
  9
$SOLIDHIST
280
0
  9
$SHOWHIST
280
1
  9
$DWFFRAME
280
2
  9
$DGNFRAME
280
2
  9
$REALWORLDSCALE
290
1
  9
$INTERFERECOLOR
 62
256
  9
$CSHADOW
280
0
  9
$SHADOWPLANELOCATION
 40
0.0
  0
ENDSEC
  0
SECTION
  2
CLASSES
  0
CLASS
  1
ACDBDICTIONARYWDFLT
  2
AcDbDictionaryWithDefault
  3
ObjectDBX Classes
 90
0
 91
0
280
0
281
0
  0
CLASS
  1
SUN
  2
AcDbSun
  3
SCENEOE
 90
1153
 91
0
280
0
281
0
  0
CLASS
  1
VISUALSTYLE
  2
AcDbVisualStyle
  3
ObjectDBX Classes
 90
4095
 91
0
280
0
281
0
  0
CLASS
  1
MATERIAL
  2
AcDbMaterial
  3
ObjectDBX Classes
 90
1153
 91
0
280
0
281
0
  0
CLASS
  1
SCALE
  2
AcDbScale
  3
ObjectDBX Classes
 90
1153
 91
0
280
0
281
0
  0
CLASS
  1
TABLESTYLE
  2
AcDbTableStyle
  3
ObjectDBX Classes
 90
4095
 91
0
280
0
281
0
  0
CLASS
  1
MLEADERSTYLE
  2
AcDbMLeaderStyle
  3
ACDB_MLEADERSTYLE_CLASS
 90
4095
 91
0
280
0
281
0
  0
CLASS
  1
DICTIONARYVAR
  2
AcDbDictionaryVar
  3
ObjectDBX Classes
 90
0
 91
0
280
0
281
0
  0
CLASS
  1
CELLSTYLEMAP
  2
AcDbCellStyleMap
  3
ObjectDBX Classes
 90
1152
 91
0
280
0
281
0
  0
CLASS
  1
MENTALRAYRENDERSETTINGS
  2
AcDbMentalRayRenderSettings
  3
SCENEOE
 90
1024
 91
0
280
0
281
0
  0
CLASS
  1
ACDBDETAILVIEWSTYLE
  2
AcDbDetailViewStyle
  3
ObjectDBX Classes
 90
1025
 91
0
280
0
281
0
  0
CLASS
  1
ACDBSECTIONVIEWSTYLE
  2
AcDbSectionViewStyle
  3
ObjectDBX Classes
 90
1025
 91
0
280
0
281
0
  0
CLASS
  1
RASTERVARIABLES
  2
AcDbRasterVariables
  3
ISM
 90
0
 91
0
280
0
281
0
  0
CLASS
  1
LAYOUT
  2
AcDbLayout
  3
ObjectDBX Classes
 90
0
 91
0
280
0
281
0
  0
CLASS
  1
ACDBPLACEHOLDER
  2
AcDbPlaceHolder
  3
ObjectDBX Classes
 90
0
 91
0
280
0
281
0
  0
ENDSEC
  0
SECTION
  2
TABLES
  0
TABLE
  2
VPORT
  5
8
330
0
100
AcDbSymbolTable
 70
1
  0
VPORT
  5
23
330
8
100
AcDbSymbolTableRecord
100
AcDbViewportTableRecord
  2
*Active
 70
0
 10
0.0
 20
0.0
 11
1.0
 21
1.0
 12
0.0
 22
0.0
 13
0.0
 23
0.0
 14
0.5
 24
0.5
 15
0.5
 25
0.5
 16
0.0
 26
0.0
 36
1.0
 17
0.0
 27
0.0
 37
0.0
 40
1000.0
 41
1.34
 42
50.0
 43
0.0
 44
0.0
 50
0.0
 51
0.0
 71
0
 72
1000
 73
1
 74
3
 75
0
 76
0
 77
0
 78
0
281
0
 65
0
146
0.0
  0
ENDTAB
  0
TABLE
  2
LTYPE
  5
2
330
0
100
AcDbSymbolTable
 70
3
  0
LTYPE
  5
24
330
2
100
AcDbSymbolTableRecord
100
AcDbLinetypeTableRecord
  2
ByBlock
 70
0
  3

 72
65
 73
0
 40
0.0
  0
LTYPE
  5
25
330
2
100
AcDbSymbolTableRecord
100
AcDbLinetypeTableRecord
  2
ByLayer
 70
0
  3

 72
65
 73
0
 40
0.0
  0
LTYPE
  5
26
330
2
100
AcDbSymbolTableRecord
100
AcDbLinetypeTableRecord
  2
Continuous
 70
0
  3

 72
65
 73
0
 40
0.0
  0
ENDTAB
  0
TABLE
  2
LAYER
  5
1
330
0
100
AcDbSymbolTable
 70
8
  0
LAYER
  5
27
330
1
100
AcDbSymbolTableRecord
100
AcDbLayerTableRecord
  2
0
 70
0
 62
7
  6
Continuous
370
-3
390
13
347
21
  0
LAYER
  5
28
330
1
100
AcDbSymbolTableRecord
100
AcDbLayerTableRecord
  2
Defpoints
 70
0
 62
7
  6
Continuous
290
0
370
-3
390
13
347
21
  0
LAYER
  5
2F
330
1
100
AcDbSymbolTableRecord
100
AcDbLayerTableRecord
  2
CUT_OUTER
 70
0
 62
7
  6
Continuous
370
-3
390
13
347
21
  0
LAYER
  5
30
330
1
100
AcDbSymbolTableRecord
100
AcDbLayerTableRecord
  2
CUT_HOLES
 70
0
 62
7
  6
Continuous
370
-3
390
13
347
21
  0
LAYER
  5
31
330
1
100
AcDbSymbolTableRecord
100
AcDbLayerTableRecord
  2
CUT_INNER
 70
0
 62
7
  6
Continuous
370
-3
390
13
347
21
  0
LAYER
  5
32
330
1
100
AcDbSymbolTableRecord
100
AcDbLayerTableRecord
  2
PART_MARK_NO_CUT
 70
0
 62
7
  6
Continuous
370
-3
390
13
347
21
  0
LAYER
  5
33
330
1
100
AcDbSymbolTableRecord
100
AcDbLayerTableRecord
  2
STOCK_NO_CUT
 70
0
 62
7
  6
Continuous
370
-3
390
13
347
21
  0
LAYER
  5
3E
330
1
100
AcDbSymbolTableRecord
100
AcDbLayerTableRecord
  2
MACHINING_NOTES
 70
0
 62
7
  6
Continuous
370
-3
390
13
347
21
  0
ENDTAB
  0
TABLE
  2
STYLE
  5
5
330
0
100
AcDbSymbolTable
 70
1
  0
STYLE
  5
29
330
5
100
AcDbSymbolTableRecord
100
AcDbTextStyleTableRecord
  2
Standard
 70
0
 40
0.0
 41
1.0
 50
0.0
 71
0
 42
2.5
  3
txt
  4

  0
ENDTAB
  0
TABLE
  2
VIEW
  5
7
330
0
100
AcDbSymbolTable
 70
0
  0
ENDTAB
  0
TABLE
  2
UCS
  5
6
330
0
100
AcDbSymbolTable
 70
0
  0
ENDTAB
  0
TABLE
  2
APPID
  5
3
330
0
100
AcDbSymbolTable
 70
3
  0
APPID
  5
2A
330
3
100
AcDbSymbolTableRecord
100
AcDbRegAppTableRecord
  2
ACAD
 70
0
  0
APPID
  5
154
330
3
100
AcDbSymbolTableRecord
100
AcDbRegAppTableRecord
  2
HATCHBACKGROUNDCOLOR
 70
0
  0
APPID
  5
155
330
3
100
AcDbSymbolTableRecord
100
AcDbRegAppTableRecord
  2
EZDXF
 70
0
  0
ENDTAB
  0
TABLE
  2
DIMSTYLE
  5
4
330
0
100
AcDbSymbolTable
 70
1
100
AcDbDimStyleTable
  0
DIMSTYLE
105
2B
330
4
100
AcDbSymbolTableRecord
100
AcDbDimStyleTableRecord
  2
Standard
 70
0
 40
1.0
 41
2.5
 42
0.625
 43
3.75
 44
1.25
 45
0.0
 46
0.0
 47
0.0
 48
0.0
 49
2.5
140
2.5
141
2.5
142
0.0
143
0.03937007874
144
1.0
145
0.0
146
1.0
147
0.625
148
0.0
 69
0
 70
0
 71
0
 72
0
 73
0
 74
0
 75
0
 76
0
 77
1
 78
8
 79
3
170
0
171
3
172
1
173
0
174
0
175
0
176
0
177
0
178
0
179
2
271
2
272
2
273
2
274
3
275
0
276
0
277
2
278
44
279
0
280
0
281
0
282
0
283
0
284
8
285
0
286
0
288
0
289
3
290
0
371
-2
372
-2
  0
ENDTAB
  0
TABLE
  2
BLOCK_RECORD
  5
9
330
0
100
AcDbSymbolTable
 70
2
  0
BLOCK_RECORD
  5
17
330
9
100
AcDbSymbolTableRecord
100
AcDbBlockTableRecord
  2
*Model_Space
340
1A
 70
0
280
1
281
0
  0
BLOCK_RECORD
  5
1B
330
9
100
AcDbSymbolTableRecord
100
AcDbBlockTableRecord
  2
*Paper_Space
340
1E
 70
0
280
1
281
0
  0
ENDTAB
  0
ENDSEC
  0
SECTION
  2
BLOCKS
  0
BLOCK
  5
18
330
17
100
AcDbEntity
  8
0
100
AcDbBlockBegin
  2
*Model_Space
 70
0
 10
0.0
 20
0.0
 30
0.0
  3
*Model_Space
  1

  0
ENDBLK
  5
19
330
17
100
AcDbEntity
  8
0
100
AcDbBlockEnd
  0
BLOCK
  5
1C
330
1B
100
AcDbEntity
  8
0
100
AcDbBlockBegin
  2
*Paper_Space
 70
0
 10
0.0
 20
0.0
 30
0.0
  3
*Paper_Space
  1

  0
ENDBLK
  5
1D
330
1B
100
AcDbEntity
  8
0
100
AcDbBlockEnd
  0
ENDSEC
  0
SECTION
  2
ENTITIES
  0
LWPOLYLINE
  5
34
330
17
100
AcDbEntity
  8
STOCK_NO_CUT
100
AcDbPolyline
 90
4
 70
1
 10
0.0
 20
0.0
 10
1219.2
 20
0.0
 10
1219.2
 20
2438.4
 10
0.0
 20
2438.4
  0
LWPOLYLINE
  5
35
330
17
100
AcDbEntity
  8
CUT_OUTER
100
AcDbPolyline
 90
4
 70
1
 10
10.0
 20
10.0
 10
60.8
 20
10.0
 10
60.8
 20
1460.0
 10
10.0
 20
1460.0
  0
TEXT
  5
36
330
17
100
AcDbEntity
  8
PART_MARK_NO_CUT
100
AcDbText
 10
12.0
 20
12.0
 30
0.0
 40
3.0
  1
CAP_SPACER #1
100
AcDbText
  0
LWPOLYLINE
  5
37
330
17
100
AcDbEntity
  8
CUT_OUTER
100
AcDbPolyline
 90
4
 70
1
 10
66.8
 20
10.0
 10
117.6
 20
10.0
 10
117.6
 20
1460.0
 10
66.8
 20
1460.0
  0
TEXT
  5
38
330
17
100
AcDbEntity
  8
PART_MARK_NO_CUT
100
AcDbText
 10
68.8
 20
12.0
 30
0.0
 40
3.0
  1
CAP_SPACER #2
100
AcDbText
  0
LWPOLYLINE
  5
39
330
17
100
AcDbEntity
  8
CUT_OUTER
100
AcDbPolyline
 90
80
 70
1
 10
10.0
 20
1477.2000000000003
 10
1130.0
 20
1466.0
 10
1130.0
 20
1522.40184760381
 10
1113.3239999999998
 20
1522.40184760381
 10
1113.3239999999998
 20
1502.40184760381
 10
1109.724
 20
1502.40184760381
 10
1109.724
 20
1522.40184760381
 10
1053.3239999999998
 20
1522.40184760381
 10
1053.3239999999998
 20
1502.40184760381
 10
1049.724
 20
1502.40184760381
 10
1049.724
 20
1522.40184760381
 10
993.3239999999998
 20
1522.40184760381
 10
993.3239999999998
 20
1502.40184760381
 10
989.7239999999999
 20
1502.40184760381
 10
989.7239999999999
 20
1522.40184760381
 10
933.324
 20
1522.40184760381
 10
933.324
 20
1502.40184760381
 10
929.724
 20
1502.40184760381
 10
929.724
 20
1522.40184760381
 10
873.324
 20
1522.40184760381
 10
873.324
 20
1502.40184760381
 10
869.724
 20
1502.40184760381
 10
869.724
 20
1522.40184760381
 10
813.324
 20
1522.40184760381
 10
813.324
 20
1502.40184760381
 10
809.724
 20
1502.40184760381
 10
809.724
 20
1522.40184760381
 10
753.324
 20
1522.40184760381
 10
753.324
 20
1502.40184760381
 10
749.724
 20
1502.40184760381
 10
749.724
 20
1522.40184760381
 10
693.324
 20
1522.40184760381
 10
693.324
 20
1502.40184760381
 10
689.724
 20
1502.40184760381
 10
689.724
 20
1522.40184760381
 10
633.324
 20
1522.40184760381
 10
633.324
 20
1502.40184760381
 10
629.724
 20
1502.40184760381
 10
629.724
 20
1522.40184760381
 10
573.324
 20
1522.40184760381
 10
573.324
 20
1502.40184760381
 10
569.724
 20
1502.40184760381
 10
569.724
 20
1522.40184760381
 10
513.3240000000001
 20
1522.40184760381
 10
513.3240000000001
 20
1502.40184760381
 10
509.724
 20
1502.40184760381
 10
509.724
 20
1522.40184760381
 10
453.324
 20
1522.40184760381
 10
453.324
 20
1502.40184760381
 10
449.724
 20
1502.40184760381
 10
449.724
 20
1522.40184760381
 10
393.324
 20
1522.40184760381
 10
393.324
 20
1502.40184760381
 10
389.724
 20
1502.40184760381
 10
389.724
 20
1522.40184760381
 10
333.324
 20
1522.40184760381
 10
333.324
 20
1502.40184760381
 10
329.724
 20
1502.40184760381
 10
329.724
 20
1522.40184760381
 10
273.324
 20
1522.40184760381
 10
273.324
 20
1502.40184760381
 10
269.724
 20
1502.40184760381
 10
269.724
 20
1522.40184760381
 10
213.324
 20
1522.40184760381
 10
213.324
 20
1502.40184760381
 10
209.724
 20
1502.40184760381
 10
209.724
 20
1522.40184760381
 10
153.324
 20
1522.40184760381
 10
153.324
 20
1502.40184760381
 10
149.724
 20
1502.40184760381
 10
149.724
 20
1522.40184760381
 10
93.324
 20
1522.40184760381
 10
93.324
 20
1502.40184760381
 10
89.724
 20
1502.40184760381
 10
89.724
 20
1522.40184760381
 10
33.324
 20
1522.40184760381
 10
33.324
 20
1502.40184760381
 10
29.724
 20
1502.40184760381
 10
29.724
 20
1522.40184760381
 10
10.0
 20
1522.40184760381
  0
TEXT
  5
3A
330
17
100
AcDbEntity
  8
PART_MARK_NO_CUT
100
AcDbText
 10
12.0
 20
1468.0
 30
0.0
 40
3.0
  1
WP_COMB #1
100
AcDbText
  0
LWPOLYLINE
  5
3B
330
17
100
AcDbEntity
  8
CUT_OUTER
100
AcDbPolyline
 90
80
 70
1
 10
1181.2018476038097
 20
10.000000000000002
 10
1192.40184760381
 20
1130.0
 10
1136.0
 20
1130.0
 10
1136.0
 20
1113.3239999999998
 10
1156.0
 20
1113.3239999999998
 10
1156.0
 20
1109.724
 10
1136.0
 20
1109.724
 10
1136.0
 20
1053.3239999999998
 10
1156.0
 20
1053.3239999999998
 10
1156.0
 20
1049.724
 10
1136.0
 20
1049.724
 10
1136.0
 20
993.3239999999998
 10
1156.0
 20
993.3239999999998
 10
1156.0
 20
989.7239999999999
 10
1136.0
 20
989.7239999999999
 10
1136.0
 20
933.324
 10
1156.0
 20
933.324
 10
1156.0
 20
929.724
 10
1136.0
 20
929.724
 10
1136.0
 20
873.324
 10
1156.0
 20
873.324
 10
1156.0
 20
869.724
 10
1136.0
 20
869.724
 10
1136.0
 20
813.324
 10
1156.0
 20
813.324
 10
1156.0
 20
809.724
 10
1136.0
 20
809.724
 10
1136.0
 20
753.324
 10
1156.0
 20
753.324
 10
1156.0
 20
749.724
 10
1136.0
 20
749.724
 10
1136.0
 20
693.324
 10
1156.0
 20
693.324
 10
1156.0
 20
689.724
 10
1136.0
 20
689.724
 10
1136.0
 20
633.324
 10
1156.0
 20
633.324
 10
1156.0
 20
629.724
 10
1136.0
 20
629.724
 10
1136.0
 20
573.324
 10
1156.0
 20
573.324
 10
1156.0
 20
569.724
 10
1136.0
 20
569.724
 10
1136.0
 20
513.3240000000001
 10
1156.0
 20
513.3240000000001
 10
1156.0
 20
509.724
 10
1136.0
 20
509.724
 10
1136.0
 20
453.324
 10
1156.0
 20
453.324
 10
1156.0
 20
449.724
 10
1136.0
 20
449.724
 10
1136.0
 20
393.324
 10
1156.0
 20
393.324
 10
1156.0
 20
389.724
 10
1136.0
 20
389.724
 10
1136.0
 20
333.324
 10
1156.0
 20
333.324
 10
1156.0
 20
329.724
 10
1136.0
 20
329.724
 10
1136.0
 20
273.324
 10
1156.0
 20
273.324
 10
1156.0
 20
269.724
 10
1136.0
 20
269.724
 10
1136.0
 20
213.324
 10
1156.0
 20
213.324
 10
1156.0
 20
209.724
 10
1136.0
 20
209.724
 10
1136.0
 20
153.324
 10
1156.0
 20
153.324
 10
1156.0
 20
149.724
 10
1136.0
 20
149.724
 10
1136.0
 20
93.324
 10
1156.0
 20
93.324
 10
1156.0
 20
89.724
 10
1136.0
 20
89.724
 10
1136.0
 20
33.324000000000005
 10
1156.0
 20
33.324000000000005
 10
1156.0
 20
29.724000000000004
 10
1136.0
 20
29.724000000000004
 10
1136.0
 20
10.000000000000004
  0
TEXT
  5
3C
330
17
100
AcDbEntity
  8
PART_MARK_NO_CUT
100
AcDbText
 10
1138.0
 20
12.0
 30
0.0
 40
3.0
  1
WP_COMB #2
100
AcDbText
  0
LWPOLYLINE
  5
3D
330
17
100
AcDbEntity
  8
CUT_OUTER
100
AcDbPolyline
 90
12
 70
1
 10
534.6
 20
1136.0
 10
534.6
 20
1283.0
 10
123.60000000000002
 20
1283.0
 10
123.60000000000002
 20
1136.0
 10
251.60000000000002
 20
1136.0
 10
251.60000000000002
 20
1146.0
 10
133.60000000000002
 20
1146.0
 10
133.60000000000002
 20
1273.0
 10
524.6
 20
1273.0
 10
524.6
 20
1146.0
 10
299.6
 20
1146.0
 10
299.6
 20
1136.0
  0
MTEXT
  5
3F
330
17
100
AcDbEntity
  8
MACHINING_NOTES
100
AcDbMText
 10
123.60000000000002
 20
1303.0
 30
0.0
 40
3.0
 41
150.0
 71
1
  1
Single full-depth opening in left border clears the hinge/index hardware. Two hinge-carrier bridges butt against right inner border at X137 local. No non-through hinge pockets.
 11
6.123233995736766e-17
 21
1.0
 31
0.0
  0
TEXT
  5
40
330
17
100
AcDbEntity
  8
PART_MARK_NO_CUT
100
AcDbText
 10
125.6
 20
1138.0
 30
0.0
 40
3.0
  1
H_SPOIL_GUARD_TOP #1
100
AcDbText
  0
LWPOLYLINE
  5
41
330
17
100
AcDbEntity
  8
CUT_OUTER
100
AcDbPolyline
 90
4
 70
1
 10
123.6
 20
10.0
 10
1089.696
 20
10.0
 10
1089.696
 20
40.0
 10
123.6
 20
40.0
  0
CIRCLE
  5
42
330
17
100
AcDbEntity
  8
CUT_HOLES
100
AcDbCircle
 10
151.648
 20
25.0
 30
0.0
 40
3.3
  0
CIRCLE
  5
43
330
17
100
AcDbEntity
  8
CUT_HOLES
100
AcDbCircle
 10
381.648
 20
25.0
 30
0.0
 40
3.3
  0
CIRCLE
  5
44
330
17
100
AcDbEntity
  8
CUT_HOLES
100
AcDbCircle
 10
606.648
 20
25.0
 30
0.0
 40
3.3
  0
CIRCLE
  5
45
330
17
100
AcDbEntity
  8
CUT_HOLES
100
AcDbCircle
 10
831.648
 20
25.0
 30
0.0
 40
3.3
  0
CIRCLE
  5
46
330
17
100
AcDbEntity
  8
CUT_HOLES
100
AcDbCircle
 10
1061.648
 20
25.0
 30
0.0
 40
3.3
  0
TEXT
  5
47
330
17
100
AcDbEntity
  8
PART_MARK_NO_CUT
100
AcDbText
 10
125.6
 20
12.0
 30
0.0
 40
3.0
  1
WT_RIM_FRONT #1
100
AcDbText
  0
LWPOLYLINE
  5
48
330
17
100
AcDbEntity
  8
CUT_OUTER
100
AcDbPolyline
 90
4
 70
1
 10
1125.696
 20
10.0
 10
1125.696
 20
976.096
 10
1095.696
 20
976.096
 10
1095.696
 20
10.000000000000002
  0
CIRCLE
  5
49
330
17
100
AcDbEntity
  8
CUT_HOLES
100
AcDbCircle
 10
1110.696
 20
38.048
 30
0.0
 40
3.3
  0
CIRCLE
  5
4A
330
17
100
AcDbEntity
  8
CUT_HOLES
100
AcDbCircle
 10
1110.696
 20
268.048
 30
0.0
 40
3.3
  0
CIRCLE
  5
4B
330
17
100
AcDbEntity
  8
CUT_HOLES
100
AcDbCircle
 10
1110.696
 20
493.048
 30
0.0
 40
3.3
  0
CIRCLE
  5
4C
330
17
100
AcDbEntity
  8
CUT_HOLES
100
AcDbCircle
 10
1110.696
 20
718.048
 30
0.0
 40
3.3
  0
CIRCLE
  5
4D
330
17
100
AcDbEntity
  8
CUT_HOLES
100
AcDbCircle
 10
1110.696
 20
948.048
 30
0.0
 40
3.3
  0
TEXT
  5
4E
330
17
100
AcDbEntity
  8
PART_MARK_NO_CUT
100
AcDbText
 10
1097.696
 20
12.0
 30
0.0
 40
3.0
  1
WT_RIM_REAR #1
100
AcDbText
  0
LWPOLYLINE
  5
4F
330
17
100
AcDbEntity
  8
CUT_OUTER
100
AcDbPolyline
 90
4
 70
1
 10
295.6
 20
982.096
 10
295.6
 20
1096.296
 10
123.60000000000002
 20
1096.296
 10
123.60000000000002
 20
982.096
  0
CIRCLE
  5
50
330
17
100
AcDbEntity
  8
CUT_HOLES
100
AcDbCircle
 10
270.20000000000005
 20
1024.096
 30
0.0
 40
3.3
  0
CIRCLE
  5
51
330
17
100
AcDbEntity
  8
CUT_HOLES
100
AcDbCircle
 10
180.20000000000002
 20
1024.096
 30
0.0
 40
3.3
  0
CIRCLE
  5
52
330
17
100
AcDbEntity
  8
CUT_HOLES
100
AcDbCircle
 10
275.6
 20
1062.096
 30
0.0
 40
3.3
  0
CIRCLE
  5
53
330
17
100
AcDbEntity
  8
CUT_HOLES
100
AcDbCircle
 10
175.60000000000002
 20
1062.096
 30
0.0
 40
3.3
  0
TEXT
  5
54
330
17
100
AcDbEntity
  8
PART_MARK_NO_CUT
100
AcDbText
 10
125.6
 20
984.096
 30
0.0
 40
3.0
  1
G_RACK_BEAM_SHELF_2 #1
100
AcDbText
  0
LWPOLYLINE
  5
55
330
17
100
AcDbEntity
  8
CUT_OUTER
100
AcDbPolyline
 90
4
 70
1
 10
1136.0
 20
1136.0
 10
1166.0
 20
1136.0
 10
1166.0
 20
1742.096
 10
1136.0
 20
1742.096
  0
CIRCLE
  5
56
330
17
100
AcDbEntity
  8
CUT_HOLES
100
AcDbCircle
 10
1151.0
 20
1324.048
 30
0.0
 40
3.3
  0
CIRCLE
  5
57
330
17
100
AcDbEntity
  8
CUT_HOLES
100
AcDbCircle
 10
1151.0
 20
1489.048
 30
0.0
 40
3.3
  0
CIRCLE
  5
58
330
17
100
AcDbEntity
  8
CUT_HOLES
100
AcDbCircle
 10
1151.0
 20
1654.048
 30
0.0
 40
3.3
  0
TEXT
  5
59
330
17
100
AcDbEntity
  8
PART_MARK_NO_CUT
100
AcDbText
 10
1138.0
 20
1138.0
 30
0.0
 40
3.0
  1
WT_RIM_LEFT #1
100
AcDbText
  0
LWPOLYLINE
  5
5A
330
17
100
AcDbEntity
  8
CUT_OUTER
100
AcDbPolyline
 90
4
 70
1
 10
1172.0
 20
1136.0
 10
1202.0
 20
1136.0
 10
1202.0
 20
1742.096
 10
1172.0
 20
1742.096
  0
CIRCLE
  5
5B
330
17
100
AcDbEntity
  8
CUT_HOLES
100
AcDbCircle
 10
1187.0
 20
1324.048
 30
0.0
 40
3.3
  0
CIRCLE
  5
5C
330
17
100
AcDbEntity
  8
CUT_HOLES
100
AcDbCircle
 10
1187.0
 20
1489.048
 30
0.0
 40
3.3
  0
CIRCLE
  5
5D
330
17
100
AcDbEntity
  8
CUT_HOLES
100
AcDbCircle
 10
1187.0
 20
1654.048
 30
0.0
 40
3.3
  0
TEXT
  5
5E
330
17
100
AcDbEntity
  8
PART_MARK_NO_CUT
100
AcDbText
 10
1174.0
 20
1138.0
 30
0.0
 40
3.0
  1
WT_RIM_RIGHT #1
100
AcDbText
  0
LWPOLYLINE
  5
5F
330
17
100
AcDbEntity
  8
CUT_OUTER
100
AcDbPolyline
 90
4
 70
1
 10
123.6
 20
1102.296
 10
1023.6
 20
1102.296
 10
1023.6
 20
1118.536
 10
123.6
 20
1118.536
  0
TEXT
  5
60
330
17
100
AcDbEntity
  8
PART_MARK_NO_CUT
100
AcDbText
 10
125.6
 20
1104.296
 30
0.0
 40
3.0
  1
WP_CRADLE_WEB_1_1 #1
100
AcDbText
  0
LWPOLYLINE
  5
61
330
17
100
AcDbEntity
  8
CUT_OUTER
100
AcDbPolyline
 90
4
 70
1
 10
139.39200000000002
 20
46.0
 10
139.39200000000008
 20
946.0
 10
123.60000000000005
 20
946.0
 10
123.6
 20
46.0
  0
TEXT
  5
62
330
17
100
AcDbEntity
  8
PART_MARK_NO_CUT
100
AcDbText
 10
125.6
 20
48.0
 30
0.0
 40
3.0
  1
WP_CRADLE_WEB_1_2 #1
100
AcDbText
  0
LWPOLYLINE
  5
63
330
17
100
AcDbEntity
  8
CUT_OUTER
100
AcDbPolyline
 90
4
 70
1
 10
1029.6
 20
982.096
 10
1108.8
 20
982.096
 10
1108.8
 20
1154.096
 10
1029.6
 20
1154.096
  0
CIRCLE
  5
64
330
17
100
AcDbEntity
  8
CUT_HOLES
100
AcDbCircle
 10
1101.8
 20
1007.496
 30
0.0
 40
3.3
  0
CIRCLE
  5
65
330
17
100
AcDbEntity
  8
CUT_HOLES
100
AcDbCircle
 10
1101.8
 20
1097.496
 30
0.0
 40
3.3
  0
CIRCLE
  5
66
330
17
100
AcDbEntity
  8
CUT_HOLES
100
AcDbCircle
 10
1063.8
 20
1002.096
 30
0.0
 40
3.3
  0
CIRCLE
  5
67
330
17
100
AcDbEntity
  8
CUT_HOLES
100
AcDbCircle
 10
1063.8
 20
1102.096
 30
0.0
 40
3.3
  0
TEXT
  5
68
330
17
100
AcDbEntity
  8
PART_MARK_NO_CUT
100
AcDbText
 10
1031.6
 20
984.096
 30
0.0
 40
3.0
  1
G_RACK_BEAM_SHELF_1 #1
100
AcDbText
  0
LWPOLYLINE
  5
69
330
17
100
AcDbEntity
  8
CUT_OUTER
100
AcDbPolyline
 90
4
 70
1
 10
123.6
 20
952.0
 10
1023.6
 20
952.0
 10
1023.6
 20
963.24
 10
123.6
 20
963.24
  0
TEXT
  5
6A
330
17
100
AcDbEntity
  8
PART_MARK_NO_CUT
100
AcDbText
 10
125.6
 20
954.0
 30
0.0
 40
3.0
  1
WP_CRADLE_WEB_2_1 #1
100
AcDbText
  0
LWPOLYLINE
  5
6B
330
17
100
AcDbEntity
  8
CUT_OUTER
100
AcDbPolyline
 90
4
 70
1
 10
1029.6
 20
46.0
 10
1069.6
 20
46.0
 10
1069.6
 20
291.0
 10
1029.6
 20
291.0
  0
CIRCLE
  5
6C
330
17
100
AcDbEntity
  8
CUT_HOLES
100
AcDbCircle
 10
1039.6
 20
156.0
 30
0.0
 40
3.3
  0
MTEXT
  5
6D
330
17
100
AcDbEntity
  8
MACHINING_NOTES
100
AcDbMText
 10
1089.6
 20
291.0
 30
0.0
 40
3.0
 41
150.0
 71
1
  1
Rev H hoop mounting hole: diameter12.6 x3 mm deep 90-degree countersink from BOTTOM face, not the top.
  0
TEXT
  5
6E
330
17
100
AcDbEntity
  8
PART_MARK_NO_CUT
100
AcDbText
 10
1031.6
 20
48.0
 30
0.0
 40
3.0
  1
H_RACK_PANEL_SEAT_1 #1
100
AcDbText
  0
LWPOLYLINE
  5
6F
330
17
100
AcDbEntity
  8
CUT_OUTER
100
AcDbPolyline
 90
4
 70
1
 10
1029.6
 20
297.0
 10
1069.6
 20
297.0
 10
1069.6
 20
542.0
 10
1029.6
 20
542.0
  0
CIRCLE
  5
70
330
17
100
AcDbEntity
  8
CUT_HOLES
100
AcDbCircle
 10
1059.6
 20
407.0
 30
0.0
 40
3.3
  0
MTEXT
  5
71
330
17
100
AcDbEntity
  8
MACHINING_NOTES
100
AcDbMText
 10
1089.6
 20
542.0
 30
0.0
 40
3.0
 41
150.0
 71
1
  1
Rev H hoop mounting hole: diameter12.6 x3 mm deep 90-degree countersink from BOTTOM face, not the top.
  0
TEXT
  5
72
330
17
100
AcDbEntity
  8
PART_MARK_NO_CUT
100
AcDbText
 10
1031.6
 20
299.0
 30
0.0
 40
3.0
  1
H_RACK_PANEL_SEAT_2 #1
100
AcDbText
  0
LWPOLYLINE
  5
73
330
17
100
AcDbEntity
  8
CUT_OUTER
100
AcDbPolyline
 90
4
 70
1
 10
156.18400000000005
 20
46.0
 10
156.1840000000001
 20
946.0
 10
145.39200000000008
 20
946.0
 10
145.39200000000002
 20
46.0
  0
TEXT
  5
74
330
17
100
AcDbEntity
  8
PART_MARK_NO_CUT
100
AcDbText
 10
147.39200000000002
 20
48.0
 30
0.0
 40
3.0
  1
WP_CRADLE_WEB_2_2 #1
100
AcDbText
  0
LWPOLYLINE
  5
75
330
17
100
AcDbEntity
  8
CUT_OUTER
100
AcDbPolyline
 90
128
 70
1
 10
391.6
 20
1014.24
 10
391.5457955292328
 20
1016.4480453447338
 10
391.3833127002489
 20
1018.6507713148302
 10
391.11294294841514
 20
1020.8428713504912
 10
390.7353376181454
 20
1023.0190644907258
 10
390.2514063937545
 20
1025.174108095647
 10
389.66231510794944
 20
1027.3028104764508
 10
388.96948293323595
 20
1029.40004340265
 10
388.17457896300795
 20
1031.460754456429
 10
387.279518190555
 20
1033.4799792043627
 10
386.286456895676
 20
1035.45285315717
 10
385.19778745001224
 20
1037.374623488695
 10
384.01613255361457
 20
1039.240660485882
 10
382.74433891662903
 20
1041.0464687021595
 10
381.3854704013232
 20
1042.787697787364
 10
379.9428006409732
 20
1044.4601529681158
 10
378.4198051533947
 20
1046.0598051533946
 10
376.82015296811585
 20
1047.5828006409731
 10
375.14769778736405
 20
1049.0254704013232
 10
373.40646870215954
 20
1050.384338916629
 10
371.60066048588214
 20
1051.6561325536145
 10
369.734623488695
 20
1052.8377874500122
 10
367.8128531571699
 20
1053.926456895676
 10
365.83997920436275
 20
1054.919518190555
 10
363.8207544564291
 20
1055.814578963008
 10
361.7600434026499
 20
1056.609482933236
 10
359.66281047645083
 20
1057.3023151079494
 10
357.5341080956469
 20
1057.8914063937546
 10
355.3790644907258
 20
1058.3753376181453
 10
353.2028713504913
 20
1058.7529429484152
 10
351.01077131483027
 20
1059.0233127002489
 10
348.80804534473384
 20
1059.1857955292328
 10
346.6
 20
1059.24
 10
344.3919546552662
 20
1059.1857955292328
 10
342.1892286851698
 20
1059.0233127002489
 10
339.99712864950874
 20
1058.7529429484152
 10
337.82093550927425
 20
1058.3753376181453
 10
335.66589190435315
 20
1057.8914063937546
 10
333.5371895235492
 20
1057.3023151079494
 10
331.43995659735015
 20
1056.609482933236
 10
329.37924554357096
 20
1055.814578963008
 10
327.36002079563735
 20
1054.919518190555
 10
325.38714684283013
 20
1053.926456895676
 10
323.46537651130507
 20
1052.8377874500122
 10
321.59933951411796
 20
1051.6561325536145
 10
319.7935312978405
 20
1050.384338916629
 10
318.052302212636
 20
1049.0254704013232
 10
316.3798470318842
 20
1047.5828006409731
 10
314.7801948466054
 20
1046.0598051533946
 10
313.25719935902686
 20
1044.4601529681158
 10
311.81452959867687
 20
1042.787697787364
 10
310.455661083371
 20
1041.0464687021595
 10
309.1838674463855
 20
1039.240660485882
 10
308.0022125499878
 20
1037.374623488695
 10
306.91354310432405
 20
1035.45285315717
 10
305.92048180944505
 20
1033.4799792043627
 10
305.0254210369921
 20
1031.460754456429
 10
304.2305170667641
 20
1029.40004340265
 10
303.5376848920506
 20
1027.3028104764508
 10
302.94859360624554
 20
1025.174108095647
 10
302.4646623818546
 20
1023.0190644907258
 10
302.0870570515849
 20
1020.8428713504912
 10
301.81668729975115
 20
1018.6507713148302
 10
301.65420447076724
 20
1016.4480453447338
 10
301.6
 20
1014.24
 10
301.65420447076724
 20
1012.0319546552662
 10
301.81668729975115
 20
1009.8292286851698
 10
302.0870570515849
 20
1007.6371286495088
 10
302.4646623818546
 20
1005.4609355092742
 10
302.94859360624554
 20
1003.3058919043532
 10
303.5376848920506
 20
1001.1771895235493
 10
304.2305170667641
 20
999.0799565973501
 10
305.0254210369921
 20
997.019245543571
 10
305.92048180944505
 20
995.0000207956373
 10
306.91354310432405
 20
993.0271468428301
 10
308.0022125499878
 20
991.105376511305
 10
309.1838674463855
 20
989.2393395141179
 10
310.455661083371
 20
987.4335312978405
 10
311.81452959867687
 20
985.6923022126359
 10
313.25719935902686
 20
984.0198470318842
 10
314.78019484660535
 20
982.4201948466053
 10
316.3798470318842
 20
980.8971993590269
 10
318.05230221263594
 20
979.4545295986768
 10
319.79353129784056
 20
978.0956610833709
 10
321.5993395141179
 20
976.8238674463855
 10
323.46537651130507
 20
975.6422125499878
 10
325.38714684283013
 20
974.553543104324
 10
327.3600207956373
 20
973.560481809445
 10
329.37924554357096
 20
972.6654210369921
 10
331.43995659735015
 20
971.870517066764
 10
333.5371895235492
 20
971.1776848920506
 10
335.66589190435315
 20
970.5885936062456
 10
337.82093550927425
 20
970.1046623818546
 10
339.99712864950874
 20
969.7270570515849
 10
342.1892286851698
 20
969.4566872997511
 10
344.3919546552662
 20
969.2942044707672
 10
346.6
 20
969.24
 10
348.80804534473384
 20
969.2942044707672
 10
351.0107713148302
 20
969.4566872997511
 10
353.2028713504913
 20
969.7270570515849
 10
355.3790644907258
 20
970.1046623818546
 10
357.5341080956469
 20
970.5885936062456
 10
359.66281047645083
 20
971.1776848920506
 10
361.7600434026499
 20
971.870517066764
 10
363.8207544564291
 20
972.6654210369921
 10
365.83997920436275
 20
973.560481809445
 10
367.8128531571699
 20
974.553543104324
 10
369.734623488695
 20
975.6422125499878
 10
371.6006604858821
 20
976.8238674463855
 10
373.4064687021595
 20
978.0956610833709
 10
375.14769778736405
 20
979.4545295986768
 10
376.82015296811585
 20
980.8971993590269
 10
378.41980515339463
 20
982.4201948466053
 10
379.9428006409732
 20
984.0198470318842
 10
381.3854704013232
 20
985.6923022126359
 10
382.74433891662903
 20
987.4335312978405
 10
384.01613255361457
 20
989.2393395141179
 10
385.19778745001224
 20
991.105376511305
 10
386.286456895676
 20
993.0271468428301
 10
387.27951819055494
 20
995.0000207956373
 10
388.1745789630079
 20
997.019245543571
 10
388.96948293323595
 20
999.0799565973501
 10
389.66231510794944
 20
1001.1771895235491
 10
390.2514063937545
 20
1003.3058919043531
 10
390.73533761814537
 20
1005.4609355092742
 10
391.11294294841514
 20
1007.6371286495087
 10
391.3833127002489
 20
1009.8292286851698
 10
391.5457955292328
 20
1012.0319546552662
  0
CIRCLE
  5
76
330
17
100
AcDbEntity
  8
CUT_HOLES
100
AcDbCircle
 10
371.34873734152916
 20
1038.9887373415293
 30
0.0
 40
3.3
  0
CIRCLE
  5
77
330
17
100
AcDbEntity
  8
CUT_HOLES
100
AcDbCircle
 10
321.8512626584709
 20
1038.9887373415293
 30
0.0
 40
3.3
  0
CIRCLE
  5
78
330
17
100
AcDbEntity
  8
CUT_HOLES
100
AcDbCircle
 10
321.85126265847083
 20
989.4912626584709
 30
0.0
 40
3.3
  0
CIRCLE
  5
79
330
17
100
AcDbEntity
  8
CUT_HOLES
100
AcDbCircle
 10
371.34873734152916
 20
989.4912626584709
 30
0.0
 40
3.3
  0
CIRCLE
  5
7A
330
17
100
AcDbEntity
  8
CUT_HOLES
100
AcDbCircle
 10
346.6
 20
1014.24
 30
0.0
 40
24.25
  0
TEXT
  5
7B
330
17
100
AcDbEntity
  8
PART_MARK_NO_CUT
100
AcDbText
 10
303.6
 20
971.24
 30
0.0
 40
3.0
  1
H_WT_WASHOUT_FLANGE #1
100
AcDbText
  0
LWPOLYLINE
  5
7C
330
17
100
AcDbEntity
  8
CUT_OUTER
100
AcDbPolyline
 90
4
 70
1
 10
172.6
 20
1289.0
 10
172.6
 20
1449.0
 10
123.6
 20
1449.0
 10
123.6
 20
1289.0
  0
TEXT
  5
7D
330
17
100
AcDbEntity
  8
PART_MARK_NO_CUT
100
AcDbText
 10
125.6
 20
1291.0
 30
0.0
 40
3.0
  1
G_RACK_SPOIL_DROP #1
100
AcDbText
  0
LWPOLYLINE
  5
7E
330
17
100
AcDbEntity
  8
CUT_OUTER
100
AcDbPolyline
 90
4
 70
1
 10
227.6
 20
1289.0
 10
227.6
 20
1449.0
 10
178.6
 20
1449.0
 10
178.6
 20
1289.0
  0
TEXT
  5
7F
330
17
100
AcDbEntity
  8
PART_MARK_NO_CUT
100
AcDbText
 10
180.6
 20
1291.0
 30
0.0
 40
3.0
  1
G_RACK_SPOIL_DROP #2
100
AcDbText
  0
LWPOLYLINE
  5
80
330
17
100
AcDbEntity
  8
CUT_OUTER
100
AcDbPolyline
 90
4
 70
1
 10
477.6
 20
969.24
 10
477.6
 20
1059.24
 10
397.6
 20
1059.24
 10
397.6
 20
969.24
  0
CIRCLE
  5
81
330
17
100
AcDbEntity
  8
CUT_HOLES
100
AcDbCircle
 10
447.6
 20
1032.24
 30
0.0
 40
3.4
  0
CIRCLE
  5
82
330
17
100
AcDbEntity
  8
CUT_HOLES
100
AcDbCircle
 10
422.6
 20
1032.24
 30
0.0
 40
3.015
  0
CIRCLE
  5
83
330
17
100
AcDbEntity
  8
CUT_HOLES
100
AcDbCircle
 10
457.6
 20
982.24
 30
0.0
 40
4.25
  0
CIRCLE
  5
84
330
17
100
AcDbEntity
  8
CUT_HOLES
100
AcDbCircle
 10
417.6
 20
982.24
 30
0.0
 40
4.25
  0
MTEXT
  5
85
330
17
100
AcDbEntity
  8
MACHINING_NOTES
100
AcDbMText
 10
397.6
 20
1079.24
 30
0.0
 40
3.0
 41
150.0
 71
1
  1
M8 station: drill 6.8 and tap through plate and welded boss AFTER welding.\PLocator bore/slot final width 6.03 +0.01/-0.00; match to measured nominal 6 mm pin. Seat coplanarity and repeatability must be measured.
 11
6.123233995736766e-17
 21
1.0
 31
0.0
  0
TEXT
  5
86
330
17
100
AcDbEntity
  8
PART_MARK_NO_CUT
100
AcDbText
 10
399.6
 20
971.24
 30
0.0
 40
3.0
  1
G_FRONT_SEAT_ROUND #1
100
AcDbText
  0
LWPOLYLINE
  5
87
330
17
100
AcDbEntity
  8
CUT_OUTER
100
AcDbPolyline
 90
4
 70
1
 10
563.6
 20
969.24
 10
563.6
 20
1059.24
 10
483.6
 20
1059.24
 10
483.6
 20
969.24
  0
CIRCLE
  5
88
330
17
100
AcDbEntity
  8
CUT_HOLES
100
AcDbCircle
 10
533.6
 20
996.24
 30
0.0
 40
3.4
  0
CIRCLE
  5
89
330
17
100
AcDbEntity
  8
CUT_HOLES
100
AcDbCircle
 10
543.6
 20
1046.24
 30
0.0
 40
4.25
  0
CIRCLE
  5
8A
330
17
100
AcDbEntity
  8
CUT_HOLES
100
AcDbCircle
 10
503.6
 20
1046.24
 30
0.0
 40
4.25
  0
LWPOLYLINE
  5
8B
330
17
100
AcDbEntity
  8
CUT_HOLES
100
AcDbPolyline
 90
4
 70
1
 10
511.615
 20
993.255
 10
511.615
 20
999.225
 42
1.0
 10
505.58500000000004
 20
999.225
 10
505.58500000000004
 20
993.255
 42
1.0
  0
MTEXT
  5
8C
330
17
100
AcDbEntity
  8
MACHINING_NOTES
100
AcDbMText
 10
483.6
 20
1079.24
 30
0.0
 40
3.0
 41
150.0
 71
1
  1
M8 station: drill 6.8 and tap through plate and welded boss AFTER welding.\PLocator bore/slot final width 6.03 +0.01/-0.00; match to measured nominal 6 mm pin. Seat coplanarity and repeatability must be measured.
 11
6.123233995736766e-17
 21
1.0
 31
0.0
  0
TEXT
  5
8D
330
17
100
AcDbEntity
  8
PART_MARK_NO_CUT
100
AcDbText
 10
485.6
 20
971.24
 30
0.0
 40
3.0
  1
G_FRONT_SEAT_RELIEVED #1
100
AcDbText
  0
LWPOLYLINE
  5
8E
330
17
100
AcDbEntity
  8
CUT_OUTER
100
AcDbPolyline
 90
4
 70
1
 10
649.6
 20
969.24
 10
649.6
 20
1059.24
 10
569.6
 20
1059.24
 10
569.6
 20
969.24
  0
CIRCLE
  5
8F
330
17
100
AcDbEntity
  8
CUT_HOLES
100
AcDbCircle
 10
619.6
 20
1032.24
 30
0.0
 40
3.4
  0
CIRCLE
  5
90
330
17
100
AcDbEntity
  8
CUT_HOLES
100
AcDbCircle
 10
594.6
 20
1032.24
 30
0.0
 40
3.015
  0
MTEXT
  5
91
330
17
100
AcDbEntity
  8
MACHINING_NOTES
100
AcDbMText
 10
569.6
 20
1079.24
 30
0.0
 40
3.0
 41
150.0
 71
1
  1
M8 station: drill 6.8 and tap through plate and welded boss AFTER welding.\PLocator bore/slot final width 6.03 +0.01/-0.00; match to measured nominal 6 mm pin. Seat coplanarity and repeatability must be measured.
 11
6.123233995736766e-17
 21
1.0
 31
0.0
  0
TEXT
  5
92
330
17
100
AcDbEntity
  8
PART_MARK_NO_CUT
100
AcDbText
 10
571.6
 20
971.24
 30
0.0
 40
3.0
  1
G_SEAT_ROUND #1
100
AcDbText
  0
LWPOLYLINE
  5
93
330
17
100
AcDbEntity
  8
CUT_OUTER
100
AcDbPolyline
 90
4
 70
1
 10
735.6
 20
969.24
 10
735.6
 20
1059.24
 10
655.6
 20
1059.24
 10
655.6
 20
969.24
  0
CIRCLE
  5
94
330
17
100
AcDbEntity
  8
CUT_HOLES
100
AcDbCircle
 10
705.6
 20
1032.24
 30
0.0
 40
3.4
  0
CIRCLE
  5
95
330
17
100
AcDbEntity
  8
CUT_HOLES
100
AcDbCircle
 10
680.6
 20
1032.24
 30
0.0
 40
3.015
  0
MTEXT
  5
96
330
17
100
AcDbEntity
  8
MACHINING_NOTES
100
AcDbMText
 10
655.6
 20
1079.24
 30
0.0
 40
3.0
 41
150.0
 71
1
  1
M8 station: drill 6.8 and tap through plate and welded boss AFTER welding.\PLocator bore/slot final width 6.03 +0.01/-0.00; match to measured nominal 6 mm pin. Seat coplanarity and repeatability must be measured.
 11
6.123233995736766e-17
 21
1.0
 31
0.0
  0
TEXT
  5
97
330
17
100
AcDbEntity
  8
PART_MARK_NO_CUT
100
AcDbText
 10
657.6
 20
971.24
 30
0.0
 40
3.0
  1
G_SEAT_ROUND #2
100
AcDbText
  0
LWPOLYLINE
  5
98
330
17
100
AcDbEntity
  8
CUT_OUTER
100
AcDbPolyline
 90
4
 70
1
 10
821.6
 20
969.24
 10
821.6
 20
1059.24
 10
741.6
 20
1059.24
 10
741.6
 20
969.24
  0
CIRCLE
  5
99
330
17
100
AcDbEntity
  8
CUT_HOLES
100
AcDbCircle
 10
791.6
 20
1032.24
 30
0.0
 40
3.4
  0
CIRCLE
  5
9A
330
17
100
AcDbEntity
  8
CUT_HOLES
100
AcDbCircle
 10
766.6
 20
1032.24
 30
0.0
 40
3.015
  0
MTEXT
  5
9B
330
17
100
AcDbEntity
  8
MACHINING_NOTES
100
AcDbMText
 10
741.6
 20
1079.24
 30
0.0
 40
3.0
 41
150.0
 71
1
  1
M8 station: drill 6.8 and tap through plate and welded boss AFTER welding.\PLocator bore/slot final width 6.03 +0.01/-0.00; match to measured nominal 6 mm pin. Seat coplanarity and repeatability must be measured.
 11
6.123233995736766e-17
 21
1.0
 31
0.0
  0
TEXT
  5
9C
330
17
100
AcDbEntity
  8
PART_MARK_NO_CUT
100
AcDbText
 10
743.6
 20
971.24
 30
0.0
 40
3.0
  1
G_SEAT_ROUND #3
100
AcDbText
  0
LWPOLYLINE
  5
9D
330
17
100
AcDbEntity
  8
CUT_OUTER
100
AcDbPolyline
 90
4
 70
1
 10
907.6
 20
969.24
 10
907.6
 20
1059.24
 10
827.6
 20
1059.24
 10
827.6
 20
969.24
  0
CIRCLE
  5
9E
330
17
100
AcDbEntity
  8
CUT_HOLES
100
AcDbCircle
 10
877.6
 20
996.24
 30
0.0
 40
3.4
  0
LWPOLYLINE
  5
9F
330
17
100
AcDbEntity
  8
CUT_HOLES
100
AcDbPolyline
 90
4
 70
1
 10
855.615
 20
993.255
 10
855.615
 20
999.225
 42
1.0
 10
849.585
 20
999.225
 10
849.585
 20
993.255
 42
1.0
  0
MTEXT
  5
A0
330
17
100
AcDbEntity
  8
MACHINING_NOTES
100
AcDbMText
 10
827.6
 20
1079.24
 30
0.0
 40
3.0
 41
150.0
 71
1
  1
M8 station: drill 6.8 and tap through plate and welded boss AFTER welding.\PLocator bore/slot final width 6.03 +0.01/-0.00; match to measured nominal 6 mm pin. Seat coplanarity and repeatability must be measured.
 11
6.123233995736766e-17
 21
1.0
 31
0.0
  0
TEXT
  5
A1
330
17
100
AcDbEntity
  8
PART_MARK_NO_CUT
100
AcDbText
 10
829.6
 20
971.24
 30
0.0
 40
3.0
  1
G_SEAT_RELIEVED #1
100
AcDbText
  0
LWPOLYLINE
  5
A2
330
17
100
AcDbEntity
  8
CUT_OUTER
100
AcDbPolyline
 90
4
 70
1
 10
913.6
 20
969.24
 10
1003.6
 20
969.24
 10
1003.6
 20
1049.24
 10
913.6
 20
1049.24
  0
CIRCLE
  5
A3
330
17
100
AcDbEntity
  8
CUT_HOLES
100
AcDbCircle
 10
940.6
 20
999.24
 30
0.0
 40
3.4
  0
LWPOLYLINE
  5
A4
330
17
100
AcDbEntity
  8
CUT_HOLES
100
AcDbPolyline
 90
4
 70
1
 10
937.615
 20
1021.225
 10
943.585
 20
1021.225
 42
1.0
 10
943.585
 20
1027.255
 10
937.615
 20
1027.255
 42
1.0
  0
MTEXT
  5
A5
330
17
100
AcDbEntity
  8
MACHINING_NOTES
100
AcDbMText
 10
1023.6
 20
1049.24
 30
0.0
 40
3.0
 41
150.0
 71
1
  1
M8 station: drill 6.8 and tap through plate and welded boss AFTER welding.\PLocator bore/slot final width 6.03 +0.01/-0.00; match to measured nominal 6 mm pin. Seat coplanarity and repeatability must be measured.
  0
TEXT
  5
A6
330
17
100
AcDbEntity
  8
PART_MARK_NO_CUT
100
AcDbText
 10
915.6
 20
971.24
 30
0.0
 40
3.0
  1
G_SEAT_RELIEVED #2
100
AcDbText
  0
LWPOLYLINE
  5
A7
330
17
100
AcDbEntity
  8
CUT_OUTER
100
AcDbPolyline
 90
4
 70
1
 10
313.6
 20
1289.0
 10
313.6
 20
1379.0
 10
233.60000000000002
 20
1379.0
 10
233.60000000000002
 20
1289.0
  0
CIRCLE
  5
A8
330
17
100
AcDbEntity
  8
CUT_HOLES
100
AcDbCircle
 10
283.6
 20
1316.0
 30
0.0
 40
3.4
  0
LWPOLYLINE
  5
A9
330
17
100
AcDbEntity
  8
CUT_HOLES
100
AcDbPolyline
 90
4
 70
1
 10
261.615
 20
1313.015
 10
261.615
 20
1318.985
 42
1.0
 10
255.58500000000004
 20
1318.985
 10
255.58500000000004
 20
1313.015
 42
1.0
  0
MTEXT
  5
AA
330
17
100
AcDbEntity
  8
MACHINING_NOTES
100
AcDbMText
 10
233.60000000000002
 20
1399.0
 30
0.0
 40
3.0
 41
150.0
 71
1
  1
M8 station: drill 6.8 and tap through plate and welded boss AFTER welding.\PLocator bore/slot final width 6.03 +0.01/-0.00; match to measured nominal 6 mm pin. Seat coplanarity and repeatability must be measured.
 11
6.123233995736766e-17
 21
1.0
 31
0.0
  0
TEXT
  5
AB
330
17
100
AcDbEntity
  8
PART_MARK_NO_CUT
100
AcDbText
 10
235.6
 20
1291.0
 30
0.0
 40
3.0
  1
G_SEAT_RELIEVED #3
100
AcDbText
  0
LWPOLYLINE
  5
AC
330
17
100
AcDbEntity
  8
CUT_OUTER
100
AcDbPolyline
 90
4
 70
1
 10
301.6
 20
1065.24
 10
520.8
 20
1065.24
 10
520.8
 20
1095.24
 10
301.6
 20
1095.24
  0
TEXT
  5
AD
330
17
100
AcDbEntity
  8
PART_MARK_NO_CUT
100
AcDbText
 10
303.6
 20
1067.24
 30
0.0
 40
3.0
  1
G_RACK_SPOIL_ARM #1
100
AcDbText
  0
LWPOLYLINE
  5
AE
330
17
100
AcDbEntity
  8
CUT_OUTER
100
AcDbPolyline
 90
4
 70
1
 10
526.8
 20
1065.24
 10
746.0
 20
1065.24
 10
746.0
 20
1095.24
 10
526.8
 20
1095.24
  0
TEXT
  5
AF
330
17
100
AcDbEntity
  8
PART_MARK_NO_CUT
100
AcDbText
 10
528.8
 20
1067.24
 30
0.0
 40
3.0
  1
G_RACK_SPOIL_ARM #2
100
AcDbText
  0
LWPOLYLINE
  5
B0
330
17
100
AcDbEntity
  8
CUT_OUTER
100
AcDbPolyline
 90
4
 70
1
 10
162.18400000000005
 20
548.0
 10
180.18400000000005
 20
548.0
 10
180.18400000000005
 20
913.0
 10
162.18400000000005
 20
913.0
  0
TEXT
  5
B1
330
17
100
AcDbEntity
  8
PART_MARK_NO_CUT
100
AcDbText
 10
164.18400000000005
 20
550.0
 30
0.0
 40
3.0
  1
G_RACK_SPOIL_RUNNER #1
100
AcDbText
  0
LWPOLYLINE
  5
B2
330
17
100
AcDbEntity
  8
CUT_OUTER
100
AcDbPolyline
 90
4
 70
1
 10
527.1840000000001
 20
919.0
 10
527.1840000000001
 20
937.0
 10
162.18400000000008
 20
937.0
 10
162.18400000000008
 20
919.0
  0
TEXT
  5
B3
330
17
100
AcDbEntity
  8
PART_MARK_NO_CUT
100
AcDbText
 10
164.18400000000005
 20
921.0
 30
0.0
 40
3.0
  1
G_RACK_SPOIL_RUNNER #2
100
AcDbText
  0
LWPOLYLINE
  5
B4
330
17
100
AcDbEntity
  8
CUT_OUTER
100
AcDbPolyline
 90
4
 70
1
 10
186.18400000000005
 20
548.0
 10
204.18400000000005
 20
548.0
 10
204.18400000000005
 20
913.0
 10
186.18400000000005
 20
913.0
  0
TEXT
  5
B5
330
17
100
AcDbEntity
  8
PART_MARK_NO_CUT
100
AcDbText
 10
188.18400000000005
 20
550.0
 30
0.0
 40
3.0
  1
G_RACK_SPOIL_RUNNER #3
100
AcDbText
  0
LWPOLYLINE
  5
B6
330
17
100
AcDbEntity
  8
CUT_OUTER
100
AcDbPolyline
 90
4
 70
1
 10
210.18400000000005
 20
548.0
 10
228.18400000000005
 20
548.0
 10
228.18400000000005
 20
913.0
 10
210.18400000000005
 20
913.0
  0
TEXT
  5
B7
330
17
100
AcDbEntity
  8
PART_MARK_NO_CUT
100
AcDbText
 10
212.18400000000005
 20
550.0
 30
0.0
 40
3.0
  1
G_RACK_SPOIL_RUNNER #4
100
AcDbText
  0
LWPOLYLINE
  5
B8
330
17
100
AcDbEntity
  8
CUT_OUTER
100
AcDbPolyline
 90
4
 70
1
 10
234.18400000000005
 20
548.0
 10
252.18400000000005
 20
548.0
 10
252.18400000000005
 20
913.0
 10
234.18400000000005
 20
913.0
  0
TEXT
  5
B9
330
17
100
AcDbEntity
  8
PART_MARK_NO_CUT
100
AcDbText
 10
236.18400000000005
 20
550.0
 30
0.0
 40
3.0
  1
G_RACK_SPOIL_RUNNER #5
100
AcDbText
  0
LWPOLYLINE
  5
BA
330
17
100
AcDbEntity
  8
CUT_OUTER
100
AcDbPolyline
 90
4
 70
1
 10
258.1840000000001
 20
548.0
 10
276.1840000000001
 20
548.0
 10
276.1840000000001
 20
913.0
 10
258.1840000000001
 20
913.0
  0
TEXT
  5
BB
330
17
100
AcDbEntity
  8
PART_MARK_NO_CUT
100
AcDbText
 10
260.1840000000001
 20
550.0
 30
0.0
 40
3.0
  1
G_RACK_SPOIL_RUNNER #6
100
AcDbText
  0
LWPOLYLINE
  5
BC
330
17
100
AcDbEntity
  8
CUT_OUTER
100
AcDbPolyline
 90
4
 70
1
 10
539.6740000000001
 20
46.0
 10
539.6740000000001
 20
946.0
 10
533.1840000000001
 20
946.0
 10
533.1840000000001
 20
46.0
  0
TEXT
  5
BD
330
17
100
AcDbEntity
  8
PART_MARK_NO_CUT
100
AcDbText
 10
535.1840000000001
 20
48.0
 30
0.0
 40
3.0
  1
WP_CRADLE_WEB_3_1 #1
100
AcDbText
  0
LWPOLYLINE
  5
BE
330
17
100
AcDbEntity
  8
CUT_OUTER
100
AcDbPolyline
 90
4
 70
1
 10
551.7160000000001
 20
46.0
 10
551.7160000000001
 20
946.0
 10
545.6740000000001
 20
946.0
 10
545.6740000000001
 20
46.0
  0
TEXT
  5
BF
330
17
100
AcDbEntity
  8
PART_MARK_NO_CUT
100
AcDbText
 10
547.6740000000001
 20
48.0
 30
0.0
 40
3.0
  1
WP_CRADLE_WEB_3_2 #1
100
AcDbText
  0
LWPOLYLINE
  5
C0
330
17
100
AcDbEntity
  8
CUT_OUTER
100
AcDbPolyline
 90
4
 70
1
 10
752.0
 20
1065.24
 10
912.0
 20
1065.24
 10
912.0
 20
1095.24
 10
752.0
 20
1095.24
  0
TEXT
  5
C1
330
17
100
AcDbEntity
  8
PART_MARK_NO_CUT
100
AcDbText
 10
754.0
 20
1067.24
 30
0.0
 40
3.0
  1
G_RACK_SPOIL_FOOT #1
100
AcDbText
  0
LWPOLYLINE
  5
C2
330
17
100
AcDbEntity
  8
CUT_OUTER
100
AcDbPolyline
 90
4
 70
1
 10
349.6
 20
1289.0
 10
349.6
 20
1449.0
 10
319.6
 20
1449.0
 10
319.6
 20
1289.0
  0
TEXT
  5
C3
330
17
100
AcDbEntity
  8
PART_MARK_NO_CUT
100
AcDbText
 10
321.6
 20
1291.0
 30
0.0
 40
3.0
  1
G_RACK_SPOIL_FOOT #2
100
AcDbText
  0
LWPOLYLINE
  5
C4
330
17
100
AcDbEntity
  8
CUT_OUTER
100
AcDbPolyline
 90
4
 70
1
 10
282.1840000000001
 20
46.0
 10
527.1840000000001
 20
46.0
 10
527.1840000000001
 20
63.4
 10
282.1840000000001
 20
63.4
  0
TEXT
  5
C5
330
17
100
AcDbEntity
  8
PART_MARK_NO_CUT
100
AcDbText
 10
284.1840000000001
 20
48.0
 30
0.0
 40
3.0
  1
G_RACK_PANEL_WEB #1
100
AcDbText
  0
LWPOLYLINE
  5
C6
330
17
100
AcDbEntity
  8
CUT_OUTER
100
AcDbPolyline
 90
4
 70
1
 10
282.1840000000001
 20
69.4
 10
527.1840000000001
 20
69.4
 10
527.1840000000001
 20
86.80000000000001
 10
282.1840000000001
 20
86.80000000000001
  0
TEXT
  5
C7
330
17
100
AcDbEntity
  8
PART_MARK_NO_CUT
100
AcDbText
 10
284.1840000000001
 20
71.4
 30
0.0
 40
3.0
  1
G_RACK_PANEL_WEB #2
100
AcDbText
  0
LWPOLYLINE
  5
C8
330
17
100
AcDbEntity
  8
CUT_OUTER
100
AcDbPolyline
 90
4
 70
1
 10
1029.6
 20
548.0
 10
1080.3999999999999
 20
548.0
 10
1080.3999999999999
 20
598.8
 10
1029.6
 20
598.8
  0
CIRCLE
  5
C9
330
17
100
AcDbEntity
  8
CUT_HOLES
100
AcDbCircle
 10
1055.0
 20
573.4
 30
0.0
 40
8.5
  0
TEXT
  5
CA
330
17
100
AcDbEntity
  8
PART_MARK_NO_CUT
100
AcDbText
 10
1031.6
 20
550.0
 30
0.0
 40
3.0
  1
FT_LEG_CLOSURE #1
100
AcDbText
  0
LWPOLYLINE
  5
CB
330
17
100
AcDbEntity
  8
CUT_OUTER
100
AcDbPolyline
 90
4
 70
1
 10
1029.6
 20
604.8
 10
1080.3999999999999
 20
604.8
 10
1080.3999999999999
 20
655.5999999999999
 10
1029.6
 20
655.5999999999999
  0
CIRCLE
  5
CC
330
17
100
AcDbEntity
  8
CUT_HOLES
100
AcDbCircle
 10
1055.0
 20
630.1999999999999
 30
0.0
 40
8.5
  0
TEXT
  5
CD
330
17
100
AcDbEntity
  8
PART_MARK_NO_CUT
100
AcDbText
 10
1031.6
 20
606.8
 30
0.0
 40
3.0
  1
FT_LEG_CLOSURE #2
100
AcDbText
  0
LWPOLYLINE
  5
CE
330
17
100
AcDbEntity
  8
CUT_OUTER
100
AcDbPolyline
 90
4
 70
1
 10
1029.6
 20
661.5999999999999
 10
1080.3999999999999
 20
661.5999999999999
 10
1080.3999999999999
 20
712.3999999999999
 10
1029.6
 20
712.3999999999999
  0
CIRCLE
  5
CF
330
17
100
AcDbEntity
  8
CUT_HOLES
100
AcDbCircle
 10
1055.0
 20
686.9999999999999
 30
0.0
 40
8.5
  0
TEXT
  5
D0
330
17
100
AcDbEntity
  8
PART_MARK_NO_CUT
100
AcDbText
 10
1031.6
 20
663.5999999999999
 30
0.0
 40
3.0
  1
FT_LEG_CLOSURE #3
100
AcDbText
  0
LWPOLYLINE
  5
D1
330
17
100
AcDbEntity
  8
CUT_OUTER
100
AcDbPolyline
 90
4
 70
1
 10
1029.6
 20
718.3999999999999
 10
1080.3999999999999
 20
718.3999999999999
 10
1080.3999999999999
 20
769.1999999999998
 10
1029.6
 20
769.1999999999998
  0
CIRCLE
  5
D2
330
17
100
AcDbEntity
  8
CUT_HOLES
100
AcDbCircle
 10
1055.0
 20
743.7999999999998
 30
0.0
 40
8.5
  0
TEXT
  5
D3
330
17
100
AcDbEntity
  8
PART_MARK_NO_CUT
100
AcDbText
 10
1031.6
 20
720.3999999999999
 30
0.0
 40
3.0
  1
FT_LEG_CLOSURE #4
100
AcDbText
  0
LWPOLYLINE
  5
D4
330
17
100
AcDbEntity
  8
CUT_OUTER
100
AcDbPolyline
 90
4
 70
1
 10
1029.6
 20
775.1999999999998
 10
1080.3999999999999
 20
775.1999999999998
 10
1080.3999999999999
 20
825.9999999999998
 10
1029.6
 20
825.9999999999998
  0
CIRCLE
  5
D5
330
17
100
AcDbEntity
  8
CUT_HOLES
100
AcDbCircle
 10
1055.0
 20
800.5999999999998
 30
0.0
 40
8.5
  0
TEXT
  5
D6
330
17
100
AcDbEntity
  8
PART_MARK_NO_CUT
100
AcDbText
 10
1031.6
 20
777.1999999999998
 30
0.0
 40
3.0
  1
FT_LEG_CLOSURE #5
100
AcDbText
  0
LWPOLYLINE
  5
D7
330
17
100
AcDbEntity
  8
CUT_OUTER
100
AcDbPolyline
 90
4
 70
1
 10
1029.6
 20
831.9999999999998
 10
1080.3999999999999
 20
831.9999999999998
 10
1080.3999999999999
 20
882.7999999999997
 10
1029.6
 20
882.7999999999997
  0
CIRCLE
  5
D8
330
17
100
AcDbEntity
  8
CUT_HOLES
100
AcDbCircle
 10
1055.0
 20
857.3999999999997
 30
0.0
 40
8.5
  0
TEXT
  5
D9
330
17
100
AcDbEntity
  8
PART_MARK_NO_CUT
100
AcDbText
 10
1031.6
 20
833.9999999999998
 30
0.0
 40
3.0
  1
FT_LEG_CLOSURE #6
100
AcDbText
  0
LWPOLYLINE
  5
DA
330
17
100
AcDbEntity
  8
CUT_OUTER
100
AcDbPolyline
 90
4
 70
1
 10
557.7160000000001
 20
888.7999999999997
 10
607.7160000000001
 20
888.7999999999997
 10
607.7160000000001
 20
939.5999999999997
 10
557.7160000000001
 20
939.5999999999997
  0
CIRCLE
  5
DB
330
17
100
AcDbEntity
  8
CUT_HOLES
100
AcDbCircle
 10
567.7160000000001
 20
914.1999999999997
 30
0.0
 40
5.0
  0
TEXT
  5
DC
330
17
100
AcDbEntity
  8
PART_MARK_NO_CUT
100
AcDbText
 10
559.7160000000001
 20
890.7999999999997
 30
0.0
 40
3.0
  1
H_BEAM_STACK_PAD_1 #1
100
AcDbText
  0
LWPOLYLINE
  5
DD
330
17
100
AcDbEntity
  8
CUT_OUTER
100
AcDbPolyline
 90
4
 70
1
 10
613.7160000000001
 20
888.7999999999997
 10
663.7160000000001
 20
888.7999999999997
 10
663.7160000000001
 20
939.5999999999997
 10
613.7160000000001
 20
939.5999999999997
  0
CIRCLE
  5
DE
330
17
100
AcDbEntity
  8
CUT_HOLES
100
AcDbCircle
 10
623.7160000000001
 20
914.1999999999997
 30
0.0
 40
5.0
  0
TEXT
  5
DF
330
17
100
AcDbEntity
  8
PART_MARK_NO_CUT
100
AcDbText
 10
615.7160000000001
 20
890.7999999999997
 30
0.0
 40
3.0
  1
H_BEAM_STACK_PAD_1 #2
100
AcDbText
  0
LWPOLYLINE
  5
E0
330
17
100
AcDbEntity
  8
CUT_OUTER
100
AcDbPolyline
 90
4
 70
1
 10
669.7160000000001
 20
888.7999999999997
 10
719.7160000000001
 20
888.7999999999997
 10
719.7160000000001
 20
939.5999999999997
 10
669.7160000000001
 20
939.5999999999997
  0
CIRCLE
  5
E1
330
17
100
AcDbEntity
  8
CUT_HOLES
100
AcDbCircle
 10
679.7160000000001
 20
914.1999999999997
 30
0.0
 40
5.0
  0
TEXT
  5
E2
330
17
100
AcDbEntity
  8
PART_MARK_NO_CUT
100
AcDbText
 10
671.7160000000001
 20
890.7999999999997
 30
0.0
 40
3.0
  1
H_BEAM_STACK_PAD_1 #3
100
AcDbText
  0
LWPOLYLINE
  5
E3
330
17
100
AcDbEntity
  8
CUT_OUTER
100
AcDbPolyline
 90
4
 70
1
 10
725.7160000000001
 20
888.7999999999997
 10
775.7160000000001
 20
888.7999999999997
 10
775.7160000000001
 20
939.5999999999997
 10
725.7160000000001
 20
939.5999999999997
  0
CIRCLE
  5
E4
330
17
100
AcDbEntity
  8
CUT_HOLES
100
AcDbCircle
 10
735.7160000000001
 20
914.1999999999997
 30
0.0
 40
5.0
  0
TEXT
  5
E5
330
17
100
AcDbEntity
  8
PART_MARK_NO_CUT
100
AcDbText
 10
727.7160000000001
 20
890.7999999999997
 30
0.0
 40
3.0
  1
H_BEAM_STACK_PAD_1 #4
100
AcDbText
  0
LWPOLYLINE
  5
E6
330
17
100
AcDbEntity
  8
CUT_OUTER
100
AcDbPolyline
 90
4
 70
1
 10
781.7160000000001
 20
888.7999999999997
 10
831.7160000000001
 20
888.7999999999997
 10
831.7160000000001
 20
939.5999999999997
 10
781.7160000000001
 20
939.5999999999997
  0
CIRCLE
  5
E7
330
17
100
AcDbEntity
  8
CUT_HOLES
100
AcDbCircle
 10
821.7160000000001
 20
914.1999999999997
 30
0.0
 40
5.0
  0
TEXT
  5
E8
330
17
100
AcDbEntity
  8
PART_MARK_NO_CUT
100
AcDbText
 10
783.7160000000001
 20
890.7999999999997
 30
0.0
 40
3.0
  1
H_BEAM_STACK_PAD_2 #1
100
AcDbText
  0
LWPOLYLINE
  5
E9
330
17
100
AcDbEntity
  8
CUT_OUTER
100
AcDbPolyline
 90
4
 70
1
 10
837.7160000000001
 20
888.7999999999997
 10
887.7160000000001
 20
888.7999999999997
 10
887.7160000000001
 20
939.5999999999997
 10
837.7160000000001
 20
939.5999999999997
  0
CIRCLE
  5
EA
330
17
100
AcDbEntity
  8
CUT_HOLES
100
AcDbCircle
 10
877.7160000000001
 20
914.1999999999997
 30
0.0
 40
5.0
  0
TEXT
  5
EB
330
17
100
AcDbEntity
  8
PART_MARK_NO_CUT
100
AcDbText
 10
839.7160000000001
 20
890.7999999999997
 30
0.0
 40
3.0
  1
H_BEAM_STACK_PAD_2 #2
100
AcDbText
  0
LWPOLYLINE
  5
EC
330
17
100
AcDbEntity
  8
CUT_OUTER
100
AcDbPolyline
 90
4
 70
1
 10
893.7160000000001
 20
888.7999999999997
 10
943.7160000000001
 20
888.7999999999997
 10
943.7160000000001
 20
939.5999999999997
 10
893.7160000000001
 20
939.5999999999997
  0
CIRCLE
  5
ED
330
17
100
AcDbEntity
  8
CUT_HOLES
100
AcDbCircle
 10
933.7160000000001
 20
914.1999999999997
 30
0.0
 40
5.0
  0
TEXT
  5
EE
330
17
100
AcDbEntity
  8
PART_MARK_NO_CUT
100
AcDbText
 10
895.7160000000001
 20
890.7999999999997
 30
0.0
 40
3.0
  1
H_BEAM_STACK_PAD_2 #3
100
AcDbText
  0
LWPOLYLINE
  5
EF
330
17
100
AcDbEntity
  8
CUT_OUTER
100
AcDbPolyline
 90
4
 70
1
 10
949.7160000000001
 20
888.7999999999997
 10
999.7160000000001
 20
888.7999999999997
 10
999.7160000000001
 20
939.5999999999997
 10
949.7160000000001
 20
939.5999999999997
  0
CIRCLE
  5
F0
330
17
100
AcDbEntity
  8
CUT_HOLES
100
AcDbCircle
 10
989.7160000000001
 20
914.1999999999997
 30
0.0
 40
5.0
  0
TEXT
  5
F1
330
17
100
AcDbEntity
  8
PART_MARK_NO_CUT
100
AcDbText
 10
951.7160000000001
 20
890.7999999999997
 30
0.0
 40
3.0
  1
H_BEAM_STACK_PAD_2 #4
100
AcDbText
  0
LWPOLYLINE
  5
F2
330
17
100
AcDbEntity
  8
CUT_OUTER
100
AcDbPolyline
 90
4
 70
1
 10
1005.7160000000001
 20
888.7999999999997
 10
1055.7160000000001
 20
888.7999999999997
 10
1055.7160000000001
 20
939.5999999999997
 10
1005.7160000000001
 20
939.5999999999997
  0
CIRCLE
  5
F3
330
17
100
AcDbEntity
  8
CUT_HOLES
100
AcDbCircle
 10
1030.7160000000001
 20
904.1999999999997
 30
0.0
 40
9.0
  0
CIRCLE
  5
F4
330
17
100
AcDbEntity
  8
CUT_HOLES
100
AcDbCircle
 10
1030.7160000000001
 20
929.1999999999997
 30
0.0
 40
3.0
  0
TEXT
  5
F5
330
17
100
AcDbEntity
  8
PART_MARK_NO_CUT
100
AcDbText
 10
1007.7160000000001
 20
890.7999999999997
 30
0.0
 40
3.0
  1
G_BEAM_FOOT_BASE #1
100
AcDbText
  0
LWPOLYLINE
  5
F6
330
17
100
AcDbEntity
  8
CUT_OUTER
100
AcDbPolyline
 90
4
 70
1
 10
233.6
 20
1385.0
 10
283.6
 20
1385.0
 10
283.6
 20
1435.8
 10
233.6
 20
1435.8
  0
CIRCLE
  5
F7
330
17
100
AcDbEntity
  8
CUT_HOLES
100
AcDbCircle
 10
258.6
 20
1400.4
 30
0.0
 40
9.0
  0
CIRCLE
  5
F8
330
17
100
AcDbEntity
  8
CUT_HOLES
100
AcDbCircle
 10
258.6
 20
1425.4
 30
0.0
 40
3.0
  0
TEXT
  5
F9
330
17
100
AcDbEntity
  8
PART_MARK_NO_CUT
100
AcDbText
 10
235.6
 20
1387.0
 30
0.0
 40
3.0
  1
G_BEAM_FOOT_BASE #2
100
AcDbText
  0
LWPOLYLINE
  5
FA
330
17
100
AcDbEntity
  8
CUT_OUTER
100
AcDbPolyline
 90
4
 70
1
 10
212.98400000000004
 20
46.0
 10
212.98400000000004
 20
96.0
 10
162.18400000000003
 20
96.0
 10
162.18400000000003
 20
46.0
  0
CIRCLE
  5
FB
330
17
100
AcDbEntity
  8
CUT_HOLES
100
AcDbCircle
 10
197.58400000000003
 20
71.0
 30
0.0
 40
9.0
  0
CIRCLE
  5
FC
330
17
100
AcDbEntity
  8
CUT_HOLES
100
AcDbCircle
 10
172.58400000000003
 20
71.0
 30
0.0
 40
3.0
  0
TEXT
  5
FD
330
17
100
AcDbEntity
  8
PART_MARK_NO_CUT
100
AcDbText
 10
164.18400000000005
 20
48.0
 30
0.0
 40
3.0
  1
G_BEAM_FOOT_BASE #3
100
AcDbText
  0
LWPOLYLINE
  5
FE
330
17
100
AcDbEntity
  8
CUT_OUTER
100
AcDbPolyline
 90
4
 70
1
 10
269.78400000000005
 20
46.0
 10
269.78400000000005
 20
96.0
 10
218.98400000000004
 20
96.0
 10
218.98400000000004
 20
46.0
  0
CIRCLE
  5
FF
330
17
100
AcDbEntity
  8
CUT_HOLES
100
AcDbCircle
 10
254.38400000000004
 20
71.0
 30
0.0
 40
9.0
  0
CIRCLE
  5
100
330
17
100
AcDbEntity
  8
CUT_HOLES
100
AcDbCircle
 10
229.38400000000004
 20
71.0
 30
0.0
 40
3.0
  0
TEXT
  5
101
330
17
100
AcDbEntity
  8
PART_MARK_NO_CUT
100
AcDbText
 10
220.98400000000004
 20
48.0
 30
0.0
 40
3.0
  1
G_BEAM_FOOT_BASE #4
100
AcDbText
  0
LWPOLYLINE
  5
102
330
17
100
AcDbEntity
  8
CUT_OUTER
100
AcDbPolyline
 90
4
 70
1
 10
355.6
 20
1289.0
 10
405.6
 20
1289.0
 10
405.6
 20
1339.8
 10
355.6
 20
1339.8
  0
CIRCLE
  5
103
330
17
100
AcDbEntity
  8
CUT_HOLES
100
AcDbCircle
 10
380.6
 20
1304.4
 30
0.0
 40
9.0
  0
CIRCLE
  5
104
330
17
100
AcDbEntity
  8
CUT_HOLES
100
AcDbCircle
 10
380.6
 20
1329.4
 30
0.0
 40
3.0
  0
TEXT
  5
105
330
17
100
AcDbEntity
  8
PART_MARK_NO_CUT
100
AcDbText
 10
357.6
 20
1291.0
 30
0.0
 40
3.0
  1
G_BEAM_FOOT_BASE #5
100
AcDbText
  0
LWPOLYLINE
  5
106
330
17
100
AcDbEntity
  8
CUT_OUTER
100
AcDbPolyline
 90
4
 70
1
 10
355.6
 20
1345.8
 10
405.6
 20
1345.8
 10
405.6
 20
1396.6
 10
355.6
 20
1396.6
  0
CIRCLE
  5
107
330
17
100
AcDbEntity
  8
CUT_HOLES
100
AcDbCircle
 10
380.6
 20
1361.2
 30
0.0
 40
9.0
  0
CIRCLE
  5
108
330
17
100
AcDbEntity
  8
CUT_HOLES
100
AcDbCircle
 10
380.6
 20
1386.2
 30
0.0
 40
3.0
  0
TEXT
  5
109
330
17
100
AcDbEntity
  8
PART_MARK_NO_CUT
100
AcDbText
 10
357.6
 20
1347.8
 30
0.0
 40
3.0
  1
G_BEAM_FOOT_BASE #6
100
AcDbText
  0
LWPOLYLINE
  5
10A
330
17
100
AcDbEntity
  8
CUT_OUTER
100
AcDbPolyline
 90
4
 70
1
 10
355.6
 20
1402.6
 10
405.6
 20
1402.6
 10
405.6
 20
1453.3999999999999
 10
355.6
 20
1453.3999999999999
  0
CIRCLE
  5
10B
330
17
100
AcDbEntity
  8
CUT_HOLES
100
AcDbCircle
 10
380.6
 20
1418.0
 30
0.0
 40
9.0
  0
CIRCLE
  5
10C
330
17
100
AcDbEntity
  8
CUT_HOLES
100
AcDbCircle
 10
380.6
 20
1443.0
 30
0.0
 40
3.0
  0
TEXT
  5
10D
330
17
100
AcDbEntity
  8
PART_MARK_NO_CUT
100
AcDbText
 10
357.6
 20
1404.6
 30
0.0
 40
3.0
  1
G_BEAM_FOOT_BASE #7
100
AcDbText
  0
LWPOLYLINE
  5
10E
330
17
100
AcDbEntity
  8
CUT_OUTER
100
AcDbPolyline
 90
4
 70
1
 10
411.6
 20
1289.0
 10
461.6
 20
1289.0
 10
461.6
 20
1339.8
 10
411.6
 20
1339.8
  0
CIRCLE
  5
10F
330
17
100
AcDbEntity
  8
CUT_HOLES
100
AcDbCircle
 10
436.6
 20
1304.4
 30
0.0
 40
9.0
  0
CIRCLE
  5
110
330
17
100
AcDbEntity
  8
CUT_HOLES
100
AcDbCircle
 10
436.6
 20
1329.4
 30
0.0
 40
3.0
  0
TEXT
  5
111
330
17
100
AcDbEntity
  8
PART_MARK_NO_CUT
100
AcDbText
 10
413.6
 20
1291.0
 30
0.0
 40
3.0
  1
G_BEAM_FOOT_BASE #8
100
AcDbText
  0
LWPOLYLINE
  5
112
330
17
100
AcDbEntity
  8
CUT_OUTER
100
AcDbPolyline
 90
4
 70
1
 10
918.0
 20
1055.24
 10
997.2
 20
1055.24
 10
997.2
 20
1085.24
 10
918.0
 20
1085.24
  0
TEXT
  5
113
330
17
100
AcDbEntity
  8
PART_MARK_NO_CUT
100
AcDbText
 10
920.0
 20
1057.24
 30
0.0
 40
3.0
  1
H_SPOIL_GUARD_ARM #1
100
AcDbText
  0
LWPOLYLINE
  5
114
330
17
100
AcDbEntity
  8
CUT_OUTER
100
AcDbPolyline
 90
4
 70
1
 10
451.6
 20
1345.8
 10
451.6
 20
1395.1
 10
411.6
 20
1395.1
 10
411.6
 20
1345.8
  0
TEXT
  5
115
330
17
100
AcDbEntity
  8
PART_MARK_NO_CUT
100
AcDbText
 10
413.6
 20
1347.8
 30
0.0
 40
3.0
  1
G_HW_MOUNT_SHELF #1
100
AcDbText
  0
LWPOLYLINE
  5
116
330
17
100
AcDbEntity
  8
CUT_OUTER
100
AcDbPolyline
 90
53
 70
1
 10
1061.7160000000001
 20
888.7999999999997
 10
1061.7160000000001
 20
938.7999999999997
 10
1087.7160000000001
 20
938.7999999999997
 10
1087.7160000000001
 20
888.7999999999997
 10
1085.1811658371955
 20
888.7999999999997
 10
1085.3851988372105
 20
889.6168128334743
 10
1085.5255800965067
 20
890.4469367832929
 10
1085.6014721096954
 20
891.2854193843993
 10
1085.6124221100015
 20
892.1272583045719
 10
1085.5583647704416
 20
892.9674311880094
 10
1085.439622593559
 20
893.8009256183767
 10
1085.2569039873954
 20
894.6227690225514
 10
1085.0112990391751
 20
895.4280583366701
 10
1084.7042730119153
 20
896.2119892574847
 10
1084.3376576027645
 20
896.9698849045213
 10
1083.9136400152156
 20
897.6972237220425
 10
1083.4347499103944
 20
898.3896664543522
 10
1082.9038443152672
 20
899.0430820335104
 10
1082.3240905778048
 20
899.6535722250143
 10
1081.6989474707925
 20
900.2174948844091
 10
1081.032144557018
 20
900.7314856860834
 10
1080.3276599389449
 20
901.1924781946151
 10
1079.5896965256138
 20
901.5977221589241
 10
1078.822656958363
 20
901.9447999200897
 10
1078.0311173449586
 20
902.2316408349457
 10
1077.2197999588352
 20
902.456533629401
 10
1076.3935450663232
 20
902.6181366077896
 10
1075.5572820499365
 20
902.715485657338
 10
1074.7160000000001
 20
902.7479999999997
 10
1073.8747179500638
 20
902.715485657338
 10
1073.038454933677
 20
902.6181366077896
 10
1072.212200041165
 20
902.456533629401
 10
1071.4008826550416
 20
902.2316408349457
 10
1070.6093430416372
 20
901.9447999200897
 10
1069.8423034743864
 20
901.5977221589241
 10
1069.1043400610554
 20
901.1924781946151
 10
1068.3998554429822
 20
900.7314856860834
 10
1067.7330525292077
 20
900.2174948844091
 10
1067.1079094221955
 20
899.6535722250143
 10
1066.528155684733
 20
899.0430820335104
 10
1065.9972500896058
 20
898.3896664543522
 10
1065.5183599847846
 20
897.6972237220425
 10
1065.0943423972358
 20
896.9698849045213
 10
1064.727726988085
 20
896.2119892574847
 10
1064.4207009608251
 20
895.4280583366701
 10
1064.1750960126049
 20
894.6227690225516
 10
1063.9923774064412
 20
893.8009256183767
 10
1063.8736352295587
 20
892.9674311880094
 10
1063.8195778899988
 20
892.1272583045719
 10
1063.830527890305
 20
891.2854193843993
 10
1063.9064199034935
 20
890.4469367832929
 10
1064.0468011627897
 20
889.6168128334743
 10
1064.2508341628047
 20
888.7999999999997
  0
TEXT
  5
117
330
17
100
AcDbEntity
  8
PART_MARK_NO_CUT
100
AcDbText
 10
1063.7160000000001
 20
890.7999999999997
 30
0.0
 40
3.0
  1
H_REFILL_STAY #1
100
AcDbText
  0
LWPOLYLINE
  5
118
330
17
100
AcDbEntity
  8
CUT_OUTER
100
AcDbPolyline
 90
4
 70
1
 10
1029.6
 20
945.5999999999997
 10
1055.6
 20
945.5999999999997
 10
1055.6
 20
975.5999999999997
 10
1029.6
 20
975.5999999999997
  0
CIRCLE
  5
119
330
17
100
AcDbEntity
  8
CUT_HOLES
100
AcDbCircle
 10
1048.6
 20
960.5999999999997
 30
0.0
 40
3.3
  0
TEXT
  5
11A
330
17
100
AcDbEntity
  8
PART_MARK_NO_CUT
100
AcDbText
 10
1031.6
 20
947.5999999999997
 30
0.0
 40
3.0
  1
WP_HOLD_TAB_1 #1
100
AcDbText
  0
LWPOLYLINE
  5
11B
330
17
100
AcDbEntity
  8
CUT_OUTER
100
AcDbPolyline
 90
4
 70
1
 10
1061.6
 20
945.5999999999997
 10
1087.6
 20
945.5999999999997
 10
1087.6
 20
975.5999999999997
 10
1061.6
 20
975.5999999999997
  0
CIRCLE
  5
11C
330
17
100
AcDbEntity
  8
CUT_HOLES
100
AcDbCircle
 10
1068.6
 20
960.5999999999997
 30
0.0
 40
3.3
  0
TEXT
  5
11D
330
17
100
AcDbEntity
  8
PART_MARK_NO_CUT
100
AcDbText
 10
1063.6
 20
947.5999999999997
 30
0.0
 40
3.0
  1
WP_HOLD_TAB_2 #1
100
AcDbText
  0
LWPOLYLINE
  5
11E
330
17
100
AcDbEntity
  8
CUT_OUTER
100
AcDbPolyline
 90
4
 70
1
 10
411.6
 20
1401.1
 10
437.6
 20
1401.1
 10
437.6
 20
1431.1
 10
411.6
 20
1431.1
  0
CIRCLE
  5
11F
330
17
100
AcDbEntity
  8
CUT_HOLES
100
AcDbCircle
 10
430.6
 20
1416.1
 30
0.0
 40
3.3
  0
TEXT
  5
120
330
17
100
AcDbEntity
  8
PART_MARK_NO_CUT
100
AcDbText
 10
413.6
 20
1403.1
 30
0.0
 40
3.0
  1
WP_HOLD_TAB_3 #1
100
AcDbText
  0
LWPOLYLINE
  5
121
330
17
100
AcDbEntity
  8
CUT_OUTER
100
AcDbPolyline
 90
4
 70
1
 10
443.6
 20
1401.1
 10
469.6
 20
1401.1
 10
469.6
 20
1431.1
 10
443.6
 20
1431.1
  0
CIRCLE
  5
122
330
17
100
AcDbEntity
  8
CUT_HOLES
100
AcDbCircle
 10
450.6
 20
1416.1
 30
0.0
 40
3.3
  0
TEXT
  5
123
330
17
100
AcDbEntity
  8
PART_MARK_NO_CUT
100
AcDbText
 10
445.6
 20
1403.1
 30
0.0
 40
3.0
  1
WP_HOLD_TAB_4 #1
100
AcDbText
  0
LWPOLYLINE
  5
124
330
17
100
AcDbEntity
  8
CUT_OUTER
100
AcDbPolyline
 90
4
 70
1
 10
1003.2
 20
1055.24
 10
1023.2
 20
1055.24
 10
1023.2
 20
1085.24
 10
1003.2
 20
1085.24
  0
CIRCLE
  5
125
330
17
100
AcDbEntity
  8
CUT_HOLES
100
AcDbCircle
 10
1013.2
 20
1070.24
 30
0.0
 40
3.3
  0
TEXT
  5
126
330
17
100
AcDbEntity
  8
PART_MARK_NO_CUT
100
AcDbText
 10
1005.2
 20
1057.24
 30
0.0
 40
3.0
  1
G_PANEL_CLAMP_20x30 #1
100
AcDbText
  0
LWPOLYLINE
  5
127
330
17
100
AcDbEntity
  8
CUT_OUTER
100
AcDbPolyline
 90
4
 70
1
 10
441.6
 20
1437.1
 10
441.6
 20
1457.1
 10
411.6
 20
1457.1
 10
411.6
 20
1437.1
  0
CIRCLE
  5
128
330
17
100
AcDbEntity
  8
CUT_HOLES
100
AcDbCircle
 10
426.6
 20
1447.1
 30
0.0
 40
3.3
  0
TEXT
  5
129
330
17
100
AcDbEntity
  8
PART_MARK_NO_CUT
100
AcDbText
 10
413.6
 20
1439.1
 30
0.0
 40
3.0
  1
G_PANEL_CLAMP_20x30 #2
100
AcDbText
  0
LWPOLYLINE
  5
12A
330
17
100
AcDbEntity
  8
CUT_OUTER
100
AcDbPolyline
 90
4
 70
1
 10
477.6
 20
1437.1
 10
477.6
 20
1457.1
 10
447.6
 20
1457.1
 10
447.6
 20
1437.1
  0
CIRCLE
  5
12B
330
17
100
AcDbEntity
  8
CUT_HOLES
100
AcDbCircle
 10
462.6
 20
1447.1
 30
0.0
 40
3.3
  0
TEXT
  5
12C
330
17
100
AcDbEntity
  8
PART_MARK_NO_CUT
100
AcDbText
 10
449.6
 20
1439.1
 30
0.0
 40
3.0
  1
G_PANEL_CLAMP_20x30 #3
100
AcDbText
  0
LWPOLYLINE
  5
12D
330
17
100
AcDbEntity
  8
CUT_OUTER
100
AcDbPolyline
 90
4
 70
1
 10
289.6
 20
1385.0
 10
309.6
 20
1385.0
 10
309.6
 20
1415.0
 10
289.6
 20
1415.0
  0
CIRCLE
  5
12E
330
17
100
AcDbEntity
  8
CUT_HOLES
100
AcDbCircle
 10
299.6
 20
1400.0
 30
0.0
 40
3.3
  0
TEXT
  5
12F
330
17
100
AcDbEntity
  8
PART_MARK_NO_CUT
100
AcDbText
 10
291.6
 20
1387.0
 30
0.0
 40
3.0
  1
G_PANEL_CLAMP_20x30 #4
100
AcDbText
  0
LWPOLYLINE
  5
130
330
17
100
AcDbEntity
  8
CUT_OUTER
100
AcDbPolyline
 90
4
 70
1
 10
289.6
 20
1421.0
 10
309.6
 20
1421.0
 10
309.6
 20
1451.0
 10
289.6
 20
1451.0
  0
CIRCLE
  5
131
330
17
100
AcDbEntity
  8
CUT_HOLES
100
AcDbCircle
 10
299.6
 20
1436.0
 30
0.0
 40
3.3
  0
TEXT
  5
132
330
17
100
AcDbEntity
  8
PART_MARK_NO_CUT
100
AcDbText
 10
291.6
 20
1423.0
 30
0.0
 40
3.0
  1
G_PANEL_CLAMP_20x30 #5
100
AcDbText
  0
LWPOLYLINE
  5
133
330
17
100
AcDbEntity
  8
CUT_OUTER
100
AcDbPolyline
 90
4
 70
1
 10
457.6
 20
1345.8
 10
477.6
 20
1345.8
 10
477.6
 20
1375.8
 10
457.6
 20
1375.8
  0
CIRCLE
  5
134
330
17
100
AcDbEntity
  8
CUT_HOLES
100
AcDbCircle
 10
467.6
 20
1360.8
 30
0.0
 40
3.3
  0
TEXT
  5
135
330
17
100
AcDbEntity
  8
PART_MARK_NO_CUT
100
AcDbText
 10
459.6
 20
1347.8
 30
0.0
 40
3.0
  1
G_PANEL_CLAMP_20x30 #6
100
AcDbText
  0
LWPOLYLINE
  5
136
330
17
100
AcDbEntity
  8
CUT_OUTER
100
AcDbPolyline
 90
4
 70
1
 10
475.6
 20
1381.8
 10
495.6
 20
1381.8
 10
495.6
 20
1411.8
 10
475.6
 20
1411.8
  0
CIRCLE
  5
137
330
17
100
AcDbEntity
  8
CUT_HOLES
100
AcDbCircle
 10
485.6
 20
1396.8
 30
0.0
 40
3.3
  0
TEXT
  5
138
330
17
100
AcDbEntity
  8
PART_MARK_NO_CUT
100
AcDbText
 10
477.6
 20
1383.8
 30
0.0
 40
3.0
  1
G_PANEL_CLAMP_20x30 #7
100
AcDbText
  0
LWPOLYLINE
  5
139
330
17
100
AcDbEntity
  8
CUT_OUTER
100
AcDbPolyline
 90
4
 70
1
 10
483.6
 20
1417.8
 10
503.6
 20
1417.8
 10
503.6
 20
1447.8
 10
483.6
 20
1447.8
  0
CIRCLE
  5
13A
330
17
100
AcDbEntity
  8
CUT_HOLES
100
AcDbCircle
 10
493.6
 20
1432.8
 30
0.0
 40
3.3
  0
TEXT
  5
13B
330
17
100
AcDbEntity
  8
PART_MARK_NO_CUT
100
AcDbText
 10
485.6
 20
1419.8
 30
0.0
 40
3.0
  1
G_PANEL_CLAMP_20x30 #8
100
AcDbText
  0
LWPOLYLINE
  5
13C
330
17
100
AcDbEntity
  8
CUT_OUTER
100
AcDbPolyline
 90
4
 70
1
 10
467.6
 20
1289.0
 10
487.6
 20
1289.0
 10
487.6
 20
1319.0
 10
467.6
 20
1319.0
  0
CIRCLE
  5
13D
330
17
100
AcDbEntity
  8
CUT_HOLES
100
AcDbCircle
 10
477.6
 20
1304.0
 30
0.0
 40
3.3
  0
TEXT
  5
13E
330
17
100
AcDbEntity
  8
PART_MARK_NO_CUT
100
AcDbText
 10
469.6
 20
1291.0
 30
0.0
 40
3.0
  1
G_PANEL_CLAMP_20x30 #9
100
AcDbText
  0
LWPOLYLINE
  5
13F
330
17
100
AcDbEntity
  8
CUT_OUTER
100
AcDbPolyline
 90
4
 70
1
 10
483.6
 20
1325.0
 10
503.6
 20
1325.0
 10
503.6
 20
1355.0
 10
483.6
 20
1355.0
  0
CIRCLE
  5
140
330
17
100
AcDbEntity
  8
CUT_HOLES
100
AcDbCircle
 10
493.6
 20
1340.0
 30
0.0
 40
3.3
  0
TEXT
  5
141
330
17
100
AcDbEntity
  8
PART_MARK_NO_CUT
100
AcDbText
 10
485.6
 20
1327.0
 30
0.0
 40
3.0
  1
G_PANEL_CLAMP_20x30 #10
100
AcDbText
  0
LWPOLYLINE
  5
142
330
17
100
AcDbEntity
  8
CUT_OUTER
100
AcDbPolyline
 90
4
 70
1
 10
493.6
 20
1289.0
 10
513.6
 20
1289.0
 10
513.6
 20
1319.0
 10
493.6
 20
1319.0
  0
CIRCLE
  5
143
330
17
100
AcDbEntity
  8
CUT_HOLES
100
AcDbCircle
 10
503.6
 20
1304.0
 30
0.0
 40
3.3
  0
TEXT
  5
144
330
17
100
AcDbEntity
  8
PART_MARK_NO_CUT
100
AcDbText
 10
495.6
 20
1291.0
 30
0.0
 40
3.0
  1
G_PANEL_CLAMP_20x30 #11
100
AcDbText
  0
LWPOLYLINE
  5
145
330
17
100
AcDbEntity
  8
CUT_OUTER
100
AcDbPolyline
 90
4
 70
1
 10
501.6
 20
1361.0
 10
521.6
 20
1361.0
 10
521.6
 20
1391.0
 10
501.6
 20
1391.0
  0
CIRCLE
  5
146
330
17
100
AcDbEntity
  8
CUT_HOLES
100
AcDbCircle
 10
511.6
 20
1376.0
 30
0.0
 40
3.3
  0
TEXT
  5
147
330
17
100
AcDbEntity
  8
PART_MARK_NO_CUT
100
AcDbText
 10
503.6
 20
1363.0
 30
0.0
 40
3.0
  1
G_PANEL_CLAMP_20x30 #12
100
AcDbText
  0
LWPOLYLINE
  5
148
330
17
100
AcDbEntity
  8
CUT_OUTER
100
AcDbPolyline
 90
4
 70
1
 10
509.6
 20
1325.0
 10
529.6
 20
1325.0
 10
529.6
 20
1355.0
 10
509.6
 20
1355.0
  0
CIRCLE
  5
149
330
17
100
AcDbEntity
  8
CUT_HOLES
100
AcDbCircle
 10
519.6
 20
1340.0
 30
0.0
 40
3.3
  0
TEXT
  5
14A
330
17
100
AcDbEntity
  8
PART_MARK_NO_CUT
100
AcDbText
 10
511.6
 20
1327.0
 30
0.0
 40
3.0
  1
G_PANEL_CLAMP_20x30 #13
100
AcDbText
  0
LWPOLYLINE
  5
14B
330
17
100
AcDbEntity
  8
CUT_OUTER
100
AcDbPolyline
 90
4
 70
1
 10
519.6
 20
1289.0
 10
539.6
 20
1289.0
 10
539.6
 20
1319.0
 10
519.6
 20
1319.0
  0
CIRCLE
  5
14C
330
17
100
AcDbEntity
  8
CUT_HOLES
100
AcDbCircle
 10
529.6
 20
1304.0
 30
0.0
 40
3.3
  0
TEXT
  5
14D
330
17
100
AcDbEntity
  8
PART_MARK_NO_CUT
100
AcDbText
 10
521.6
 20
1291.0
 30
0.0
 40
3.0
  1
G_PANEL_CLAMP_20x30 #14
100
AcDbText
  0
LWPOLYLINE
  5
14E
330
17
100
AcDbEntity
  8
CUT_OUTER
100
AcDbPolyline
 90
4
 70
1
 10
509.6
 20
1397.0
 10
529.6
 20
1397.0
 10
529.6
 20
1427.0
 10
509.6
 20
1427.0
  0
CIRCLE
  5
14F
330
17
100
AcDbEntity
  8
CUT_HOLES
100
AcDbCircle
 10
519.6
 20
1412.0
 30
0.0
 40
3.3
  0
TEXT
  5
150
330
17
100
AcDbEntity
  8
PART_MARK_NO_CUT
100
AcDbText
 10
511.6
 20
1399.0
 30
0.0
 40
3.0
  1
G_PANEL_CLAMP_20x30 #15
100
AcDbText
  0
LWPOLYLINE
  5
151
330
17
100
AcDbEntity
  8
CUT_OUTER
100
AcDbPolyline
 90
4
 70
1
 10
527.6
 20
1361.0
 10
547.6
 20
1361.0
 10
547.6
 20
1391.0
 10
527.6
 20
1391.0
  0
CIRCLE
  5
152
330
17
100
AcDbEntity
  8
CUT_HOLES
100
AcDbCircle
 10
537.6
 20
1376.0
 30
0.0
 40
3.3
  0
TEXT
  5
153
330
17
100
AcDbEntity
  8
PART_MARK_NO_CUT
100
AcDbText
 10
529.6
 20
1363.0
 30
0.0
 40
3.0
  1
G_PANEL_CLAMP_20x30 #16
100
AcDbText
  0
ENDSEC
  0
SECTION
  2
OBJECTS
  0
DICTIONARY
  5
A
330
0
100
AcDbDictionary
281
1
  3
ACAD_COLOR
350
B
  3
ACAD_GROUP
350
C
  3
ACAD_LAYOUT
350
D
  3
ACAD_MATERIAL
350
E
  3
ACAD_MLEADERSTYLE
350
F
  3
ACAD_MLINESTYLE
350
10
  3
ACAD_PLOTSETTINGS
350
11
  3
ACAD_PLOTSTYLENAME
350
12
  3
ACAD_SCALELIST
350
14
  3
ACAD_TABLESTYLE
350
15
  3
ACAD_VISUALSTYLE
350
16
  3
EZDXF_META
350
2D
  0
DICTIONARY
  5
B
330
A
100
AcDbDictionary
281
1
  0
DICTIONARY
  5
C
330
A
100
AcDbDictionary
281
1
  0
DICTIONARY
  5
D
330
A
100
AcDbDictionary
281
1
  3
Model
350
1A
  3
Layout1
350
1E
  0
DICTIONARY
  5
E
330
A
100
AcDbDictionary
281
1
  3
ByBlock
350
1F
  3
ByLayer
350
20
  3
Global
350
21
  0
DICTIONARY
  5
F
330
A
100
AcDbDictionary
281
1
  3
Standard
350
2C
  0
DICTIONARY
  5
10
330
A
100
AcDbDictionary
281
1
  3
Standard
350
22
  0
DICTIONARY
  5
11
330
A
100
AcDbDictionary
281
1
  0
ACDBDICTIONARYWDFLT
  5
12
330
A
100
AcDbDictionary
281
1
  3
Normal
350
13
100
AcDbDictionaryWithDefault
340
13
  0
ACDBPLACEHOLDER
  5
13
330
12
  0
DICTIONARY
  5
14
330
A
100
AcDbDictionary
281
1
  0
DICTIONARY
  5
15
330
A
100
AcDbDictionary
281
1
  0
DICTIONARY
  5
16
330
A
100
AcDbDictionary
281
1
  0
LAYOUT
  5
1A
330
D
100
AcDbPlotSettings
  1

  4
A3
  6

 40
7.5
 41
20.0
 42
7.5
 43
20.0
 44
420.0
 45
297.0
 46
0.0
 47
0.0
 48
0.0
 49
0.0
140
0.0
141
0.0
142
1.0
143
1.0
 70
1024
 72
1
 73
0
 74
5
  7

 75
16
 76
0
 77
2
 78
300
147
1.0
148
0.0
149
0.0
100
AcDbLayout
  1
Model
 70
1
 71
0
 10
0.0
 20
0.0
 11
420.0
 21
297.0
 12
0.0
 22
0.0
 32
0.0
 14
1e+20
 24
1e+20
 34
1e+20
 15
-1e+20
 25
-1e+20
 35
-1e+20
146
0.0
 13
0.0
 23
0.0
 33
0.0
 16
1.0
 26
0.0
 36
0.0
 17
0.0
 27
1.0
 37
0.0
 76
1
330
17
  0
LAYOUT
  5
1E
330
D
100
AcDbPlotSettings
  1

  4
A3
  6

 40
7.5
 41
20.0
 42
7.5
 43
20.0
 44
420.0
 45
297.0
 46
0.0
 47
0.0
 48
0.0
 49
0.0
140
0.0
141
0.0
142
1.0
143
1.0
 70
0
 72
1
 73
0
 74
5
  7

 75
16
 76
0
 77
2
 78
300
147
1.0
148
0.0
149
0.0
100
AcDbLayout
  1
Layout1
 70
1
 71
1
 10
0.0
 20
0.0
 11
420.0
 21
297.0
 12
0.0
 22
0.0
 32
0.0
 14
1e+20
 24
1e+20
 34
1e+20
 15
-1e+20
 25
-1e+20
 35
-1e+20
146
0.0
 13
0.0
 23
0.0
 33
0.0
 16
1.0
 26
0.0
 36
0.0
 17
0.0
 27
1.0
 37
0.0
 76
1
330
1B
  0
MATERIAL
  5
1F
102
{ACAD_REACTORS
330
E
102
}
330
E
100
AcDbMaterial
  1
ByBlock
  2

 70
0
 40
1.0
 71
1
 41
1.0
 91
-1023410177
 42
1.0
 72
1
  3

 73
1
 74
1
 75
1
 44
0.5
 73
0
 45
1.0
 46
1.0
 77
1
  4

 78
1
 79
1
170
1
 48
1.0
171
1
  6

172
1
173
1
174
1
140
1.0
141
1.0
175
1
  7

176
1
177
1
178
1
143
1.0
179
1
  8

270
1
271
1
272
1
145
1.0
146
1.0
273
1
  9

274
1
275
1
276
1
 42
1.0
 72
1
  3

 73
1
 74
1
 75
1
 94
63
  0
MATERIAL
  5
20
102
{ACAD_REACTORS
330
E
102
}
330
E
100
AcDbMaterial
  1
ByLayer
  2

 70
0
 40
1.0
 71
1
 41
1.0
 91
-1023410177
 42
1.0
 72
1
  3

 73
1
 74
1
 75
1
 44
0.5
 73
0
 45
1.0
 46
1.0
 77
1
  4

 78
1
 79
1
170
1
 48
1.0
171
1
  6

172
1
173
1
174
1
140
1.0
141
1.0
175
1
  7

176
1
177
1
178
1
143
1.0
179
1
  8

270
1
271
1
272
1
145
1.0
146
1.0
273
1
  9

274
1
275
1
276
1
 42
1.0
 72
1
  3

 73
1
 74
1
 75
1
 94
63
  0
MATERIAL
  5
21
102
{ACAD_REACTORS
330
E
102
}
330
E
100
AcDbMaterial
  1
Global
  2

 70
0
 40
1.0
 71
1
 41
1.0
 91
-1023410177
 42
1.0
 72
1
  3

 73
1
 74
1
 75
1
 44
0.5
 73
0
 45
1.0
 46
1.0
 77
1
  4

 78
1
 79
1
170
1
 48
1.0
171
1
  6

172
1
173
1
174
1
140
1.0
141
1.0
175
1
  7

176
1
177
1
178
1
143
1.0
179
1
  8

270
1
271
1
272
1
145
1.0
146
1.0
273
1
  9

274
1
275
1
276
1
 42
1.0
 72
1
  3

 73
1
 74
1
 75
1
 94
63
  0
MLINESTYLE
  5
22
102
{ACAD_REACTORS
330
10
102
}
330
10
100
AcDbMlineStyle
  2
Standard
 70
0
  3

 62
256
 51
90.0
 52
90.0
 71
2
 49
0.5
 62
256
  6
BYLAYER
 49
-0.5
 62
256
  6
BYLAYER
  0
MLEADERSTYLE
  5
2C
102
{ACAD_REACTORS
330
F
102
}
330
F
100
AcDbMLeaderStyle
179
2
170
2
171
1
172
0
 90
2
 40
0.0
 41
0.0
173
1
 91
-1056964608
 92
-2
290
1
 42
2.0
291
1
 43
8.0
  3
Standard
 44
4.0
300

342
29
174
1
175
1
176
0
178
1
 93
-1056964608
 45
4.0
292
0
297
0
 46
4.0
 94
-1056964608
 47
1.0
 49
1.0
140
1.0
294
1
141
0.0
177
0
142
1.0
295
0
296
0
143
3.75
271
0
272
9
273
9
  0
DICTIONARY
  5
2D
330
A
100
AcDbDictionary
280
1
281
1
  3
CREATED_BY_EZDXF
350
2E
  3
WRITTEN_BY_EZDXF
350
156
  0
DICTIONARYVAR
  5
2E
330
2D
100
DictionaryVariables
280
0
  1
1.4.4 @ 2026-09-26T18:26:10.062344+00:00
  0
DICTIONARYVAR
  5
156
330
2D
100
DictionaryVariables
280
0
  1
1.4.4 @ 2026-09-26T18:26:10.439976+00:00
  0
ENDSEC
  0
EOF
