  0
SECTION
  2
HEADER
  9
$ACADVER
  1
AC1024
  9
$ACADMAINTVER
 70
6
  9
$DWGCODEPAGE
  3
ANSI_1252
  9
$LASTSAVEDBY
  1
ezdxf
  9
$INSBASE
 10
0.0
 20
0.0
 30
0.0
  9
$EXTMIN
 10
1e+20
 20
1e+20
 30
1e+20
  9
$EXTMAX
 10
-1e+20
 20
-1e+20
 30
-1e+20
  9
$LIMMIN
 10
0.0
 20
0.0
  9
$LIMMAX
 10
420.0
 20
297.0
  9
$ORTHOMODE
 70
0
  9
$REGENMODE
 70
1
  9
$FILLMODE
 70
1
  9
$QTEXTMODE
 70
0
  9
$MIRRTEXT
 70
1
  9
$LTSCALE
 40
1.0
  9
$ATTMODE
 70
1
  9
$TEXTSIZE
 40
2.5
  9
$TRACEWID
 40
1.0
  9
$TEXTSTYLE
  7
Standard
  9
$CLAYER
  8
0
  9
$CELTYPE
  6
ByLayer
  9
$CECOLOR
 62
256
  9
$CELTSCALE
 40
1.0
  9
$DISPSILH
 70
0
  9
$DIMSCALE
 40
1.0
  9
$DIMASZ
 40
2.5
  9
$DIMEXO
 40
0.625
  9
$DIMDLI
 40
3.75
  9
$DIMRND
 40
0.0
  9
$DIMDLE
 40
0.0
  9
$DIMEXE
 40
1.25
  9
$DIMTP
 40
0.0
  9
$DIMTM
 40
0.0
  9
$DIMTXT
 40
2.5
  9
$DIMCEN
 40
2.5
  9
$DIMTSZ
 40
0.0
  9
$DIMTOL
 70
0
  9
$DIMLIM
 70
0
  9
$DIMTIH
 70
0
  9
$DIMTOH
 70
0
  9
$DIMSE1
 70
0
  9
$DIMSE2
 70
0
  9
$DIMTAD
 70
1
  9
$DIMZIN
 70
8
  9
$DIMBLK
  1

  9
$DIMASO
 70
1
  9
$DIMSHO
 70
1
  9
$DIMPOST
  1

  9
$DIMAPOST
  1

  9
$DIMALT
 70
0
  9
$DIMALTD
 70
3
  9
$DIMALTF
 40
0.03937007874
  9
$DIMLFAC
 40
1.0
  9
$DIMTOFL
 70
1
  9
$DIMTVP
 40
0.0
  9
$DIMTIX
 70
0
  9
$DIMSOXD
 70
0
  9
$DIMSAH
 70
0
  9
$DIMBLK1
  1

  9
$DIMBLK2
  1

  9
$DIMSTYLE
  2
ISO-25
  9
$DIMCLRD
 70
0
  9
$DIMCLRE
 70
0
  9
$DIMCLRT
 70
0
  9
$DIMTFAC
 40
1.0
  9
$DIMGAP
 40
0.625
  9
$DIMJUST
 70
0
  9
$DIMSD1
 70
0
  9
$DIMSD2
 70
0
  9
$DIMTOLJ
 70
0
  9
$DIMTZIN
 70
8
  9
$DIMALTZ
 70
0
  9
$DIMALTTZ
 70
0
  9
$DIMUPT
 70
0
  9
$DIMDEC
 70
2
  9
$DIMTDEC
 70
2
  9
$DIMALTU
 70
2
  9
$DIMALTTD
 70
3
  9
$DIMTXSTY
  7
Standard
  9
$DIMAUNIT
 70
0
  9
$DIMADEC
 70
0
  9
$DIMALTRND
 40
0.0
  9
$DIMAZIN
 70
0
  9
$DIMDSEP
 70
44
  9
$DIMATFIT
 70
3
  9
$DIMFRAC
 70
0
  9
$DIMLDRBLK
  1

  9
$DIMLUNIT
 70
2
  9
$DIMLWD
 70
-2
  9
$DIMLWE
 70
-2
  9
$DIMTMOVE
 70
0
  9
$DIMFXL
 40
1.0
  9
$DIMFXLON
 70
0
  9
$DIMJOGANG
 40
0.785398163397
  9
$DIMTFILL
 70
0
  9
$DIMTFILLCLR
 70
0
  9
$DIMARCSYM
 70
0
  9
$DIMLTYPE
  6

  9
$DIMLTEX1
  6

  9
$DIMLTEX2
  6

  9
$DIMTXTDIRECTION
 70
0
  9
$LUNITS
 70
2
  9
$LUPREC
 70
4
  9
$SKETCHINC
 40
1.0
  9
$FILLETRAD
 40
10.0
  9
$AUNITS
 70
0
  9
$AUPREC
 70
2
  9
$MENU
  1
.
  9
$ELEVATION
 40
0.0
  9
$PELEVATION
 40
0.0
  9
$THICKNESS
 40
0.0
  9
$LIMCHECK
 70
0
  9
$CHAMFERA
 40
0.0
  9
$CHAMFERB
 40
0.0
  9
$CHAMFERC
 40
0.0
  9
$CHAMFERD
 40
0.0
  9
$SKPOLY
 70
0
  9
$TDCREATE
 40
2461309.604421296
  9
$TDUCREATE
 40
2458532.153996898
  9
$TDUPDATE
 40
2461309.604421296
  9
$TDUUPDATE
 40
2458532.1544311
  9
$TDINDWG
 40
0.0
  9
$TDUSRTIMER
 40
0.0
  9
$USRTIMER
 70
1
  9
$ANGBASE
 50
0.0
  9
$ANGDIR
 70
0
  9
$PDMODE
 70
0
  9
$PDSIZE
 40
0.0
  9
$PLINEWID
 40
0.0
  9
$SPLFRAME
 70
0
  9
$SPLINETYPE
 70
6
  9
$SPLINESEGS
 70
8
  9
$HANDSEED
  5
135
  9
$SURFTAB1
 70
6
  9
$SURFTAB2
 70
6
  9
$SURFTYPE
 70
6
  9
$SURFU
 70
6
  9
$SURFV
 70
6
  9
$UCSBASE
  2

  9
$UCSNAME
  2

  9
$UCSORG
 10
0.0
 20
0.0
 30
0.0
  9
$UCSXDIR
 10
1.0
 20
0.0
 30
0.0
  9
$UCSYDIR
 10
0.0
 20
1.0
 30
0.0
  9
$UCSORTHOREF
  2

  9
$UCSORTHOVIEW
 70
0
  9
$UCSORGTOP
 10
0.0
 20
0.0
 30
0.0
  9
$UCSORGBOTTOM
 10
0.0
 20
0.0
 30
0.0
  9
$UCSORGLEFT
 10
0.0
 20
0.0
 30
0.0
  9
$UCSORGRIGHT
 10
0.0
 20
0.0
 30
0.0
  9
$UCSORGFRONT
 10
0.0
 20
0.0
 30
0.0
  9
$UCSORGBACK
 10
0.0
 20
0.0
 30
0.0
  9
$PUCSBASE
  2

  9
$PUCSNAME
  2

  9
$PUCSORG
 10
0.0
 20
0.0
 30
0.0
  9
$PUCSXDIR
 10
1.0
 20
0.0
 30
0.0
  9
$PUCSYDIR
 10
0.0
 20
1.0
 30
0.0
  9
$PUCSORTHOREF
  2

  9
$PUCSORTHOVIEW
 70
0
  9
$PUCSORGTOP
 10
0.0
 20
0.0
 30
0.0
  9
$PUCSORGBOTTOM
 10
0.0
 20
0.0
 30
0.0
  9
$PUCSORGLEFT
 10
0.0
 20
0.0
 30
0.0
  9
$PUCSORGRIGHT
 10
0.0
 20
0.0
 30
0.0
  9
$PUCSORGFRONT
 10
0.0
 20
0.0
 30
0.0
  9
$PUCSORGBACK
 10
0.0
 20
0.0
 30
0.0
  9
$USERI1
 70
0
  9
$USERI2
 70
0
  9
$USERI3
 70
0
  9
$USERI4
 70
0
  9
$USERI5
 70
0
  9
$USERR1
 40
0.0
  9
$USERR2
 40
0.0
  9
$USERR3
 40
0.0
  9
$USERR4
 40
0.0
  9
$USERR5
 40
0.0
  9
$WORLDVIEW
 70
1
  9
$SHADEDGE
 70
3
  9
$SHADEDIF
 70
70
  9
$TILEMODE
 70
1
  9
$MAXACTVP
 70
64
  9
$PINSBASE
 10
0.0
 20
0.0
 30
0.0
  9
$PLIMCHECK
 70
0
  9
$PEXTMIN
 10
1e+20
 20
1e+20
 30
1e+20
  9
$PEXTMAX
 10
-1e+20
 20
-1e+20
 30
-1e+20
  9
$PLIMMIN
 10
0.0
 20
0.0
  9
$PLIMMAX
 10
420.0
 20
297.0
  9
$UNITMODE
 70
0
  9
$VISRETAIN
 70
1
  9
$PLINEGEN
 70
0
  9
$PSLTSCALE
 70
1
  9
$TREEDEPTH
 70
3020
  9
$CMLSTYLE
  2
Standard
  9
$CMLJUST
 70
0
  9
$CMLSCALE
 40
20.0
  9
$PROXYGRAPHICS
 70
1
  9
$MEASUREMENT
 70
1
  9
$CELWEIGHT
370
-1
  9
$ENDCAPS
280
0
  9
$JOINSTYLE
280
0
  9
$LWDISPLAY
290
0
  9
$INSUNITS
 70
4
  9
$HYPERLINKBASE
  1

  9
$STYLESHEET
  1

  9
$XEDIT
290
1
  9
$CEPSNTYPE
380
0
  9
$PSTYLEMODE
290
1
  9
$FINGERPRINTGUID
  2
{D336C236-CF86-41B7-B043-DB9AE7B760A6}
  9
$VERSIONGUID
  2
{C4B98B30-C71F-4555-99FA-8AFB7CB07EF4}
  9
$EXTNAMES
290
1
  9
$PSVPSCALE
 40
0.0
  9
$OLESTARTUP
290
0
  9
$SORTENTS
280
127
  9
$INDEXCTL
280
0
  9
$HIDETEXT
280
1
  9
$XCLIPFRAME
280
1
  9
$HALOGAP
280
0
  9
$OBSCOLOR
 70
257
  9
$OBSLTYPE
280
0
  9
$INTERSECTIONDISPLAY
280
0
  9
$INTERSECTIONCOLOR
 70
257
  9
$DIMASSOC
280
2
  9
$PROJECTNAME
  1

  9
$CAMERADISPLAY
290
0
  9
$LENSLENGTH
 40
50.0
  9
$CAMERAHEIGHT
 40
0.0
  9
$STEPSPERSEC
 40
24.0
  9
$STEPSIZE
 40
100.0
  9
$3DDWFPREC
 40
2.0
  9
$PSOLWIDTH
 40
0.005
  9
$PSOLHEIGHT
 40
0.08
  9
$LOFTANG1
 40
1.570796326795
  9
$LOFTANG2
 40
1.570796326795
  9
$LOFTMAG1
 40
0.0
  9
$LOFTMAG2
 40
0.0
  9
$LOFTPARAM
 70
7
  9
$LOFTNORMALS
280
1
  9
$LATITUDE
 40
37.795
  9
$LONGITUDE
 40
-122.394
  9
$NORTHDIRECTION
 40
0.0
  9
$TIMEZONE
 70
-8000
  9
$LIGHTGLYPHDISPLAY
280
1
  9
$TILEMODELIGHTSYNCH
280
1
  9
$CMATERIAL
347
20
  9
$SOLIDHIST
280
0
  9
$SHOWHIST
280
1
  9
$DWFFRAME
280
2
  9
$DGNFRAME
280
2
  9
$REALWORLDSCALE
290
1
  9
$INTERFERECOLOR
 62
256
  9
$CSHADOW
280
0
  9
$SHADOWPLANELOCATION
 40
0.0
  0
ENDSEC
  0
SECTION
  2
CLASSES
  0
CLASS
  1
ACDBDICTIONARYWDFLT
  2
AcDbDictionaryWithDefault
  3
ObjectDBX Classes
 90
0
 91
0
280
0
281
0
  0
CLASS
  1
SUN
  2
AcDbSun
  3
SCENEOE
 90
1153
 91
0
280
0
281
0
  0
CLASS
  1
VISUALSTYLE
  2
AcDbVisualStyle
  3
ObjectDBX Classes
 90
4095
 91
0
280
0
281
0
  0
CLASS
  1
MATERIAL
  2
AcDbMaterial
  3
ObjectDBX Classes
 90
1153
 91
0
280
0
281
0
  0
CLASS
  1
SCALE
  2
AcDbScale
  3
ObjectDBX Classes
 90
1153
 91
0
280
0
281
0
  0
CLASS
  1
TABLESTYLE
  2
AcDbTableStyle
  3
ObjectDBX Classes
 90
4095
 91
0
280
0
281
0
  0
CLASS
  1
MLEADERSTYLE
  2
AcDbMLeaderStyle
  3
ACDB_MLEADERSTYLE_CLASS
 90
4095
 91
0
280
0
281
0
  0
CLASS
  1
DICTIONARYVAR
  2
AcDbDictionaryVar
  3
ObjectDBX Classes
 90
0
 91
0
280
0
281
0
  0
CLASS
  1
CELLSTYLEMAP
  2
AcDbCellStyleMap
  3
ObjectDBX Classes
 90
1152
 91
0
280
0
281
0
  0
CLASS
  1
MENTALRAYRENDERSETTINGS
  2
AcDbMentalRayRenderSettings
  3
SCENEOE
 90
1024
 91
0
280
0
281
0
  0
CLASS
  1
ACDBDETAILVIEWSTYLE
  2
AcDbDetailViewStyle
  3
ObjectDBX Classes
 90
1025
 91
0
280
0
281
0
  0
CLASS
  1
ACDBSECTIONVIEWSTYLE
  2
AcDbSectionViewStyle
  3
ObjectDBX Classes
 90
1025
 91
0
280
0
281
0
  0
CLASS
  1
RASTERVARIABLES
  2
AcDbRasterVariables
  3
ISM
 90
0
 91
0
280
0
281
0
  0
CLASS
  1
ACDBPLACEHOLDER
  2
AcDbPlaceHolder
  3
ObjectDBX Classes
 90
0
 91
0
280
0
281
0
  0
CLASS
  1
LAYOUT
  2
AcDbLayout
  3
ObjectDBX Classes
 90
0
 91
0
280
0
281
0
  0
ENDSEC
  0
SECTION
  2
TABLES
  0
TABLE
  2
VPORT
  5
8
330
0
100
AcDbSymbolTable
 70
1
  0
VPORT
  5
23
330
8
100
AcDbSymbolTableRecord
100
AcDbViewportTableRecord
  2
*Active
 70
0
 10
0.0
 20
0.0
 11
1.0
 21
1.0
 12
0.0
 22
0.0
 13
0.0
 23
0.0
 14
0.5
 24
0.5
 15
0.5
 25
0.5
 16
0.0
 26
0.0
 36
1.0
 17
0.0
 27
0.0
 37
0.0
 40
1000.0
 41
1.34
 42
50.0
 43
0.0
 44
0.0
 50
0.0
 51
0.0
 71
0
 72
1000
 73
1
 74
3
 75
0
 76
0
 77
0
 78
0
281
0
 65
0
146
0.0
  0
ENDTAB
  0
TABLE
  2
LTYPE
  5
2
330
0
100
AcDbSymbolTable
 70
3
  0
LTYPE
  5
24
330
2
100
AcDbSymbolTableRecord
100
AcDbLinetypeTableRecord
  2
ByBlock
 70
0
  3

 72
65
 73
0
 40
0.0
  0
LTYPE
  5
25
330
2
100
AcDbSymbolTableRecord
100
AcDbLinetypeTableRecord
  2
ByLayer
 70
0
  3

 72
65
 73
0
 40
0.0
  0
LTYPE
  5
26
330
2
100
AcDbSymbolTableRecord
100
AcDbLinetypeTableRecord
  2
Continuous
 70
0
  3

 72
65
 73
0
 40
0.0
  0
ENDTAB
  0
TABLE
  2
LAYER
  5
1
330
0
100
AcDbSymbolTable
 70
8
  0
LAYER
  5
27
330
1
100
AcDbSymbolTableRecord
100
AcDbLayerTableRecord
  2
0
 70
0
 62
7
  6
Continuous
370
-3
390
13
347
21
  0
LAYER
  5
28
330
1
100
AcDbSymbolTableRecord
100
AcDbLayerTableRecord
  2
Defpoints
 70
0
 62
7
  6
Continuous
290
0
370
-3
390
13
347
21
  0
LAYER
  5
2F
330
1
100
AcDbSymbolTableRecord
100
AcDbLayerTableRecord
  2
CUT_OUTER
 70
0
 62
7
  6
Continuous
370
-3
390
13
347
21
  0
LAYER
  5
30
330
1
100
AcDbSymbolTableRecord
100
AcDbLayerTableRecord
  2
CUT_HOLES
 70
0
 62
7
  6
Continuous
370
-3
390
13
347
21
  0
LAYER
  5
31
330
1
100
AcDbSymbolTableRecord
100
AcDbLayerTableRecord
  2
CUT_INNER
 70
0
 62
7
  6
Continuous
370
-3
390
13
347
21
  0
LAYER
  5
32
330
1
100
AcDbSymbolTableRecord
100
AcDbLayerTableRecord
  2
PART_MARK_NO_CUT
 70
0
 62
7
  6
Continuous
370
-3
390
13
347
21
  0
LAYER
  5
33
330
1
100
AcDbSymbolTableRecord
100
AcDbLayerTableRecord
  2
STOCK_NO_CUT
 70
0
 62
7
  6
Continuous
370
-3
390
13
347
21
  0
LAYER
  5
6E
330
1
100
AcDbSymbolTableRecord
100
AcDbLayerTableRecord
  2
MACHINING_NOTES
 70
0
 62
7
  6
Continuous
370
-3
390
13
347
21
  0
ENDTAB
  0
TABLE
  2
STYLE
  5
5
330
0
100
AcDbSymbolTable
 70
1
  0
STYLE
  5
29
330
5
100
AcDbSymbolTableRecord
100
AcDbTextStyleTableRecord
  2
Standard
 70
0
 40
0.0
 41
1.0
 50
0.0
 71
0
 42
2.5
  3
txt
  4

  0
ENDTAB
  0
TABLE
  2
VIEW
  5
7
330
0
100
AcDbSymbolTable
 70
0
  0
ENDTAB
  0
TABLE
  2
UCS
  5
6
330
0
100
AcDbSymbolTable
 70
0
  0
ENDTAB
  0
TABLE
  2
APPID
  5
3
330
0
100
AcDbSymbolTable
 70
3
  0
APPID
  5
2A
330
3
100
AcDbSymbolTableRecord
100
AcDbRegAppTableRecord
  2
ACAD
 70
0
  0
APPID
  5
132
330
3
100
AcDbSymbolTableRecord
100
AcDbRegAppTableRecord
  2
HATCHBACKGROUNDCOLOR
 70
0
  0
APPID
  5
133
330
3
100
AcDbSymbolTableRecord
100
AcDbRegAppTableRecord
  2
EZDXF
 70
0
  0
ENDTAB
  0
TABLE
  2
DIMSTYLE
  5
4
330
0
100
AcDbSymbolTable
 70
1
100
AcDbDimStyleTable
  0
DIMSTYLE
105
2B
330
4
100
AcDbSymbolTableRecord
100
AcDbDimStyleTableRecord
  2
Standard
 70
0
 40
1.0
 41
2.5
 42
0.625
 43
3.75
 44
1.25
 45
0.0
 46
0.0
 47
0.0
 48
0.0
 49
2.5
140
2.5
141
2.5
142
0.0
143
0.03937007874
144
1.0
145
0.0
146
1.0
147
0.625
148
0.0
 69
0
 70
0
 71
0
 72
0
 73
0
 74
0
 75
0
 76
0
 77
1
 78
8
 79
3
170
0
171
3
172
1
173
0
174
0
175
0
176
0
177
0
178
0
179
2
271
2
272
2
273
2
274
3
275
0
276
0
277
2
278
44
279
0
280
0
281
0
282
0
283
0
284
8
285
0
286
0
288
0
289
3
290
0
371
-2
372
-2
  0
ENDTAB
  0
TABLE
  2
BLOCK_RECORD
  5
9
330
0
100
AcDbSymbolTable
 70
2
  0
BLOCK_RECORD
  5
17
330
9
100
AcDbSymbolTableRecord
100
AcDbBlockTableRecord
  2
*Model_Space
340
1A
 70
0
280
1
281
0
  0
BLOCK_RECORD
  5
1B
330
9
100
AcDbSymbolTableRecord
100
AcDbBlockTableRecord
  2
*Paper_Space
340
1E
 70
0
280
1
281
0
  0
ENDTAB
  0
ENDSEC
  0
SECTION
  2
BLOCKS
  0
BLOCK
  5
18
330
17
100
AcDbEntity
  8
0
100
AcDbBlockBegin
  2
*Model_Space
 70
0
 10
0.0
 20
0.0
 30
0.0
  3
*Model_Space
  1

  0
ENDBLK
  5
19
330
17
100
AcDbEntity
  8
0
100
AcDbBlockEnd
  0
BLOCK
  5
1C
330
1B
100
AcDbEntity
  8
0
100
AcDbBlockBegin
  2
*Paper_Space
 70
0
 10
0.0
 20
0.0
 30
0.0
  3
*Paper_Space
  1

  0
ENDBLK
  5
1D
330
1B
100
AcDbEntity
  8
0
100
AcDbBlockEnd
  0
ENDSEC
  0
SECTION
  2
ENTITIES
  0
LWPOLYLINE
  5
34
330
17
100
AcDbEntity
  8
STOCK_NO_CUT
100
AcDbPolyline
 90
4
 70
1
 10
0.0
 20
0.0
 10
1219.2
 20
0.0
 10
1219.2
 20
2438.4
 10
0.0
 20
2438.4
  0
LWPOLYLINE
  5
35
330
17
100
AcDbEntity
  8
CUT_OUTER
100
AcDbPolyline
 90
4
 70
1
 10
10.0
 20
10.0
 10
60.8
 20
10.0
 10
60.8
 20
1460.0
 10
10.0
 20
1460.0
  0
TEXT
  5
36
330
17
100
AcDbEntity
  8
PART_MARK_NO_CUT
100
AcDbText
 10
12.0
 20
12.0
 30
0.0
 40
3.0
  1
CAP_SPACER #1
100
AcDbText
  0
LWPOLYLINE
  5
37
330
17
100
AcDbEntity
  8
CUT_OUTER
100
AcDbPolyline
 90
4
 70
1
 10
66.8
 20
10.0
 10
117.6
 20
10.0
 10
117.6
 20
1460.0
 10
66.8
 20
1460.0
  0
TEXT
  5
38
330
17
100
AcDbEntity
  8
PART_MARK_NO_CUT
100
AcDbText
 10
68.8
 20
12.0
 30
0.0
 40
3.0
  1
CAP_SPACER #2
100
AcDbText
  0
LWPOLYLINE
  5
39
330
17
100
AcDbEntity
  8
CUT_OUTER
100
AcDbPolyline
 90
80
 70
1
 10
10.0
 20
1477.2000000000003
 10
1130.0
 20
1466.0
 10
1130.0
 20
1522.40184760381
 10
1113.3239999999998
 20
1522.40184760381
 10
1113.3239999999998
 20
1502.40184760381
 10
1109.724
 20
1502.40184760381
 10
1109.724
 20
1522.40184760381
 10
1053.3239999999998
 20
1522.40184760381
 10
1053.3239999999998
 20
1502.40184760381
 10
1049.724
 20
1502.40184760381
 10
1049.724
 20
1522.40184760381
 10
993.3239999999998
 20
1522.40184760381
 10
993.3239999999998
 20
1502.40184760381
 10
989.7239999999999
 20
1502.40184760381
 10
989.7239999999999
 20
1522.40184760381
 10
933.324
 20
1522.40184760381
 10
933.324
 20
1502.40184760381
 10
929.724
 20
1502.40184760381
 10
929.724
 20
1522.40184760381
 10
873.324
 20
1522.40184760381
 10
873.324
 20
1502.40184760381
 10
869.724
 20
1502.40184760381
 10
869.724
 20
1522.40184760381
 10
813.324
 20
1522.40184760381
 10
813.324
 20
1502.40184760381
 10
809.724
 20
1502.40184760381
 10
809.724
 20
1522.40184760381
 10
753.324
 20
1522.40184760381
 10
753.324
 20
1502.40184760381
 10
749.724
 20
1502.40184760381
 10
749.724
 20
1522.40184760381
 10
693.324
 20
1522.40184760381
 10
693.324
 20
1502.40184760381
 10
689.724
 20
1502.40184760381
 10
689.724
 20
1522.40184760381
 10
633.324
 20
1522.40184760381
 10
633.324
 20
1502.40184760381
 10
629.724
 20
1502.40184760381
 10
629.724
 20
1522.40184760381
 10
573.324
 20
1522.40184760381
 10
573.324
 20
1502.40184760381
 10
569.724
 20
1502.40184760381
 10
569.724
 20
1522.40184760381
 10
513.3240000000001
 20
1522.40184760381
 10
513.3240000000001
 20
1502.40184760381
 10
509.724
 20
1502.40184760381
 10
509.724
 20
1522.40184760381
 10
453.324
 20
1522.40184760381
 10
453.324
 20
1502.40184760381
 10
449.724
 20
1502.40184760381
 10
449.724
 20
1522.40184760381
 10
393.324
 20
1522.40184760381
 10
393.324
 20
1502.40184760381
 10
389.724
 20
1502.40184760381
 10
389.724
 20
1522.40184760381
 10
333.324
 20
1522.40184760381
 10
333.324
 20
1502.40184760381
 10
329.724
 20
1502.40184760381
 10
329.724
 20
1522.40184760381
 10
273.324
 20
1522.40184760381
 10
273.324
 20
1502.40184760381
 10
269.724
 20
1502.40184760381
 10
269.724
 20
1522.40184760381
 10
213.324
 20
1522.40184760381
 10
213.324
 20
1502.40184760381
 10
209.724
 20
1502.40184760381
 10
209.724
 20
1522.40184760381
 10
153.324
 20
1522.40184760381
 10
153.324
 20
1502.40184760381
 10
149.724
 20
1502.40184760381
 10
149.724
 20
1522.40184760381
 10
93.324
 20
1522.40184760381
 10
93.324
 20
1502.40184760381
 10
89.724
 20
1502.40184760381
 10
89.724
 20
1522.40184760381
 10
33.324
 20
1522.40184760381
 10
33.324
 20
1502.40184760381
 10
29.724
 20
1502.40184760381
 10
29.724
 20
1522.40184760381
 10
10.0
 20
1522.40184760381
  0
TEXT
  5
3A
330
17
100
AcDbEntity
  8
PART_MARK_NO_CUT
100
AcDbText
 10
12.0
 20
1468.0
 30
0.0
 40
3.0
  1
WP_COMB #1
100
AcDbText
  0
LWPOLYLINE
  5
3B
330
17
100
AcDbEntity
  8
CUT_OUTER
100
AcDbPolyline
 90
80
 70
1
 10
1181.2018476038097
 20
10.000000000000002
 10
1192.40184760381
 20
1130.0
 10
1136.0
 20
1130.0
 10
1136.0
 20
1113.3239999999998
 10
1156.0
 20
1113.3239999999998
 10
1156.0
 20
1109.724
 10
1136.0
 20
1109.724
 10
1136.0
 20
1053.3239999999998
 10
1156.0
 20
1053.3239999999998
 10
1156.0
 20
1049.724
 10
1136.0
 20
1049.724
 10
1136.0
 20
993.3239999999998
 10
1156.0
 20
993.3239999999998
 10
1156.0
 20
989.7239999999999
 10
1136.0
 20
989.7239999999999
 10
1136.0
 20
933.324
 10
1156.0
 20
933.324
 10
1156.0
 20
929.724
 10
1136.0
 20
929.724
 10
1136.0
 20
873.324
 10
1156.0
 20
873.324
 10
1156.0
 20
869.724
 10
1136.0
 20
869.724
 10
1136.0
 20
813.324
 10
1156.0
 20
813.324
 10
1156.0
 20
809.724
 10
1136.0
 20
809.724
 10
1136.0
 20
753.324
 10
1156.0
 20
753.324
 10
1156.0
 20
749.724
 10
1136.0
 20
749.724
 10
1136.0
 20
693.324
 10
1156.0
 20
693.324
 10
1156.0
 20
689.724
 10
1136.0
 20
689.724
 10
1136.0
 20
633.324
 10
1156.0
 20
633.324
 10
1156.0
 20
629.724
 10
1136.0
 20
629.724
 10
1136.0
 20
573.324
 10
1156.0
 20
573.324
 10
1156.0
 20
569.724
 10
1136.0
 20
569.724
 10
1136.0
 20
513.3240000000001
 10
1156.0
 20
513.3240000000001
 10
1156.0
 20
509.724
 10
1136.0
 20
509.724
 10
1136.0
 20
453.324
 10
1156.0
 20
453.324
 10
1156.0
 20
449.724
 10
1136.0
 20
449.724
 10
1136.0
 20
393.324
 10
1156.0
 20
393.324
 10
1156.0
 20
389.724
 10
1136.0
 20
389.724
 10
1136.0
 20
333.324
 10
1156.0
 20
333.324
 10
1156.0
 20
329.724
 10
1136.0
 20
329.724
 10
1136.0
 20
273.324
 10
1156.0
 20
273.324
 10
1156.0
 20
269.724
 10
1136.0
 20
269.724
 10
1136.0
 20
213.324
 10
1156.0
 20
213.324
 10
1156.0
 20
209.724
 10
1136.0
 20
209.724
 10
1136.0
 20
153.324
 10
1156.0
 20
153.324
 10
1156.0
 20
149.724
 10
1136.0
 20
149.724
 10
1136.0
 20
93.324
 10
1156.0
 20
93.324
 10
1156.0
 20
89.724
 10
1136.0
 20
89.724
 10
1136.0
 20
33.324000000000005
 10
1156.0
 20
33.324000000000005
 10
1156.0
 20
29.724000000000004
 10
1136.0
 20
29.724000000000004
 10
1136.0
 20
10.000000000000004
  0
TEXT
  5
3C
330
17
100
AcDbEntity
  8
PART_MARK_NO_CUT
100
AcDbText
 10
1138.0
 20
12.0
 30
0.0
 40
3.0
  1
WP_COMB #2
100
AcDbText
  0
LWPOLYLINE
  5
3D
330
17
100
AcDbEntity
  8
CUT_OUTER
100
AcDbPolyline
 90
4
 70
1
 10
123.6
 20
10.0
 10
1089.696
 20
10.0
 10
1089.696
 20
40.0
 10
123.6
 20
40.0
  0
CIRCLE
  5
3E
330
17
100
AcDbEntity
  8
CUT_HOLES
100
AcDbCircle
 10
151.648
 20
25.0
 30
0.0
 40
3.3
  0
CIRCLE
  5
3F
330
17
100
AcDbEntity
  8
CUT_HOLES
100
AcDbCircle
 10
381.648
 20
25.0
 30
0.0
 40
3.3
  0
CIRCLE
  5
40
330
17
100
AcDbEntity
  8
CUT_HOLES
100
AcDbCircle
 10
606.648
 20
25.0
 30
0.0
 40
3.3
  0
CIRCLE
  5
41
330
17
100
AcDbEntity
  8
CUT_HOLES
100
AcDbCircle
 10
831.648
 20
25.0
 30
0.0
 40
3.3
  0
CIRCLE
  5
42
330
17
100
AcDbEntity
  8
CUT_HOLES
100
AcDbCircle
 10
1061.648
 20
25.0
 30
0.0
 40
3.3
  0
TEXT
  5
43
330
17
100
AcDbEntity
  8
PART_MARK_NO_CUT
100
AcDbText
 10
125.6
 20
12.0
 30
0.0
 40
3.0
  1
WT_RIM_FRONT #1
100
AcDbText
  0
LWPOLYLINE
  5
44
330
17
100
AcDbEntity
  8
CUT_OUTER
100
AcDbPolyline
 90
4
 70
1
 10
1125.696
 20
10.0
 10
1125.696
 20
976.096
 10
1095.696
 20
976.096
 10
1095.696
 20
10.000000000000002
  0
CIRCLE
  5
45
330
17
100
AcDbEntity
  8
CUT_HOLES
100
AcDbCircle
 10
1110.696
 20
38.048
 30
0.0
 40
3.3
  0
CIRCLE
  5
46
330
17
100
AcDbEntity
  8
CUT_HOLES
100
AcDbCircle
 10
1110.696
 20
268.048
 30
0.0
 40
3.3
  0
CIRCLE
  5
47
330
17
100
AcDbEntity
  8
CUT_HOLES
100
AcDbCircle
 10
1110.696
 20
493.048
 30
0.0
 40
3.3
  0
CIRCLE
  5
48
330
17
100
AcDbEntity
  8
CUT_HOLES
100
AcDbCircle
 10
1110.696
 20
718.048
 30
0.0
 40
3.3
  0
CIRCLE
  5
49
330
17
100
AcDbEntity
  8
CUT_HOLES
100
AcDbCircle
 10
1110.696
 20
948.048
 30
0.0
 40
3.3
  0
TEXT
  5
4A
330
17
100
AcDbEntity
  8
PART_MARK_NO_CUT
100
AcDbText
 10
1097.696
 20
12.0
 30
0.0
 40
3.0
  1
WT_RIM_REAR #1
100
AcDbText
  0
LWPOLYLINE
  5
4B
330
17
100
AcDbEntity
  8
CUT_OUTER
100
AcDbPolyline
 90
4
 70
1
 10
123.6
 20
1136.0
 10
237.8
 20
1136.0
 10
237.8
 20
1308.0
 10
123.6
 20
1308.0
  0
TEXT
  5
4C
330
17
100
AcDbEntity
  8
PART_MARK_NO_CUT
100
AcDbText
 10
125.6
 20
1138.0
 30
0.0
 40
3.0
  1
G_RACK_BEAM_SHELF_2 #1
100
AcDbText
  0
LWPOLYLINE
  5
4D
330
17
100
AcDbEntity
  8
CUT_OUTER
100
AcDbPolyline
 90
4
 70
1
 10
1136.0
 20
1136.0
 10
1166.0
 20
1136.0
 10
1166.0
 20
1742.096
 10
1136.0
 20
1742.096
  0
CIRCLE
  5
4E
330
17
100
AcDbEntity
  8
CUT_HOLES
100
AcDbCircle
 10
1151.0
 20
1324.048
 30
0.0
 40
3.3
  0
CIRCLE
  5
4F
330
17
100
AcDbEntity
  8
CUT_HOLES
100
AcDbCircle
 10
1151.0
 20
1489.048
 30
0.0
 40
3.3
  0
CIRCLE
  5
50
330
17
100
AcDbEntity
  8
CUT_HOLES
100
AcDbCircle
 10
1151.0
 20
1654.048
 30
0.0
 40
3.3
  0
TEXT
  5
51
330
17
100
AcDbEntity
  8
PART_MARK_NO_CUT
100
AcDbText
 10
1138.0
 20
1138.0
 30
0.0
 40
3.0
  1
WT_RIM_LEFT #1
100
AcDbText
  0
LWPOLYLINE
  5
52
330
17
100
AcDbEntity
  8
CUT_OUTER
100
AcDbPolyline
 90
4
 70
1
 10
1172.0
 20
1136.0
 10
1202.0
 20
1136.0
 10
1202.0
 20
1742.096
 10
1172.0
 20
1742.096
  0
CIRCLE
  5
53
330
17
100
AcDbEntity
  8
CUT_HOLES
100
AcDbCircle
 10
1187.0
 20
1324.048
 30
0.0
 40
3.3
  0
CIRCLE
  5
54
330
17
100
AcDbEntity
  8
CUT_HOLES
100
AcDbCircle
 10
1187.0
 20
1489.048
 30
0.0
 40
3.3
  0
CIRCLE
  5
55
330
17
100
AcDbEntity
  8
CUT_HOLES
100
AcDbCircle
 10
1187.0
 20
1654.048
 30
0.0
 40
3.3
  0
TEXT
  5
56
330
17
100
AcDbEntity
  8
PART_MARK_NO_CUT
100
AcDbText
 10
1174.0
 20
1138.0
 30
0.0
 40
3.0
  1
WT_RIM_RIGHT #1
100
AcDbText
  0
LWPOLYLINE
  5
57
330
17
100
AcDbEntity
  8
CUT_OUTER
100
AcDbPolyline
 90
4
 70
1
 10
123.6
 20
46.0
 10
1023.6
 20
46.0
 10
1023.6
 20
62.24000000000001
 10
123.6
 20
62.24000000000001
  0
TEXT
  5
58
330
17
100
AcDbEntity
  8
PART_MARK_NO_CUT
100
AcDbText
 10
125.6
 20
48.0
 30
0.0
 40
3.0
  1
WP_CRADLE_WEB_1_1 #1
100
AcDbText
  0
LWPOLYLINE
  5
59
330
17
100
AcDbEntity
  8
CUT_OUTER
100
AcDbPolyline
 90
4
 70
1
 10
1045.3919999999998
 20
46.0
 10
1045.3919999999998
 20
946.0
 10
1029.6
 20
946.0
 10
1029.6
 20
46.0
  0
TEXT
  5
5A
330
17
100
AcDbEntity
  8
PART_MARK_NO_CUT
100
AcDbText
 10
1031.6
 20
48.0
 30
0.0
 40
3.0
  1
WP_CRADLE_WEB_1_2 #1
100
AcDbText
  0
LWPOLYLINE
  5
5B
330
17
100
AcDbEntity
  8
CUT_OUTER
100
AcDbPolyline
 90
4
 70
1
 10
123.6
 20
952.0
 10
202.8
 20
952.0
 10
202.8
 20
1124.0
 10
123.6
 20
1124.0
  0
TEXT
  5
5C
330
17
100
AcDbEntity
  8
PART_MARK_NO_CUT
100
AcDbText
 10
125.6
 20
954.0
 30
0.0
 40
3.0
  1
G_RACK_BEAM_SHELF_1 #1
100
AcDbText
  0
LWPOLYLINE
  5
5D
330
17
100
AcDbEntity
  8
CUT_OUTER
100
AcDbPolyline
 90
4
 70
1
 10
123.6
 20
68.24000000000001
 10
1023.6
 20
68.24000000000001
 10
1023.6
 20
79.48000000000002
 10
123.6
 20
79.48000000000002
  0
TEXT
  5
5E
330
17
100
AcDbEntity
  8
PART_MARK_NO_CUT
100
AcDbText
 10
125.6
 20
70.24000000000001
 30
0.0
 40
3.0
  1
WP_CRADLE_WEB_2_1 #1
100
AcDbText
  0
LWPOLYLINE
  5
5F
330
17
100
AcDbEntity
  8
CUT_OUTER
100
AcDbPolyline
 90
4
 70
1
 10
368.6
 20
1314.0
 10
368.6
 20
1354.0
 10
123.60000000000002
 20
1354.0
 10
123.60000000000002
 20
1314.0
  0
TEXT
  5
60
330
17
100
AcDbEntity
  8
PART_MARK_NO_CUT
100
AcDbText
 10
125.6
 20
1316.0
 30
0.0
 40
3.0
  1
G_RACK_PANEL_SEAT #1
100
AcDbText
  0
LWPOLYLINE
  5
61
330
17
100
AcDbEntity
  8
CUT_OUTER
100
AcDbPolyline
 90
4
 70
1
 10
368.6
 20
1360.0
 10
368.6
 20
1400.0
 10
123.60000000000002
 20
1400.0
 10
123.60000000000002
 20
1360.0
  0
TEXT
  5
62
330
17
100
AcDbEntity
  8
PART_MARK_NO_CUT
100
AcDbText
 10
125.6
 20
1362.0
 30
0.0
 40
3.0
  1
G_RACK_PANEL_SEAT #2
100
AcDbText
  0
LWPOLYLINE
  5
63
330
17
100
AcDbEntity
  8
CUT_OUTER
100
AcDbPolyline
 90
4
 70
1
 10
123.6
 20
85.48000000000002
 10
1023.6
 20
85.48000000000002
 10
1023.6
 20
96.27200000000005
 10
123.6
 20
96.27200000000005
  0
TEXT
  5
64
330
17
100
AcDbEntity
  8
PART_MARK_NO_CUT
100
AcDbText
 10
125.6
 20
87.48000000000002
 30
0.0
 40
3.0
  1
WP_CRADLE_WEB_2_2 #1
100
AcDbText
  0
LWPOLYLINE
  5
65
330
17
100
AcDbEntity
  8
CUT_OUTER
100
AcDbPolyline
 90
4
 70
1
 10
123.6
 20
1406.0
 10
283.6
 20
1406.0
 10
283.6
 20
1455.0
 10
123.6
 20
1455.0
  0
TEXT
  5
66
330
17
100
AcDbEntity
  8
PART_MARK_NO_CUT
100
AcDbText
 10
125.6
 20
1408.0
 30
0.0
 40
3.0
  1
G_RACK_SPOIL_DROP #1
100
AcDbText
  0
LWPOLYLINE
  5
67
330
17
100
AcDbEntity
  8
CUT_OUTER
100
AcDbPolyline
 90
4
 70
1
 10
289.6
 20
1406.0
 10
449.6
 20
1406.0
 10
449.6
 20
1455.0
 10
289.6
 20
1455.0
  0
TEXT
  5
68
330
17
100
AcDbEntity
  8
PART_MARK_NO_CUT
100
AcDbText
 10
291.6
 20
1408.0
 30
0.0
 40
3.0
  1
G_RACK_SPOIL_DROP #2
100
AcDbText
  0
LWPOLYLINE
  5
69
330
17
100
AcDbEntity
  8
CUT_OUTER
100
AcDbPolyline
 90
4
 70
1
 10
288.8
 20
982.096
 10
288.8
 20
1072.096
 10
208.8
 20
1072.096
 10
208.8
 20
982.096
  0
CIRCLE
  5
6A
330
17
100
AcDbEntity
  8
CUT_HOLES
100
AcDbCircle
 10
258.8
 20
1045.096
 30
0.0
 40
3.4
  0
CIRCLE
  5
6B
330
17
100
AcDbEntity
  8
CUT_HOLES
100
AcDbCircle
 10
233.8
 20
1045.096
 30
0.0
 40
3.015
  0
CIRCLE
  5
6C
330
17
100
AcDbEntity
  8
CUT_HOLES
100
AcDbCircle
 10
268.8
 20
995.096
 30
0.0
 40
4.25
  0
CIRCLE
  5
6D
330
17
100
AcDbEntity
  8
CUT_HOLES
100
AcDbCircle
 10
228.8
 20
995.096
 30
0.0
 40
4.25
  0
MTEXT
  5
6F
330
17
100
AcDbEntity
  8
MACHINING_NOTES
100
AcDbMText
 10
208.8
 20
1092.096
 30
0.0
 40
3.0
 41
150.0
 71
1
  1
M8 station: drill 6.8 and tap through plate and welded boss AFTER welding.\PLocator bore/slot final width 6.03 +0.01/-0.00; match to measured nominal 6 mm pin. Seat coplanarity and repeatability must be measured.
 11
6.123233995736766e-17
 21
1.0
 31
0.0
  0
TEXT
  5
70
330
17
100
AcDbEntity
  8
PART_MARK_NO_CUT
100
AcDbText
 10
210.8
 20
984.096
 30
0.0
 40
3.0
  1
G_FRONT_SEAT_ROUND #1
100
AcDbText
  0
LWPOLYLINE
  5
71
330
17
100
AcDbEntity
  8
CUT_OUTER
100
AcDbPolyline
 90
4
 70
1
 10
323.8
 20
1078.096
 10
323.8
 20
1168.096
 10
243.8
 20
1168.096
 10
243.8
 20
1078.096
  0
CIRCLE
  5
72
330
17
100
AcDbEntity
  8
CUT_HOLES
100
AcDbCircle
 10
293.8
 20
1105.096
 30
0.0
 40
3.4
  0
CIRCLE
  5
73
330
17
100
AcDbEntity
  8
CUT_HOLES
100
AcDbCircle
 10
303.8
 20
1155.096
 30
0.0
 40
4.25
  0
CIRCLE
  5
74
330
17
100
AcDbEntity
  8
CUT_HOLES
100
AcDbCircle
 10
263.8
 20
1155.096
 30
0.0
 40
4.25
  0
LWPOLYLINE
  5
75
330
17
100
AcDbEntity
  8
CUT_HOLES
100
AcDbPolyline
 90
4
 70
1
 10
271.815
 20
1102.111
 10
271.815
 20
1108.081
 42
1.0
 10
265.785
 20
1108.081
 10
265.785
 20
1102.111
 42
1.0
  0
MTEXT
  5
76
330
17
100
AcDbEntity
  8
MACHINING_NOTES
100
AcDbMText
 10
243.8
 20
1188.096
 30
0.0
 40
3.0
 41
150.0
 71
1
  1
M8 station: drill 6.8 and tap through plate and welded boss AFTER welding.\PLocator bore/slot final width 6.03 +0.01/-0.00; match to measured nominal 6 mm pin. Seat coplanarity and repeatability must be measured.
 11
6.123233995736766e-17
 21
1.0
 31
0.0
  0
TEXT
  5
77
330
17
100
AcDbEntity
  8
PART_MARK_NO_CUT
100
AcDbText
 10
245.8
 20
1080.096
 30
0.0
 40
3.0
  1
G_FRONT_SEAT_RELIEVED #1
100
AcDbText
  0
LWPOLYLINE
  5
78
330
17
100
AcDbEntity
  8
CUT_OUTER
100
AcDbPolyline
 90
4
 70
1
 10
374.8
 20
982.096
 10
374.8
 20
1072.096
 10
294.8
 20
1072.096
 10
294.8
 20
982.096
  0
CIRCLE
  5
79
330
17
100
AcDbEntity
  8
CUT_HOLES
100
AcDbCircle
 10
344.8
 20
1045.096
 30
0.0
 40
3.4
  0
CIRCLE
  5
7A
330
17
100
AcDbEntity
  8
CUT_HOLES
100
AcDbCircle
 10
319.8
 20
1045.096
 30
0.0
 40
3.015
  0
MTEXT
  5
7B
330
17
100
AcDbEntity
  8
MACHINING_NOTES
100
AcDbMText
 10
294.8
 20
1092.096
 30
0.0
 40
3.0
 41
150.0
 71
1
  1
M8 station: drill 6.8 and tap through plate and welded boss AFTER welding.\PLocator bore/slot final width 6.03 +0.01/-0.00; match to measured nominal 6 mm pin. Seat coplanarity and repeatability must be measured.
 11
6.123233995736766e-17
 21
1.0
 31
0.0
  0
TEXT
  5
7C
330
17
100
AcDbEntity
  8
PART_MARK_NO_CUT
100
AcDbText
 10
296.8
 20
984.096
 30
0.0
 40
3.0
  1
G_SEAT_ROUND #1
100
AcDbText
  0
LWPOLYLINE
  5
7D
330
17
100
AcDbEntity
  8
CUT_OUTER
100
AcDbPolyline
 90
4
 70
1
 10
323.8
 20
1174.096
 10
323.8
 20
1264.096
 10
243.8
 20
1264.096
 10
243.8
 20
1174.096
  0
CIRCLE
  5
7E
330
17
100
AcDbEntity
  8
CUT_HOLES
100
AcDbCircle
 10
293.8
 20
1237.096
 30
0.0
 40
3.4
  0
CIRCLE
  5
7F
330
17
100
AcDbEntity
  8
CUT_HOLES
100
AcDbCircle
 10
268.8
 20
1237.096
 30
0.0
 40
3.015
  0
MTEXT
  5
80
330
17
100
AcDbEntity
  8
MACHINING_NOTES
100
AcDbMText
 10
243.8
 20
1284.096
 30
0.0
 40
3.0
 41
150.0
 71
1
  1
M8 station: drill 6.8 and tap through plate and welded boss AFTER welding.\PLocator bore/slot final width 6.03 +0.01/-0.00; match to measured nominal 6 mm pin. Seat coplanarity and repeatability must be measured.
 11
6.123233995736766e-17
 21
1.0
 31
0.0
  0
TEXT
  5
81
330
17
100
AcDbEntity
  8
PART_MARK_NO_CUT
100
AcDbText
 10
245.8
 20
1176.096
 30
0.0
 40
3.0
  1
G_SEAT_ROUND #2
100
AcDbText
  0
LWPOLYLINE
  5
82
330
17
100
AcDbEntity
  8
CUT_OUTER
100
AcDbPolyline
 90
4
 70
1
 10
409.8
 20
1078.096
 10
409.8
 20
1168.096
 10
329.8
 20
1168.096
 10
329.8
 20
1078.096
  0
CIRCLE
  5
83
330
17
100
AcDbEntity
  8
CUT_HOLES
100
AcDbCircle
 10
379.8
 20
1141.096
 30
0.0
 40
3.4
  0
CIRCLE
  5
84
330
17
100
AcDbEntity
  8
CUT_HOLES
100
AcDbCircle
 10
354.8
 20
1141.096
 30
0.0
 40
3.015
  0
MTEXT
  5
85
330
17
100
AcDbEntity
  8
MACHINING_NOTES
100
AcDbMText
 10
329.8
 20
1188.096
 30
0.0
 40
3.0
 41
150.0
 71
1
  1
M8 station: drill 6.8 and tap through plate and welded boss AFTER welding.\PLocator bore/slot final width 6.03 +0.01/-0.00; match to measured nominal 6 mm pin. Seat coplanarity and repeatability must be measured.
 11
6.123233995736766e-17
 21
1.0
 31
0.0
  0
TEXT
  5
86
330
17
100
AcDbEntity
  8
PART_MARK_NO_CUT
100
AcDbText
 10
331.8
 20
1080.096
 30
0.0
 40
3.0
  1
G_SEAT_ROUND #3
100
AcDbText
  0
LWPOLYLINE
  5
87
330
17
100
AcDbEntity
  8
CUT_OUTER
100
AcDbPolyline
 90
4
 70
1
 10
460.8
 20
982.096
 10
460.8
 20
1072.096
 10
380.8
 20
1072.096
 10
380.8
 20
982.096
  0
CIRCLE
  5
88
330
17
100
AcDbEntity
  8
CUT_HOLES
100
AcDbCircle
 10
430.8
 20
1009.096
 30
0.0
 40
3.4
  0
LWPOLYLINE
  5
89
330
17
100
AcDbEntity
  8
CUT_HOLES
100
AcDbPolyline
 90
4
 70
1
 10
408.815
 20
1006.111
 10
408.815
 20
1012.081
 42
1.0
 10
402.785
 20
1012.081
 10
402.785
 20
1006.111
 42
1.0
  0
MTEXT
  5
8A
330
17
100
AcDbEntity
  8
MACHINING_NOTES
100
AcDbMText
 10
380.8
 20
1092.096
 30
0.0
 40
3.0
 41
150.0
 71
1
  1
M8 station: drill 6.8 and tap through plate and welded boss AFTER welding.\PLocator bore/slot final width 6.03 +0.01/-0.00; match to measured nominal 6 mm pin. Seat coplanarity and repeatability must be measured.
 11
6.123233995736766e-17
 21
1.0
 31
0.0
  0
TEXT
  5
8B
330
17
100
AcDbEntity
  8
PART_MARK_NO_CUT
100
AcDbText
 10
382.8
 20
984.096
 30
0.0
 40
3.0
  1
G_SEAT_RELIEVED #1
100
AcDbText
  0
LWPOLYLINE
  5
8C
330
17
100
AcDbEntity
  8
CUT_OUTER
100
AcDbPolyline
 90
4
 70
1
 10
409.8
 20
1174.096
 10
409.8
 20
1264.096
 10
329.8
 20
1264.096
 10
329.8
 20
1174.096
  0
CIRCLE
  5
8D
330
17
100
AcDbEntity
  8
CUT_HOLES
100
AcDbCircle
 10
379.8
 20
1201.096
 30
0.0
 40
3.4
  0
LWPOLYLINE
  5
8E
330
17
100
AcDbEntity
  8
CUT_HOLES
100
AcDbPolyline
 90
4
 70
1
 10
357.815
 20
1198.111
 10
357.815
 20
1204.081
 42
1.0
 10
351.785
 20
1204.081
 10
351.785
 20
1198.111
 42
1.0
  0
MTEXT
  5
8F
330
17
100
AcDbEntity
  8
MACHINING_NOTES
100
AcDbMText
 10
329.8
 20
1284.096
 30
0.0
 40
3.0
 41
150.0
 71
1
  1
M8 station: drill 6.8 and tap through plate and welded boss AFTER welding.\PLocator bore/slot final width 6.03 +0.01/-0.00; match to measured nominal 6 mm pin. Seat coplanarity and repeatability must be measured.
 11
6.123233995736766e-17
 21
1.0
 31
0.0
  0
TEXT
  5
90
330
17
100
AcDbEntity
  8
PART_MARK_NO_CUT
100
AcDbText
 10
331.8
 20
1176.096
 30
0.0
 40
3.0
  1
G_SEAT_RELIEVED #2
100
AcDbText
  0
LWPOLYLINE
  5
91
330
17
100
AcDbEntity
  8
CUT_OUTER
100
AcDbPolyline
 90
4
 70
1
 10
454.6
 20
1270.096
 10
454.6
 20
1360.096
 10
374.6
 20
1360.096
 10
374.6
 20
1270.096
  0
CIRCLE
  5
92
330
17
100
AcDbEntity
  8
CUT_HOLES
100
AcDbCircle
 10
424.6
 20
1297.096
 30
0.0
 40
3.4
  0
LWPOLYLINE
  5
93
330
17
100
AcDbEntity
  8
CUT_HOLES
100
AcDbPolyline
 90
4
 70
1
 10
402.615
 20
1294.111
 10
402.615
 20
1300.081
 42
1.0
 10
396.58500000000004
 20
1300.081
 10
396.58500000000004
 20
1294.111
 42
1.0
  0
MTEXT
  5
94
330
17
100
AcDbEntity
  8
MACHINING_NOTES
100
AcDbMText
 10
374.6
 20
1380.096
 30
0.0
 40
3.0
 41
150.0
 71
1
  1
M8 station: drill 6.8 and tap through plate and welded boss AFTER welding.\PLocator bore/slot final width 6.03 +0.01/-0.00; match to measured nominal 6 mm pin. Seat coplanarity and repeatability must be measured.
 11
6.123233995736766e-17
 21
1.0
 31
0.0
  0
TEXT
  5
95
330
17
100
AcDbEntity
  8
PART_MARK_NO_CUT
100
AcDbText
 10
376.6
 20
1272.096
 30
0.0
 40
3.0
  1
G_SEAT_RELIEVED #3
100
AcDbText
  0
LWPOLYLINE
  5
96
330
17
100
AcDbEntity
  8
CUT_OUTER
100
AcDbPolyline
 90
4
 70
1
 10
374.6
 20
1366.096
 10
593.8
 20
1366.096
 10
593.8
 20
1396.096
 10
374.6
 20
1396.096
  0
TEXT
  5
97
330
17
100
AcDbEntity
  8
PART_MARK_NO_CUT
100
AcDbText
 10
376.6
 20
1368.096
 30
0.0
 40
3.0
  1
G_RACK_SPOIL_ARM #1
100
AcDbText
  0
LWPOLYLINE
  5
98
330
17
100
AcDbEntity
  8
CUT_OUTER
100
AcDbPolyline
 90
4
 70
1
 10
1081.3919999999998
 20
46.0
 10
1081.3919999999998
 20
265.2
 10
1051.3919999999998
 20
265.2
 10
1051.3919999999998
 20
46.0
  0
TEXT
  5
99
330
17
100
AcDbEntity
  8
PART_MARK_NO_CUT
100
AcDbText
 10
1053.3919999999998
 20
48.0
 30
0.0
 40
3.0
  1
G_RACK_SPOIL_ARM #2
100
AcDbText
  0
LWPOLYLINE
  5
9A
330
17
100
AcDbEntity
  8
CUT_OUTER
100
AcDbPolyline
 90
4
 70
1
 10
573.8
 20
952.0
 10
573.8
 20
970.0
 10
208.79999999999995
 20
970.0
 10
208.79999999999995
 20
952.0
  0
TEXT
  5
9B
330
17
100
AcDbEntity
  8
PART_MARK_NO_CUT
100
AcDbText
 10
210.8
 20
954.0
 30
0.0
 40
3.0
  1
G_RACK_SPOIL_RUNNER #1
100
AcDbText
  0
LWPOLYLINE
  5
9C
330
17
100
AcDbEntity
  8
CUT_OUTER
100
AcDbPolyline
 90
4
 70
1
 10
466.8
 20
982.096
 10
484.8
 20
982.096
 10
484.8
 20
1347.096
 10
466.8
 20
1347.096
  0
TEXT
  5
9D
330
17
100
AcDbEntity
  8
PART_MARK_NO_CUT
100
AcDbText
 10
468.8
 20
984.096
 30
0.0
 40
3.0
  1
G_RACK_SPOIL_RUNNER #2
100
AcDbText
  0
LWPOLYLINE
  5
9E
330
17
100
AcDbEntity
  8
CUT_OUTER
100
AcDbPolyline
 90
4
 70
1
 10
490.8
 20
982.096
 10
508.8
 20
982.096
 10
508.8
 20
1347.096
 10
490.8
 20
1347.096
  0
TEXT
  5
9F
330
17
100
AcDbEntity
  8
PART_MARK_NO_CUT
100
AcDbText
 10
492.8
 20
984.096
 30
0.0
 40
3.0
  1
G_RACK_SPOIL_RUNNER #3
100
AcDbText
  0
LWPOLYLINE
  5
A0
330
17
100
AcDbEntity
  8
CUT_OUTER
100
AcDbPolyline
 90
4
 70
1
 10
514.8
 20
982.096
 10
532.8
 20
982.096
 10
532.8
 20
1347.096
 10
514.8
 20
1347.096
  0
TEXT
  5
A1
330
17
100
AcDbEntity
  8
PART_MARK_NO_CUT
100
AcDbText
 10
516.8
 20
984.096
 30
0.0
 40
3.0
  1
G_RACK_SPOIL_RUNNER #4
100
AcDbText
  0
LWPOLYLINE
  5
A2
330
17
100
AcDbEntity
  8
CUT_OUTER
100
AcDbPolyline
 90
4
 70
1
 10
538.8
 20
982.096
 10
556.8
 20
982.096
 10
556.8
 20
1347.096
 10
538.8
 20
1347.096
  0
TEXT
  5
A3
330
17
100
AcDbEntity
  8
PART_MARK_NO_CUT
100
AcDbText
 10
540.8
 20
984.096
 30
0.0
 40
3.0
  1
G_RACK_SPOIL_RUNNER #5
100
AcDbText
  0
LWPOLYLINE
  5
A4
330
17
100
AcDbEntity
  8
CUT_OUTER
100
AcDbPolyline
 90
4
 70
1
 10
562.8
 20
982.096
 10
580.8
 20
982.096
 10
580.8
 20
1347.096
 10
562.8
 20
1347.096
  0
TEXT
  5
A5
330
17
100
AcDbEntity
  8
PART_MARK_NO_CUT
100
AcDbText
 10
564.8
 20
984.096
 30
0.0
 40
3.0
  1
G_RACK_SPOIL_RUNNER #6
100
AcDbText
  0
LWPOLYLINE
  5
A6
330
17
100
AcDbEntity
  8
CUT_OUTER
100
AcDbPolyline
 90
4
 70
1
 10
123.6
 20
102.27200000000005
 10
1023.6
 20
102.27200000000005
 10
1023.6
 20
108.76200000000006
 10
123.6
 20
108.76200000000006
  0
TEXT
  5
A7
330
17
100
AcDbEntity
  8
PART_MARK_NO_CUT
100
AcDbText
 10
125.6
 20
104.27200000000005
 30
0.0
 40
3.0
  1
WP_CRADLE_WEB_3_1 #1
100
AcDbText
  0
LWPOLYLINE
  5
A8
330
17
100
AcDbEntity
  8
CUT_OUTER
100
AcDbPolyline
 90
4
 70
1
 10
123.6
 20
114.76200000000006
 10
1023.6
 20
114.76200000000006
 10
1023.6
 20
120.80400000000009
 10
123.6
 20
120.80400000000009
  0
TEXT
  5
A9
330
17
100
AcDbEntity
  8
PART_MARK_NO_CUT
100
AcDbText
 10
125.6
 20
116.76200000000006
 30
0.0
 40
3.0
  1
WP_CRADLE_WEB_3_2 #1
100
AcDbText
  0
LWPOLYLINE
  5
AA
330
17
100
AcDbEntity
  8
CUT_OUTER
100
AcDbPolyline
 90
4
 70
1
 10
1081.3919999999998
 20
271.2
 10
1081.3919999999998
 20
431.2
 10
1051.3919999999998
 20
431.2
 10
1051.3919999999998
 20
271.2
  0
TEXT
  5
AB
330
17
100
AcDbEntity
  8
PART_MARK_NO_CUT
100
AcDbText
 10
1053.3919999999998
 20
273.2
 30
0.0
 40
3.0
  1
G_RACK_SPOIL_FOOT #1
100
AcDbText
  0
LWPOLYLINE
  5
AC
330
17
100
AcDbEntity
  8
CUT_OUTER
100
AcDbPolyline
 90
4
 70
1
 10
1081.3919999999998
 20
437.2
 10
1081.3919999999998
 20
597.2
 10
1051.3919999999998
 20
597.2
 10
1051.3919999999998
 20
437.2
  0
TEXT
  5
AD
330
17
100
AcDbEntity
  8
PART_MARK_NO_CUT
100
AcDbText
 10
1053.3919999999998
 20
439.2
 30
0.0
 40
3.0
  1
G_RACK_SPOIL_FOOT #2
100
AcDbText
  0
LWPOLYLINE
  5
AE
330
17
100
AcDbEntity
  8
CUT_OUTER
100
AcDbPolyline
 90
4
 70
1
 10
579.8
 20
952.0
 10
824.8
 20
952.0
 10
824.8
 20
969.4
 10
579.8
 20
969.4
  0
TEXT
  5
AF
330
17
100
AcDbEntity
  8
PART_MARK_NO_CUT
100
AcDbText
 10
581.8
 20
954.0
 30
0.0
 40
3.0
  1
G_RACK_PANEL_WEB #1
100
AcDbText
  0
LWPOLYLINE
  5
B0
330
17
100
AcDbEntity
  8
CUT_OUTER
100
AcDbPolyline
 90
4
 70
1
 10
830.8
 20
952.0
 10
1075.8
 20
952.0
 10
1075.8
 20
969.4
 10
830.8
 20
969.4
  0
TEXT
  5
B1
330
17
100
AcDbEntity
  8
PART_MARK_NO_CUT
100
AcDbText
 10
832.8
 20
954.0
 30
0.0
 40
3.0
  1
G_RACK_PANEL_WEB #2
100
AcDbText
  0
LWPOLYLINE
  5
B2
330
17
100
AcDbEntity
  8
CUT_OUTER
100
AcDbPolyline
 90
4
 70
1
 10
455.6
 20
1402.096
 10
506.40000000000003
 20
1402.096
 10
506.40000000000003
 20
1452.896
 10
455.6
 20
1452.896
  0
CIRCLE
  5
B3
330
17
100
AcDbEntity
  8
CUT_HOLES
100
AcDbCircle
 10
481.0
 20
1427.496
 30
0.0
 40
8.5
  0
TEXT
  5
B4
330
17
100
AcDbEntity
  8
PART_MARK_NO_CUT
100
AcDbText
 10
457.6
 20
1404.096
 30
0.0
 40
3.0
  1
FT_LEG_CLOSURE #1
100
AcDbText
  0
LWPOLYLINE
  5
B5
330
17
100
AcDbEntity
  8
CUT_OUTER
100
AcDbPolyline
 90
4
 70
1
 10
512.4
 20
1402.096
 10
563.1999999999999
 20
1402.096
 10
563.1999999999999
 20
1452.896
 10
512.4
 20
1452.896
  0
CIRCLE
  5
B6
330
17
100
AcDbEntity
  8
CUT_HOLES
100
AcDbCircle
 10
537.8
 20
1427.496
 30
0.0
 40
8.5
  0
TEXT
  5
B7
330
17
100
AcDbEntity
  8
PART_MARK_NO_CUT
100
AcDbText
 10
514.4
 20
1404.096
 30
0.0
 40
3.0
  1
FT_LEG_CLOSURE #2
100
AcDbText
  0
LWPOLYLINE
  5
B8
330
17
100
AcDbEntity
  8
CUT_OUTER
100
AcDbPolyline
 90
4
 70
1
 10
569.1999999999999
 20
1402.096
 10
619.9999999999999
 20
1402.096
 10
619.9999999999999
 20
1452.896
 10
569.1999999999999
 20
1452.896
  0
CIRCLE
  5
B9
330
17
100
AcDbEntity
  8
CUT_HOLES
100
AcDbCircle
 10
594.5999999999999
 20
1427.496
 30
0.0
 40
8.5
  0
TEXT
  5
BA
330
17
100
AcDbEntity
  8
PART_MARK_NO_CUT
100
AcDbText
 10
571.1999999999999
 20
1404.096
 30
0.0
 40
3.0
  1
FT_LEG_CLOSURE #3
100
AcDbText
  0
LWPOLYLINE
  5
BB
330
17
100
AcDbEntity
  8
CUT_OUTER
100
AcDbPolyline
 90
4
 70
1
 10
586.8
 20
982.096
 10
637.5999999999999
 20
982.096
 10
637.5999999999999
 20
1032.896
 10
586.8
 20
1032.896
  0
CIRCLE
  5
BC
330
17
100
AcDbEntity
  8
CUT_HOLES
100
AcDbCircle
 10
612.1999999999999
 20
1007.496
 30
0.0
 40
8.5
  0
TEXT
  5
BD
330
17
100
AcDbEntity
  8
PART_MARK_NO_CUT
100
AcDbText
 10
588.8
 20
984.096
 30
0.0
 40
3.0
  1
FT_LEG_CLOSURE #4
100
AcDbText
  0
LWPOLYLINE
  5
BE
330
17
100
AcDbEntity
  8
CUT_OUTER
100
AcDbPolyline
 90
4
 70
1
 10
586.8
 20
1038.896
 10
637.5999999999999
 20
1038.896
 10
637.5999999999999
 20
1089.696
 10
586.8
 20
1089.696
  0
CIRCLE
  5
BF
330
17
100
AcDbEntity
  8
CUT_HOLES
100
AcDbCircle
 10
612.1999999999999
 20
1064.296
 30
0.0
 40
8.5
  0
TEXT
  5
C0
330
17
100
AcDbEntity
  8
PART_MARK_NO_CUT
100
AcDbText
 10
588.8
 20
1040.896
 30
0.0
 40
3.0
  1
FT_LEG_CLOSURE #5
100
AcDbText
  0
LWPOLYLINE
  5
C1
330
17
100
AcDbEntity
  8
CUT_OUTER
100
AcDbPolyline
 90
4
 70
1
 10
586.8
 20
1095.696
 10
637.5999999999999
 20
1095.696
 10
637.5999999999999
 20
1146.4959999999999
 10
586.8
 20
1146.4959999999999
  0
CIRCLE
  5
C2
330
17
100
AcDbEntity
  8
CUT_HOLES
100
AcDbCircle
 10
612.1999999999999
 20
1121.096
 30
0.0
 40
8.5
  0
TEXT
  5
C3
330
17
100
AcDbEntity
  8
PART_MARK_NO_CUT
100
AcDbText
 10
588.8
 20
1097.696
 30
0.0
 40
3.0
  1
FT_LEG_CLOSURE #6
100
AcDbText
  0
LWPOLYLINE
  5
C4
330
17
100
AcDbEntity
  8
CUT_OUTER
100
AcDbPolyline
 90
4
 70
1
 10
586.8
 20
1152.4959999999999
 10
636.8
 20
1152.4959999999999
 10
636.8
 20
1203.2959999999998
 10
586.8
 20
1203.2959999999998
  0
TEXT
  5
C5
330
17
100
AcDbEntity
  8
PART_MARK_NO_CUT
100
AcDbText
 10
588.8
 20
1154.4959999999999
 30
0.0
 40
3.0
  1
G_BEAM_STACK_PAD #1
100
AcDbText
  0
LWPOLYLINE
  5
C6
330
17
100
AcDbEntity
  8
CUT_OUTER
100
AcDbPolyline
 90
4
 70
1
 10
586.8
 20
1209.2959999999998
 10
636.8
 20
1209.2959999999998
 10
636.8
 20
1260.0959999999998
 10
586.8
 20
1260.0959999999998
  0
TEXT
  5
C7
330
17
100
AcDbEntity
  8
PART_MARK_NO_CUT
100
AcDbText
 10
588.8
 20
1211.2959999999998
 30
0.0
 40
3.0
  1
G_BEAM_STACK_PAD #2
100
AcDbText
  0
LWPOLYLINE
  5
C8
330
17
100
AcDbEntity
  8
CUT_OUTER
100
AcDbPolyline
 90
4
 70
1
 10
586.8
 20
1266.0959999999998
 10
636.8
 20
1266.0959999999998
 10
636.8
 20
1316.8959999999997
 10
586.8
 20
1316.8959999999997
  0
TEXT
  5
C9
330
17
100
AcDbEntity
  8
PART_MARK_NO_CUT
100
AcDbText
 10
588.8
 20
1268.0959999999998
 30
0.0
 40
3.0
  1
G_BEAM_STACK_PAD #3
100
AcDbText
  0
LWPOLYLINE
  5
CA
330
17
100
AcDbEntity
  8
CUT_OUTER
100
AcDbPolyline
 90
4
 70
1
 10
599.8
 20
1322.8959999999997
 10
649.8
 20
1322.8959999999997
 10
649.8
 20
1373.6959999999997
 10
599.8
 20
1373.6959999999997
  0
TEXT
  5
CB
330
17
100
AcDbEntity
  8
PART_MARK_NO_CUT
100
AcDbText
 10
601.8
 20
1324.8959999999997
 30
0.0
 40
3.0
  1
G_BEAM_STACK_PAD #4
100
AcDbText
  0
LWPOLYLINE
  5
CC
330
17
100
AcDbEntity
  8
CUT_OUTER
100
AcDbPolyline
 90
4
 70
1
 10
625.9999999999999
 20
1379.6959999999997
 10
675.9999999999999
 20
1379.6959999999997
 10
675.9999999999999
 20
1430.4959999999996
 10
625.9999999999999
 20
1430.4959999999996
  0
TEXT
  5
CD
330
17
100
AcDbEntity
  8
PART_MARK_NO_CUT
100
AcDbText
 10
627.9999999999999
 20
1381.6959999999997
 30
0.0
 40
3.0
  1
G_BEAM_STACK_PAD #5
100
AcDbText
  0
LWPOLYLINE
  5
CE
330
17
100
AcDbEntity
  8
CUT_OUTER
100
AcDbPolyline
 90
4
 70
1
 10
642.8
 20
1152.4959999999999
 10
692.8
 20
1152.4959999999999
 10
692.8
 20
1203.2959999999998
 10
642.8
 20
1203.2959999999998
  0
TEXT
  5
CF
330
17
100
AcDbEntity
  8
PART_MARK_NO_CUT
100
AcDbText
 10
644.8
 20
1154.4959999999999
 30
0.0
 40
3.0
  1
G_BEAM_STACK_PAD #6
100
AcDbText
  0
LWPOLYLINE
  5
D0
330
17
100
AcDbEntity
  8
CUT_OUTER
100
AcDbPolyline
 90
4
 70
1
 10
642.8
 20
1209.2959999999998
 10
692.8
 20
1209.2959999999998
 10
692.8
 20
1260.0959999999998
 10
642.8
 20
1260.0959999999998
  0
TEXT
  5
D1
330
17
100
AcDbEntity
  8
PART_MARK_NO_CUT
100
AcDbText
 10
644.8
 20
1211.2959999999998
 30
0.0
 40
3.0
  1
G_BEAM_STACK_PAD #7
100
AcDbText
  0
LWPOLYLINE
  5
D2
330
17
100
AcDbEntity
  8
CUT_OUTER
100
AcDbPolyline
 90
4
 70
1
 10
642.8
 20
1266.0959999999998
 10
692.8
 20
1266.0959999999998
 10
692.8
 20
1316.8959999999997
 10
642.8
 20
1316.8959999999997
  0
TEXT
  5
D3
330
17
100
AcDbEntity
  8
PART_MARK_NO_CUT
100
AcDbText
 10
644.8
 20
1268.0959999999998
 30
0.0
 40
3.0
  1
G_BEAM_STACK_PAD #8
100
AcDbText
  0
LWPOLYLINE
  5
D4
330
17
100
AcDbEntity
  8
CUT_OUTER
100
AcDbPolyline
 90
4
 70
1
 10
655.8
 20
1322.8959999999997
 10
705.8
 20
1322.8959999999997
 10
705.8
 20
1373.6959999999997
 10
655.8
 20
1373.6959999999997
  0
CIRCLE
  5
D5
330
17
100
AcDbEntity
  8
CUT_HOLES
100
AcDbCircle
 10
680.8
 20
1338.2959999999998
 30
0.0
 40
9.0
  0
CIRCLE
  5
D6
330
17
100
AcDbEntity
  8
CUT_HOLES
100
AcDbCircle
 10
680.8
 20
1363.2959999999998
 30
0.0
 40
3.0
  0
TEXT
  5
D7
330
17
100
AcDbEntity
  8
PART_MARK_NO_CUT
100
AcDbText
 10
657.8
 20
1324.8959999999997
 30
0.0
 40
3.0
  1
G_BEAM_FOOT_BASE #1
100
AcDbText
  0
LWPOLYLINE
  5
D8
330
17
100
AcDbEntity
  8
CUT_OUTER
100
AcDbPolyline
 90
4
 70
1
 10
681.9999999999999
 20
1379.6959999999997
 10
731.9999999999999
 20
1379.6959999999997
 10
731.9999999999999
 20
1430.4959999999996
 10
681.9999999999999
 20
1430.4959999999996
  0
CIRCLE
  5
D9
330
17
100
AcDbEntity
  8
CUT_HOLES
100
AcDbCircle
 10
706.9999999999999
 20
1395.0959999999998
 30
0.0
 40
9.0
  0
CIRCLE
  5
DA
330
17
100
AcDbEntity
  8
CUT_HOLES
100
AcDbCircle
 10
706.9999999999999
 20
1420.0959999999998
 30
0.0
 40
3.0
  0
TEXT
  5
DB
330
17
100
AcDbEntity
  8
PART_MARK_NO_CUT
100
AcDbText
 10
683.9999999999999
 20
1381.6959999999997
 30
0.0
 40
3.0
  1
G_BEAM_FOOT_BASE #2
100
AcDbText
  0
LWPOLYLINE
  5
DC
330
17
100
AcDbEntity
  8
CUT_OUTER
100
AcDbPolyline
 90
4
 70
1
 10
643.5999999999999
 20
982.096
 10
693.5999999999999
 20
982.096
 10
693.5999999999999
 20
1032.896
 10
643.5999999999999
 20
1032.896
  0
CIRCLE
  5
DD
330
17
100
AcDbEntity
  8
CUT_HOLES
100
AcDbCircle
 10
668.5999999999999
 20
997.496
 30
0.0
 40
9.0
  0
CIRCLE
  5
DE
330
17
100
AcDbEntity
  8
CUT_HOLES
100
AcDbCircle
 10
668.5999999999999
 20
1022.496
 30
0.0
 40
3.0
  0
TEXT
  5
DF
330
17
100
AcDbEntity
  8
PART_MARK_NO_CUT
100
AcDbText
 10
645.5999999999999
 20
984.096
 30
0.0
 40
3.0
  1
G_BEAM_FOOT_BASE #3
100
AcDbText
  0
LWPOLYLINE
  5
E0
330
17
100
AcDbEntity
  8
CUT_OUTER
100
AcDbPolyline
 90
4
 70
1
 10
643.5999999999999
 20
1038.896
 10
693.5999999999999
 20
1038.896
 10
693.5999999999999
 20
1089.696
 10
643.5999999999999
 20
1089.696
  0
CIRCLE
  5
E1
330
17
100
AcDbEntity
  8
CUT_HOLES
100
AcDbCircle
 10
668.5999999999999
 20
1054.296
 30
0.0
 40
9.0
  0
CIRCLE
  5
E2
330
17
100
AcDbEntity
  8
CUT_HOLES
100
AcDbCircle
 10
668.5999999999999
 20
1079.296
 30
0.0
 40
3.0
  0
TEXT
  5
E3
330
17
100
AcDbEntity
  8
PART_MARK_NO_CUT
100
AcDbText
 10
645.5999999999999
 20
1040.896
 30
0.0
 40
3.0
  1
G_BEAM_FOOT_BASE #4
100
AcDbText
  0
LWPOLYLINE
  5
E4
330
17
100
AcDbEntity
  8
CUT_OUTER
100
AcDbPolyline
 90
4
 70
1
 10
643.5999999999999
 20
1095.696
 10
693.5999999999999
 20
1095.696
 10
693.5999999999999
 20
1146.4959999999999
 10
643.5999999999999
 20
1146.4959999999999
  0
CIRCLE
  5
E5
330
17
100
AcDbEntity
  8
CUT_HOLES
100
AcDbCircle
 10
668.5999999999999
 20
1111.096
 30
0.0
 40
9.0
  0
CIRCLE
  5
E6
330
17
100
AcDbEntity
  8
CUT_HOLES
100
AcDbCircle
 10
668.5999999999999
 20
1136.096
 30
0.0
 40
3.0
  0
TEXT
  5
E7
330
17
100
AcDbEntity
  8
PART_MARK_NO_CUT
100
AcDbText
 10
645.5999999999999
 20
1097.696
 30
0.0
 40
3.0
  1
G_BEAM_FOOT_BASE #5
100
AcDbText
  0
LWPOLYLINE
  5
E8
330
17
100
AcDbEntity
  8
CUT_OUTER
100
AcDbPolyline
 90
4
 70
1
 10
698.8
 20
1152.4959999999999
 10
748.8
 20
1152.4959999999999
 10
748.8
 20
1203.2959999999998
 10
698.8
 20
1203.2959999999998
  0
CIRCLE
  5
E9
330
17
100
AcDbEntity
  8
CUT_HOLES
100
AcDbCircle
 10
723.8
 20
1167.896
 30
0.0
 40
9.0
  0
CIRCLE
  5
EA
330
17
100
AcDbEntity
  8
CUT_HOLES
100
AcDbCircle
 10
723.8
 20
1192.896
 30
0.0
 40
3.0
  0
TEXT
  5
EB
330
17
100
AcDbEntity
  8
PART_MARK_NO_CUT
100
AcDbText
 10
700.8
 20
1154.4959999999999
 30
0.0
 40
3.0
  1
G_BEAM_FOOT_BASE #6
100
AcDbText
  0
LWPOLYLINE
  5
EC
330
17
100
AcDbEntity
  8
CUT_OUTER
100
AcDbPolyline
 90
4
 70
1
 10
698.8
 20
1209.2959999999998
 10
748.8
 20
1209.2959999999998
 10
748.8
 20
1260.0959999999998
 10
698.8
 20
1260.0959999999998
  0
CIRCLE
  5
ED
330
17
100
AcDbEntity
  8
CUT_HOLES
100
AcDbCircle
 10
723.8
 20
1224.696
 30
0.0
 40
9.0
  0
CIRCLE
  5
EE
330
17
100
AcDbEntity
  8
CUT_HOLES
100
AcDbCircle
 10
723.8
 20
1249.696
 30
0.0
 40
3.0
  0
TEXT
  5
EF
330
17
100
AcDbEntity
  8
PART_MARK_NO_CUT
100
AcDbText
 10
700.8
 20
1211.2959999999998
 30
0.0
 40
3.0
  1
G_BEAM_FOOT_BASE #7
100
AcDbText
  0
LWPOLYLINE
  5
F0
330
17
100
AcDbEntity
  8
CUT_OUTER
100
AcDbPolyline
 90
4
 70
1
 10
698.8
 20
1266.0959999999998
 10
748.8
 20
1266.0959999999998
 10
748.8
 20
1316.8959999999997
 10
698.8
 20
1316.8959999999997
  0
CIRCLE
  5
F1
330
17
100
AcDbEntity
  8
CUT_HOLES
100
AcDbCircle
 10
723.8
 20
1281.4959999999999
 30
0.0
 40
9.0
  0
CIRCLE
  5
F2
330
17
100
AcDbEntity
  8
CUT_HOLES
100
AcDbCircle
 10
723.8
 20
1306.4959999999999
 30
0.0
 40
3.0
  0
TEXT
  5
F3
330
17
100
AcDbEntity
  8
PART_MARK_NO_CUT
100
AcDbText
 10
700.8
 20
1268.0959999999998
 30
0.0
 40
3.0
  1
G_BEAM_FOOT_BASE #8
100
AcDbText
  0
LWPOLYLINE
  5
F4
330
17
100
AcDbEntity
  8
CUT_OUTER
100
AcDbPolyline
 90
4
 70
1
 10
751.8
 20
1322.8959999999997
 10
751.8
 20
1372.1959999999997
 10
711.8
 20
1372.1959999999997
 10
711.8
 20
1322.8959999999997
  0
TEXT
  5
F5
330
17
100
AcDbEntity
  8
PART_MARK_NO_CUT
100
AcDbText
 10
713.8
 20
1324.8959999999997
 30
0.0
 40
3.0
  1
G_HW_MOUNT_SHELF #1
100
AcDbText
  0
LWPOLYLINE
  5
F6
330
17
100
AcDbEntity
  8
CUT_OUTER
100
AcDbPolyline
 90
4
 70
1
 10
208.8
 20
1078.096
 10
234.8
 20
1078.096
 10
234.8
 20
1108.096
 10
208.8
 20
1108.096
  0
CIRCLE
  5
F7
330
17
100
AcDbEntity
  8
CUT_HOLES
100
AcDbCircle
 10
227.8
 20
1093.096
 30
0.0
 40
3.3
  0
TEXT
  5
F8
330
17
100
AcDbEntity
  8
PART_MARK_NO_CUT
100
AcDbText
 10
210.8
 20
1080.096
 30
0.0
 40
3.0
  1
WP_HOLD_TAB_1 #1
100
AcDbText
  0
LWPOLYLINE
  5
F9
330
17
100
AcDbEntity
  8
CUT_OUTER
100
AcDbPolyline
 90
4
 70
1
 10
243.8
 20
1270.096
 10
269.8
 20
1270.096
 10
269.8
 20
1300.096
 10
243.8
 20
1300.096
  0
CIRCLE
  5
FA
330
17
100
AcDbEntity
  8
CUT_HOLES
100
AcDbCircle
 10
250.8
 20
1285.096
 30
0.0
 40
3.3
  0
TEXT
  5
FB
330
17
100
AcDbEntity
  8
PART_MARK_NO_CUT
100
AcDbText
 10
245.8
 20
1272.096
 30
0.0
 40
3.0
  1
WP_HOLD_TAB_2 #1
100
AcDbText
  0
LWPOLYLINE
  5
FC
330
17
100
AcDbEntity
  8
CUT_OUTER
100
AcDbPolyline
 90
4
 70
1
 10
275.8
 20
1270.096
 10
301.8
 20
1270.096
 10
301.8
 20
1300.096
 10
275.8
 20
1300.096
  0
CIRCLE
  5
FD
330
17
100
AcDbEntity
  8
CUT_HOLES
100
AcDbCircle
 10
294.8
 20
1285.096
 30
0.0
 40
3.3
  0
TEXT
  5
FE
330
17
100
AcDbEntity
  8
PART_MARK_NO_CUT
100
AcDbText
 10
277.8
 20
1272.096
 30
0.0
 40
3.0
  1
WP_HOLD_TAB_3 #1
100
AcDbText
  0
LWPOLYLINE
  5
FF
330
17
100
AcDbEntity
  8
CUT_OUTER
100
AcDbPolyline
 90
4
 70
1
 10
307.8
 20
1270.096
 10
333.8
 20
1270.096
 10
333.8
 20
1300.096
 10
307.8
 20
1300.096
  0
CIRCLE
  5
100
330
17
100
AcDbEntity
  8
CUT_HOLES
100
AcDbCircle
 10
314.8
 20
1285.096
 30
0.0
 40
3.3
  0
TEXT
  5
101
330
17
100
AcDbEntity
  8
PART_MARK_NO_CUT
100
AcDbText
 10
309.8
 20
1272.096
 30
0.0
 40
3.0
  1
WP_HOLD_TAB_4 #1
100
AcDbText
  0
LWPOLYLINE
  5
102
330
17
100
AcDbEntity
  8
CUT_OUTER
100
AcDbPolyline
 90
4
 70
1
 10
655.9999999999999
 20
1436.4959999999996
 10
655.9999999999999
 20
1456.4959999999996
 10
625.9999999999999
 20
1456.4959999999996
 10
625.9999999999999
 20
1436.4959999999996
  0
CIRCLE
  5
103
330
17
100
AcDbEntity
  8
CUT_HOLES
100
AcDbCircle
 10
640.9999999999999
 20
1446.4959999999996
 30
0.0
 40
3.3
  0
TEXT
  5
104
330
17
100
AcDbEntity
  8
PART_MARK_NO_CUT
100
AcDbText
 10
627.9999999999999
 20
1438.4959999999996
 30
0.0
 40
3.0
  1
G_PANEL_CLAMP_20x30 #1
100
AcDbText
  0
LWPOLYLINE
  5
105
330
17
100
AcDbEntity
  8
CUT_OUTER
100
AcDbPolyline
 90
4
 70
1
 10
691.9999999999999
 20
1436.4959999999996
 10
691.9999999999999
 20
1456.4959999999996
 10
661.9999999999999
 20
1456.4959999999996
 10
661.9999999999999
 20
1436.4959999999996
  0
CIRCLE
  5
106
330
17
100
AcDbEntity
  8
CUT_HOLES
100
AcDbCircle
 10
676.9999999999999
 20
1446.4959999999996
 30
0.0
 40
3.3
  0
TEXT
  5
107
330
17
100
AcDbEntity
  8
PART_MARK_NO_CUT
100
AcDbText
 10
663.9999999999999
 20
1438.4959999999996
 30
0.0
 40
3.0
  1
G_PANEL_CLAMP_20x30 #2
100
AcDbText
  0
LWPOLYLINE
  5
108
330
17
100
AcDbEntity
  8
CUT_OUTER
100
AcDbPolyline
 90
4
 70
1
 10
727.9999999999999
 20
1436.4959999999996
 10
727.9999999999999
 20
1456.4959999999996
 10
697.9999999999999
 20
1456.4959999999996
 10
697.9999999999999
 20
1436.4959999999996
  0
CIRCLE
  5
109
330
17
100
AcDbEntity
  8
CUT_HOLES
100
AcDbCircle
 10
712.9999999999999
 20
1446.4959999999996
 30
0.0
 40
3.3
  0
TEXT
  5
10A
330
17
100
AcDbEntity
  8
PART_MARK_NO_CUT
100
AcDbText
 10
699.9999999999999
 20
1438.4959999999996
 30
0.0
 40
3.0
  1
G_PANEL_CLAMP_20x30 #3
100
AcDbText
  0
LWPOLYLINE
  5
10B
330
17
100
AcDbEntity
  8
CUT_OUTER
100
AcDbPolyline
 90
4
 70
1
 10
763.9999999999999
 20
1436.4959999999996
 10
763.9999999999999
 20
1456.4959999999996
 10
733.9999999999999
 20
1456.4959999999996
 10
733.9999999999999
 20
1436.4959999999996
  0
CIRCLE
  5
10C
330
17
100
AcDbEntity
  8
CUT_HOLES
100
AcDbCircle
 10
748.9999999999999
 20
1446.4959999999996
 30
0.0
 40
3.3
  0
TEXT
  5
10D
330
17
100
AcDbEntity
  8
PART_MARK_NO_CUT
100
AcDbText
 10
735.9999999999999
 20
1438.4959999999996
 30
0.0
 40
3.0
  1
G_PANEL_CLAMP_20x30 #4
100
AcDbText
  0
LWPOLYLINE
  5
10E
330
17
100
AcDbEntity
  8
CUT_OUTER
100
AcDbPolyline
 90
4
 70
1
 10
339.8
 20
1270.096
 10
359.8
 20
1270.096
 10
359.8
 20
1300.096
 10
339.8
 20
1300.096
  0
CIRCLE
  5
10F
330
17
100
AcDbEntity
  8
CUT_HOLES
100
AcDbCircle
 10
349.8
 20
1285.096
 30
0.0
 40
3.3
  0
TEXT
  5
110
330
17
100
AcDbEntity
  8
PART_MARK_NO_CUT
100
AcDbText
 10
341.8
 20
1272.096
 30
0.0
 40
3.0
  1
G_PANEL_CLAMP_20x30 #5
100
AcDbText
  0
LWPOLYLINE
  5
111
330
17
100
AcDbEntity
  8
CUT_OUTER
100
AcDbPolyline
 90
4
 70
1
 10
1081.3919999999998
 20
603.2
 10
1081.3919999999998
 20
623.2
 10
1051.3919999999998
 20
623.2
 10
1051.3919999999998
 20
603.2
  0
CIRCLE
  5
112
330
17
100
AcDbEntity
  8
CUT_HOLES
100
AcDbCircle
 10
1066.3919999999998
 20
613.2
 30
0.0
 40
3.3
  0
TEXT
  5
113
330
17
100
AcDbEntity
  8
PART_MARK_NO_CUT
100
AcDbText
 10
1053.3919999999998
 20
605.2
 30
0.0
 40
3.0
  1
G_PANEL_CLAMP_20x30 #6
100
AcDbText
  0
LWPOLYLINE
  5
114
330
17
100
AcDbEntity
  8
CUT_OUTER
100
AcDbPolyline
 90
4
 70
1
 10
1081.3919999999998
 20
629.2
 10
1081.3919999999998
 20
649.2
 10
1051.3919999999998
 20
649.2
 10
1051.3919999999998
 20
629.2
  0
CIRCLE
  5
115
330
17
100
AcDbEntity
  8
CUT_HOLES
100
AcDbCircle
 10
1066.3919999999998
 20
639.2
 30
0.0
 40
3.3
  0
TEXT
  5
116
330
17
100
AcDbEntity
  8
PART_MARK_NO_CUT
100
AcDbText
 10
1053.3919999999998
 20
631.2
 30
0.0
 40
3.0
  1
G_PANEL_CLAMP_20x30 #7
100
AcDbText
  0
LWPOLYLINE
  5
117
330
17
100
AcDbEntity
  8
CUT_OUTER
100
AcDbPolyline
 90
4
 70
1
 10
1081.3919999999998
 20
655.2
 10
1081.3919999999998
 20
675.2
 10
1051.3919999999998
 20
675.2
 10
1051.3919999999998
 20
655.2
  0
CIRCLE
  5
118
330
17
100
AcDbEntity
  8
CUT_HOLES
100
AcDbCircle
 10
1066.3919999999998
 20
665.2
 30
0.0
 40
3.3
  0
TEXT
  5
119
330
17
100
AcDbEntity
  8
PART_MARK_NO_CUT
100
AcDbText
 10
1053.3919999999998
 20
657.2
 30
0.0
 40
3.0
  1
G_PANEL_CLAMP_20x30 #8
100
AcDbText
  0
LWPOLYLINE
  5
11A
330
17
100
AcDbEntity
  8
CUT_OUTER
100
AcDbPolyline
 90
4
 70
1
 10
1081.3919999999998
 20
681.2
 10
1081.3919999999998
 20
701.2
 10
1051.3919999999998
 20
701.2
 10
1051.3919999999998
 20
681.2
  0
CIRCLE
  5
11B
330
17
100
AcDbEntity
  8
CUT_HOLES
100
AcDbCircle
 10
1066.3919999999998
 20
691.2
 30
0.0
 40
3.3
  0
TEXT
  5
11C
330
17
100
AcDbEntity
  8
PART_MARK_NO_CUT
100
AcDbText
 10
1053.3919999999998
 20
683.2
 30
0.0
 40
3.0
  1
G_PANEL_CLAMP_20x30 #9
100
AcDbText
  0
LWPOLYLINE
  5
11D
330
17
100
AcDbEntity
  8
CUT_OUTER
100
AcDbPolyline
 90
4
 70
1
 10
1081.3919999999998
 20
707.2
 10
1081.3919999999998
 20
727.2
 10
1051.3919999999998
 20
727.2
 10
1051.3919999999998
 20
707.2
  0
CIRCLE
  5
11E
330
17
100
AcDbEntity
  8
CUT_HOLES
100
AcDbCircle
 10
1066.3919999999998
 20
717.2
 30
0.0
 40
3.3
  0
TEXT
  5
11F
330
17
100
AcDbEntity
  8
PART_MARK_NO_CUT
100
AcDbText
 10
1053.3919999999998
 20
709.2
 30
0.0
 40
3.0
  1
G_PANEL_CLAMP_20x30 #10
100
AcDbText
  0
LWPOLYLINE
  5
120
330
17
100
AcDbEntity
  8
CUT_OUTER
100
AcDbPolyline
 90
4
 70
1
 10
1081.3919999999998
 20
733.2
 10
1081.3919999999998
 20
753.2
 10
1051.3919999999998
 20
753.2
 10
1051.3919999999998
 20
733.2
  0
CIRCLE
  5
121
330
17
100
AcDbEntity
  8
CUT_HOLES
100
AcDbCircle
 10
1066.3919999999998
 20
743.2
 30
0.0
 40
3.3
  0
TEXT
  5
122
330
17
100
AcDbEntity
  8
PART_MARK_NO_CUT
100
AcDbText
 10
1053.3919999999998
 20
735.2
 30
0.0
 40
3.0
  1
G_PANEL_CLAMP_20x30 #11
100
AcDbText
  0
LWPOLYLINE
  5
123
330
17
100
AcDbEntity
  8
CUT_OUTER
100
AcDbPolyline
 90
4
 70
1
 10
1081.3919999999998
 20
759.2
 10
1081.3919999999998
 20
779.2
 10
1051.3919999999998
 20
779.2
 10
1051.3919999999998
 20
759.2
  0
CIRCLE
  5
124
330
17
100
AcDbEntity
  8
CUT_HOLES
100
AcDbCircle
 10
1066.3919999999998
 20
769.2
 30
0.0
 40
3.3
  0
TEXT
  5
125
330
17
100
AcDbEntity
  8
PART_MARK_NO_CUT
100
AcDbText
 10
1053.3919999999998
 20
761.2
 30
0.0
 40
3.0
  1
G_PANEL_CLAMP_20x30 #12
100
AcDbText
  0
LWPOLYLINE
  5
126
330
17
100
AcDbEntity
  8
CUT_OUTER
100
AcDbPolyline
 90
4
 70
1
 10
1081.3919999999998
 20
785.2
 10
1081.3919999999998
 20
805.2
 10
1051.3919999999998
 20
805.2
 10
1051.3919999999998
 20
785.2
  0
CIRCLE
  5
127
330
17
100
AcDbEntity
  8
CUT_HOLES
100
AcDbCircle
 10
1066.3919999999998
 20
795.2
 30
0.0
 40
3.3
  0
TEXT
  5
128
330
17
100
AcDbEntity
  8
PART_MARK_NO_CUT
100
AcDbText
 10
1053.3919999999998
 20
787.2
 30
0.0
 40
3.0
  1
G_PANEL_CLAMP_20x30 #13
100
AcDbText
  0
LWPOLYLINE
  5
129
330
17
100
AcDbEntity
  8
CUT_OUTER
100
AcDbPolyline
 90
4
 70
1
 10
1081.3919999999998
 20
811.2
 10
1081.3919999999998
 20
831.2
 10
1051.3919999999998
 20
831.2
 10
1051.3919999999998
 20
811.2
  0
CIRCLE
  5
12A
330
17
100
AcDbEntity
  8
CUT_HOLES
100
AcDbCircle
 10
1066.3919999999998
 20
821.2
 30
0.0
 40
3.3
  0
TEXT
  5
12B
330
17
100
AcDbEntity
  8
PART_MARK_NO_CUT
100
AcDbText
 10
1053.3919999999998
 20
813.2
 30
0.0
 40
3.0
  1
G_PANEL_CLAMP_20x30 #14
100
AcDbText
  0
LWPOLYLINE
  5
12C
330
17
100
AcDbEntity
  8
CUT_OUTER
100
AcDbPolyline
 90
4
 70
1
 10
1081.3919999999998
 20
837.2
 10
1081.3919999999998
 20
857.2
 10
1051.3919999999998
 20
857.2
 10
1051.3919999999998
 20
837.2
  0
CIRCLE
  5
12D
330
17
100
AcDbEntity
  8
CUT_HOLES
100
AcDbCircle
 10
1066.3919999999998
 20
847.2
 30
0.0
 40
3.3
  0
TEXT
  5
12E
330
17
100
AcDbEntity
  8
PART_MARK_NO_CUT
100
AcDbText
 10
1053.3919999999998
 20
839.2
 30
0.0
 40
3.0
  1
G_PANEL_CLAMP_20x30 #15
100
AcDbText
  0
LWPOLYLINE
  5
12F
330
17
100
AcDbEntity
  8
CUT_OUTER
100
AcDbPolyline
 90
4
 70
1
 10
1081.3919999999998
 20
863.2
 10
1081.3919999999998
 20
883.2
 10
1051.3919999999998
 20
883.2
 10
1051.3919999999998
 20
863.2
  0
CIRCLE
  5
130
330
17
100
AcDbEntity
  8
CUT_HOLES
100
AcDbCircle
 10
1066.3919999999998
 20
873.2
 30
0.0
 40
3.3
  0
TEXT
  5
131
330
17
100
AcDbEntity
  8
PART_MARK_NO_CUT
100
AcDbText
 10
1053.3919999999998
 20
865.2
 30
0.0
 40
3.0
  1
G_PANEL_CLAMP_20x30 #16
100
AcDbText
  0
ENDSEC
  0
SECTION
  2
OBJECTS
  0
DICTIONARY
  5
A
330
0
100
AcDbDictionary
281
1
  3
ACAD_COLOR
350
B
  3
ACAD_GROUP
350
C
  3
ACAD_LAYOUT
350
D
  3
ACAD_MATERIAL
350
E
  3
ACAD_MLEADERSTYLE
350
F
  3
ACAD_MLINESTYLE
350
10
  3
ACAD_PLOTSETTINGS
350
11
  3
ACAD_PLOTSTYLENAME
350
12
  3
ACAD_SCALELIST
350
14
  3
ACAD_TABLESTYLE
350
15
  3
ACAD_VISUALSTYLE
350
16
  3
EZDXF_META
350
2D
  0
DICTIONARY
  5
B
330
A
100
AcDbDictionary
281
1
  0
DICTIONARY
  5
C
330
A
100
AcDbDictionary
281
1
  0
DICTIONARY
  5
D
330
A
100
AcDbDictionary
281
1
  3
Model
350
1A
  3
Layout1
350
1E
  0
DICTIONARY
  5
E
330
A
100
AcDbDictionary
281
1
  3
ByBlock
350
1F
  3
ByLayer
350
20
  3
Global
350
21
  0
DICTIONARY
  5
F
330
A
100
AcDbDictionary
281
1
  3
Standard
350
2C
  0
DICTIONARY
  5
10
330
A
100
AcDbDictionary
281
1
  3
Standard
350
22
  0
DICTIONARY
  5
11
330
A
100
AcDbDictionary
281
1
  0
ACDBDICTIONARYWDFLT
  5
12
330
A
100
AcDbDictionary
281
1
  3
Normal
350
13
100
AcDbDictionaryWithDefault
340
13
  0
ACDBPLACEHOLDER
  5
13
330
12
  0
DICTIONARY
  5
14
330
A
100
AcDbDictionary
281
1
  0
DICTIONARY
  5
15
330
A
100
AcDbDictionary
281
1
  0
DICTIONARY
  5
16
330
A
100
AcDbDictionary
281
1
  0
LAYOUT
  5
1A
330
D
100
AcDbPlotSettings
  1

  4
A3
  6

 40
7.5
 41
20.0
 42
7.5
 43
20.0
 44
420.0
 45
297.0
 46
0.0
 47
0.0
 48
0.0
 49
0.0
140
0.0
141
0.0
142
1.0
143
1.0
 70
1024
 72
1
 73
0
 74
5
  7

 75
16
 76
0
 77
2
 78
300
147
1.0
148
0.0
149
0.0
100
AcDbLayout
  1
Model
 70
1
 71
0
 10
0.0
 20
0.0
 11
420.0
 21
297.0
 12
0.0
 22
0.0
 32
0.0
 14
1e+20
 24
1e+20
 34
1e+20
 15
-1e+20
 25
-1e+20
 35
-1e+20
146
0.0
 13
0.0
 23
0.0
 33
0.0
 16
1.0
 26
0.0
 36
0.0
 17
0.0
 27
1.0
 37
0.0
 76
1
330
17
  0
LAYOUT
  5
1E
330
D
100
AcDbPlotSettings
  1

  4
A3
  6

 40
7.5
 41
20.0
 42
7.5
 43
20.0
 44
420.0
 45
297.0
 46
0.0
 47
0.0
 48
0.0
 49
0.0
140
0.0
141
0.0
142
1.0
143
1.0
 70
0
 72
1
 73
0
 74
5
  7

 75
16
 76
0
 77
2
 78
300
147
1.0
148
0.0
149
0.0
100
AcDbLayout
  1
Layout1
 70
1
 71
1
 10
0.0
 20
0.0
 11
420.0
 21
297.0
 12
0.0
 22
0.0
 32
0.0
 14
1e+20
 24
1e+20
 34
1e+20
 15
-1e+20
 25
-1e+20
 35
-1e+20
146
0.0
 13
0.0
 23
0.0
 33
0.0
 16
1.0
 26
0.0
 36
0.0
 17
0.0
 27
1.0
 37
0.0
 76
1
330
1B
  0
MATERIAL
  5
1F
102
{ACAD_REACTORS
330
E
102
}
330
E
100
AcDbMaterial
  1
ByBlock
  2

 70
0
 40
1.0
 71
1
 41
1.0
 91
-1023410177
 42
1.0
 72
1
  3

 73
1
 74
1
 75
1
 44
0.5
 73
0
 45
1.0
 46
1.0
 77
1
  4

 78
1
 79
1
170
1
 48
1.0
171
1
  6

172
1
173
1
174
1
140
1.0
141
1.0
175
1
  7

176
1
177
1
178
1
143
1.0
179
1
  8

270
1
271
1
272
1
145
1.0
146
1.0
273
1
  9

274
1
275
1
276
1
 42
1.0
 72
1
  3

 73
1
 74
1
 75
1
 94
63
  0
MATERIAL
  5
20
102
{ACAD_REACTORS
330
E
102
}
330
E
100
AcDbMaterial
  1
ByLayer
  2

 70
0
 40
1.0
 71
1
 41
1.0
 91
-1023410177
 42
1.0
 72
1
  3

 73
1
 74
1
 75
1
 44
0.5
 73
0
 45
1.0
 46
1.0
 77
1
  4

 78
1
 79
1
170
1
 48
1.0
171
1
  6

172
1
173
1
174
1
140
1.0
141
1.0
175
1
  7

176
1
177
1
178
1
143
1.0
179
1
  8

270
1
271
1
272
1
145
1.0
146
1.0
273
1
  9

274
1
275
1
276
1
 42
1.0
 72
1
  3

 73
1
 74
1
 75
1
 94
63
  0
MATERIAL
  5
21
102
{ACAD_REACTORS
330
E
102
}
330
E
100
AcDbMaterial
  1
Global
  2

 70
0
 40
1.0
 71
1
 41
1.0
 91
-1023410177
 42
1.0
 72
1
  3

 73
1
 74
1
 75
1
 44
0.5
 73
0
 45
1.0
 46
1.0
 77
1
  4

 78
1
 79
1
170
1
 48
1.0
171
1
  6

172
1
173
1
174
1
140
1.0
141
1.0
175
1
  7

176
1
177
1
178
1
143
1.0
179
1
  8

270
1
271
1
272
1
145
1.0
146
1.0
273
1
  9

274
1
275
1
276
1
 42
1.0
 72
1
  3

 73
1
 74
1
 75
1
 94
63
  0
MLINESTYLE
  5
22
102
{ACAD_REACTORS
330
10
102
}
330
10
100
AcDbMlineStyle
  2
Standard
 70
0
  3

 62
256
 51
90.0
 52
90.0
 71
2
 49
0.5
 62
256
  6
BYLAYER
 49
-0.5
 62
256
  6
BYLAYER
  0
MLEADERSTYLE
  5
2C
102
{ACAD_REACTORS
330
F
102
}
330
F
100
AcDbMLeaderStyle
179
2
170
2
171
1
172
0
 90
2
 40
0.0
 41
0.0
173
1
 91
-1056964608
 92
-2
290
1
 42
2.0
291
1
 43
8.0
  3
Standard
 44
4.0
300

342
29
174
1
175
1
176
0
178
1
 93
-1056964608
 45
4.0
292
0
297
0
 46
4.0
 94
-1056964608
 47
1.0
 49
1.0
140
1.0
294
1
141
0.0
177
0
142
1.0
295
0
296
0
143
3.75
271
0
272
9
273
9
  0
DICTIONARY
  5
2D
330
A
100
AcDbDictionary
280
1
281
1
  3
CREATED_BY_EZDXF
350
2E
  3
WRITTEN_BY_EZDXF
350
134
  0
DICTIONARYVAR
  5
2E
330
2D
100
DictionaryVariables
280
0
  1
1.4.4 @ 2026-09-25T18:30:22.416448+00:00
  0
DICTIONARYVAR
  5
134
330
2D
100
DictionaryVariables
280
0
  1
1.4.4 @ 2026-09-25T18:30:22.756754+00:00
  0
ENDSEC
  0
EOF
