ISO-10303-21;
HEADER;
FILE_DESCRIPTION(('Open CASCADE Model'),'2;1');
FILE_NAME('Open CASCADE Shape Model','2026-09-26T20:56:46',('Author'),(
    'Open CASCADE'),'Open CASCADE STEP processor 7.9','Open CASCADE 7.9'
  ,'Unknown');
FILE_SCHEMA(('AUTOMOTIVE_DESIGN { 1 0 10303 214 1 1 1 1 }'));
ENDSEC;
DATA;
#1 = APPLICATION_PROTOCOL_DEFINITION('international standard',
  'automotive_design',2000,#2);
#2 = APPLICATION_CONTEXT(
  'core data for automotive mechanical design processes');
#3 = SHAPE_DEFINITION_REPRESENTATION(#4,#10);
#4 = PRODUCT_DEFINITION_SHAPE('','',#5);
#5 = PRODUCT_DEFINITION('design','',#6,#9);
#6 = PRODUCT_DEFINITION_FORMATION('','',#7);
#7 = PRODUCT('Open CASCADE STEP translator 7.9 156',
  'Open CASCADE STEP translator 7.9 156','',(#8));
#8 = PRODUCT_CONTEXT('',#2,'mechanical');
#9 = PRODUCT_DEFINITION_CONTEXT('part definition',#2,'design');
#10 = ADVANCED_BREP_SHAPE_REPRESENTATION('',(#11,#15),#811);
#11 = AXIS2_PLACEMENT_3D('',#12,#13,#14);
#12 = CARTESIAN_POINT('',(0.,0.,0.));
#13 = DIRECTION('',(0.,0.,1.));
#14 = DIRECTION('',(1.,0.,-0.));
#15 = MANIFOLD_SOLID_BREP('',#16);
#16 = CLOSED_SHELL('',(#17,#202,#237,#391,#543,#599,#753,#783));
#17 = ADVANCED_FACE('',(#18),#32,.T.);
#18 = FACE_BOUND('',#19,.T.);
#19 = EDGE_LOOP('',(#20,#49,#90,#140,#174,#175));
#20 = ORIENTED_EDGE('',*,*,#21,.T.);
#21 = EDGE_CURVE('',#22,#24,#26,.T.);
#22 = VERTEX_POINT('',#23);
#23 = CARTESIAN_POINT('',(395.65,1.2154E+03,665.));
#24 = VERTEX_POINT('',#25);
#25 = CARTESIAN_POINT('',(395.65,1.2154E+03,895.65));
#26 = SEAM_CURVE('',#27,(#31,#42),.PCURVE_S1.);
#27 = LINE('',#28,#29);
#28 = CARTESIAN_POINT('',(395.65,1.2154E+03,665.));
#29 = VECTOR('',#30,1.);
#30 = DIRECTION('',(0.,0.,1.));
#31 = PCURVE('',#32,#37);
#32 = CYLINDRICAL_SURFACE('',#33,10.65);
#33 = AXIS2_PLACEMENT_3D('',#34,#35,#36);
#34 = CARTESIAN_POINT('',(385.,1.2154E+03,665.));
#35 = DIRECTION('',(0.,0.,1.));
#36 = DIRECTION('',(1.,0.,-0.));
#37 = DEFINITIONAL_REPRESENTATION('',(#38),#41);
#38 = B_SPLINE_CURVE_WITH_KNOTS('',1,(#39,#40),.UNSPECIFIED.,.F.,.F.,(2,
    2),(0.,278.56619041748),.PIECEWISE_BEZIER_KNOTS.);
#39 = CARTESIAN_POINT('',(6.28318530718,0.));
#40 = CARTESIAN_POINT('',(6.28318530718,278.56619041748));
#41 = ( GEOMETRIC_REPRESENTATION_CONTEXT(2) 
PARAMETRIC_REPRESENTATION_CONTEXT() REPRESENTATION_CONTEXT('2D SPACE',''
  ) );
#42 = PCURVE('',#32,#43);
#43 = DEFINITIONAL_REPRESENTATION('',(#44),#48);
#44 = LINE('',#45,#46);
#45 = CARTESIAN_POINT('',(0.,0.));
#46 = VECTOR('',#47,1.);
#47 = DIRECTION('',(0.,1.));
#48 = ( GEOMETRIC_REPRESENTATION_CONTEXT(2) 
PARAMETRIC_REPRESENTATION_CONTEXT() REPRESENTATION_CONTEXT('2D SPACE',''
  ) );
#49 = ORIENTED_EDGE('',*,*,#50,.F.);
#50 = EDGE_CURVE('',#51,#24,#53,.T.);
#51 = VERTEX_POINT('',#52);
#52 = CARTESIAN_POINT('',(385.,1.20475E+03,885.));
#53 = SURFACE_CURVE('',#54,(#59,#72),.PCURVE_S1.);
#54 = ELLIPSE('',#55,15.061374439273,10.65);
#55 = AXIS2_PLACEMENT_3D('',#56,#57,#58);
#56 = CARTESIAN_POINT('',(385.,1.2154E+03,885.));
#57 = DIRECTION('',(-0.707106781187,0.,0.707106781187));
#58 = DIRECTION('',(0.707106781187,0.,0.707106781187));
#59 = PCURVE('',#32,#60);
#60 = DEFINITIONAL_REPRESENTATION('',(#61),#71);
#61 = B_SPLINE_CURVE_WITH_KNOTS('',8,(#62,#63,#64,#65,#66,#67,#68,#69,
    #70),.UNSPECIFIED.,.F.,.F.,(9,9),(4.712388980385,6.28318530718),
  .PIECEWISE_BEZIER_KNOTS.);
#62 = CARTESIAN_POINT('',(4.712388980385,220.));
#63 = CARTESIAN_POINT('',(4.908738521234,222.09112261004));
#64 = CARTESIAN_POINT('',(5.105088062085,224.18224571651));
#65 = CARTESIAN_POINT('',(5.301437602932,226.15051623177));
#66 = CARTESIAN_POINT('',(5.497787143787,227.87310569454));
#67 = CARTESIAN_POINT('',(5.694136684632,229.242262193));
#68 = CARTESIAN_POINT('',(5.890486225482,230.18075273561));
#69 = CARTESIAN_POINT('',(6.08683576633,230.65));
#70 = CARTESIAN_POINT('',(6.28318530718,230.65));
#71 = ( GEOMETRIC_REPRESENTATION_CONTEXT(2) 
PARAMETRIC_REPRESENTATION_CONTEXT() REPRESENTATION_CONTEXT('2D SPACE',''
  ) );
#72 = PCURVE('',#73,#78);
#73 = CYLINDRICAL_SURFACE('',#74,10.65);
#74 = AXIS2_PLACEMENT_3D('',#75,#76,#77);
#75 = CARTESIAN_POINT('',(385.,1.2154E+03,885.));
#76 = DIRECTION('',(-1.,0.,0.));
#77 = DIRECTION('',(0.,-1.224646799147E-16,1.));
#78 = DEFINITIONAL_REPRESENTATION('',(#79),#89);
#79 = B_SPLINE_CURVE_WITH_KNOTS('',8,(#80,#81,#82,#83,#84,#85,#86,#87,
    #88),.UNSPECIFIED.,.F.,.F.,(9,9),(4.712388980385,6.28318530718),
  .PIECEWISE_BEZIER_KNOTS.);
#80 = CARTESIAN_POINT('',(4.712388980385,0.));
#81 = CARTESIAN_POINT('',(4.908738521234,-2.091122610046));
#82 = CARTESIAN_POINT('',(5.105088062084,-4.182245716573));
#83 = CARTESIAN_POINT('',(5.301437602933,-6.150516231985));
#84 = CARTESIAN_POINT('',(5.497787143781,-7.873105693521));
#85 = CARTESIAN_POINT('',(5.694136684632,-9.242262193584));
#86 = CARTESIAN_POINT('',(5.890486225482,-10.18075273572));
#87 = CARTESIAN_POINT('',(6.08683576633,-10.65));
#88 = CARTESIAN_POINT('',(6.28318530718,-10.65));
#89 = ( GEOMETRIC_REPRESENTATION_CONTEXT(2) 
PARAMETRIC_REPRESENTATION_CONTEXT() REPRESENTATION_CONTEXT('2D SPACE',''
  ) );
#90 = ORIENTED_EDGE('',*,*,#91,.F.);
#91 = EDGE_CURVE('',#92,#51,#94,.T.);
#92 = VERTEX_POINT('',#93);
#93 = CARTESIAN_POINT('',(385.,1.22605E+03,885.));
#94 = SURFACE_CURVE('',#95,(#100,#120),.PCURVE_S1.);
#95 = ELLIPSE('',#96,15.061374439273,10.65);
#96 = AXIS2_PLACEMENT_3D('',#97,#98,#99);
#97 = CARTESIAN_POINT('',(385.,1.2154E+03,885.));
#98 = DIRECTION('',(-0.707106781187,0.,0.707106781187));
#99 = DIRECTION('',(0.707106781187,0.,0.707106781187));
#100 = PCURVE('',#32,#101);
#101 = DEFINITIONAL_REPRESENTATION('',(#102),#119);
#102 = B_SPLINE_CURVE_WITH_KNOTS('',8,(#103,#104,#105,#106,#107,#108,
    #109,#110,#111,#112,#113,#114,#115,#116,#117,#118),.UNSPECIFIED.,.F.
  ,.F.,(9,7,9),(1.570796326795,3.14159265359,4.712388980385),
  .UNSPECIFIED.);
#103 = CARTESIAN_POINT('',(1.570796326795,220.));
#104 = CARTESIAN_POINT('',(1.767145867644,217.90887738995));
#105 = CARTESIAN_POINT('',(1.963495408492,215.81775428351));
#106 = CARTESIAN_POINT('',(2.159844949347,213.84948376787));
#107 = CARTESIAN_POINT('',(2.356194490181,212.12689430709));
#108 = CARTESIAN_POINT('',(2.552544031047,210.75773780641));
#109 = CARTESIAN_POINT('',(2.74889357189,209.81924726441));
#110 = CARTESIAN_POINT('',(2.94524311274,209.35));
#111 = CARTESIAN_POINT('',(3.337942194439,209.35));
#112 = CARTESIAN_POINT('',(3.53429173529,209.81924726415));
#113 = CARTESIAN_POINT('',(3.730641276125,210.75773780618));
#114 = CARTESIAN_POINT('',(3.926990816977,212.12689430546));
#115 = CARTESIAN_POINT('',(4.123340357828,213.84948376752));
#116 = CARTESIAN_POINT('',(4.319689898687,215.81775428331));
#117 = CARTESIAN_POINT('',(4.516039439535,217.90887738995));
#118 = CARTESIAN_POINT('',(4.712388980385,220.));
#119 = ( GEOMETRIC_REPRESENTATION_CONTEXT(2) 
PARAMETRIC_REPRESENTATION_CONTEXT() REPRESENTATION_CONTEXT('2D SPACE',''
  ) );
#120 = PCURVE('',#73,#121);
#121 = DEFINITIONAL_REPRESENTATION('',(#122),#139);
#122 = B_SPLINE_CURVE_WITH_KNOTS('',8,(#123,#124,#125,#126,#127,#128,
    #129,#130,#131,#132,#133,#134,#135,#136,#137,#138),.UNSPECIFIED.,.F.
  ,.F.,(9,7,9),(1.570796326795,3.14159265359,4.712388980385),
  .UNSPECIFIED.);
#123 = CARTESIAN_POINT('',(1.570796326795,0.));
#124 = CARTESIAN_POINT('',(1.767145867644,2.091122610046));
#125 = CARTESIAN_POINT('',(1.963495408493,4.182245716573));
#126 = CARTESIAN_POINT('',(2.159844949346,6.150516231985));
#127 = CARTESIAN_POINT('',(2.356194490187,7.873105693521));
#128 = CARTESIAN_POINT('',(2.552544031047,9.242262193584));
#129 = CARTESIAN_POINT('',(2.748893571889,10.180752735727));
#130 = CARTESIAN_POINT('',(2.94524311274,10.65));
#131 = CARTESIAN_POINT('',(3.337942194439,10.65));
#132 = CARTESIAN_POINT('',(3.534291735286,10.180752735751));
#133 = CARTESIAN_POINT('',(3.730641276132,9.242262193486));
#134 = CARTESIAN_POINT('',(3.926990816977,7.873105693652));
#135 = CARTESIAN_POINT('',(4.123340357826,6.150516231868));
#136 = CARTESIAN_POINT('',(4.319689898684,4.182245716595));
#137 = CARTESIAN_POINT('',(4.516039439535,2.091122610046));
#138 = CARTESIAN_POINT('',(4.712388980385,0.));
#139 = ( GEOMETRIC_REPRESENTATION_CONTEXT(2) 
PARAMETRIC_REPRESENTATION_CONTEXT() REPRESENTATION_CONTEXT('2D SPACE',''
  ) );
#140 = ORIENTED_EDGE('',*,*,#141,.F.);
#141 = EDGE_CURVE('',#24,#92,#142,.T.);
#142 = SURFACE_CURVE('',#143,(#148,#161),.PCURVE_S1.);
#143 = ELLIPSE('',#144,15.061374439273,10.65);
#144 = AXIS2_PLACEMENT_3D('',#145,#146,#147);
#145 = CARTESIAN_POINT('',(385.,1.2154E+03,885.));
#146 = DIRECTION('',(-0.707106781187,0.,0.707106781187));
#147 = DIRECTION('',(0.707106781187,0.,0.707106781187));
#148 = PCURVE('',#32,#149);
#149 = DEFINITIONAL_REPRESENTATION('',(#150),#160);
#150 = B_SPLINE_CURVE_WITH_KNOTS('',8,(#151,#152,#153,#154,#155,#156,
    #157,#158,#159),.UNSPECIFIED.,.F.,.F.,(9,9),(0.,1.570796326795),
  .PIECEWISE_BEZIER_KNOTS.);
#151 = CARTESIAN_POINT('',(0.,230.65));
#152 = CARTESIAN_POINT('',(0.196349540849,230.65));
#153 = CARTESIAN_POINT('',(0.392699081697,230.18075273552));
#154 = CARTESIAN_POINT('',(0.589048622552,229.242262193));
#155 = CARTESIAN_POINT('',(0.785398163393,227.87310569291));
#156 = CARTESIAN_POINT('',(0.981747704252,226.15051623212));
#157 = CARTESIAN_POINT('',(1.178097245095,224.18224571651));
#158 = CARTESIAN_POINT('',(1.374446785946,222.09112261004));
#159 = CARTESIAN_POINT('',(1.570796326795,220.));
#160 = ( GEOMETRIC_REPRESENTATION_CONTEXT(2) 
PARAMETRIC_REPRESENTATION_CONTEXT() REPRESENTATION_CONTEXT('2D SPACE',''
  ) );
#161 = PCURVE('',#73,#162);
#162 = DEFINITIONAL_REPRESENTATION('',(#163),#173);
#163 = B_SPLINE_CURVE_WITH_KNOTS('',8,(#164,#165,#166,#167,#168,#169,
    #170,#171,#172),.UNSPECIFIED.,.F.,.F.,(9,9),(0.,1.570796326795),
  .PIECEWISE_BEZIER_KNOTS.);
#164 = CARTESIAN_POINT('',(0.,-10.65));
#165 = CARTESIAN_POINT('',(0.196349540849,-10.65));
#166 = CARTESIAN_POINT('',(0.392699081699,-10.18075273574));
#167 = CARTESIAN_POINT('',(0.589048622547,-9.242262193489));
#168 = CARTESIAN_POINT('',(0.785398163397,-7.873105693649));
#169 = CARTESIAN_POINT('',(0.981747704245,-6.150516231875));
#170 = CARTESIAN_POINT('',(1.178097245096,-4.182245716589));
#171 = CARTESIAN_POINT('',(1.374446785946,-2.091122610046));
#172 = CARTESIAN_POINT('',(1.570796326795,0.));
#173 = ( GEOMETRIC_REPRESENTATION_CONTEXT(2) 
PARAMETRIC_REPRESENTATION_CONTEXT() REPRESENTATION_CONTEXT('2D SPACE',''
  ) );
#174 = ORIENTED_EDGE('',*,*,#21,.F.);
#175 = ORIENTED_EDGE('',*,*,#176,.T.);
#176 = EDGE_CURVE('',#22,#22,#177,.T.);
#177 = SURFACE_CURVE('',#178,(#183,#190),.PCURVE_S1.);
#178 = CIRCLE('',#179,10.65);
#179 = AXIS2_PLACEMENT_3D('',#180,#181,#182);
#180 = CARTESIAN_POINT('',(385.,1.2154E+03,665.));
#181 = DIRECTION('',(0.,0.,1.));
#182 = DIRECTION('',(1.,0.,-0.));
#183 = PCURVE('',#32,#184);
#184 = DEFINITIONAL_REPRESENTATION('',(#185),#189);
#185 = LINE('',#186,#187);
#186 = CARTESIAN_POINT('',(0.,0.));
#187 = VECTOR('',#188,1.);
#188 = DIRECTION('',(1.,0.));
#189 = ( GEOMETRIC_REPRESENTATION_CONTEXT(2) 
PARAMETRIC_REPRESENTATION_CONTEXT() REPRESENTATION_CONTEXT('2D SPACE',''
  ) );
#190 = PCURVE('',#191,#196);
#191 = PLANE('',#192);
#192 = AXIS2_PLACEMENT_3D('',#193,#194,#195);
#193 = CARTESIAN_POINT('',(385.,1.2154E+03,665.));
#194 = DIRECTION('',(0.,0.,1.));
#195 = DIRECTION('',(1.,0.,-0.));
#196 = DEFINITIONAL_REPRESENTATION('',(#197),#201);
#197 = CIRCLE('',#198,10.65);
#198 = AXIS2_PLACEMENT_2D('',#199,#200);
#199 = CARTESIAN_POINT('',(0.,0.));
#200 = DIRECTION('',(1.,0.));
#201 = ( GEOMETRIC_REPRESENTATION_CONTEXT(2) 
PARAMETRIC_REPRESENTATION_CONTEXT() REPRESENTATION_CONTEXT('2D SPACE',''
  ) );
#202 = ADVANCED_FACE('',(#203,#206),#191,.F.);
#203 = FACE_BOUND('',#204,.F.);
#204 = EDGE_LOOP('',(#205));
#205 = ORIENTED_EDGE('',*,*,#176,.T.);
#206 = FACE_BOUND('',#207,.F.);
#207 = EDGE_LOOP('',(#208));
#208 = ORIENTED_EDGE('',*,*,#209,.F.);
#209 = EDGE_CURVE('',#210,#210,#212,.T.);
#210 = VERTEX_POINT('',#211);
#211 = CARTESIAN_POINT('',(392.9,1.2154E+03,665.));
#212 = SURFACE_CURVE('',#213,(#218,#225),.PCURVE_S1.);
#213 = CIRCLE('',#214,7.9);
#214 = AXIS2_PLACEMENT_3D('',#215,#216,#217);
#215 = CARTESIAN_POINT('',(385.,1.2154E+03,665.));
#216 = DIRECTION('',(0.,0.,1.));
#217 = DIRECTION('',(1.,0.,-0.));
#218 = PCURVE('',#191,#219);
#219 = DEFINITIONAL_REPRESENTATION('',(#220),#224);
#220 = CIRCLE('',#221,7.9);
#221 = AXIS2_PLACEMENT_2D('',#222,#223);
#222 = CARTESIAN_POINT('',(5.684341886081E-14,0.));
#223 = DIRECTION('',(1.,0.));
#224 = ( GEOMETRIC_REPRESENTATION_CONTEXT(2) 
PARAMETRIC_REPRESENTATION_CONTEXT() REPRESENTATION_CONTEXT('2D SPACE',''
  ) );
#225 = PCURVE('',#226,#231);
#226 = CYLINDRICAL_SURFACE('',#227,7.9);
#227 = AXIS2_PLACEMENT_3D('',#228,#229,#230);
#228 = CARTESIAN_POINT('',(385.,1.2154E+03,665.));
#229 = DIRECTION('',(0.,0.,1.));
#230 = DIRECTION('',(1.,0.,-0.));
#231 = DEFINITIONAL_REPRESENTATION('',(#232),#236);
#232 = LINE('',#233,#234);
#233 = CARTESIAN_POINT('',(0.,0.));
#234 = VECTOR('',#235,1.);
#235 = DIRECTION('',(1.,0.));
#236 = ( GEOMETRIC_REPRESENTATION_CONTEXT(2) 
PARAMETRIC_REPRESENTATION_CONTEXT() REPRESENTATION_CONTEXT('2D SPACE',''
  ) );
#237 = ADVANCED_FACE('',(#238),#73,.T.);
#238 = FACE_BOUND('',#239,.T.);
#239 = EDGE_LOOP('',(#240,#262,#303,#353,#387,#388,#389,#390));
#240 = ORIENTED_EDGE('',*,*,#241,.T.);
#241 = EDGE_CURVE('',#24,#242,#244,.T.);
#242 = VERTEX_POINT('',#243);
#243 = CARTESIAN_POINT('',(334.35,1.2154E+03,895.65));
#244 = SEAM_CURVE('',#245,(#249,#255),.PCURVE_S1.);
#245 = LINE('',#246,#247);
#246 = CARTESIAN_POINT('',(385.,1.2154E+03,895.65));
#247 = VECTOR('',#248,1.);
#248 = DIRECTION('',(-1.,0.,0.));
#249 = PCURVE('',#73,#250);
#250 = DEFINITIONAL_REPRESENTATION('',(#251),#254);
#251 = B_SPLINE_CURVE_WITH_KNOTS('',1,(#252,#253),.UNSPECIFIED.,.F.,.F.,
  (2,2),(-58.56619041748,98.56619041748),.PIECEWISE_BEZIER_KNOTS.);
#252 = CARTESIAN_POINT('',(6.28318530718,-58.56619041748));
#253 = CARTESIAN_POINT('',(6.28318530718,98.56619041748));
#254 = ( GEOMETRIC_REPRESENTATION_CONTEXT(2) 
PARAMETRIC_REPRESENTATION_CONTEXT() REPRESENTATION_CONTEXT('2D SPACE',''
  ) );
#255 = PCURVE('',#73,#256);
#256 = DEFINITIONAL_REPRESENTATION('',(#257),#261);
#257 = LINE('',#258,#259);
#258 = CARTESIAN_POINT('',(0.,0.));
#259 = VECTOR('',#260,1.);
#260 = DIRECTION('',(0.,1.));
#261 = ( GEOMETRIC_REPRESENTATION_CONTEXT(2) 
PARAMETRIC_REPRESENTATION_CONTEXT() REPRESENTATION_CONTEXT('2D SPACE',''
  ) );
#262 = ORIENTED_EDGE('',*,*,#263,.F.);
#263 = EDGE_CURVE('',#264,#242,#266,.T.);
#264 = VERTEX_POINT('',#265);
#265 = CARTESIAN_POINT('',(345.,1.20475E+03,885.));
#266 = SURFACE_CURVE('',#267,(#272,#285),.PCURVE_S1.);
#267 = ELLIPSE('',#268,15.061374439273,10.65);
#268 = AXIS2_PLACEMENT_3D('',#269,#270,#271);
#269 = CARTESIAN_POINT('',(345.,1.2154E+03,885.));
#270 = DIRECTION('',(-0.707106781187,0.,-0.707106781187));
#271 = DIRECTION('',(-0.707106781187,0.,0.707106781187));
#272 = PCURVE('',#73,#273);
#273 = DEFINITIONAL_REPRESENTATION('',(#274),#284);
#274 = B_SPLINE_CURVE_WITH_KNOTS('',8,(#275,#276,#277,#278,#279,#280,
    #281,#282,#283),.UNSPECIFIED.,.F.,.F.,(9,9),(4.712388980385,
    6.28318530718),.PIECEWISE_BEZIER_KNOTS.);
#275 = CARTESIAN_POINT('',(4.712388980385,40.));
#276 = CARTESIAN_POINT('',(4.908738521234,42.091122610046));
#277 = CARTESIAN_POINT('',(5.105088062084,44.182245716605));
#278 = CARTESIAN_POINT('',(5.301437602933,46.150516231806));
#279 = CARTESIAN_POINT('',(5.497787143781,47.873105693754));
#280 = CARTESIAN_POINT('',(5.694136684632,49.242262193438));
#281 = CARTESIAN_POINT('',(5.890486225482,50.180752735767));
#282 = CARTESIAN_POINT('',(6.08683576633,50.65));
#283 = CARTESIAN_POINT('',(6.28318530718,50.65));
#284 = ( GEOMETRIC_REPRESENTATION_CONTEXT(2) 
PARAMETRIC_REPRESENTATION_CONTEXT() REPRESENTATION_CONTEXT('2D SPACE',''
  ) );
#285 = PCURVE('',#286,#291);
#286 = CYLINDRICAL_SURFACE('',#287,10.65);
#287 = AXIS2_PLACEMENT_3D('',#288,#289,#290);
#288 = CARTESIAN_POINT('',(345.,1.2154E+03,885.));
#289 = DIRECTION('',(0.,0.,-1.));
#290 = DIRECTION('',(-1.,0.,0.));
#291 = DEFINITIONAL_REPRESENTATION('',(#292),#302);
#292 = B_SPLINE_CURVE_WITH_KNOTS('',8,(#293,#294,#295,#296,#297,#298,
    #299,#300,#301),.UNSPECIFIED.,.F.,.F.,(9,9),(4.712388980385,
    6.28318530718),.PIECEWISE_BEZIER_KNOTS.);
#293 = CARTESIAN_POINT('',(4.712388980385,0.));
#294 = CARTESIAN_POINT('',(4.908738521234,-2.091122610046));
#295 = CARTESIAN_POINT('',(5.105088062085,-4.182245716576));
#296 = CARTESIAN_POINT('',(5.301437602932,-6.150516231901));
#297 = CARTESIAN_POINT('',(5.497787143787,-7.873105693594));
#298 = CARTESIAN_POINT('',(5.694136684632,-9.242262193515));
#299 = CARTESIAN_POINT('',(5.890486225482,-10.18075273573));
#300 = CARTESIAN_POINT('',(6.08683576633,-10.65));
#301 = CARTESIAN_POINT('',(6.28318530718,-10.65));
#302 = ( GEOMETRIC_REPRESENTATION_CONTEXT(2) 
PARAMETRIC_REPRESENTATION_CONTEXT() REPRESENTATION_CONTEXT('2D SPACE',''
  ) );
#303 = ORIENTED_EDGE('',*,*,#304,.F.);
#304 = EDGE_CURVE('',#305,#264,#307,.T.);
#305 = VERTEX_POINT('',#306);
#306 = CARTESIAN_POINT('',(345.,1.22605E+03,885.));
#307 = SURFACE_CURVE('',#308,(#313,#333),.PCURVE_S1.);
#308 = ELLIPSE('',#309,15.061374439273,10.65);
#309 = AXIS2_PLACEMENT_3D('',#310,#311,#312);
#310 = CARTESIAN_POINT('',(345.,1.2154E+03,885.));
#311 = DIRECTION('',(-0.707106781187,0.,-0.707106781187));
#312 = DIRECTION('',(-0.707106781187,0.,0.707106781187));
#313 = PCURVE('',#73,#314);
#314 = DEFINITIONAL_REPRESENTATION('',(#315),#332);
#315 = B_SPLINE_CURVE_WITH_KNOTS('',8,(#316,#317,#318,#319,#320,#321,
    #322,#323,#324,#325,#326,#327,#328,#329,#330,#331),.UNSPECIFIED.,.F.
  ,.F.,(9,7,9),(1.570796326795,3.14159265359,4.712388980385),
  .UNSPECIFIED.);
#316 = CARTESIAN_POINT('',(1.570796326795,40.));
#317 = CARTESIAN_POINT('',(1.767145867644,37.908877389954));
#318 = CARTESIAN_POINT('',(1.963495408493,35.817754283398));
#319 = CARTESIAN_POINT('',(2.159844949346,33.849483768005));
#320 = CARTESIAN_POINT('',(2.356194490187,32.126894306421));
#321 = CARTESIAN_POINT('',(2.552544031047,30.757737806358));
#322 = CARTESIAN_POINT('',(2.748893571889,29.819247264255));
#323 = CARTESIAN_POINT('',(2.94524311274,29.35));
#324 = CARTESIAN_POINT('',(3.337942194439,29.35));
#325 = CARTESIAN_POINT('',(3.534291735286,29.81924726424));
#326 = CARTESIAN_POINT('',(3.730641276132,30.757737806387));
#327 = CARTESIAN_POINT('',(3.926990816977,32.126894306188));
#328 = CARTESIAN_POINT('',(4.123340357826,33.849483768019));
#329 = CARTESIAN_POINT('',(4.319689898684,35.817754283409));
#330 = CARTESIAN_POINT('',(4.516039439535,37.908877389954));
#331 = CARTESIAN_POINT('',(4.712388980385,40.));
#332 = ( GEOMETRIC_REPRESENTATION_CONTEXT(2) 
PARAMETRIC_REPRESENTATION_CONTEXT() REPRESENTATION_CONTEXT('2D SPACE',''
  ) );
#333 = PCURVE('',#286,#334);
#334 = DEFINITIONAL_REPRESENTATION('',(#335),#352);
#335 = B_SPLINE_CURVE_WITH_KNOTS('',8,(#336,#337,#338,#339,#340,#341,
    #342,#343,#344,#345,#346,#347,#348,#349,#350,#351),.UNSPECIFIED.,.F.
  ,.F.,(9,7,9),(1.570796326795,3.14159265359,4.712388980385),
  .UNSPECIFIED.);
#336 = CARTESIAN_POINT('',(1.570796326795,0.));
#337 = CARTESIAN_POINT('',(1.767145867644,2.091122610046));
#338 = CARTESIAN_POINT('',(1.963495408492,4.182245716593));
#339 = CARTESIAN_POINT('',(2.159844949347,6.150516231861));
#340 = CARTESIAN_POINT('',(2.356194490181,7.873105693652));
#341 = CARTESIAN_POINT('',(2.552544031047,9.242262193493));
#342 = CARTESIAN_POINT('',(2.74889357189,10.180752735751));
#343 = CARTESIAN_POINT('',(2.94524311274,10.65));
#344 = CARTESIAN_POINT('',(3.337942194439,10.65));
#345 = CARTESIAN_POINT('',(3.53429173529,10.180752735731));
#346 = CARTESIAN_POINT('',(3.730641276125,9.242262193548));
#347 = CARTESIAN_POINT('',(3.926990816977,7.873105693561));
#348 = CARTESIAN_POINT('',(4.123340357828,6.150516231941));
#349 = CARTESIAN_POINT('',(4.319689898687,4.182245716578));
#350 = CARTESIAN_POINT('',(4.516039439535,2.091122610046));
#351 = CARTESIAN_POINT('',(4.712388980385,0.));
#352 = ( GEOMETRIC_REPRESENTATION_CONTEXT(2) 
PARAMETRIC_REPRESENTATION_CONTEXT() REPRESENTATION_CONTEXT('2D SPACE',''
  ) );
#353 = ORIENTED_EDGE('',*,*,#354,.F.);
#354 = EDGE_CURVE('',#242,#305,#355,.T.);
#355 = SURFACE_CURVE('',#356,(#361,#374),.PCURVE_S1.);
#356 = ELLIPSE('',#357,15.061374439273,10.65);
#357 = AXIS2_PLACEMENT_3D('',#358,#359,#360);
#358 = CARTESIAN_POINT('',(345.,1.2154E+03,885.));
#359 = DIRECTION('',(-0.707106781187,0.,-0.707106781187));
#360 = DIRECTION('',(-0.707106781187,0.,0.707106781187));
#361 = PCURVE('',#73,#362);
#362 = DEFINITIONAL_REPRESENTATION('',(#363),#373);
#363 = B_SPLINE_CURVE_WITH_KNOTS('',8,(#364,#365,#366,#367,#368,#369,
    #370,#371,#372),.UNSPECIFIED.,.F.,.F.,(9,9),(0.,1.570796326795),
  .PIECEWISE_BEZIER_KNOTS.);
#364 = CARTESIAN_POINT('',(0.,50.65));
#365 = CARTESIAN_POINT('',(0.196349540849,50.65));
#366 = CARTESIAN_POINT('',(0.392699081699,50.18075273573));
#367 = CARTESIAN_POINT('',(0.589048622547,49.242262193526));
#368 = CARTESIAN_POINT('',(0.785398163397,47.873105693579));
#369 = CARTESIAN_POINT('',(0.981747704245,46.150516231894));
#370 = CARTESIAN_POINT('',(1.178097245096,44.18224571654));
#371 = CARTESIAN_POINT('',(1.374446785946,42.091122610046));
#372 = CARTESIAN_POINT('',(1.570796326795,40.));
#373 = ( GEOMETRIC_REPRESENTATION_CONTEXT(2) 
PARAMETRIC_REPRESENTATION_CONTEXT() REPRESENTATION_CONTEXT('2D SPACE',''
  ) );
#374 = PCURVE('',#286,#375);
#375 = DEFINITIONAL_REPRESENTATION('',(#376),#386);
#376 = B_SPLINE_CURVE_WITH_KNOTS('',8,(#377,#378,#379,#380,#381,#382,
    #383,#384,#385),.UNSPECIFIED.,.F.,.F.,(9,9),(0.,1.570796326795),
  .PIECEWISE_BEZIER_KNOTS.);
#377 = CARTESIAN_POINT('',(0.,-10.65));
#378 = CARTESIAN_POINT('',(0.196349540849,-10.65));
#379 = CARTESIAN_POINT('',(0.392699081697,-10.18075273574));
#380 = CARTESIAN_POINT('',(0.589048622552,-9.242262193537));
#381 = CARTESIAN_POINT('',(0.785398163393,-7.87310569363));
#382 = CARTESIAN_POINT('',(0.981747704252,-6.150516231908));
#383 = CARTESIAN_POINT('',(1.178097245095,-4.182245716579));
#384 = CARTESIAN_POINT('',(1.374446785946,-2.091122610046));
#385 = CARTESIAN_POINT('',(1.570796326795,0.));
#386 = ( GEOMETRIC_REPRESENTATION_CONTEXT(2) 
PARAMETRIC_REPRESENTATION_CONTEXT() REPRESENTATION_CONTEXT('2D SPACE',''
  ) );
#387 = ORIENTED_EDGE('',*,*,#241,.F.);
#388 = ORIENTED_EDGE('',*,*,#141,.T.);
#389 = ORIENTED_EDGE('',*,*,#91,.T.);
#390 = ORIENTED_EDGE('',*,*,#50,.T.);
#391 = ADVANCED_FACE('',(#392),#226,.F.);
#392 = FACE_BOUND('',#393,.F.);
#393 = EDGE_LOOP('',(#394,#416,#457,#507,#541,#542));
#394 = ORIENTED_EDGE('',*,*,#395,.T.);
#395 = EDGE_CURVE('',#210,#396,#398,.T.);
#396 = VERTEX_POINT('',#397);
#397 = CARTESIAN_POINT('',(392.9,1.2154E+03,892.9));
#398 = SEAM_CURVE('',#399,(#403,#410),.PCURVE_S1.);
#399 = LINE('',#400,#401);
#400 = CARTESIAN_POINT('',(392.9,1.2154E+03,665.));
#401 = VECTOR('',#402,1.);
#402 = DIRECTION('',(0.,0.,1.));
#403 = PCURVE('',#226,#404);
#404 = DEFINITIONAL_REPRESENTATION('',(#405),#409);
#405 = LINE('',#406,#407);
#406 = CARTESIAN_POINT('',(6.28318530718,0.));
#407 = VECTOR('',#408,1.);
#408 = DIRECTION('',(0.,1.));
#409 = ( GEOMETRIC_REPRESENTATION_CONTEXT(2) 
PARAMETRIC_REPRESENTATION_CONTEXT() REPRESENTATION_CONTEXT('2D SPACE',''
  ) );
#410 = PCURVE('',#226,#411);
#411 = DEFINITIONAL_REPRESENTATION('',(#412),#415);
#412 = B_SPLINE_CURVE_WITH_KNOTS('',1,(#413,#414),.UNSPECIFIED.,.F.,.F.,
  (2,2),(0.,263.44604735193),.PIECEWISE_BEZIER_KNOTS.);
#413 = CARTESIAN_POINT('',(0.,0.));
#414 = CARTESIAN_POINT('',(0.,263.44604735193));
#415 = ( GEOMETRIC_REPRESENTATION_CONTEXT(2) 
PARAMETRIC_REPRESENTATION_CONTEXT() REPRESENTATION_CONTEXT('2D SPACE',''
  ) );
#416 = ORIENTED_EDGE('',*,*,#417,.F.);
#417 = EDGE_CURVE('',#418,#396,#420,.T.);
#418 = VERTEX_POINT('',#419);
#419 = CARTESIAN_POINT('',(385.,1.2075E+03,885.));
#420 = SURFACE_CURVE('',#421,(#426,#439),.PCURVE_S1.);
#421 = ELLIPSE('',#422,11.172287142747,7.9);
#422 = AXIS2_PLACEMENT_3D('',#423,#424,#425);
#423 = CARTESIAN_POINT('',(385.,1.2154E+03,885.));
#424 = DIRECTION('',(-0.707106781187,0.,0.707106781187));
#425 = DIRECTION('',(0.707106781187,0.,0.707106781187));
#426 = PCURVE('',#226,#427);
#427 = DEFINITIONAL_REPRESENTATION('',(#428),#438);
#428 = B_SPLINE_CURVE_WITH_KNOTS('',8,(#429,#430,#431,#432,#433,#434,
    #435,#436,#437),.UNSPECIFIED.,.F.,.F.,(9,9),(4.712388980385,
    6.28318530718),.PIECEWISE_BEZIER_KNOTS.);
#429 = CARTESIAN_POINT('',(4.712388980385,220.));
#430 = CARTESIAN_POINT('',(4.908738521234,221.55116137271));
#431 = CARTESIAN_POINT('',(5.105088062083,223.1023231135));
#432 = CARTESIAN_POINT('',(5.301437602934,224.5623547635));
#433 = CARTESIAN_POINT('',(5.497787143783,225.84014412784));
#434 = CARTESIAN_POINT('',(5.694136684634,226.85576256597));
#435 = CARTESIAN_POINT('',(5.890486225481,227.55191986949));
#436 = CARTESIAN_POINT('',(6.08683576633,227.9));
#437 = CARTESIAN_POINT('',(6.28318530718,227.9));
#438 = ( GEOMETRIC_REPRESENTATION_CONTEXT(2) 
PARAMETRIC_REPRESENTATION_CONTEXT() REPRESENTATION_CONTEXT('2D SPACE',''
  ) );
#439 = PCURVE('',#440,#445);
#440 = CYLINDRICAL_SURFACE('',#441,7.9);
#441 = AXIS2_PLACEMENT_3D('',#442,#443,#444);
#442 = CARTESIAN_POINT('',(385.,1.2154E+03,885.));
#443 = DIRECTION('',(-1.,0.,0.));
#444 = DIRECTION('',(0.,-1.224646799147E-16,1.));
#445 = DEFINITIONAL_REPRESENTATION('',(#446),#456);
#446 = B_SPLINE_CURVE_WITH_KNOTS('',8,(#447,#448,#449,#450,#451,#452,
    #453,#454,#455),.UNSPECIFIED.,.F.,.F.,(9,9),(4.712388980385,
    6.28318530718),.PIECEWISE_BEZIER_KNOTS.);
#447 = CARTESIAN_POINT('',(4.712388980385,-5.684341886081E-14));
#448 = CARTESIAN_POINT('',(4.908738521234,-1.55116137271));
#449 = CARTESIAN_POINT('',(5.105088062083,-3.102323113711));
#450 = CARTESIAN_POINT('',(5.301437602932,-4.56235476357));
#451 = CARTESIAN_POINT('',(5.497787143784,-5.840144129543));
#452 = CARTESIAN_POINT('',(5.694136684632,-6.855762566087));
#453 = CARTESIAN_POINT('',(5.890486225481,-7.551919869707));
#454 = CARTESIAN_POINT('',(6.08683576633,-7.9));
#455 = CARTESIAN_POINT('',(6.28318530718,-7.9));
#456 = ( GEOMETRIC_REPRESENTATION_CONTEXT(2) 
PARAMETRIC_REPRESENTATION_CONTEXT() REPRESENTATION_CONTEXT('2D SPACE',''
  ) );
#457 = ORIENTED_EDGE('',*,*,#458,.F.);
#458 = EDGE_CURVE('',#459,#418,#461,.T.);
#459 = VERTEX_POINT('',#460);
#460 = CARTESIAN_POINT('',(385.,1.2233E+03,885.));
#461 = SURFACE_CURVE('',#462,(#467,#487),.PCURVE_S1.);
#462 = ELLIPSE('',#463,11.172287142747,7.9);
#463 = AXIS2_PLACEMENT_3D('',#464,#465,#466);
#464 = CARTESIAN_POINT('',(385.,1.2154E+03,885.));
#465 = DIRECTION('',(-0.707106781187,0.,0.707106781187));
#466 = DIRECTION('',(0.707106781187,0.,0.707106781187));
#467 = PCURVE('',#226,#468);
#468 = DEFINITIONAL_REPRESENTATION('',(#469),#486);
#469 = B_SPLINE_CURVE_WITH_KNOTS('',8,(#470,#471,#472,#473,#474,#475,
    #476,#477,#478,#479,#480,#481,#482,#483,#484,#485),.UNSPECIFIED.,.F.
  ,.F.,(9,7,9),(1.570796326795,3.14159265359,4.712388980385),
  .UNSPECIFIED.);
#470 = CARTESIAN_POINT('',(1.570796326795,220.));
#471 = CARTESIAN_POINT('',(1.767145867644,218.44883862729));
#472 = CARTESIAN_POINT('',(1.963495408492,216.8976768862));
#473 = CARTESIAN_POINT('',(2.159844949339,215.43764523603));
#474 = CARTESIAN_POINT('',(2.356194490179,214.15985586936));
#475 = CARTESIAN_POINT('',(2.552544031036,213.14423743367));
#476 = CARTESIAN_POINT('',(2.74889357189,212.44808013024));
#477 = CARTESIAN_POINT('',(2.94524311274,212.1));
#478 = CARTESIAN_POINT('',(3.337942194439,212.1));
#479 = CARTESIAN_POINT('',(3.534291735286,212.44808013027));
#480 = CARTESIAN_POINT('',(3.730641276154,213.14423743344));
#481 = CARTESIAN_POINT('',(3.926990816974,214.15985587099));
#482 = CARTESIAN_POINT('',(4.123340357855,215.43764523556));
#483 = CARTESIAN_POINT('',(4.319689898681,216.89767688617));
#484 = CARTESIAN_POINT('',(4.516039439535,218.44883862729));
#485 = CARTESIAN_POINT('',(4.712388980385,220.));
#486 = ( GEOMETRIC_REPRESENTATION_CONTEXT(2) 
PARAMETRIC_REPRESENTATION_CONTEXT() REPRESENTATION_CONTEXT('2D SPACE',''
  ) );
#487 = PCURVE('',#440,#488);
#488 = DEFINITIONAL_REPRESENTATION('',(#489),#506);
#489 = B_SPLINE_CURVE_WITH_KNOTS('',8,(#490,#491,#492,#493,#494,#495,
    #496,#497,#498,#499,#500,#501,#502,#503,#504,#505),.UNSPECIFIED.,.F.
  ,.F.,(9,7,9),(1.570796326795,3.14159265359,4.712388980385),
  .UNSPECIFIED.);
#490 = CARTESIAN_POINT('',(1.570796326795,-5.684341886081E-14));
#491 = CARTESIAN_POINT('',(1.767145867644,1.55116137271));
#492 = CARTESIAN_POINT('',(1.963495408494,3.102323113718));
#493 = CARTESIAN_POINT('',(2.159844949333,4.562354763548));
#494 = CARTESIAN_POINT('',(2.356194490199,5.840144129568));
#495 = CARTESIAN_POINT('',(2.55254403103,6.855762566065));
#496 = CARTESIAN_POINT('',(2.748893571893,7.551919869713));
#497 = CARTESIAN_POINT('',(2.94524311274,7.9));
#498 = CARTESIAN_POINT('',(3.337942194439,7.9));
#499 = CARTESIAN_POINT('',(3.53429173528,7.551919869702));
#500 = CARTESIAN_POINT('',(3.730641276161,6.855762566094));
#501 = CARTESIAN_POINT('',(3.926990816948,5.840144129539));
#502 = CARTESIAN_POINT('',(4.123340357857,4.562354763584));
#503 = CARTESIAN_POINT('',(4.319689898678,3.102323113706));
#504 = CARTESIAN_POINT('',(4.516039439535,1.55116137271));
#505 = CARTESIAN_POINT('',(4.712388980385,-5.684341886081E-14));
#506 = ( GEOMETRIC_REPRESENTATION_CONTEXT(2) 
PARAMETRIC_REPRESENTATION_CONTEXT() REPRESENTATION_CONTEXT('2D SPACE',''
  ) );
#507 = ORIENTED_EDGE('',*,*,#508,.F.);
#508 = EDGE_CURVE('',#396,#459,#509,.T.);
#509 = SURFACE_CURVE('',#510,(#515,#528),.PCURVE_S1.);
#510 = ELLIPSE('',#511,11.172287142747,7.9);
#511 = AXIS2_PLACEMENT_3D('',#512,#513,#514);
#512 = CARTESIAN_POINT('',(385.,1.2154E+03,885.));
#513 = DIRECTION('',(-0.707106781187,0.,0.707106781187));
#514 = DIRECTION('',(0.707106781187,0.,0.707106781187));
#515 = PCURVE('',#226,#516);
#516 = DEFINITIONAL_REPRESENTATION('',(#517),#527);
#517 = B_SPLINE_CURVE_WITH_KNOTS('',8,(#518,#519,#520,#521,#522,#523,
    #524,#525,#526),.UNSPECIFIED.,.F.,.F.,(9,9),(0.,1.570796326795),
  .PIECEWISE_BEZIER_KNOTS.);
#518 = CARTESIAN_POINT('',(0.,227.9));
#519 = CARTESIAN_POINT('',(0.196349540849,227.9));
#520 = CARTESIAN_POINT('',(0.392699081699,227.5519198699));
#521 = CARTESIAN_POINT('',(0.589048622548,226.8557625655));
#522 = CARTESIAN_POINT('',(0.785398163395,225.8401441304));
#523 = CARTESIAN_POINT('',(0.981747704245,224.56235476315));
#524 = CARTESIAN_POINT('',(1.178097245096,223.10232311379));
#525 = CARTESIAN_POINT('',(1.374446785946,221.55116137271));
#526 = CARTESIAN_POINT('',(1.570796326795,220.));
#527 = ( GEOMETRIC_REPRESENTATION_CONTEXT(2) 
PARAMETRIC_REPRESENTATION_CONTEXT() REPRESENTATION_CONTEXT('2D SPACE',''
  ) );
#528 = PCURVE('',#440,#529);
#529 = DEFINITIONAL_REPRESENTATION('',(#530),#540);
#530 = B_SPLINE_CURVE_WITH_KNOTS('',8,(#531,#532,#533,#534,#535,#536,
    #537,#538,#539),.UNSPECIFIED.,.F.,.F.,(9,9),(0.,1.570796326795),
  .PIECEWISE_BEZIER_KNOTS.);
#531 = CARTESIAN_POINT('',(0.,-7.9));
#532 = CARTESIAN_POINT('',(0.196349540849,-7.9));
#533 = CARTESIAN_POINT('',(0.392699081698,-7.551919869704));
#534 = CARTESIAN_POINT('',(0.589048622548,-6.855762566096));
#535 = CARTESIAN_POINT('',(0.785398163392,-5.840144129517));
#536 = CARTESIAN_POINT('',(0.981747704247,-4.562354763584));
#537 = CARTESIAN_POINT('',(1.178097245095,-3.102323113707));
#538 = CARTESIAN_POINT('',(1.374446785946,-1.55116137271));
#539 = CARTESIAN_POINT('',(1.570796326795,-5.684341886081E-14));
#540 = ( GEOMETRIC_REPRESENTATION_CONTEXT(2) 
PARAMETRIC_REPRESENTATION_CONTEXT() REPRESENTATION_CONTEXT('2D SPACE',''
  ) );
#541 = ORIENTED_EDGE('',*,*,#395,.F.);
#542 = ORIENTED_EDGE('',*,*,#209,.T.);
#543 = ADVANCED_FACE('',(#544),#286,.T.);
#544 = FACE_BOUND('',#545,.T.);
#545 = EDGE_LOOP('',(#546,#568,#595,#596,#597,#598));
#546 = ORIENTED_EDGE('',*,*,#547,.T.);
#547 = EDGE_CURVE('',#242,#548,#550,.T.);
#548 = VERTEX_POINT('',#549);
#549 = CARTESIAN_POINT('',(334.35,1.2154E+03,865.));
#550 = SEAM_CURVE('',#551,(#555,#561),.PCURVE_S1.);
#551 = LINE('',#552,#553);
#552 = CARTESIAN_POINT('',(334.35,1.2154E+03,885.));
#553 = VECTOR('',#554,1.);
#554 = DIRECTION('',(0.,0.,-1.));
#555 = PCURVE('',#286,#556);
#556 = DEFINITIONAL_REPRESENTATION('',(#557),#560);
#557 = B_SPLINE_CURVE_WITH_KNOTS('',1,(#558,#559),.UNSPECIFIED.,.F.,.F.,
  (2,2),(-58.56619041748,20.),.PIECEWISE_BEZIER_KNOTS.);
#558 = CARTESIAN_POINT('',(6.28318530718,-58.56619041748));
#559 = CARTESIAN_POINT('',(6.28318530718,20.));
#560 = ( GEOMETRIC_REPRESENTATION_CONTEXT(2) 
PARAMETRIC_REPRESENTATION_CONTEXT() REPRESENTATION_CONTEXT('2D SPACE',''
  ) );
#561 = PCURVE('',#286,#562);
#562 = DEFINITIONAL_REPRESENTATION('',(#563),#567);
#563 = LINE('',#564,#565);
#564 = CARTESIAN_POINT('',(0.,0.));
#565 = VECTOR('',#566,1.);
#566 = DIRECTION('',(0.,1.));
#567 = ( GEOMETRIC_REPRESENTATION_CONTEXT(2) 
PARAMETRIC_REPRESENTATION_CONTEXT() REPRESENTATION_CONTEXT('2D SPACE',''
  ) );
#568 = ORIENTED_EDGE('',*,*,#569,.F.);
#569 = EDGE_CURVE('',#548,#548,#570,.T.);
#570 = SURFACE_CURVE('',#571,(#576,#583),.PCURVE_S1.);
#571 = CIRCLE('',#572,10.65);
#572 = AXIS2_PLACEMENT_3D('',#573,#574,#575);
#573 = CARTESIAN_POINT('',(345.,1.2154E+03,865.));
#574 = DIRECTION('',(0.,0.,-1.));
#575 = DIRECTION('',(-1.,0.,0.));
#576 = PCURVE('',#286,#577);
#577 = DEFINITIONAL_REPRESENTATION('',(#578),#582);
#578 = LINE('',#579,#580);
#579 = CARTESIAN_POINT('',(0.,20.));
#580 = VECTOR('',#581,1.);
#581 = DIRECTION('',(1.,0.));
#582 = ( GEOMETRIC_REPRESENTATION_CONTEXT(2) 
PARAMETRIC_REPRESENTATION_CONTEXT() REPRESENTATION_CONTEXT('2D SPACE',''
  ) );
#583 = PCURVE('',#584,#589);
#584 = PLANE('',#585);
#585 = AXIS2_PLACEMENT_3D('',#586,#587,#588);
#586 = CARTESIAN_POINT('',(345.,1.2154E+03,865.));
#587 = DIRECTION('',(-0.,-0.,-1.));
#588 = DIRECTION('',(-1.,0.,0.));
#589 = DEFINITIONAL_REPRESENTATION('',(#590),#594);
#590 = CIRCLE('',#591,10.65);
#591 = AXIS2_PLACEMENT_2D('',#592,#593);
#592 = CARTESIAN_POINT('',(0.,0.));
#593 = DIRECTION('',(1.,0.));
#594 = ( GEOMETRIC_REPRESENTATION_CONTEXT(2) 
PARAMETRIC_REPRESENTATION_CONTEXT() REPRESENTATION_CONTEXT('2D SPACE',''
  ) );
#595 = ORIENTED_EDGE('',*,*,#547,.F.);
#596 = ORIENTED_EDGE('',*,*,#354,.T.);
#597 = ORIENTED_EDGE('',*,*,#304,.T.);
#598 = ORIENTED_EDGE('',*,*,#263,.T.);
#599 = ADVANCED_FACE('',(#600),#440,.F.);
#600 = FACE_BOUND('',#601,.F.);
#601 = EDGE_LOOP('',(#602,#624,#665,#715,#749,#750,#751,#752));
#602 = ORIENTED_EDGE('',*,*,#603,.T.);
#603 = EDGE_CURVE('',#396,#604,#606,.T.);
#604 = VERTEX_POINT('',#605);
#605 = CARTESIAN_POINT('',(337.1,1.2154E+03,892.9));
#606 = SEAM_CURVE('',#607,(#611,#618),.PCURVE_S1.);
#607 = LINE('',#608,#609);
#608 = CARTESIAN_POINT('',(385.,1.2154E+03,892.9));
#609 = VECTOR('',#610,1.);
#610 = DIRECTION('',(-1.,0.,0.));
#611 = PCURVE('',#440,#612);
#612 = DEFINITIONAL_REPRESENTATION('',(#613),#617);
#613 = LINE('',#614,#615);
#614 = CARTESIAN_POINT('',(6.28318530718,0.));
#615 = VECTOR('',#616,1.);
#616 = DIRECTION('',(0.,1.));
#617 = ( GEOMETRIC_REPRESENTATION_CONTEXT(2) 
PARAMETRIC_REPRESENTATION_CONTEXT() REPRESENTATION_CONTEXT('2D SPACE',''
  ) );
#618 = PCURVE('',#440,#619);
#619 = DEFINITIONAL_REPRESENTATION('',(#620),#623);
#620 = B_SPLINE_CURVE_WITH_KNOTS('',1,(#621,#622),.UNSPECIFIED.,.F.,.F.,
  (2,2),(-43.44604735193,83.446047351934),.PIECEWISE_BEZIER_KNOTS.);
#621 = CARTESIAN_POINT('',(0.,-43.44604735193));
#622 = CARTESIAN_POINT('',(0.,83.446047351934));
#623 = ( GEOMETRIC_REPRESENTATION_CONTEXT(2) 
PARAMETRIC_REPRESENTATION_CONTEXT() REPRESENTATION_CONTEXT('2D SPACE',''
  ) );
#624 = ORIENTED_EDGE('',*,*,#625,.F.);
#625 = EDGE_CURVE('',#626,#604,#628,.T.);
#626 = VERTEX_POINT('',#627);
#627 = CARTESIAN_POINT('',(345.,1.2075E+03,885.));
#628 = SURFACE_CURVE('',#629,(#634,#647),.PCURVE_S1.);
#629 = ELLIPSE('',#630,11.172287142747,7.9);
#630 = AXIS2_PLACEMENT_3D('',#631,#632,#633);
#631 = CARTESIAN_POINT('',(345.,1.2154E+03,885.));
#632 = DIRECTION('',(-0.707106781187,0.,-0.707106781187));
#633 = DIRECTION('',(-0.707106781187,0.,0.707106781187));
#634 = PCURVE('',#440,#635);
#635 = DEFINITIONAL_REPRESENTATION('',(#636),#646);
#636 = B_SPLINE_CURVE_WITH_KNOTS('',8,(#637,#638,#639,#640,#641,#642,
    #643,#644,#645),.UNSPECIFIED.,.F.,.F.,(9,9),(4.712388980385,
    6.28318530718),.PIECEWISE_BEZIER_KNOTS.);
#637 = CARTESIAN_POINT('',(4.712388980385,40.));
#638 = CARTESIAN_POINT('',(4.908738521234,41.55116137271));
#639 = CARTESIAN_POINT('',(5.105088062083,43.102323113635));
#640 = CARTESIAN_POINT('',(5.301437602932,44.562354763708));
#641 = CARTESIAN_POINT('',(5.497787143784,45.840144129295));
#642 = CARTESIAN_POINT('',(5.694136684632,46.855762566149));
#643 = CARTESIAN_POINT('',(5.890486225481,47.551919869627));
#644 = CARTESIAN_POINT('',(6.08683576633,47.9));
#645 = CARTESIAN_POINT('',(6.28318530718,47.9));
#646 = ( GEOMETRIC_REPRESENTATION_CONTEXT(2) 
PARAMETRIC_REPRESENTATION_CONTEXT() REPRESENTATION_CONTEXT('2D SPACE',''
  ) );
#647 = PCURVE('',#648,#653);
#648 = CYLINDRICAL_SURFACE('',#649,7.9);
#649 = AXIS2_PLACEMENT_3D('',#650,#651,#652);
#650 = CARTESIAN_POINT('',(345.,1.2154E+03,885.));
#651 = DIRECTION('',(0.,0.,-1.));
#652 = DIRECTION('',(-1.,0.,0.));
#653 = DEFINITIONAL_REPRESENTATION('',(#654),#664);
#654 = B_SPLINE_CURVE_WITH_KNOTS('',8,(#655,#656,#657,#658,#659,#660,
    #661,#662,#663),.UNSPECIFIED.,.F.,.F.,(9,9),(4.712388980385,
    6.28318530718),.PIECEWISE_BEZIER_KNOTS.);
#655 = CARTESIAN_POINT('',(4.712388980385,0.));
#656 = CARTESIAN_POINT('',(4.908738521234,-1.55116137271));
#657 = CARTESIAN_POINT('',(5.105088062083,-3.102323113702));
#658 = CARTESIAN_POINT('',(5.301437602934,-4.562354763602));
#659 = CARTESIAN_POINT('',(5.497787143783,-5.840144129532));
#660 = CARTESIAN_POINT('',(5.694136684634,-6.855762566098));
#661 = CARTESIAN_POINT('',(5.890486225481,-7.551919869699));
#662 = CARTESIAN_POINT('',(6.08683576633,-7.9));
#663 = CARTESIAN_POINT('',(6.28318530718,-7.9));
#664 = ( GEOMETRIC_REPRESENTATION_CONTEXT(2) 
PARAMETRIC_REPRESENTATION_CONTEXT() REPRESENTATION_CONTEXT('2D SPACE',''
  ) );
#665 = ORIENTED_EDGE('',*,*,#666,.F.);
#666 = EDGE_CURVE('',#667,#626,#669,.T.);
#667 = VERTEX_POINT('',#668);
#668 = CARTESIAN_POINT('',(345.,1.2233E+03,885.));
#669 = SURFACE_CURVE('',#670,(#675,#695),.PCURVE_S1.);
#670 = ELLIPSE('',#671,11.172287142747,7.9);
#671 = AXIS2_PLACEMENT_3D('',#672,#673,#674);
#672 = CARTESIAN_POINT('',(345.,1.2154E+03,885.));
#673 = DIRECTION('',(-0.707106781187,0.,-0.707106781187));
#674 = DIRECTION('',(-0.707106781187,0.,0.707106781187));
#675 = PCURVE('',#440,#676);
#676 = DEFINITIONAL_REPRESENTATION('',(#677),#694);
#677 = B_SPLINE_CURVE_WITH_KNOTS('',8,(#678,#679,#680,#681,#682,#683,
    #684,#685,#686,#687,#688,#689,#690,#691,#692,#693),.UNSPECIFIED.,.F.
  ,.F.,(9,7,9),(1.570796326795,3.14159265359,4.712388980385),
  .UNSPECIFIED.);
#678 = CARTESIAN_POINT('',(1.570796326795,40.));
#679 = CARTESIAN_POINT('',(1.767145867644,38.44883862729));
#680 = CARTESIAN_POINT('',(1.963495408494,36.897676886245));
#681 = CARTESIAN_POINT('',(2.159844949333,35.437645236569));
#682 = CARTESIAN_POINT('',(2.356194490199,34.159855870297));
#683 = CARTESIAN_POINT('',(2.55254403103,33.144237433997));
#684 = CARTESIAN_POINT('',(2.748893571893,32.448080130234));
#685 = CARTESIAN_POINT('',(2.94524311274,32.1));
#686 = CARTESIAN_POINT('',(3.337942194439,32.1));
#687 = CARTESIAN_POINT('',(3.53429173528,32.448080130234));
#688 = CARTESIAN_POINT('',(3.730641276161,33.144237434026));
#689 = CARTESIAN_POINT('',(3.926990816948,34.159855870297));
#690 = CARTESIAN_POINT('',(4.123340357857,35.43764523654));
#691 = CARTESIAN_POINT('',(4.319689898678,36.897676886241));
#692 = CARTESIAN_POINT('',(4.516039439535,38.44883862729));
#693 = CARTESIAN_POINT('',(4.712388980385,40.));
#694 = ( GEOMETRIC_REPRESENTATION_CONTEXT(2) 
PARAMETRIC_REPRESENTATION_CONTEXT() REPRESENTATION_CONTEXT('2D SPACE',''
  ) );
#695 = PCURVE('',#648,#696);
#696 = DEFINITIONAL_REPRESENTATION('',(#697),#714);
#697 = B_SPLINE_CURVE_WITH_KNOTS('',8,(#698,#699,#700,#701,#702,#703,
    #704,#705,#706,#707,#708,#709,#710,#711,#712,#713),.UNSPECIFIED.,.F.
  ,.F.,(9,7,9),(1.570796326795,3.14159265359,4.712388980385),
  .UNSPECIFIED.);
#698 = CARTESIAN_POINT('',(1.570796326795,0.));
#699 = CARTESIAN_POINT('',(1.767145867644,1.55116137271));
#700 = CARTESIAN_POINT('',(1.963495408492,3.102323113702));
#701 = CARTESIAN_POINT('',(2.159844949339,4.562354763602));
#702 = CARTESIAN_POINT('',(2.356194490179,5.840144129532));
#703 = CARTESIAN_POINT('',(2.552544031036,6.855762566098));
#704 = CARTESIAN_POINT('',(2.74889357189,7.551919869699));
#705 = CARTESIAN_POINT('',(2.94524311274,7.9));
#706 = CARTESIAN_POINT('',(3.337942194439,7.9));
#707 = CARTESIAN_POINT('',(3.534291735286,7.551919869703));
#708 = CARTESIAN_POINT('',(3.730641276154,6.855762566098));
#709 = CARTESIAN_POINT('',(3.926990816974,5.840144129521));
#710 = CARTESIAN_POINT('',(4.123340357855,4.562354763584));
#711 = CARTESIAN_POINT('',(4.319689898681,3.102323113707));
#712 = CARTESIAN_POINT('',(4.516039439535,1.55116137271));
#713 = CARTESIAN_POINT('',(4.712388980385,0.));
#714 = ( GEOMETRIC_REPRESENTATION_CONTEXT(2) 
PARAMETRIC_REPRESENTATION_CONTEXT() REPRESENTATION_CONTEXT('2D SPACE',''
  ) );
#715 = ORIENTED_EDGE('',*,*,#716,.F.);
#716 = EDGE_CURVE('',#604,#667,#717,.T.);
#717 = SURFACE_CURVE('',#718,(#723,#736),.PCURVE_S1.);
#718 = ELLIPSE('',#719,11.172287142747,7.9);
#719 = AXIS2_PLACEMENT_3D('',#720,#721,#722);
#720 = CARTESIAN_POINT('',(345.,1.2154E+03,885.));
#721 = DIRECTION('',(-0.707106781187,0.,-0.707106781187));
#722 = DIRECTION('',(-0.707106781187,0.,0.707106781187));
#723 = PCURVE('',#440,#724);
#724 = DEFINITIONAL_REPRESENTATION('',(#725),#735);
#725 = B_SPLINE_CURVE_WITH_KNOTS('',8,(#726,#727,#728,#729,#730,#731,
    #732,#733,#734),.UNSPECIFIED.,.F.,.F.,(9,9),(0.,1.570796326795),
  .PIECEWISE_BEZIER_KNOTS.);
#726 = CARTESIAN_POINT('',(0.,47.9));
#727 = CARTESIAN_POINT('',(0.196349540849,47.9));
#728 = CARTESIAN_POINT('',(0.392699081698,47.551919869613));
#729 = CARTESIAN_POINT('',(0.589048622548,46.855762566265));
#730 = CARTESIAN_POINT('',(0.785398163392,45.840144129208));
#731 = CARTESIAN_POINT('',(0.981747704247,44.562354763737));
#732 = CARTESIAN_POINT('',(1.178097245095,43.102323113599));
#733 = CARTESIAN_POINT('',(1.374446785946,41.55116137271));
#734 = CARTESIAN_POINT('',(1.570796326795,40.));
#735 = ( GEOMETRIC_REPRESENTATION_CONTEXT(2) 
PARAMETRIC_REPRESENTATION_CONTEXT() REPRESENTATION_CONTEXT('2D SPACE',''
  ) );
#736 = PCURVE('',#648,#737);
#737 = DEFINITIONAL_REPRESENTATION('',(#738),#748);
#738 = B_SPLINE_CURVE_WITH_KNOTS('',8,(#739,#740,#741,#742,#743,#744,
    #745,#746,#747),.UNSPECIFIED.,.F.,.F.,(9,9),(0.,1.570796326795),
  .PIECEWISE_BEZIER_KNOTS.);
#739 = CARTESIAN_POINT('',(0.,-7.9));
#740 = CARTESIAN_POINT('',(0.196349540849,-7.9));
#741 = CARTESIAN_POINT('',(0.392699081699,-7.551919869703));
#742 = CARTESIAN_POINT('',(0.589048622548,-6.855762566098));
#743 = CARTESIAN_POINT('',(0.785398163395,-5.840144129521));
#744 = CARTESIAN_POINT('',(0.981747704245,-4.562354763584));
#745 = CARTESIAN_POINT('',(1.178097245096,-3.102323113707));
#746 = CARTESIAN_POINT('',(1.374446785946,-1.55116137271));
#747 = CARTESIAN_POINT('',(1.570796326795,0.));
#748 = ( GEOMETRIC_REPRESENTATION_CONTEXT(2) 
PARAMETRIC_REPRESENTATION_CONTEXT() REPRESENTATION_CONTEXT('2D SPACE',''
  ) );
#749 = ORIENTED_EDGE('',*,*,#603,.F.);
#750 = ORIENTED_EDGE('',*,*,#508,.T.);
#751 = ORIENTED_EDGE('',*,*,#458,.T.);
#752 = ORIENTED_EDGE('',*,*,#417,.T.);
#753 = ADVANCED_FACE('',(#754,#757),#584,.T.);
#754 = FACE_BOUND('',#755,.T.);
#755 = EDGE_LOOP('',(#756));
#756 = ORIENTED_EDGE('',*,*,#569,.T.);
#757 = FACE_BOUND('',#758,.T.);
#758 = EDGE_LOOP('',(#759));
#759 = ORIENTED_EDGE('',*,*,#760,.F.);
#760 = EDGE_CURVE('',#761,#761,#763,.T.);
#761 = VERTEX_POINT('',#762);
#762 = CARTESIAN_POINT('',(337.1,1.2154E+03,865.));
#763 = SURFACE_CURVE('',#764,(#769,#776),.PCURVE_S1.);
#764 = CIRCLE('',#765,7.9);
#765 = AXIS2_PLACEMENT_3D('',#766,#767,#768);
#766 = CARTESIAN_POINT('',(345.,1.2154E+03,865.));
#767 = DIRECTION('',(0.,0.,-1.));
#768 = DIRECTION('',(-1.,0.,0.));
#769 = PCURVE('',#584,#770);
#770 = DEFINITIONAL_REPRESENTATION('',(#771),#775);
#771 = CIRCLE('',#772,7.9);
#772 = AXIS2_PLACEMENT_2D('',#773,#774);
#773 = CARTESIAN_POINT('',(5.684341886081E-14,0.));
#774 = DIRECTION('',(1.,0.));
#775 = ( GEOMETRIC_REPRESENTATION_CONTEXT(2) 
PARAMETRIC_REPRESENTATION_CONTEXT() REPRESENTATION_CONTEXT('2D SPACE',''
  ) );
#776 = PCURVE('',#648,#777);
#777 = DEFINITIONAL_REPRESENTATION('',(#778),#782);
#778 = LINE('',#779,#780);
#779 = CARTESIAN_POINT('',(0.,20.));
#780 = VECTOR('',#781,1.);
#781 = DIRECTION('',(1.,0.));
#782 = ( GEOMETRIC_REPRESENTATION_CONTEXT(2) 
PARAMETRIC_REPRESENTATION_CONTEXT() REPRESENTATION_CONTEXT('2D SPACE',''
  ) );
#783 = ADVANCED_FACE('',(#784),#648,.F.);
#784 = FACE_BOUND('',#785,.F.);
#785 = EDGE_LOOP('',(#786,#806,#807,#808,#809,#810));
#786 = ORIENTED_EDGE('',*,*,#787,.T.);
#787 = EDGE_CURVE('',#604,#761,#788,.T.);
#788 = SEAM_CURVE('',#789,(#793,#800),.PCURVE_S1.);
#789 = LINE('',#790,#791);
#790 = CARTESIAN_POINT('',(337.1,1.2154E+03,885.));
#791 = VECTOR('',#792,1.);
#792 = DIRECTION('',(0.,0.,-1.));
#793 = PCURVE('',#648,#794);
#794 = DEFINITIONAL_REPRESENTATION('',(#795),#799);
#795 = LINE('',#796,#797);
#796 = CARTESIAN_POINT('',(6.28318530718,0.));
#797 = VECTOR('',#798,1.);
#798 = DIRECTION('',(0.,1.));
#799 = ( GEOMETRIC_REPRESENTATION_CONTEXT(2) 
PARAMETRIC_REPRESENTATION_CONTEXT() REPRESENTATION_CONTEXT('2D SPACE',''
  ) );
#800 = PCURVE('',#648,#801);
#801 = DEFINITIONAL_REPRESENTATION('',(#802),#805);
#802 = B_SPLINE_CURVE_WITH_KNOTS('',1,(#803,#804),.UNSPECIFIED.,.F.,.F.,
  (2,2),(-43.44604735193,20.),.PIECEWISE_BEZIER_KNOTS.);
#803 = CARTESIAN_POINT('',(0.,-43.44604735193));
#804 = CARTESIAN_POINT('',(0.,20.));
#805 = ( GEOMETRIC_REPRESENTATION_CONTEXT(2) 
PARAMETRIC_REPRESENTATION_CONTEXT() REPRESENTATION_CONTEXT('2D SPACE',''
  ) );
#806 = ORIENTED_EDGE('',*,*,#760,.F.);
#807 = ORIENTED_EDGE('',*,*,#787,.F.);
#808 = ORIENTED_EDGE('',*,*,#716,.T.);
#809 = ORIENTED_EDGE('',*,*,#666,.T.);
#810 = ORIENTED_EDGE('',*,*,#625,.T.);
#811 = ( GEOMETRIC_REPRESENTATION_CONTEXT(3) 
GLOBAL_UNCERTAINTY_ASSIGNED_CONTEXT((#815)) GLOBAL_UNIT_ASSIGNED_CONTEXT
((#812,#813,#814)) REPRESENTATION_CONTEXT('Context #1',
  '3D Context with UNIT and UNCERTAINTY') );
#812 = ( LENGTH_UNIT() NAMED_UNIT(*) SI_UNIT(.MILLI.,.METRE.) );
#813 = ( NAMED_UNIT(*) PLANE_ANGLE_UNIT() SI_UNIT($,.RADIAN.) );
#814 = ( NAMED_UNIT(*) SI_UNIT($,.STERADIAN.) SOLID_ANGLE_UNIT() );
#815 = UNCERTAINTY_MEASURE_WITH_UNIT(LENGTH_MEASURE(1.E-07),#812,
  'distance_accuracy_value','confusion accuracy');
#816 = PRODUCT_RELATED_PRODUCT_CATEGORY('part',$,(#7));
ENDSEC;
END-ISO-10303-21;
