ISO-10303-21;
HEADER;
FILE_DESCRIPTION(('Open CASCADE Model'),'2;1');
FILE_NAME('Open CASCADE Shape Model','2026-09-26T14:24:03',('Author'),(
    'Open CASCADE'),'Open CASCADE STEP processor 7.8','Open CASCADE 7.8'
  ,'Unknown');
FILE_SCHEMA(('AUTOMOTIVE_DESIGN { 1 0 10303 214 1 1 1 1 }'));
ENDSEC;
DATA;
#1 = APPLICATION_PROTOCOL_DEFINITION('international standard',
  'automotive_design',2000,#2);
#2 = APPLICATION_CONTEXT(
  'core data for automotive mechanical design processes');
#3 = SHAPE_DEFINITION_REPRESENTATION(#4,#10);
#4 = PRODUCT_DEFINITION_SHAPE('','',#5);
#5 = PRODUCT_DEFINITION('design','',#6,#9);
#6 = PRODUCT_DEFINITION_FORMATION('','',#7);
#7 = PRODUCT('Open CASCADE STEP translator 7.8 88',
  'Open CASCADE STEP translator 7.8 88','',(#8));
#8 = PRODUCT_CONTEXT('',#2,'mechanical');
#9 = PRODUCT_DEFINITION_CONTEXT('part definition',#2,'design');
#10 = ADVANCED_BREP_SHAPE_REPRESENTATION('',(#11,#15),#1133);
#11 = AXIS2_PLACEMENT_3D('',#12,#13,#14);
#12 = CARTESIAN_POINT('',(0.,0.,0.));
#13 = DIRECTION('',(0.,0.,1.));
#14 = DIRECTION('',(1.,0.,-0.));
#15 = MANIFOLD_SOLID_BREP('',#16);
#16 = CLOSED_SHELL('',(#17,#549,#804,#834,#864,#1078));
#17 = ADVANCED_FACE('',(#18,#354),#32,.T.);
#18 = FACE_BOUND('',#19,.F.);
#19 = EDGE_LOOP('',(#20,#50,#77,#78,#139,#213,#236,#263,#264));
#20 = ORIENTED_EDGE('',*,*,#21,.F.);
#21 = EDGE_CURVE('',#22,#24,#26,.T.);
#22 = VERTEX_POINT('',#23);
#23 = CARTESIAN_POINT('',(19.7,0.,0.));
#24 = VERTEX_POINT('',#25);
#25 = CARTESIAN_POINT('',(19.7,0.,3.));
#26 = SEAM_CURVE('',#27,(#31,#43),.PCURVE_S1.);
#27 = LINE('',#28,#29);
#28 = CARTESIAN_POINT('',(19.7,0.,0.));
#29 = VECTOR('',#30,1.);
#30 = DIRECTION('',(0.,0.,1.));
#31 = PCURVE('',#32,#37);
#32 = CYLINDRICAL_SURFACE('',#33,19.7);
#33 = AXIS2_PLACEMENT_3D('',#34,#35,#36);
#34 = CARTESIAN_POINT('',(0.,0.,0.));
#35 = DIRECTION('',(-0.,-0.,-1.));
#36 = DIRECTION('',(1.,0.,0.));
#37 = DEFINITIONAL_REPRESENTATION('',(#38),#42);
#38 = LINE('',#39,#40);
#39 = CARTESIAN_POINT('',(-6.28318530718,0.));
#40 = VECTOR('',#41,1.);
#41 = DIRECTION('',(-0.,-1.));
#42 = ( GEOMETRIC_REPRESENTATION_CONTEXT(2) 
PARAMETRIC_REPRESENTATION_CONTEXT() REPRESENTATION_CONTEXT('2D SPACE',''
  ) );
#43 = PCURVE('',#32,#44);
#44 = DEFINITIONAL_REPRESENTATION('',(#45),#49);
#45 = LINE('',#46,#47);
#46 = CARTESIAN_POINT('',(-0.,0.));
#47 = VECTOR('',#48,1.);
#48 = DIRECTION('',(-0.,-1.));
#49 = ( GEOMETRIC_REPRESENTATION_CONTEXT(2) 
PARAMETRIC_REPRESENTATION_CONTEXT() REPRESENTATION_CONTEXT('2D SPACE',''
  ) );
#50 = ORIENTED_EDGE('',*,*,#51,.F.);
#51 = EDGE_CURVE('',#22,#22,#52,.T.);
#52 = SURFACE_CURVE('',#53,(#58,#65),.PCURVE_S1.);
#53 = CIRCLE('',#54,19.7);
#54 = AXIS2_PLACEMENT_3D('',#55,#56,#57);
#55 = CARTESIAN_POINT('',(0.,0.,0.));
#56 = DIRECTION('',(0.,0.,1.));
#57 = DIRECTION('',(1.,0.,0.));
#58 = PCURVE('',#32,#59);
#59 = DEFINITIONAL_REPRESENTATION('',(#60),#64);
#60 = LINE('',#61,#62);
#61 = CARTESIAN_POINT('',(-0.,0.));
#62 = VECTOR('',#63,1.);
#63 = DIRECTION('',(-1.,0.));
#64 = ( GEOMETRIC_REPRESENTATION_CONTEXT(2) 
PARAMETRIC_REPRESENTATION_CONTEXT() REPRESENTATION_CONTEXT('2D SPACE',''
  ) );
#65 = PCURVE('',#66,#71);
#66 = PLANE('',#67);
#67 = AXIS2_PLACEMENT_3D('',#68,#69,#70);
#68 = CARTESIAN_POINT('',(-1.110611275159E-15,3.064265437188E-16,0.));
#69 = DIRECTION('',(0.,0.,1.));
#70 = DIRECTION('',(1.,0.,-0.));
#71 = DEFINITIONAL_REPRESENTATION('',(#72),#76);
#72 = CIRCLE('',#73,19.7);
#73 = AXIS2_PLACEMENT_2D('',#74,#75);
#74 = CARTESIAN_POINT('',(1.110611275159E-15,-3.064265437188E-16));
#75 = DIRECTION('',(1.,0.));
#76 = ( GEOMETRIC_REPRESENTATION_CONTEXT(2) 
PARAMETRIC_REPRESENTATION_CONTEXT() REPRESENTATION_CONTEXT('2D SPACE',''
  ) );
#77 = ORIENTED_EDGE('',*,*,#21,.T.);
#78 = ORIENTED_EDGE('',*,*,#79,.T.);
#79 = EDGE_CURVE('',#24,#80,#82,.T.);
#80 = VERTEX_POINT('',#81);
#81 = CARTESIAN_POINT('',(19.598214204361,2.,5.));
#82 = SURFACE_CURVE('',#83,(#98,#116),.PCURVE_S1.);
#83 = B_SPLINE_CURVE_WITH_KNOTS('',7,(#84,#85,#86,#87,#88,#89,#90,#91,
    #92,#93,#94,#95,#96,#97),.UNSPECIFIED.,.F.,.F.,(8,6,8),(0.,
    0.451281643441,1.),.UNSPECIFIED.);
#84 = CARTESIAN_POINT('',(19.7,1.592659819528E-15,3.));
#85 = CARTESIAN_POINT('',(19.7,0.242735373191,3.));
#86 = CARTESIAN_POINT('',(19.696510580992,0.480426225829,3.034370056564)
  );
#87 = CARTESIAN_POINT('',(19.689793199229,0.706993781238,3.100540205483)
  );
#88 = CARTESIAN_POINT('',(19.680619610444,0.917123159185,3.194571469865)
  );
#89 = CARTESIAN_POINT('',(19.670117363774,1.106576855757,3.31124592288)
  );
#90 = CARTESIAN_POINT('',(19.659366732892,1.272581337578,3.444154212832)
  );
#91 = CARTESIAN_POINT('',(19.636778350554,1.586425755701,3.757998630955)
  );
#92 = CARTESIAN_POINT('',(19.624885238162,1.727075921977,3.947578971272)
  );
#93 = CARTESIAN_POINT('',(19.614564661973,1.837451545762,4.148566875765)
  );
#94 = CARTESIAN_POINT('',(19.606478380878,1.919020475843,4.356923381494)
  );
#95 = CARTESIAN_POINT('',(19.600971844341,1.972977098431,4.569739139111)
  );
#96 = CARTESIAN_POINT('',(19.598214204361,2.,4.784764290981));
#97 = CARTESIAN_POINT('',(19.598214204361,2.,5.));
#98 = PCURVE('',#32,#99);
#99 = DEFINITIONAL_REPRESENTATION('',(#100),#115);
#100 = B_SPLINE_CURVE_WITH_KNOTS('',7,(#101,#102,#103,#104,#105,#106,
    #107,#108,#109,#110,#111,#112,#113,#114),.UNSPECIFIED.,.F.,.F.,(8,6,
    8),(0.,0.451281643441,1.),.UNSPECIFIED.);
#101 = CARTESIAN_POINT('',(0.,-3.));
#102 = CARTESIAN_POINT('',(-1.232159254776E-02,-3.));
#103 = CARTESIAN_POINT('',(-2.438712128453E-02,-3.034370056564));
#104 = CARTESIAN_POINT('',(-3.589105000331E-02,-3.100540205483));
#105 = CARTESIAN_POINT('',(-4.656616331706E-02,-3.194571469865));
#106 = CARTESIAN_POINT('',(-5.619718741922E-02,-3.31124592288));
#107 = CARTESIAN_POINT('',(-6.464124253852E-02,-3.444154212832));
#108 = CARTESIAN_POINT('',(-8.061364086563E-02,-3.757998630955));
#109 = CARTESIAN_POINT('',(-8.777816164194E-02,-3.947578971272));
#110 = CARTESIAN_POINT('',(-9.340523781191E-02,-4.148566875765));
#111 = CARTESIAN_POINT('',(-9.756606702404E-02,-4.356923381493));
#112 = CARTESIAN_POINT('',(-0.100319209272,-4.569739139111));
#113 = CARTESIAN_POINT('',(-0.101698053931,-4.784764290981));
#114 = CARTESIAN_POINT('',(-0.101698053931,-5.));
#115 = ( GEOMETRIC_REPRESENTATION_CONTEXT(2) 
PARAMETRIC_REPRESENTATION_CONTEXT() REPRESENTATION_CONTEXT('2D SPACE',''
  ) );
#116 = PCURVE('',#117,#122);
#117 = CYLINDRICAL_SURFACE('',#118,2.);
#118 = AXIS2_PLACEMENT_3D('',#119,#120,#121);
#119 = CARTESIAN_POINT('',(14.,0.,5.));
#120 = DIRECTION('',(-1.,0.,-0.));
#121 = DIRECTION('',(0.,1.,0.));
#122 = DEFINITIONAL_REPRESENTATION('',(#123),#138);
#123 = B_SPLINE_CURVE_WITH_KNOTS('',7,(#124,#125,#126,#127,#128,#129,
    #130,#131,#132,#133,#134,#135,#136,#137),.UNSPECIFIED.,.F.,.F.,(8,6,
    8),(0.,0.451281643441,1.),.UNSPECIFIED.);
#124 = CARTESIAN_POINT('',(-4.712388980385,-5.7));
#125 = CARTESIAN_POINT('',(-4.83375666698,-5.7));
#126 = CARTESIAN_POINT('',(-4.952601969884,-5.696510580992));
#127 = CARTESIAN_POINT('',(-5.068806333701,-5.689793199229));
#128 = CARTESIAN_POINT('',(-5.182083710581,-5.680619610444));
#129 = CARTESIAN_POINT('',(-5.291956304646,-5.670117363774));
#130 = CARTESIAN_POINT('',(-5.397638037195,-5.659366732892));
#131 = CARTESIAN_POINT('',(-5.619559553487,-5.636778350554));
#132 = CARTESIAN_POINT('',(-5.736313905978,-5.624885238162));
#133 = CARTESIAN_POINT('',(-5.849345230936,-5.614564661973));
#134 = CARTESIAN_POINT('',(-5.9596100747,-5.606478380878));
#135 = CARTESIAN_POINT('',(-6.06805520603,-5.600971844341));
#136 = CARTESIAN_POINT('',(-6.17556745267,-5.598214204361));
#137 = CARTESIAN_POINT('',(-6.28318530718,-5.598214204361));
#138 = ( GEOMETRIC_REPRESENTATION_CONTEXT(2) 
PARAMETRIC_REPRESENTATION_CONTEXT() REPRESENTATION_CONTEXT('2D SPACE',''
  ) );
#139 = ORIENTED_EDGE('',*,*,#140,.T.);
#140 = EDGE_CURVE('',#80,#141,#143,.T.);
#141 = VERTEX_POINT('',#142);
#142 = CARTESIAN_POINT('',(19.7,0.,7.));
#143 = SURFACE_CURVE('',#144,(#165,#189),.PCURVE_S1.);
#144 = B_SPLINE_CURVE_WITH_KNOTS('',7,(#145,#146,#147,#148,#149,#150,
    #151,#152,#153,#154,#155,#156,#157,#158,#159,#160,#161,#162,#163,
    #164),.UNSPECIFIED.,.F.,.F.,(8,6,6,8),(0.,0.505924022036,
    0.793046429749,1.),.UNSPECIFIED.);
#145 = CARTESIAN_POINT('',(19.598214204361,2.,5.));
#146 = CARTESIAN_POINT('',(19.598214204361,2.,5.199218399028));
#147 = CARTESIAN_POINT('',(19.600576733207,1.976849128999,5.398288076606
    ));
#148 = CARTESIAN_POINT('',(19.605295914658,1.93060638765,5.595582625931)
  );
#149 = CARTESIAN_POINT('',(19.612246232859,1.860791010379,5.789318969705
    ));
#150 = CARTESIAN_POINT('',(19.621172093768,1.766530642985,5.977275995371
    ));
#151 = CARTESIAN_POINT('',(19.631605455891,1.646709088175,6.156466902532
    ));
#152 = CARTESIAN_POINT('',(19.649142830049,1.417087748248,6.416921187317
    ));
#153 = CARTESIAN_POINT('',(19.655750604186,1.325164620055,6.507247453513
    ));
#154 = CARTESIAN_POINT('',(19.662463625526,1.224406478525,6.592524859833
    ));
#155 = CARTESIAN_POINT('',(19.669094843111,1.114876781893,6.671623028593
    ));
#156 = CARTESIAN_POINT('',(19.675426456506,0.996761632401,6.74335045389)
  );
#157 = CARTESIAN_POINT('',(19.681220560513,0.870388263606,6.806443521954
    ));
#158 = CARTESIAN_POINT('',(19.689853213701,0.639563590893,6.897833475003
    ));
#159 = CARTESIAN_POINT('',(19.69306554306,0.538846715273,6.930925822407)
  );
#160 = CARTESIAN_POINT('',(19.695765689029,0.434749527049,6.958140406488
    ));
#161 = CARTESIAN_POINT('',(19.697862077959,0.328006763123,6.97894497382)
  );
#162 = CARTESIAN_POINT('',(19.699286417893,0.219412672019,6.992967655901
    ));
#163 = CARTESIAN_POINT('',(19.7,0.109796837135,7.));
#164 = CARTESIAN_POINT('',(19.7,1.194340119487E-15,7.));
#165 = PCURVE('',#32,#166);
#166 = DEFINITIONAL_REPRESENTATION('',(#167),#188);
#167 = B_SPLINE_CURVE_WITH_KNOTS('',7,(#168,#169,#170,#171,#172,#173,
    #174,#175,#176,#177,#178,#179,#180,#181,#182,#183,#184,#185,#186,
    #187),.UNSPECIFIED.,.F.,.F.,(8,6,6,8),(0.,0.505924022036,
    0.793046429749,1.),.UNSPECIFIED.);
#168 = CARTESIAN_POINT('',(-0.101698053931,-5.));
#169 = CARTESIAN_POINT('',(-0.101698053931,-5.199218399028));
#170 = CARTESIAN_POINT('',(-0.100516779698,-5.398288076606));
#171 = CARTESIAN_POINT('',(-9.815723958463E-02,-5.595582625931));
#172 = CARTESIAN_POINT('',(-9.459580791088E-02,-5.789318969704));
#173 = CARTESIAN_POINT('',(-8.978973101835E-02,-5.977275995371));
#174 = CARTESIAN_POINT('',(-8.368474903579E-02,-6.156466902532));
#175 = CARTESIAN_POINT('',(-7.199489744696E-02,-6.416921187317));
#176 = CARTESIAN_POINT('',(-6.731675589083E-02,-6.507247453513));
#177 = CARTESIAN_POINT('',(-6.219090599438E-02,-6.592524859833));
#178 = CARTESIAN_POINT('',(-5.662104749832E-02,-6.671623028593));
#179 = CARTESIAN_POINT('',(-5.061701302425E-02,-6.74335045389));
#180 = CARTESIAN_POINT('',(-4.419561120818E-02,-6.806443521954));
#181 = CARTESIAN_POINT('',(-3.247043134144E-02,-6.897833475003));
#182 = CARTESIAN_POINT('',(-2.735537529032E-02,-6.930925822407));
#183 = CARTESIAN_POINT('',(-2.20696331993E-02,-6.958140406488));
#184 = CARTESIAN_POINT('',(-1.665037370672E-02,-6.97894497382));
#185 = CARTESIAN_POINT('',(-1.113769717345E-02,-6.992967655901));
#186 = CARTESIAN_POINT('',(-5.573443509381E-03,-7.));
#187 = CARTESIAN_POINT('',(0.,-7.));
#188 = ( GEOMETRIC_REPRESENTATION_CONTEXT(2) 
PARAMETRIC_REPRESENTATION_CONTEXT() REPRESENTATION_CONTEXT('2D SPACE',''
  ) );
#189 = PCURVE('',#117,#190);
#190 = DEFINITIONAL_REPRESENTATION('',(#191),#212);
#191 = B_SPLINE_CURVE_WITH_KNOTS('',7,(#192,#193,#194,#195,#196,#197,
    #198,#199,#200,#201,#202,#203,#204,#205,#206,#207,#208,#209,#210,
    #211),.UNSPECIFIED.,.F.,.F.,(8,6,6,8),(0.,0.505924022036,
    0.793046429749,1.),.UNSPECIFIED.);
#192 = CARTESIAN_POINT('',(0.,-5.598214204361));
#193 = CARTESIAN_POINT('',(-9.960919951394E-02,-5.598214204361));
#194 = CARTESIAN_POINT('',(-0.199143875186,-5.600576733207));
#195 = CARTESIAN_POINT('',(-0.299406156745,-5.605295914658));
#196 = CARTESIAN_POINT('',(-0.401104824965,-5.612246232859));
#197 = CARTESIAN_POINT('',(-0.504985126304,-5.621172093768));
#198 = CARTESIAN_POINT('',(-0.611811493578,-5.631605455891));
#199 = CARTESIAN_POINT('',(-0.785421972965,-5.649142830049));
#200 = CARTESIAN_POINT('',(-0.849694341136,-5.655750604186));
#201 = CARTESIAN_POINT('',(-0.915399753474,-5.662463625526));
#202 = CARTESIAN_POINT('',(-0.982581960745,-5.669094843111));
#203 = CARTESIAN_POINT('',(-1.051307429591,-5.675426456506));
#204 = CARTESIAN_POINT('',(-1.121670044552,-5.681220560513));
#205 = CARTESIAN_POINT('',(-1.245799163871,-5.689853213701));
#206 = CARTESIAN_POINT('',(-1.298712292409,-5.69306554306));
#207 = CARTESIAN_POINT('',(-1.35234464743,-5.695765689029));
#208 = CARTESIAN_POINT('',(-1.406522689968,-5.697862077959));
#209 = CARTESIAN_POINT('',(-1.461089986738,-5.699286417893));
#210 = CARTESIAN_POINT('',(-1.515897908227,-5.7));
#211 = CARTESIAN_POINT('',(-1.570796326795,-5.7));
#212 = ( GEOMETRIC_REPRESENTATION_CONTEXT(2) 
PARAMETRIC_REPRESENTATION_CONTEXT() REPRESENTATION_CONTEXT('2D SPACE',''
  ) );
#213 = ORIENTED_EDGE('',*,*,#214,.T.);
#214 = EDGE_CURVE('',#141,#215,#217,.T.);
#215 = VERTEX_POINT('',#216);
#216 = CARTESIAN_POINT('',(19.7,0.,12.));
#217 = SEAM_CURVE('',#218,(#222,#229),.PCURVE_S1.);
#218 = LINE('',#219,#220);
#219 = CARTESIAN_POINT('',(19.7,0.,0.));
#220 = VECTOR('',#221,1.);
#221 = DIRECTION('',(0.,0.,1.));
#222 = PCURVE('',#32,#223);
#223 = DEFINITIONAL_REPRESENTATION('',(#224),#228);
#224 = LINE('',#225,#226);
#225 = CARTESIAN_POINT('',(-6.28318530718,0.));
#226 = VECTOR('',#227,1.);
#227 = DIRECTION('',(-0.,-1.));
#228 = ( GEOMETRIC_REPRESENTATION_CONTEXT(2) 
PARAMETRIC_REPRESENTATION_CONTEXT() REPRESENTATION_CONTEXT('2D SPACE',''
  ) );
#229 = PCURVE('',#32,#230);
#230 = DEFINITIONAL_REPRESENTATION('',(#231),#235);
#231 = LINE('',#232,#233);
#232 = CARTESIAN_POINT('',(-0.,0.));
#233 = VECTOR('',#234,1.);
#234 = DIRECTION('',(-0.,-1.));
#235 = ( GEOMETRIC_REPRESENTATION_CONTEXT(2) 
PARAMETRIC_REPRESENTATION_CONTEXT() REPRESENTATION_CONTEXT('2D SPACE',''
  ) );
#236 = ORIENTED_EDGE('',*,*,#237,.T.);
#237 = EDGE_CURVE('',#215,#215,#238,.T.);
#238 = SURFACE_CURVE('',#239,(#244,#251),.PCURVE_S1.);
#239 = CIRCLE('',#240,19.7);
#240 = AXIS2_PLACEMENT_3D('',#241,#242,#243);
#241 = CARTESIAN_POINT('',(0.,0.,12.));
#242 = DIRECTION('',(0.,0.,1.));
#243 = DIRECTION('',(1.,0.,0.));
#244 = PCURVE('',#32,#245);
#245 = DEFINITIONAL_REPRESENTATION('',(#246),#250);
#246 = LINE('',#247,#248);
#247 = CARTESIAN_POINT('',(-0.,-12.));
#248 = VECTOR('',#249,1.);
#249 = DIRECTION('',(-1.,0.));
#250 = ( GEOMETRIC_REPRESENTATION_CONTEXT(2) 
PARAMETRIC_REPRESENTATION_CONTEXT() REPRESENTATION_CONTEXT('2D SPACE',''
  ) );
#251 = PCURVE('',#252,#257);
#252 = PLANE('',#253);
#253 = AXIS2_PLACEMENT_3D('',#254,#255,#256);
#254 = CARTESIAN_POINT('',(-1.110611275159E-15,3.064265437188E-16,12.));
#255 = DIRECTION('',(0.,0.,1.));
#256 = DIRECTION('',(1.,0.,-0.));
#257 = DEFINITIONAL_REPRESENTATION('',(#258),#262);
#258 = CIRCLE('',#259,19.7);
#259 = AXIS2_PLACEMENT_2D('',#260,#261);
#260 = CARTESIAN_POINT('',(1.110611275159E-15,-3.064265437188E-16));
#261 = DIRECTION('',(1.,0.));
#262 = ( GEOMETRIC_REPRESENTATION_CONTEXT(2) 
PARAMETRIC_REPRESENTATION_CONTEXT() REPRESENTATION_CONTEXT('2D SPACE',''
  ) );
#263 = ORIENTED_EDGE('',*,*,#214,.F.);
#264 = ORIENTED_EDGE('',*,*,#265,.T.);
#265 = EDGE_CURVE('',#141,#24,#266,.T.);
#266 = SURFACE_CURVE('',#267,(#294,#324),.PCURVE_S1.);
#267 = B_SPLINE_CURVE_WITH_KNOTS('',7,(#268,#269,#270,#271,#272,#273,
    #274,#275,#276,#277,#278,#279,#280,#281,#282,#283,#284,#285,#286,
    #287,#288,#289,#290,#291,#292,#293),.UNSPECIFIED.,.F.,.F.,(8,6,6,6,8
    ),(0.,0.245704368654,0.500051622598,0.75439820607,1.),
  .UNSPECIFIED.);
#268 = CARTESIAN_POINT('',(19.7,-1.110223024625E-15,7.));
#269 = CARTESIAN_POINT('',(19.7,-0.265154764527,7.));
#270 = CARTESIAN_POINT('',(19.695836242087,-0.523402480616,6.95898793744
    ));
#271 = CARTESIAN_POINT('',(19.687899632792,-0.767309334009,
    6.880807098494));
#272 = CARTESIAN_POINT('',(19.677258461765,-0.990666019684,
    6.770763112266));
#273 = CARTESIAN_POINT('',(19.665386886705,-1.188737254575,
    6.635547804433));
#274 = CARTESIAN_POINT('',(19.65360092016,-1.358716830488,6.483129997188
    ));
#275 = CARTESIAN_POINT('',(19.631605765674,-1.646705032105,
    6.156471503241));
#276 = CARTESIAN_POINT('',(19.621172141314,-1.766530936984,
    5.977278069639));
#277 = CARTESIAN_POINT('',(19.612245961335,-1.860793632329,
    5.789315342879));
#278 = CARTESIAN_POINT('',(19.605295754725,-1.930607951284,
    5.595576624196));
#279 = CARTESIAN_POINT('',(19.600576748248,-1.976848987194,
    5.398284603631));
#280 = CARTESIAN_POINT('',(19.598214204361,-2.,5.199218924179));
#281 = CARTESIAN_POINT('',(19.598214204361,-2.,4.800781600972));
#282 = CARTESIAN_POINT('',(19.600576733207,-1.976849128999,
    4.601711923394));
#283 = CARTESIAN_POINT('',(19.605295914658,-1.93060638765,4.404417374069
    ));
#284 = CARTESIAN_POINT('',(19.612246232859,-1.860791010379,
    4.210681030296));
#285 = CARTESIAN_POINT('',(19.621172093768,-1.766530642985,
    4.022724004629));
#286 = CARTESIAN_POINT('',(19.631605455891,-1.646709088175,
    3.843533097468));
#287 = CARTESIAN_POINT('',(19.653596735942,-1.358771615532,
    3.516932144247));
#288 = CARTESIAN_POINT('',(19.665383916224,-1.188788260251,
    3.364478735201));
#289 = CARTESIAN_POINT('',(19.677260218752,-0.990660455106,
    3.229209758454));
#290 = CARTESIAN_POINT('',(19.687905004588,-0.767225569331,
    3.119140127454));
#291 = CARTESIAN_POINT('',(19.695839998978,-0.523264637626,
    3.040975031455));
#292 = CARTESIAN_POINT('',(19.7,-0.265035047662,3.));
#293 = CARTESIAN_POINT('',(19.7,-8.881784197001E-16,3.));
#294 = PCURVE('',#32,#295);
#295 = DEFINITIONAL_REPRESENTATION('',(#296),#323);
#296 = B_SPLINE_CURVE_WITH_KNOTS('',7,(#297,#298,#299,#300,#301,#302,
    #303,#304,#305,#306,#307,#308,#309,#310,#311,#312,#313,#314,#315,
    #316,#317,#318,#319,#320,#321,#322),.UNSPECIFIED.,.F.,.F.,(8,6,6,6,8
    ),(0.,0.245704368654,0.500051622598,0.75439820607,1.),
  .UNSPECIFIED.);
#297 = CARTESIAN_POINT('',(-6.28318530718,-7.));
#298 = CARTESIAN_POINT('',(-6.269725674463,-7.));
#299 = CARTESIAN_POINT('',(-6.256616648705,-6.95898793744));
#300 = CARTESIAN_POINT('',(-6.244231633489,-6.880807098495));
#301 = CARTESIAN_POINT('',(-6.232882638354,-6.770763112266));
#302 = CARTESIAN_POINT('',(-6.222810935204,-6.635547804433));
#303 = CARTESIAN_POINT('',(-6.214162029731,-6.483129997188));
#304 = CARTESIAN_POINT('',(-6.199500764635,-6.156471503241));
#305 = CARTESIAN_POINT('',(-6.19339556147,-5.977278069639));
#306 = CARTESIAN_POINT('',(-6.188589365535,-5.789315342879));
#307 = CARTESIAN_POINT('',(-6.185027987765,-5.595576624196));
#308 = CARTESIAN_POINT('',(-6.182668534734,-5.398284603631));
#309 = CARTESIAN_POINT('',(-6.181487253249,-5.199218924179));
#310 = CARTESIAN_POINT('',(-6.181487253249,-4.800781600972));
#311 = CARTESIAN_POINT('',(-6.182668527482,-4.601711923394));
#312 = CARTESIAN_POINT('',(-6.185028067595,-4.404417374069));
#313 = CARTESIAN_POINT('',(-6.188589499269,-4.210681030296));
#314 = CARTESIAN_POINT('',(-6.193395576161,-4.022724004629));
#315 = CARTESIAN_POINT('',(-6.199500558144,-3.843533097468));
#316 = CARTESIAN_POINT('',(-6.214159240665,-3.516932144247));
#317 = CARTESIAN_POINT('',(-6.222808341999,-3.364478735201));
#318 = CARTESIAN_POINT('',(-6.232882926588,-3.229209758454));
#319 = CARTESIAN_POINT('',(-6.244235891353,-3.119140127454));
#320 = CARTESIAN_POINT('',(-6.256623645732,-3.040975031455));
#321 = CARTESIAN_POINT('',(-6.269731751461,-3.));
#322 = CARTESIAN_POINT('',(-6.28318530718,-3.));
#323 = ( GEOMETRIC_REPRESENTATION_CONTEXT(2) 
PARAMETRIC_REPRESENTATION_CONTEXT() REPRESENTATION_CONTEXT('2D SPACE',''
  ) );
#324 = PCURVE('',#117,#325);
#325 = DEFINITIONAL_REPRESENTATION('',(#326),#353);
#326 = B_SPLINE_CURVE_WITH_KNOTS('',7,(#327,#328,#329,#330,#331,#332,
    #333,#334,#335,#336,#337,#338,#339,#340,#341,#342,#343,#344,#345,
    #346,#347,#348,#349,#350,#351,#352),.UNSPECIFIED.,.F.,.F.,(8,6,6,6,8
    ),(0.,0.245704368654,0.500051622598,0.75439820607,1.),
  .UNSPECIFIED.);
#327 = CARTESIAN_POINT('',(-1.570796326795,-5.7));
#328 = CARTESIAN_POINT('',(-1.703373709058,-5.7));
#329 = CARTESIAN_POINT('',(-1.832497469087,-5.695836242087));
#330 = CARTESIAN_POINT('',(-1.958257372336,-5.687899632792));
#331 = CARTESIAN_POINT('',(-2.080461737326,-5.677258461765));
#332 = CARTESIAN_POINT('',(-2.198668033886,-5.665386886705));
#333 = CARTESIAN_POINT('',(-2.312038009777,-5.65360092016));
#334 = CARTESIAN_POINT('',(-2.529778093327,-5.631605765674));
#335 = CARTESIAN_POINT('',(-2.636606844062,-5.621172141314));
#336 = CARTESIAN_POINT('',(-2.740489884037,-5.612245961335));
#337 = CARTESIAN_POINT('',(-2.842189510654,-5.605295754725));
#338 = CARTESIAN_POINT('',(-2.942450504801,-5.600576748248));
#339 = CARTESIAN_POINT('',(-3.0419831915,-5.598214204361));
#340 = CARTESIAN_POINT('',(-3.241201853104,-5.598214204361));
#341 = CARTESIAN_POINT('',(-3.340736528776,-5.600576733207));
#342 = CARTESIAN_POINT('',(-3.440998810335,-5.605295914658));
#343 = CARTESIAN_POINT('',(-3.542697478554,-5.612246232859));
#344 = CARTESIAN_POINT('',(-3.646577779894,-5.621172093768));
#345 = CARTESIAN_POINT('',(-3.753404147168,-5.631605455891));
#346 = CARTESIAN_POINT('',(-3.971105875914,-5.653596735942));
#347 = CARTESIAN_POINT('',(-4.084490466937,-5.665383916224));
#348 = CARTESIAN_POINT('',(-4.202733200865,-5.677260218752));
#349 = CARTESIAN_POINT('',(-4.324974909135,-5.687905004588));
#350 = CARTESIAN_POINT('',(-4.450756771694,-5.695839998978));
#351 = CARTESIAN_POINT('',(-4.579871456554,-5.7));
#352 = CARTESIAN_POINT('',(-4.712388980385,-5.7));
#353 = ( GEOMETRIC_REPRESENTATION_CONTEXT(2) 
PARAMETRIC_REPRESENTATION_CONTEXT() REPRESENTATION_CONTEXT('2D SPACE',''
  ) );
#354 = FACE_BOUND('',#355,.F.);
#355 = EDGE_LOOP('',(#356));
#356 = ORIENTED_EDGE('',*,*,#357,.F.);
#357 = EDGE_CURVE('',#358,#358,#360,.T.);
#358 = VERTEX_POINT('',#359);
#359 = CARTESIAN_POINT('',(-19.59821420436,2.,5.));
#360 = SURFACE_CURVE('',#361,(#420,#482),.PCURVE_S1.);
#361 = B_SPLINE_CURVE_WITH_KNOTS('',8,(#362,#363,#364,#365,#366,#367,
    #368,#369,#370,#371,#372,#373,#374,#375,#376,#377,#378,#379,#380,
    #381,#382,#383,#384,#385,#386,#387,#388,#389,#390,#391,#392,#393,
    #394,#395,#396,#397,#398,#399,#400,#401,#402,#403,#404,#405,#406,
    #407,#408,#409,#410,#411,#412,#413,#414,#415,#416,#417,#418,#419),
  .UNSPECIFIED.,.T.,.F.,(9,7,7,7,7,7,7,7,9),(0.,0.125820415236,
    0.225090495783,0.33166256916,0.430135420763,0.593197522521,
    0.713895144308,0.83200744796,1.),.UNSPECIFIED.);
#362 = CARTESIAN_POINT('',(-19.59821420436,2.,5.));
#363 = CARTESIAN_POINT('',(-19.59821420436,2.,5.174316099149));
#364 = CARTESIAN_POINT('',(-19.59998610099,1.982636846749,5.348520657212
    ));
#365 = CARTESIAN_POINT('',(-19.60352622161,1.947947415656,5.521597169934
    ));
#366 = CARTESIAN_POINT('',(-19.60877107375,1.895698699014,5.692450797818
    ));
#367 = CARTESIAN_POINT('',(-19.6155934307,1.825443372606,5.859802854329)
  );
#368 = CARTESIAN_POINT('',(-19.62378043429,1.736575254282,6.022073722161
    ));
#369 = CARTESIAN_POINT('',(-19.63300395201,1.628398219561,6.177236506047
    ));
#370 = CARTESIAN_POINT('',(-19.6505171457,1.399093480674,6.437331677443)
  );
#371 = CARTESIAN_POINT('',(-19.65866156997,1.28461870266,6.546971571892)
  );
#372 = CARTESIAN_POINT('',(-19.66694920981,1.156830312785,6.649181424205
    ));
#373 = CARTESIAN_POINT('',(-19.67502416457,1.016127814775,6.74165193986)
  );
#374 = CARTESIAN_POINT('',(-19.68247688583,0.863248089607,6.822137986378
    ));
#375 = CARTESIAN_POINT('',(-19.68887884536,0.699253818665,6.888462111281
    ));
#376 = CARTESIAN_POINT('',(-19.69382710595,0.525539948984,6.938510111222
    ));
#377 = CARTESIAN_POINT('',(-19.70040378385,0.148812517935,7.004259573288
    ));
#378 = CARTESIAN_POINT('',(-19.70169006001,-5.135825570131E-02,
    7.016455651409));
#379 = CARTESIAN_POINT('',(-19.70058250647,-0.252365995524,
    7.005537551071));
#380 = CARTESIAN_POINT('',(-19.69706070169,-0.449717723966,
    6.971630082878));
#381 = CARTESIAN_POINT('',(-19.69143067373,-0.639063602895,
    6.916185902963));
#382 = CARTESIAN_POINT('',(-19.68425363011,-0.816515307026,
    6.841937494255));
#383 = CARTESIAN_POINT('',(-19.67620022808,-0.97893145264,6.752862958589
    ));
#384 = CARTESIAN_POINT('',(-19.66022854902,-1.25836452434,6.562960439161
    ));
#385 = CARTESIAN_POINT('',(-19.65221908943,-1.380122705973,
    6.462024757131));
#386 = CARTESIAN_POINT('',(-19.64420680967,-1.489504948247,
    6.353199927023));
#387 = CARTESIAN_POINT('',(-19.63647154095,-1.586712954444,
    6.238014923063));
#388 = CARTESIAN_POINT('',(-19.62923700525,-1.672024470947,6.11774319883
    ));
#389 = CARTESIAN_POINT('',(-19.62267465208,-1.74574402622,5.993451579495
    ));
#390 = CARTESIAN_POINT('',(-19.61691103384,-1.808166421296,
    5.866036716598));
#391 = CARTESIAN_POINT('',(-19.60397060998,-1.944644433911,
    5.521332604785));
#392 = CARTESIAN_POINT('',(-19.5983436284,-1.999500719072,5.299844329297
    ));
#393 = CARTESIAN_POINT('',(-19.59556513343,-2.025398851093,5.07486180214
    ));
#394 = CARTESIAN_POINT('',(-19.59581154681,-2.022931031602,
    4.848724082455));
#395 = CARTESIAN_POINT('',(-19.59909841061,-1.9920922763,4.623636528542)
  );
#396 = CARTESIAN_POINT('',(-19.60528340371,-1.932331308023,
    4.401994950544));
#397 = CARTESIAN_POINT('',(-19.61401506078,-1.842605923911,
    4.186723065601));
#398 = CARTESIAN_POINT('',(-19.63250440851,-1.631830348542,
    3.830321031557));
#399 = CARTESIAN_POINT('',(-19.64147169334,-1.524227069769,
    3.683194173139));
#400 = CARTESIAN_POINT('',(-19.65126230393,-1.398104081684,
    3.543235897127));
#401 = CARTESIAN_POINT('',(-19.66145588036,-1.253251652166,
    3.413377366247));
#402 = CARTESIAN_POINT('',(-19.67149502305,-1.089842805225,
    3.296789174571));
#403 = CARTESIAN_POINT('',(-19.6807034899,-0.908487030893,3.196910412089
    ));
#404 = CARTESIAN_POINT('',(-19.68834140802,-0.71035073041,3.11751532529)
  );
#405 = CARTESIAN_POINT('',(-19.69898368111,-0.288970612149,
    3.009323299794));
#406 = CARTESIAN_POINT('',(-19.70197431797,-7.066726359034E-02,
    2.980586697681));
#407 = CARTESIAN_POINT('',(-19.70213764904,0.151911584847,2.979585451733
    ));
#408 = CARTESIAN_POINT('',(-19.69924232366,0.372587956415,3.007097172021
    ));
#409 = CARTESIAN_POINT('',(-19.69357428137,0.585174132751,3.061806730583
    ));
#410 = CARTESIAN_POINT('',(-19.68585617737,0.784056107169,3.140375097555
    ));
#411 = CARTESIAN_POINT('',(-19.67701225925,0.964724532795,3.237482028655
    ));
#412 = CARTESIAN_POINT('',(-19.65493698036,1.350943349683,3.499956065572
    ));
#413 = CARTESIAN_POINT('',(-19.6410240327,1.541902843452,3.681672993871)
  );
#414 = CARTESIAN_POINT('',(-19.62777127228,1.697726681152,3.882102227684
    ));
#415 = CARTESIAN_POINT('',(-19.61632541917,1.820005094108,4.095165974675
    ));
#416 = CARTESIAN_POINT('',(-19.60736253655,1.910350598209,4.31642529657)
  );
#417 = CARTESIAN_POINT('',(-19.60126688852,1.97008722934,4.542602265346)
  );
#418 = CARTESIAN_POINT('',(-19.59821420436,2.,4.771205224222));
#419 = CARTESIAN_POINT('',(-19.59821420436,2.,5.));
#420 = PCURVE('',#32,#421);
#421 = DEFINITIONAL_REPRESENTATION('',(#422),#481);
#422 = B_SPLINE_CURVE_WITH_KNOTS('',8,(#423,#424,#425,#426,#427,#428,
    #429,#430,#431,#432,#433,#434,#435,#436,#437,#438,#439,#440,#441,
    #442,#443,#444,#445,#446,#447,#448,#449,#450,#451,#452,#453,#454,
    #455,#456,#457,#458,#459,#460,#461,#462,#463,#464,#465,#466,#467,
    #468,#469,#470,#471,#472,#473,#474,#475,#476,#477,#478,#479,#480),
  .UNSPECIFIED.,.F.,.F.,(9,7,7,7,7,7,7,7,9),(0.,0.125820415236,
    0.225090495783,0.33166256916,0.430135420763,0.593197522521,
    0.713895144308,0.83200744796,1.),.UNSPECIFIED.);
#423 = CARTESIAN_POINT('',(-3.039894599659,-5.));
#424 = CARTESIAN_POINT('',(-3.039894599659,-5.174316099149));
#425 = CARTESIAN_POINT('',(-3.040780555334,-5.348520657211));
#426 = CARTESIAN_POINT('',(-3.042550586463,-5.521597169934));
#427 = CARTESIAN_POINT('',(-3.045216129842,-5.692450797818));
#428 = CARTESIAN_POINT('',(-3.048799124514,-5.859802854329));
#429 = CARTESIAN_POINT('',(-3.053329168067,-6.022073722161));
#430 = CARTESIAN_POINT('',(-3.058840097253,-6.177236506047));
#431 = CARTESIAN_POINT('',(-3.070513830918,-6.437331677443));
#432 = CARTESIAN_POINT('',(-3.076339338358,-6.546971571892));
#433 = CARTESIAN_POINT('',(-3.082839478189,-6.649181424205));
#434 = CARTESIAN_POINT('',(-3.089993058627,-6.74165193986));
#435 = CARTESIAN_POINT('',(-3.097762014166,-6.822137986378));
#436 = CARTESIAN_POINT('',(-3.10609220773,-6.888462111281));
#437 = CARTESIAN_POINT('',(-3.114913207174,-6.938510111222));
#438 = CARTESIAN_POINT('',(-3.134039340803,-7.004259573288));
#439 = CARTESIAN_POINT('',(-3.144199888572,-7.016455651409));
#440 = CARTESIAN_POINT('',(-3.154402257727,-7.005537551071));
#441 = CARTESIAN_POINT('',(-3.164420250709,-6.971630082878));
#442 = CARTESIAN_POINT('',(-3.174034782807,-6.916185902963));
#443 = CARTESIAN_POINT('',(-3.183049223747,-6.841937494255));
#444 = CARTESIAN_POINT('',(-3.191303588233,-6.752862958589));
#445 = CARTESIAN_POINT('',(-3.205511159281,-6.562960439161));
#446 = CARTESIAN_POINT('',(-3.211704906915,-6.462024757131));
#447 = CARTESIAN_POINT('',(-3.217271951021,-6.353199927023));
#448 = CARTESIAN_POINT('',(-3.222221809165,-6.238014923063));
#449 = CARTESIAN_POINT('',(-3.226567803554,-6.11774319883));
#450 = CARTESIAN_POINT('',(-3.230324675953,-5.993451579495));
#451 = CARTESIAN_POINT('',(-3.233506793744,-5.866036716598));
#452 = CARTESIAN_POINT('',(-3.240465683361,-5.521332604785));
#453 = CARTESIAN_POINT('',(-3.243264797268,-5.299844329297));
#454 = CARTESIAN_POINT('',(-3.244586981716,-5.07486180214));
#455 = CARTESIAN_POINT('',(-3.244461110768,-4.848724082455));
#456 = CARTESIAN_POINT('',(-3.242886787827,-4.623636528542));
#457 = CARTESIAN_POINT('',(-3.239837055867,-4.401994950544));
#458 = CARTESIAN_POINT('',(-3.235261157024,-4.186723065601));
#459 = CARTESIAN_POINT('',(-3.224520803263,-3.830321031557));
#460 = CARTESIAN_POINT('',(-3.219039824192,-3.683194173139));
#461 = CARTESIAN_POINT('',(-3.212618564081,-3.543235897127));
#462 = CARTESIAN_POINT('',(-3.205247870797,-3.413377366247));
#463 = CARTESIAN_POINT('',(-3.196938134802,-3.296789174571));
#464 = CARTESIAN_POINT('',(-3.187721458361,-3.196910412089));
#465 = CARTESIAN_POINT('',(-3.177657196687,-3.11751532529));
#466 = CARTESIAN_POINT('',(-3.156260522263,-3.009323299794));
#467 = CARTESIAN_POINT('',(-3.145178827147,-2.980586697681));
#468 = CARTESIAN_POINT('',(-3.133882020821,-2.979585451733));
#469 = CARTESIAN_POINT('',(-3.122681283763,-3.007097172021));
#470 = CARTESIAN_POINT('',(-3.111887991653,-3.061806730583));
#471 = CARTESIAN_POINT('',(-3.10178571257,-3.140375097555));
#472 = CARTESIAN_POINT('',(-3.092604059441,-3.237482028655));
#473 = CARTESIAN_POINT('',(-3.07296704494,-3.499956065572));
#474 = CARTESIAN_POINT('',(-3.063249164687,-3.681672993871));
#475 = CARTESIAN_POINT('',(-3.055311483726,-3.882102227685));
#476 = CARTESIAN_POINT('',(-3.049077513933,-4.095165974674));
#477 = CARTESIAN_POINT('',(-3.044468967586,-4.316425296571));
#478 = CARTESIAN_POINT('',(-3.041420900029,-4.542602265346));
#479 = CARTESIAN_POINT('',(-3.039894599659,-4.771205224222));
#480 = CARTESIAN_POINT('',(-3.039894599659,-5.));
#481 = ( GEOMETRIC_REPRESENTATION_CONTEXT(2) 
PARAMETRIC_REPRESENTATION_CONTEXT() REPRESENTATION_CONTEXT('2D SPACE',''
  ) );
#482 = PCURVE('',#483,#488);
#483 = CYLINDRICAL_SURFACE('',#484,2.);
#484 = AXIS2_PLACEMENT_3D('',#485,#486,#487);
#485 = CARTESIAN_POINT('',(-20.,0.,5.));
#486 = DIRECTION('',(-1.,0.,-0.));
#487 = DIRECTION('',(0.,1.,0.));
#488 = DEFINITIONAL_REPRESENTATION('',(#489),#548);
#489 = B_SPLINE_CURVE_WITH_KNOTS('',8,(#490,#491,#492,#493,#494,#495,
    #496,#497,#498,#499,#500,#501,#502,#503,#504,#505,#506,#507,#508,
    #509,#510,#511,#512,#513,#514,#515,#516,#517,#518,#519,#520,#521,
    #522,#523,#524,#525,#526,#527,#528,#529,#530,#531,#532,#533,#534,
    #535,#536,#537,#538,#539,#540,#541,#542,#543,#544,#545,#546,#547),
  .UNSPECIFIED.,.F.,.F.,(9,7,7,7,7,7,7,7,9),(0.,0.125820415236,
    0.225090495783,0.33166256916,0.430135420763,0.593197522521,
    0.713895144308,0.83200744796,1.),.UNSPECIFIED.);
#490 = CARTESIAN_POINT('',(0.,-0.401785795639));
#491 = CARTESIAN_POINT('',(-8.71580495747E-02,-0.401785795639));
#492 = CARTESIAN_POINT('',(-0.174260206268,-0.400013899005));
#493 = CARTESIAN_POINT('',(-0.26180780116,-0.396473778386));
#494 = CARTESIAN_POINT('',(-0.350255490855,-0.391228926241));
#495 = CARTESIAN_POINT('',(-0.440059937967,-0.3844065693));
#496 = CARTESIAN_POINT('',(-0.531691718122,-0.376219565701));
#497 = CARTESIAN_POINT('',(-0.625655845671,-0.366996047984));
#498 = CARTESIAN_POINT('',(-0.799026951582,-0.349482854291));
#499 = CARTESIAN_POINT('',(-0.878000058092,-0.34133843003));
#500 = CARTESIAN_POINT('',(-0.95926885766,-0.333050790185));
#501 = CARTESIAN_POINT('',(-1.042706353217,-0.324975835421));
#502 = CARTESIAN_POINT('',(-1.12825692912,-0.317523114162));
#503 = CARTESIAN_POINT('',(-1.215928432263,-0.311121154637));
#504 = CARTESIAN_POINT('',(-1.305794727994,-0.306172894043));
#505 = CARTESIAN_POINT('',(-1.497005703795,-0.299596216149));
#506 = CARTESIAN_POINT('',(-1.596648970044,-0.298309939988));
#507 = CARTESIAN_POINT('',(-1.696196965369,-0.299417493523));
#508 = CARTESIAN_POINT('',(-1.795003739718,-0.302939298308));
#509 = CARTESIAN_POINT('',(-1.892418882999,-0.30856932627));
#510 = CARTESIAN_POINT('',(-1.987699435888,-0.315746369888));
#511 = CARTESIAN_POINT('',(-2.079898958652,-0.32379977192));
#512 = CARTESIAN_POINT('',(-2.24882631615,-0.339771450971));
#513 = CARTESIAN_POINT('',(-2.327545835173,-0.347780910568));
#514 = CARTESIAN_POINT('',(-2.404176438808,-0.355793190321));
#515 = CARTESIAN_POINT('',(-2.478986830591,-0.363528459042));
#516 = CARTESIAN_POINT('',(-2.552214960237,-0.370762994745));
#517 = CARTESIAN_POINT('',(-2.624082810167,-0.377325347913));
#518 = CARTESIAN_POINT('',(-2.694806475164,-0.383088966152));
#519 = CARTESIAN_POINT('',(-2.880175817713,-0.396029390019));
#520 = CARTESIAN_POINT('',(-2.993240183259,-0.401656371599));
#521 = CARTESIAN_POINT('',(-3.104950513322,-0.404434866569));
#522 = CARTESIAN_POINT('',(-3.216255641127,-0.404188453189));
#523 = CARTESIAN_POINT('',(-3.328045639028,-0.400901589387));
#524 = CARTESIAN_POINT('',(-3.441208892725,-0.394716596287));
#525 = CARTESIAN_POINT('',(-3.556692859126,-0.385984939219));
#526 = CARTESIAN_POINT('',(-3.763724712378,-0.367495591484));
#527 = CARTESIAN_POINT('',(-3.854430835172,-0.358528306653));
#528 = CARTESIAN_POINT('',(-3.9478073778,-0.348737696067));
#529 = CARTESIAN_POINT('',(-4.043945542663,-0.33854411964));
#530 = CARTESIAN_POINT('',(-4.143021671529,-0.32850497695));
#531 = CARTESIAN_POINT('',(-4.245293758706,-0.3192965101));
#532 = CARTESIAN_POINT('',(-4.351122140784,-0.311658591979));
#533 = CARTESIAN_POINT('',(-4.568646115581,-0.301016318882));
#534 = CARTESIAN_POINT('',(-4.677941486251,-0.298025682027));
#535 = CARTESIAN_POINT('',(-4.78775790363,-0.29786235096));
#536 = CARTESIAN_POINT('',(-4.897152730051,-0.30075767634));
#537 = CARTESIAN_POINT('',(-5.005209014342,-0.306425718623));
#538 = CARTESIAN_POINT('',(-5.110897664263,-0.314143822624));
#539 = CARTESIAN_POINT('',(-5.212903017438,-0.32298774075));
#540 = CARTESIAN_POINT('',(-5.446386204506,-0.345063019633));
#541 = CARTESIAN_POINT('',(-5.576426016061,-0.3589759673));
#542 = CARTESIAN_POINT('',(-5.701118582411,-0.372228727713));
#543 = CARTESIAN_POINT('',(-5.821655423073,-0.383674580821));
#544 = CARTESIAN_POINT('',(-5.939118275362,-0.392637463441));
#545 = CARTESIAN_POINT('',(-6.054486087222,-0.398733111473));
#546 = CARTESIAN_POINT('',(-6.16878791929,-0.401785795639));
#547 = CARTESIAN_POINT('',(-6.28318530718,-0.401785795639));
#548 = ( GEOMETRIC_REPRESENTATION_CONTEXT(2) 
PARAMETRIC_REPRESENTATION_CONTEXT() REPRESENTATION_CONTEXT('2D SPACE',''
  ) );
#549 = ADVANCED_FACE('',(#550),#117,.F.);
#550 = FACE_BOUND('',#551,.T.);
#551 = EDGE_LOOP('',(#552,#633,#654,#655,#656,#657,#658,#714));
#552 = ORIENTED_EDGE('',*,*,#553,.F.);
#553 = EDGE_CURVE('',#554,#556,#558,.T.);
#554 = VERTEX_POINT('',#555);
#555 = CARTESIAN_POINT('',(16.781239525136,2.,5.));
#556 = VERTEX_POINT('',#557);
#557 = CARTESIAN_POINT('',(16.9,0.,7.));
#558 = SURFACE_CURVE('',#559,(#580,#604),.PCURVE_S1.);
#559 = B_SPLINE_CURVE_WITH_KNOTS('',7,(#560,#561,#562,#563,#564,#565,
    #566,#567,#568,#569,#570,#571,#572,#573,#574,#575,#576,#577,#578,
    #579),.UNSPECIFIED.,.F.,.F.,(8,6,6,8),(0.,0.505834070644,
    0.793037103148,1.),.UNSPECIFIED.);
#560 = CARTESIAN_POINT('',(16.781239525136,2.,5.));
#561 = CARTESIAN_POINT('',(16.781239525136,2.,5.199268812088));
#562 = CARTESIAN_POINT('',(16.784000036893,1.97683740716,5.398387400648)
  );
#563 = CARTESIAN_POINT('',(16.78951411019,1.930571889169,5.595715548562)
  );
#564 = CARTESIAN_POINT('',(16.797633171828,1.860731458257,5.78945878389)
  );
#565 = CARTESIAN_POINT('',(16.808055019439,1.766458411206,5.977391548136
    ));
#566 = CARTESIAN_POINT('',(16.820230340262,1.646652167674,6.156531466167
    ));
#567 = CARTESIAN_POINT('',(16.840690187386,1.417081934497,6.416927781724
    ));
#568 = CARTESIAN_POINT('',(16.848399755309,1.325158589236,6.507252344508
    ));
#569 = CARTESIAN_POINT('',(16.856230608428,1.224404815516,6.592524779459
    ));
#570 = CARTESIAN_POINT('',(16.863964781821,1.114881716492,6.671618503584
    ));
#571 = CARTESIAN_POINT('',(16.871348660706,0.996771929085,6.743344395415
    ));
#572 = CARTESIAN_POINT('',(16.878105249498,0.870398444325,6.806439491122
    ));
#573 = CARTESIAN_POINT('',(16.888170461077,0.639579040437,6.897827358096
    ));
#574 = CARTESIAN_POINT('',(16.89191500423,0.538870756435,6.930918506374)
  );
#575 = CARTESIAN_POINT('',(16.895063700467,0.434776642848,6.958134305168
    ));
#576 = CARTESIAN_POINT('',(16.897507789193,0.328032320934,6.978941181726
    ));
#577 = CARTESIAN_POINT('',(16.899167618607,0.219432778995,6.992966227548
    ));
#578 = CARTESIAN_POINT('',(16.9,0.109808274061,7.));
#579 = CARTESIAN_POINT('',(16.9,3.061616997868E-16,7.));
#580 = PCURVE('',#117,#581);
#581 = DEFINITIONAL_REPRESENTATION('',(#582),#603);
#582 = B_SPLINE_CURVE_WITH_KNOTS('',7,(#583,#584,#585,#586,#587,#588,
    #589,#590,#591,#592,#593,#594,#595,#596,#597,#598,#599,#600,#601,
    #602),.UNSPECIFIED.,.F.,.F.,(8,6,6,8),(0.,0.505834070644,
    0.793037103148,1.),.UNSPECIFIED.);
#583 = CARTESIAN_POINT('',(0.,-2.781239525136));
#584 = CARTESIAN_POINT('',(-9.963440604413E-02,-2.781239525136));
#585 = CARTESIAN_POINT('',(-0.199193538999,-2.784000036893));
#586 = CARTESIAN_POINT('',(-0.299473836943,-2.78951411019));
#587 = CARTESIAN_POINT('',(-0.401179533252,-2.797633171828));
#588 = CARTESIAN_POINT('',(-0.505052350147,-2.808055019439));
#589 = CARTESIAN_POINT('',(-0.611854529628,-2.820230340262));
#590 = CARTESIAN_POINT('',(-0.785426368585,-2.840690187386));
#591 = CARTESIAN_POINT('',(-0.849698170728,-2.848399755309));
#592 = CARTESIAN_POINT('',(-0.915400355821,-2.856230608428));
#593 = CARTESIAN_POINT('',(-0.982578697534,-2.863964781821));
#594 = CARTESIAN_POINT('',(-1.051301526438,-2.871348660706));
#595 = CARTESIAN_POINT('',(-1.121664569731,-2.878105249498));
#596 = CARTESIAN_POINT('',(-1.245790855668,-2.888170461077));
#597 = CARTESIAN_POINT('',(-1.298699775233,-2.89191500423));
#598 = CARTESIAN_POINT('',(-1.352330804725,-2.895063700467));
#599 = CARTESIAN_POINT('',(-1.406509814777,-2.897507789193));
#600 = CARTESIAN_POINT('',(-1.46107994533,-2.899167618607));
#601 = CARTESIAN_POINT('',(-1.515892189764,-2.9));
#602 = CARTESIAN_POINT('',(-1.570796326795,-2.9));
#603 = ( GEOMETRIC_REPRESENTATION_CONTEXT(2) 
PARAMETRIC_REPRESENTATION_CONTEXT() REPRESENTATION_CONTEXT('2D SPACE',''
  ) );
#604 = PCURVE('',#605,#610);
#605 = CYLINDRICAL_SURFACE('',#606,16.9);
#606 = AXIS2_PLACEMENT_3D('',#607,#608,#609);
#607 = CARTESIAN_POINT('',(0.,0.,0.));
#608 = DIRECTION('',(-0.,-0.,-1.));
#609 = DIRECTION('',(1.,0.,0.));
#610 = DEFINITIONAL_REPRESENTATION('',(#611),#632);
#611 = B_SPLINE_CURVE_WITH_KNOTS('',7,(#612,#613,#614,#615,#616,#617,
    #618,#619,#620,#621,#622,#623,#624,#625,#626,#627,#628,#629,#630,
    #631),.UNSPECIFIED.,.F.,.F.,(8,6,6,8),(0.,0.505834070644,
    0.793037103148,1.),.UNSPECIFIED.);
#612 = CARTESIAN_POINT('',(-0.118621185783,-5.));
#613 = CARTESIAN_POINT('',(-0.118621185783,-5.199268812088));
#614 = CARTESIAN_POINT('',(-0.117240919112,-5.398387400648));
#615 = CARTESIAN_POINT('',(-0.114483938104,-5.595715548562));
#616 = CARTESIAN_POINT('',(-0.110323559903,-5.78945878389));
#617 = CARTESIAN_POINT('',(-0.104711478543,-5.977391548136));
#618 = CARTESIAN_POINT('',(-9.75863854228E-02,-6.156531466167));
#619 = CARTESIAN_POINT('',(-8.394850701193E-02,-6.416927781724));
#620 = CARTESIAN_POINT('',(-7.849023417995E-02,-6.507252344508));
#621 = CARTESIAN_POINT('',(-7.251067636393E-02,-6.592524779459));
#622 = CARTESIAN_POINT('',(-6.601420617571E-02,-6.671618503584));
#623 = CARTESIAN_POINT('',(-5.901224017224E-02,-6.743344395415));
#624 = CARTESIAN_POINT('',(-5.152420214E-02,-6.806439491122));
#625 = CARTESIAN_POINT('',(-3.785326997039E-02,-6.897827358096));
#626 = CARTESIAN_POINT('',(-3.189020443533E-02,-6.930918506374));
#627 = CARTESIAN_POINT('',(-2.572821496437E-02,-6.958134305168));
#628 = CARTESIAN_POINT('',(-1.941064376059E-02,-6.978941181726));
#629 = CARTESIAN_POINT('',(-1.298418839637E-02,-6.992966227548));
#630 = CARTESIAN_POINT('',(-6.497531009545E-03,-7.));
#631 = CARTESIAN_POINT('',(0.,-7.));
#632 = ( GEOMETRIC_REPRESENTATION_CONTEXT(2) 
PARAMETRIC_REPRESENTATION_CONTEXT() REPRESENTATION_CONTEXT('2D SPACE',''
  ) );
#633 = ORIENTED_EDGE('',*,*,#634,.T.);
#634 = EDGE_CURVE('',#554,#80,#635,.T.);
#635 = SEAM_CURVE('',#636,(#640,#647),.PCURVE_S1.);
#636 = LINE('',#637,#638);
#637 = CARTESIAN_POINT('',(14.,2.,5.));
#638 = VECTOR('',#639,1.);
#639 = DIRECTION('',(1.,0.,0.));
#640 = PCURVE('',#117,#641);
#641 = DEFINITIONAL_REPRESENTATION('',(#642),#646);
#642 = LINE('',#643,#644);
#643 = CARTESIAN_POINT('',(-6.28318530718,0.));
#644 = VECTOR('',#645,1.);
#645 = DIRECTION('',(-0.,-1.));
#646 = ( GEOMETRIC_REPRESENTATION_CONTEXT(2) 
PARAMETRIC_REPRESENTATION_CONTEXT() REPRESENTATION_CONTEXT('2D SPACE',''
  ) );
#647 = PCURVE('',#117,#648);
#648 = DEFINITIONAL_REPRESENTATION('',(#649),#653);
#649 = LINE('',#650,#651);
#650 = CARTESIAN_POINT('',(-0.,0.));
#651 = VECTOR('',#652,1.);
#652 = DIRECTION('',(-0.,-1.));
#653 = ( GEOMETRIC_REPRESENTATION_CONTEXT(2) 
PARAMETRIC_REPRESENTATION_CONTEXT() REPRESENTATION_CONTEXT('2D SPACE',''
  ) );
#654 = ORIENTED_EDGE('',*,*,#140,.T.);
#655 = ORIENTED_EDGE('',*,*,#265,.T.);
#656 = ORIENTED_EDGE('',*,*,#79,.T.);
#657 = ORIENTED_EDGE('',*,*,#634,.F.);
#658 = ORIENTED_EDGE('',*,*,#659,.F.);
#659 = EDGE_CURVE('',#660,#554,#662,.T.);
#660 = VERTEX_POINT('',#661);
#661 = CARTESIAN_POINT('',(16.9,0.,3.));
#662 = SURFACE_CURVE('',#663,(#678,#696),.PCURVE_S1.);
#663 = B_SPLINE_CURVE_WITH_KNOTS('',7,(#664,#665,#666,#667,#668,#669,
    #670,#671,#672,#673,#674,#675,#676,#677),.UNSPECIFIED.,.F.,.F.,(8,6,
    8),(0.,0.451344608615,1.),.UNSPECIFIED.);
#664 = CARTESIAN_POINT('',(16.9,1.592659819528E-15,3.));
#665 = CARTESIAN_POINT('',(16.9,0.24281274293,3.));
#666 = CARTESIAN_POINT('',(16.895929851901,0.480529654959,3.034391962316
    ));
#667 = CARTESIAN_POINT('',(16.888097573487,0.707088307258,3.100579001645
    ));
#668 = CARTESIAN_POINT('',(16.877402535588,0.917193278012,3.194613552671
    ));
#669 = CARTESIAN_POINT('',(16.865155716613,1.106620452802,3.311280188889
    ));
#670 = CARTESIAN_POINT('',(16.852616456749,1.272601280782,3.444174156036
    ));
#671 = CARTESIAN_POINT('',(16.82626850322,1.586357729597,3.757930604851)
  );
#672 = CARTESIAN_POINT('',(16.812391740337,1.726985071352,3.947449481727
    ));
#673 = CARTESIAN_POINT('',(16.800342580624,1.837373707312,4.148402368707
    ));
#674 = CARTESIAN_POINT('',(16.790896444629,1.918974413534,4.356761741016
    ));
#675 = CARTESIAN_POINT('',(16.784461929835,1.972961553704,4.569616495891
    ));
#676 = CARTESIAN_POINT('',(16.781239525136,2.,4.784702424112));
#677 = CARTESIAN_POINT('',(16.781239525136,2.,5.));
#678 = PCURVE('',#117,#679);
#679 = DEFINITIONAL_REPRESENTATION('',(#680),#695);
#680 = B_SPLINE_CURVE_WITH_KNOTS('',7,(#681,#682,#683,#684,#685,#686,
    #687,#688,#689,#690,#691,#692,#693,#694),.UNSPECIFIED.,.F.,.F.,(8,6,
    8),(0.,0.451344608615,1.),.UNSPECIFIED.);
#681 = CARTESIAN_POINT('',(-4.712388980385,-2.9));
#682 = CARTESIAN_POINT('',(-4.83379535185,-2.9));
#683 = CARTESIAN_POINT('',(-4.952653685559,-2.895929851901));
#684 = CARTESIAN_POINT('',(-5.068856382599,-2.888097573487));
#685 = CARTESIAN_POINT('',(-5.182124064826,-2.877402535588));
#686 = CARTESIAN_POINT('',(-5.291983835675,-2.865155716613));
#687 = CARTESIAN_POINT('',(-5.39765213917,-2.852616456749));
#688 = CARTESIAN_POINT('',(-5.619511451768,-2.82626850322));
#689 = CARTESIAN_POINT('',(-5.736236004015,-2.812391740337));
#690 = CARTESIAN_POINT('',(-5.849256056836,-2.800342580624));
#691 = CARTESIAN_POINT('',(-5.959527501876,-2.790896444629));
#692 = CARTESIAN_POINT('',(-6.067993883195,-2.784461929835));
#693 = CARTESIAN_POINT('',(-6.175536519235,-2.781239525136));
#694 = CARTESIAN_POINT('',(-6.28318530718,-2.781239525136));
#695 = ( GEOMETRIC_REPRESENTATION_CONTEXT(2) 
PARAMETRIC_REPRESENTATION_CONTEXT() REPRESENTATION_CONTEXT('2D SPACE',''
  ) );
#696 = PCURVE('',#605,#697);
#697 = DEFINITIONAL_REPRESENTATION('',(#698),#713);
#698 = B_SPLINE_CURVE_WITH_KNOTS('',7,(#699,#700,#701,#702,#703,#704,
    #705,#706,#707,#708,#709,#710,#711,#712),.UNSPECIFIED.,.F.,.F.,(8,6,
    8),(0.,0.451344608615,1.),.UNSPECIFIED.);
#699 = CARTESIAN_POINT('',(0.,-3.));
#700 = CARTESIAN_POINT('',(-1.436761792486E-02,-3.));
#701 = CARTESIAN_POINT('',(-2.843371240167E-02,-3.034391962316));
#702 = CARTESIAN_POINT('',(-4.184436635733E-02,-3.100579001645));
#703 = CARTESIAN_POINT('',(-5.429031240015E-02,-3.194613552671));
#704 = CARTESIAN_POINT('',(-6.552134265635E-02,-3.311280188889));
#705 = CARTESIAN_POINT('',(-7.537033009353E-02,-3.444174156036));
#706 = CARTESIAN_POINT('',(-9.400114670402E-02,-3.757930604851));
#707 = CARTESIAN_POINT('',(-0.102361816979,-3.947449481727));
#708 = CARTESIAN_POINT('',(-0.108932185502,-4.148402368707));
#709 = CARTESIAN_POINT('',(-0.113792839262,-4.356761741016));
#710 = CARTESIAN_POINT('',(-0.117009955875,-4.569616495891));
#711 = CARTESIAN_POINT('',(-0.118621185783,-4.784702424112));
#712 = CARTESIAN_POINT('',(-0.118621185783,-5.));
#713 = ( GEOMETRIC_REPRESENTATION_CONTEXT(2) 
PARAMETRIC_REPRESENTATION_CONTEXT() REPRESENTATION_CONTEXT('2D SPACE',''
  ) );
#714 = ORIENTED_EDGE('',*,*,#715,.F.);
#715 = EDGE_CURVE('',#556,#660,#716,.T.);
#716 = SURFACE_CURVE('',#717,(#744,#774),.PCURVE_S1.);
#717 = B_SPLINE_CURVE_WITH_KNOTS('',7,(#718,#719,#720,#721,#722,#723,
    #724,#725,#726,#727,#728,#729,#730,#731,#732,#733,#734,#735,#736,
    #737,#738,#739,#740,#741,#742,#743),.UNSPECIFIED.,.F.,.F.,(8,6,6,6,8
    ),(0.,0.245743509264,0.500052006619,0.754359890311,1.),
  .UNSPECIFIED.);
#718 = CARTESIAN_POINT('',(16.9,-1.7763568394E-15,7.));
#719 = CARTESIAN_POINT('',(16.9,-0.265243738065,7.));
#720 = CARTESIAN_POINT('',(16.89514311529,-0.52351601615,6.958960422602)
  );
#721 = CARTESIAN_POINT('',(16.885889528677,-0.767404718672,
    6.880761618665));
#722 = CARTESIAN_POINT('',(16.87348376733,-0.990728167982,6.770719034291
    ));
#723 = CARTESIAN_POINT('',(16.859639321546,-1.188769176979,
    6.635517899287));
#724 = CARTESIAN_POINT('',(16.845890843246,-1.358727843623,
    6.483117505238));
#725 = CARTESIAN_POINT('',(16.82023071284,-1.646647987153,6.156536208038
    ));
#726 = CARTESIAN_POINT('',(16.808055080773,-1.766458671109,
    5.977393733759));
#727 = CARTESIAN_POINT('',(16.797632848047,-1.860734139274,
    5.789455115772));
#728 = CARTESIAN_POINT('',(16.789513919299,-1.930573486546,
    5.595709413708));
#729 = CARTESIAN_POINT('',(16.784000053066,-1.976837277059,
    5.398383832187));
#730 = CARTESIAN_POINT('',(16.781239525136,-2.,5.199269286989));
#731 = CARTESIAN_POINT('',(16.781239525136,-2.,4.800731193861));
#732 = CARTESIAN_POINT('',(16.784000036779,-1.976837408665,
    4.601612584785));
#733 = CARTESIAN_POINT('',(16.789514110798,-1.930571882032,4.404284462)
  );
#734 = CARTESIAN_POINT('',(16.797633170629,-1.860731471687,
    4.210541221324));
#735 = CARTESIAN_POINT('',(16.808055020528,-1.766458399137,
    4.022608440218));
#736 = CARTESIAN_POINT('',(16.820230339852,-1.646652172272,
    3.843468539048));
#737 = CARTESIAN_POINT('',(16.845885927997,-1.358782995305,
    3.516945052065));
#738 = CARTESIAN_POINT('',(16.85963583762,-1.188820485135,3.364508776239
    ));
#739 = CARTESIAN_POINT('',(16.873485837561,-0.990722505881,
    3.229253630016));
#740 = CARTESIAN_POINT('',(16.885895830989,-0.767320374461,
    3.119185258732));
#741 = CARTESIAN_POINT('',(16.895147525778,-0.523377263837,
    3.041002285269));
#742 = CARTESIAN_POINT('',(16.9,-0.265123216769,3.));
#743 = CARTESIAN_POINT('',(16.9,-4.440892098501E-16,3.));
#744 = PCURVE('',#117,#745);
#745 = DEFINITIONAL_REPRESENTATION('',(#746),#773);
#746 = B_SPLINE_CURVE_WITH_KNOTS('',7,(#747,#748,#749,#750,#751,#752,
    #753,#754,#755,#756,#757,#758,#759,#760,#761,#762,#763,#764,#765,
    #766,#767,#768,#769,#770,#771,#772),.UNSPECIFIED.,.F.,.F.,(8,6,6,6,8
    ),(0.,0.245743509264,0.500052006619,0.754359890311,1.),
  .UNSPECIFIED.);
#747 = CARTESIAN_POINT('',(-1.570796326795,-2.9));
#748 = CARTESIAN_POINT('',(-1.703418195827,-2.9));
#749 = CARTESIAN_POINT('',(-1.832554238838,-2.89514311529));
#750 = CARTESIAN_POINT('',(-1.958308884362,-2.885889528677));
#751 = CARTESIAN_POINT('',(-2.080499272117,-2.87348376733));
#752 = CARTESIAN_POINT('',(-2.19868980918,-2.859639321546));
#753 = CARTESIAN_POINT('',(-2.31204633651,-2.845890843246));
#754 = CARTESIAN_POINT('',(-2.529734963183,-2.82023071284));
#755 = CARTESIAN_POINT('',(-2.636539567417,-2.808055080773));
#756 = CARTESIAN_POINT('',(-2.740415204188,-2.797632848047));
#757 = CARTESIAN_POINT('',(-2.842121896922,-2.789513919299));
#758 = CARTESIAN_POINT('',(-2.942400889066,-2.784000053066));
#759 = CARTESIAN_POINT('',(-3.041958010096,-2.781239525136));
#760 = CARTESIAN_POINT('',(-3.241227056659,-2.781239525136));
#761 = CARTESIAN_POINT('',(-3.340786199499,-2.784000036779));
#762 = CARTESIAN_POINT('',(-3.441066486709,-2.789514110798));
#763 = CARTESIAN_POINT('',(-3.542772181721,-2.797633170629));
#764 = CARTESIAN_POINT('',(-3.646645011778,-2.808055020528));
#765 = CARTESIAN_POINT('',(-3.753447179741,-2.820230339852));
#766 = CARTESIAN_POINT('',(-3.971097271976,-2.845885927997));
#767 = CARTESIAN_POINT('',(-4.084468540945,-2.85963583762));
#768 = CARTESIAN_POINT('',(-4.202695759317,-2.873485837561));
#769 = CARTESIAN_POINT('',(-4.324923723444,-2.885895830989));
#770 = CARTESIAN_POINT('',(-4.450700456909,-2.895147525778));
#771 = CARTESIAN_POINT('',(-4.579827372,-2.9));
#772 = CARTESIAN_POINT('',(-4.712388980385,-2.9));
#773 = ( GEOMETRIC_REPRESENTATION_CONTEXT(2) 
PARAMETRIC_REPRESENTATION_CONTEXT() REPRESENTATION_CONTEXT('2D SPACE',''
  ) );
#774 = PCURVE('',#605,#775);
#775 = DEFINITIONAL_REPRESENTATION('',(#776),#803);
#776 = B_SPLINE_CURVE_WITH_KNOTS('',7,(#777,#778,#779,#780,#781,#782,
    #783,#784,#785,#786,#787,#788,#789,#790,#791,#792,#793,#794,#795,
    #796,#797,#798,#799,#800,#801,#802),.UNSPECIFIED.,.F.,.F.,(8,6,6,6,8
    ),(0.,0.245743509264,0.500052006619,0.754359890311,1.),
  .UNSPECIFIED.);
#777 = CARTESIAN_POINT('',(-6.28318530718,-7.));
#778 = CARTESIAN_POINT('',(-6.267490411436,-7.));
#779 = CARTESIAN_POINT('',(-6.252208020913,-6.958960422602));
#780 = CARTESIAN_POINT('',(-6.237770462413,-6.880761618664));
#781 = CARTESIAN_POINT('',(-6.224538486249,-6.770719034291));
#782 = CARTESIAN_POINT('',(-6.212792624044,-6.635517899287));
#783 = CARTESIAN_POINT('',(-6.202703390697,-6.483117505238));
#784 = CARTESIAN_POINT('',(-6.185599170105,-6.156536208038));
#785 = CARTESIAN_POINT('',(-6.178473813649,-5.977393733759));
#786 = CARTESIAN_POINT('',(-6.1728615876,-5.789455115771));
#787 = CARTESIAN_POINT('',(-6.168701273815,-5.595709413708));
#788 = CARTESIAN_POINT('',(-6.165944395847,-5.398383832187));
#789 = CARTESIAN_POINT('',(-6.164564121397,-5.199269286989));
#790 = CARTESIAN_POINT('',(-6.164564121397,-4.800731193861));
#791 = CARTESIAN_POINT('',(-6.165944387978,-4.601612584785));
#792 = CARTESIAN_POINT('',(-6.168701369499,-4.404284462));
#793 = CARTESIAN_POINT('',(-6.172861746479,-4.210541221324));
#794 = CARTESIAN_POINT('',(-6.178473829354,-4.022608440218));
#795 = CARTESIAN_POINT('',(-6.185598921484,-3.843468539048));
#796 = CARTESIAN_POINT('',(-6.202700114349,-3.516945052065));
#797 = CARTESIAN_POINT('',(-6.212789581555,-3.364508776239));
#798 = CARTESIAN_POINT('',(-6.224538830498,-3.229253630016));
#799 = CARTESIAN_POINT('',(-6.237775462519,-3.119185258732));
#800 = CARTESIAN_POINT('',(-6.252216230985,-3.04100228527));
#801 = CARTESIAN_POINT('',(-6.267497542874,-3.));
#802 = CARTESIAN_POINT('',(-6.28318530718,-3.));
#803 = ( GEOMETRIC_REPRESENTATION_CONTEXT(2) 
PARAMETRIC_REPRESENTATION_CONTEXT() REPRESENTATION_CONTEXT('2D SPACE',''
  ) );
#804 = ADVANCED_FACE('',(#805,#808),#252,.T.);
#805 = FACE_BOUND('',#806,.T.);
#806 = EDGE_LOOP('',(#807));
#807 = ORIENTED_EDGE('',*,*,#237,.T.);
#808 = FACE_BOUND('',#809,.T.);
#809 = EDGE_LOOP('',(#810));
#810 = ORIENTED_EDGE('',*,*,#811,.F.);
#811 = EDGE_CURVE('',#812,#812,#814,.T.);
#812 = VERTEX_POINT('',#813);
#813 = CARTESIAN_POINT('',(16.9,0.,12.));
#814 = SURFACE_CURVE('',#815,(#820,#827),.PCURVE_S1.);
#815 = CIRCLE('',#816,16.9);
#816 = AXIS2_PLACEMENT_3D('',#817,#818,#819);
#817 = CARTESIAN_POINT('',(0.,0.,12.));
#818 = DIRECTION('',(0.,0.,1.));
#819 = DIRECTION('',(1.,0.,0.));
#820 = PCURVE('',#252,#821);
#821 = DEFINITIONAL_REPRESENTATION('',(#822),#826);
#822 = CIRCLE('',#823,16.9);
#823 = AXIS2_PLACEMENT_2D('',#824,#825);
#824 = CARTESIAN_POINT('',(1.110611275159E-15,-3.064265437188E-16));
#825 = DIRECTION('',(1.,0.));
#826 = ( GEOMETRIC_REPRESENTATION_CONTEXT(2) 
PARAMETRIC_REPRESENTATION_CONTEXT() REPRESENTATION_CONTEXT('2D SPACE',''
  ) );
#827 = PCURVE('',#605,#828);
#828 = DEFINITIONAL_REPRESENTATION('',(#829),#833);
#829 = LINE('',#830,#831);
#830 = CARTESIAN_POINT('',(-0.,-12.));
#831 = VECTOR('',#832,1.);
#832 = DIRECTION('',(-1.,0.));
#833 = ( GEOMETRIC_REPRESENTATION_CONTEXT(2) 
PARAMETRIC_REPRESENTATION_CONTEXT() REPRESENTATION_CONTEXT('2D SPACE',''
  ) );
#834 = ADVANCED_FACE('',(#835,#838),#66,.F.);
#835 = FACE_BOUND('',#836,.F.);
#836 = EDGE_LOOP('',(#837));
#837 = ORIENTED_EDGE('',*,*,#51,.T.);
#838 = FACE_BOUND('',#839,.F.);
#839 = EDGE_LOOP('',(#840));
#840 = ORIENTED_EDGE('',*,*,#841,.F.);
#841 = EDGE_CURVE('',#842,#842,#844,.T.);
#842 = VERTEX_POINT('',#843);
#843 = CARTESIAN_POINT('',(16.9,0.,0.));
#844 = SURFACE_CURVE('',#845,(#850,#857),.PCURVE_S1.);
#845 = CIRCLE('',#846,16.9);
#846 = AXIS2_PLACEMENT_3D('',#847,#848,#849);
#847 = CARTESIAN_POINT('',(0.,0.,0.));
#848 = DIRECTION('',(0.,0.,1.));
#849 = DIRECTION('',(1.,0.,0.));
#850 = PCURVE('',#66,#851);
#851 = DEFINITIONAL_REPRESENTATION('',(#852),#856);
#852 = CIRCLE('',#853,16.9);
#853 = AXIS2_PLACEMENT_2D('',#854,#855);
#854 = CARTESIAN_POINT('',(1.110611275159E-15,-3.064265437188E-16));
#855 = DIRECTION('',(1.,0.));
#856 = ( GEOMETRIC_REPRESENTATION_CONTEXT(2) 
PARAMETRIC_REPRESENTATION_CONTEXT() REPRESENTATION_CONTEXT('2D SPACE',''
  ) );
#857 = PCURVE('',#605,#858);
#858 = DEFINITIONAL_REPRESENTATION('',(#859),#863);
#859 = LINE('',#860,#861);
#860 = CARTESIAN_POINT('',(-0.,0.));
#861 = VECTOR('',#862,1.);
#862 = DIRECTION('',(-1.,0.));
#863 = ( GEOMETRIC_REPRESENTATION_CONTEXT(2) 
PARAMETRIC_REPRESENTATION_CONTEXT() REPRESENTATION_CONTEXT('2D SPACE',''
  ) );
#864 = ADVANCED_FACE('',(#865),#483,.F.);
#865 = FACE_BOUND('',#866,.T.);
#866 = EDGE_LOOP('',(#867,#868,#891,#1077));
#867 = ORIENTED_EDGE('',*,*,#357,.F.);
#868 = ORIENTED_EDGE('',*,*,#869,.T.);
#869 = EDGE_CURVE('',#358,#870,#872,.T.);
#870 = VERTEX_POINT('',#871);
#871 = CARTESIAN_POINT('',(-16.78123952513,2.,5.));
#872 = SEAM_CURVE('',#873,(#877,#884),.PCURVE_S1.);
#873 = LINE('',#874,#875);
#874 = CARTESIAN_POINT('',(-20.,2.,5.));
#875 = VECTOR('',#876,1.);
#876 = DIRECTION('',(1.,0.,0.));
#877 = PCURVE('',#483,#878);
#878 = DEFINITIONAL_REPRESENTATION('',(#879),#883);
#879 = LINE('',#880,#881);
#880 = CARTESIAN_POINT('',(-6.28318530718,0.));
#881 = VECTOR('',#882,1.);
#882 = DIRECTION('',(-0.,-1.));
#883 = ( GEOMETRIC_REPRESENTATION_CONTEXT(2) 
PARAMETRIC_REPRESENTATION_CONTEXT() REPRESENTATION_CONTEXT('2D SPACE',''
  ) );
#884 = PCURVE('',#483,#885);
#885 = DEFINITIONAL_REPRESENTATION('',(#886),#890);
#886 = LINE('',#887,#888);
#887 = CARTESIAN_POINT('',(-0.,0.));
#888 = VECTOR('',#889,1.);
#889 = DIRECTION('',(-0.,-1.));
#890 = ( GEOMETRIC_REPRESENTATION_CONTEXT(2) 
PARAMETRIC_REPRESENTATION_CONTEXT() REPRESENTATION_CONTEXT('2D SPACE',''
  ) );
#891 = ORIENTED_EDGE('',*,*,#892,.T.);
#892 = EDGE_CURVE('',#870,#870,#893,.T.);
#893 = SURFACE_CURVE('',#894,(#953,#1015),.PCURVE_S1.);
#894 = B_SPLINE_CURVE_WITH_KNOTS('',8,(#895,#896,#897,#898,#899,#900,
    #901,#902,#903,#904,#905,#906,#907,#908,#909,#910,#911,#912,#913,
    #914,#915,#916,#917,#918,#919,#920,#921,#922,#923,#924,#925,#926,
    #927,#928,#929,#930,#931,#932,#933,#934,#935,#936,#937,#938,#939,
    #940,#941,#942,#943,#944,#945,#946,#947,#948,#949,#950,#951,#952),
  .UNSPECIFIED.,.T.,.F.,(9,7,7,7,7,7,7,7,9),(0.,0.126332640576,
    0.2260472076,0.333089323616,0.500200567395,0.627508454134,
    0.750477206827,0.863097974266,1.),.UNSPECIFIED.);
#895 = CARTESIAN_POINT('',(-16.78123952513,2.,5.));
#896 = CARTESIAN_POINT('',(-16.78123952513,2.,5.174360210577));
#897 = CARTESIAN_POINT('',(-16.78330990895,1.98262805537,5.348607753508)
  );
#898 = CARTESIAN_POINT('',(-16.7874463327,1.947921458416,5.521717493094)
  );
#899 = CARTESIAN_POINT('',(-16.793573641,1.895651673713,5.692587166226)
  );
#900 = CARTESIAN_POINT('',(-16.80154136468,1.825379065613,5.859933570483
    ));
#901 = CARTESIAN_POINT('',(-16.81109884964,1.736506850324,6.022176527644
    ));
#902 = CARTESIAN_POINT('',(-16.82186161446,1.628348414122,6.177292999227
    ));
#903 = CARTESIAN_POINT('',(-16.84229350633,1.39909185366,6.437333522928)
  );
#904 = CARTESIAN_POINT('',(-16.85179517187,1.284623824442,6.54696511974)
  );
#905 = CARTESIAN_POINT('',(-16.86146173795,1.156849252012,6.649164018923
    ));
#906 = CARTESIAN_POINT('',(-16.87087847373,1.016164130785,6.741626761989
    ));
#907 = CARTESIAN_POINT('',(-16.87956856078,0.863299492127,6.822111983601
    ));
#908 = CARTESIAN_POINT('',(-16.88703323534,0.699310174411,6.888443116402
    ));
#909 = CARTESIAN_POINT('',(-16.89280322193,0.5255821202,6.938502751167)
  );
#910 = CARTESIAN_POINT('',(-16.90047146092,0.148780254883,7.004265204092
    ));
#911 = CARTESIAN_POINT('',(-16.9019703187,-5.141595131218E-02,
    7.016458198313));
#912 = CARTESIAN_POINT('',(-16.90067814428,-0.252440781391,
    7.005531257242));
#913 = CARTESIAN_POINT('',(-16.89657191361,-0.449801690215,6.97161267904
    ));
#914 = CARTESIAN_POINT('',(-16.89000780738,-0.639148568752,
    6.916157317384));
#915 = CARTESIAN_POINT('',(-16.88163926387,-0.816590376416,
    6.841900820295));
#916 = CARTESIAN_POINT('',(-16.87224852654,-0.978980309698,
    6.752829755367));
#917 = CARTESIAN_POINT('',(-16.84745878793,-1.350827891294,
    6.500122399868));
#918 = CARTESIAN_POINT('',(-16.83123305138,-1.54175184762,6.31848247802)
  );
#919 = CARTESIAN_POINT('',(-16.81576739796,-1.697585832575,
    6.118103139072));
#920 = CARTESIAN_POINT('',(-16.80240188902,-1.81990020123,5.905057103621
    ));
#921 = CARTESIAN_POINT('',(-16.7919306646,-1.910290951316,5.683779436078
    ));
#922 = CARTESIAN_POINT('',(-16.78480712705,-1.970066359553,
    5.457550768863));
#923 = CARTESIAN_POINT('',(-16.78123952513,-2.,5.228874671723));
#924 = CARTESIAN_POINT('',(-16.78123952513,-2.,4.825639794629));
#925 = CARTESIAN_POINT('',(-16.78330990886,-1.982628056498,
    4.651392237053));
#926 = CARTESIAN_POINT('',(-16.78744633304,-1.94792145452,4.478282508045
    ));
#927 = CARTESIAN_POINT('',(-16.79357364071,-1.895651676859,
    4.307412841662));
#928 = CARTESIAN_POINT('',(-16.80154136434,-1.82537906948,4.140066428409
    ));
#929 = CARTESIAN_POINT('',(-16.81109885035,-1.736506842421,
    3.977823464926));
#930 = CARTESIAN_POINT('',(-16.8218616141,-1.628348418146,3.822707005336
    ));
#931 = CARTESIAN_POINT('',(-16.84431025373,-1.37646288832,3.53699895425)
  );
#932 = CARTESIAN_POINT('',(-16.85619836021,-1.231311112688,
    3.402617845197));
#933 = CARTESIAN_POINT('',(-16.86829208758,-1.065009248088,
    3.279974309835));
#934 = CARTESIAN_POINT('',(-16.87969083427,-0.879021440145,
    3.174219444362));
#935 = CARTESIAN_POINT('',(-16.88936521653,-0.675841707961,
    3.089866643685));
#936 = CARTESIAN_POINT('',(-16.89636064433,-0.458813752081,3.03075171396
    ));
#937 = CARTESIAN_POINT('',(-16.9,-0.231982814702,3.));
#938 = CARTESIAN_POINT('',(-16.9,0.212461150105,3.));
#939 = CARTESIAN_POINT('',(-16.89694738892,0.421100426926,3.025793971747
    ));
#940 = CARTESIAN_POINT('',(-16.89103467789,0.622128812609,3.075758861882
    ));
#941 = CARTESIAN_POINT('',(-16.88275005453,0.81214079264,3.147596277145)
  );
#942 = CARTESIAN_POINT('',(-16.87280997847,0.988228468593,3.238363541271
    ));
#943 = CARTESIAN_POINT('',(-16.86202090164,1.148115659809,3.344503680698
    ));
#944 = CARTESIAN_POINT('',(-16.8511299559,1.290302815954,3.461875691208)
  );
#945 = CARTESIAN_POINT('',(-16.82807549656,1.564839708694,3.736412583948
    ));
#946 = CARTESIAN_POINT('',(-16.81586093105,1.691828235913,3.900069762508
    ));
#947 = CARTESIAN_POINT('',(-16.80486101551,1.795977968827,4.07304503609)
  );
#948 = CARTESIAN_POINT('',(-16.79561951262,1.878174060423,4.252582054862
    ));
#949 = CARTESIAN_POINT('',(-16.78848350158,1.939219591097,4.436582274094
    ));
#950 = CARTESIAN_POINT('',(-16.78365632866,1.979721165278,4.623387977946
    ));
#951 = CARTESIAN_POINT('',(-16.78123952513,2.,4.811614621098));
#952 = CARTESIAN_POINT('',(-16.78123952513,2.,5.));
#953 = PCURVE('',#483,#954);
#954 = DEFINITIONAL_REPRESENTATION('',(#955),#1014);
#955 = B_SPLINE_CURVE_WITH_KNOTS('',8,(#956,#957,#958,#959,#960,#961,
    #962,#963,#964,#965,#966,#967,#968,#969,#970,#971,#972,#973,#974,
    #975,#976,#977,#978,#979,#980,#981,#982,#983,#984,#985,#986,#987,
    #988,#989,#990,#991,#992,#993,#994,#995,#996,#997,#998,#999,#1000,
    #1001,#1002,#1003,#1004,#1005,#1006,#1007,#1008,#1009,#1010,#1011,
    #1012,#1013),.UNSPECIFIED.,.F.,.F.,(9,7,7,7,7,7,7,7,9),(0.,
    0.126332640576,0.2260472076,0.333089323616,0.500200567395,
    0.627508454134,0.750477206827,0.863097974266,1.),.UNSPECIFIED.);
#956 = CARTESIAN_POINT('',(0.,-3.218760474864));
#957 = CARTESIAN_POINT('',(-8.718010528851E-02,-3.218760474864));
#958 = CARTESIAN_POINT('',(-0.174303755761,-3.216690091046));
#959 = CARTESIAN_POINT('',(-0.261868725214,-3.212553667296));
#960 = CARTESIAN_POINT('',(-0.350326685097,-3.206426358991));
#961 = CARTESIAN_POINT('',(-0.440131839588,-3.198458635318));
#962 = CARTESIAN_POINT('',(-0.531752895017,-3.188901150355));
#963 = CARTESIAN_POINT('',(-0.625693502215,-3.178138385534));
#964 = CARTESIAN_POINT('',(-0.799028181724,-3.15770649367));
#965 = CARTESIAN_POINT('',(-0.877995952915,-3.148204828124));
#966 = CARTESIAN_POINT('',(-0.959256088961,-3.138538262041));
#967 = CARTESIAN_POINT('',(-1.042684543311,-3.129121526268));
#968 = CARTESIAN_POINT('',(-1.128228563666,-3.120431439215));
#969 = CARTESIAN_POINT('',(-1.215899029841,-3.112966764657));
#970 = CARTESIAN_POINT('',(-1.305773323661,-3.10719677807));
#971 = CARTESIAN_POINT('',(-1.497022079162,-3.099528539074));
#972 = CARTESIAN_POINT('',(-1.596677601421,-3.098029681298));
#973 = CARTESIAN_POINT('',(-1.696234013282,-3.099321855712));
#974 = CARTESIAN_POINT('',(-1.795046021891,-3.103428086381));
#975 = CARTESIAN_POINT('',(-1.892463116906,-3.109992192619));
#976 = CARTESIAN_POINT('',(-1.98774078021,-3.118360736126));
#977 = CARTESIAN_POINT('',(-2.079928494503,-3.127751473456));
#978 = CARTESIAN_POINT('',(-2.304723752161,-3.152541212065));
#979 = CARTESIAN_POINT('',(-2.434727223806,-3.168766948617));
#980 = CARTESIAN_POINT('',(-2.559403992475,-3.184232602031));
#981 = CARTESIAN_POINT('',(-2.679942375765,-3.197598110975));
#982 = CARTESIAN_POINT('',(-2.797420780183,-3.208069335398));
#983 = CARTESIAN_POINT('',(-2.912816946275,-3.215192872947));
#984 = CARTESIAN_POINT('',(-3.027155317728,-3.218760474864));
#985 = CARTESIAN_POINT('',(-3.228772756275,-3.218760474864));
#986 = CARTESIAN_POINT('',(-3.315896413789,-3.216690091131));
#987 = CARTESIAN_POINT('',(-3.403461379005,-3.212553666959));
#988 = CARTESIAN_POINT('',(-3.491919334215,-3.206426359286));
#989 = CARTESIAN_POINT('',(-3.581724492992,-3.198458635659));
#990 = CARTESIAN_POINT('',(-3.673345553769,-3.188901149641));
#991 = CARTESIAN_POINT('',(-3.767286152763,-3.178138385892));
#992 = CARTESIAN_POINT('',(-3.957729983452,-3.155689746268));
#993 = CARTESIAN_POINT('',(-4.056125723698,-3.143801639786));
#994 = CARTESIAN_POINT('',(-4.158360552437,-3.131707912415));
#995 = CARTESIAN_POINT('',(-4.263809741394,-3.120309165723));
#996 = CARTESIAN_POINT('',(-4.3720899985,-3.110634783465));
#997 = CARTESIAN_POINT('',(-4.482982185676,-3.103639355668));
#998 = CARTESIAN_POINT('',(-4.596397573034,-3.1));
#999 = CARTESIAN_POINT('',(-4.818619555437,-3.1));
#1000 = CARTESIAN_POINT('',(-4.922939102119,-3.103052611075));
#1001 = CARTESIAN_POINT('',(-5.025280371191,-3.108965322106));
#1002 = CARTESIAN_POINT('',(-5.125490223712,-3.117249945462));
#1003 = CARTESIAN_POINT('',(-5.223321478912,-3.12719002153));
#1004 = CARTESIAN_POINT('',(-5.318400911561,-3.137979098355));
#1005 = CARTESIAN_POINT('',(-5.410169014728,-3.148870044096));
#1006 = CARTESIAN_POINT('',(-5.60429591327,-3.171924503436));
#1007 = CARTESIAN_POINT('',(-5.707054865953,-3.184139068942));
#1008 = CARTESIAN_POINT('',(-5.806873537028,-3.195138984483));
#1009 = CARTESIAN_POINT('',(-5.904391779356,-3.204380487373));
#1010 = CARTESIAN_POINT('',(-6.00020239487,-3.211516498419));
#1011 = CARTESIAN_POINT('',(-6.094879542205,-3.216343671339));
#1012 = CARTESIAN_POINT('',(-6.188992617728,-3.218760474864));
#1013 = CARTESIAN_POINT('',(-6.28318530718,-3.218760474864));
#1014 = ( GEOMETRIC_REPRESENTATION_CONTEXT(2) 
PARAMETRIC_REPRESENTATION_CONTEXT() REPRESENTATION_CONTEXT('2D SPACE',''
  ) );
#1015 = PCURVE('',#605,#1016);
#1016 = DEFINITIONAL_REPRESENTATION('',(#1017),#1076);
#1017 = B_SPLINE_CURVE_WITH_KNOTS('',8,(#1018,#1019,#1020,#1021,#1022,
    #1023,#1024,#1025,#1026,#1027,#1028,#1029,#1030,#1031,#1032,#1033,
    #1034,#1035,#1036,#1037,#1038,#1039,#1040,#1041,#1042,#1043,#1044,
    #1045,#1046,#1047,#1048,#1049,#1050,#1051,#1052,#1053,#1054,#1055,
    #1056,#1057,#1058,#1059,#1060,#1061,#1062,#1063,#1064,#1065,#1066,
    #1067,#1068,#1069,#1070,#1071,#1072,#1073,#1074,#1075),
  .UNSPECIFIED.,.T.,.F.,(9,7,7,7,7,7,7,7,9),(0.,0.126332640576,
    0.2260472076,0.333089323616,0.500200567395,0.627508454134,
    0.750477206827,0.863097974266,1.),.UNSPECIFIED.);
#1018 = CARTESIAN_POINT('',(-3.022971467807,-5.));
#1019 = CARTESIAN_POINT('',(-3.022971467807,-5.174360210577));
#1020 = CARTESIAN_POINT('',(-3.02400666781,-5.348607753508));
#1021 = CARTESIAN_POINT('',(-3.026074847608,-5.521717493094));
#1022 = CARTESIAN_POINT('',(-3.029188904586,-5.692587166226));
#1023 = CARTESIAN_POINT('',(-3.033373624197,-5.859933570482));
#1024 = CARTESIAN_POINT('',(-3.038662448327,-6.022176527644));
#1025 = CARTESIAN_POINT('',(-3.045093623274,-6.177292999227));
#1026 = CARTESIAN_POINT('',(-3.058712867604,-6.437333522928));
#1027 = CARTESIAN_POINT('',(-3.065509286228,-6.54696511974));
#1028 = CARTESIAN_POINT('',(-3.073091186593,-6.649164018923));
#1029 = CARTESIAN_POINT('',(-3.081433694031,-6.741626761989));
#1030 = CARTESIAN_POINT('',(-3.090492509242,-6.822111983601));
#1031 = CARTESIAN_POINT('',(-3.100204910918,-6.888443116402));
#1032 = CARTESIAN_POINT('',(-3.110489489255,-6.938502751167));
#1033 = CARTESIAN_POINT('',(-3.132790074157,-7.004265204092));
#1034 = CARTESIAN_POINT('',(-3.14463536059,-7.016458198313));
#1035 = CARTESIAN_POINT('',(-3.156528627364,-7.005531257242));
#1036 = CARTESIAN_POINT('',(-3.168207008252,-6.97161267904));
#1037 = CARTESIAN_POINT('',(-3.179415823611,-6.916157317384));
#1038 = CARTESIAN_POINT('',(-3.189926019255,-6.841900820295));
#1039 = CARTESIAN_POINT('',(-3.199550565623,-6.752829755367));
#1040 = CARTESIAN_POINT('',(-3.221602221646,-6.500122399868));
#1041 = CARTESIAN_POINT('',(-3.232938339058,-6.31848247802));
#1042 = CARTESIAN_POINT('',(-3.242203445336,-6.118103139072));
#1043 = CARTESIAN_POINT('',(-3.249483759759,-5.905057103621));
#1044 = CARTESIAN_POINT('',(-3.254868042201,-5.683779436078));
#1045 = CARTESIAN_POINT('',(-3.258430083843,-5.457550768864));
#1046 = CARTESIAN_POINT('',(-3.260213839372,-5.228874671723));
#1047 = CARTESIAN_POINT('',(-3.260213839372,-4.825639794629));
#1048 = CARTESIAN_POINT('',(-3.259178639436,-4.651392237053));
#1049 = CARTESIAN_POINT('',(-3.25711045934,-4.478282508045));
#1050 = CARTESIAN_POINT('',(-3.25399640278,-4.307412841662));
#1051 = CARTESIAN_POINT('',(-3.249811683212,-4.140066428409));
#1052 = CARTESIAN_POINT('',(-3.244522858383,-3.977823464926));
#1053 = CARTESIAN_POINT('',(-3.238091684145,-3.822707005336));
#1054 = CARTESIAN_POINT('',(-3.223128140389,-3.53699895425));
#1055 = CARTESIAN_POINT('',(-3.214510746016,-3.402617845198));
#1056 = CARTESIAN_POINT('',(-3.204645098624,-3.279974309834));
#1057 = CARTESIAN_POINT('',(-3.19362081426,-3.174219444362));
#1058 = CARTESIAN_POINT('',(-3.181587210075,-3.089866643685));
#1059 = CARTESIAN_POINT('',(-3.168741401813,-3.03075171396));
#1060 = CARTESIAN_POINT('',(-3.155319447359,-3.));
#1061 = CARTESIAN_POINT('',(-3.129020987903,-3.));
#1062 = CARTESIAN_POINT('',(-3.116675464809,-3.025793971747));
#1063 = CARTESIAN_POINT('',(-3.104777282468,-3.075758861882));
#1064 = CARTESIAN_POINT('',(-3.093525314211,-3.147596277145));
#1065 = CARTESIAN_POINT('',(-3.083090704842,-3.238363541271));
#1066 = CARTESIAN_POINT('',(-3.073609064073,-3.344503680698));
#1067 = CARTESIAN_POINT('',(-3.065171208669,-3.461875691208));
#1068 = CARTESIAN_POINT('',(-3.048869244133,-3.736412583948));
#1069 = CARTESIAN_POINT('',(-3.04132100418,-3.900069762508));
#1070 = CARTESIAN_POINT('',(-3.035124356284,-4.07304503609));
#1071 = CARTESIAN_POINT('',(-3.030230141208,-4.252582054862));
#1072 = CARTESIAN_POINT('',(-3.026593395598,-4.436582274094));
#1073 = CARTESIAN_POINT('',(-3.024179890238,-4.623387977946));
#1074 = CARTESIAN_POINT('',(-3.022971467807,-4.811614621098));
#1075 = CARTESIAN_POINT('',(-3.022971467807,-5.));
#1076 = ( GEOMETRIC_REPRESENTATION_CONTEXT(2) 
PARAMETRIC_REPRESENTATION_CONTEXT() REPRESENTATION_CONTEXT('2D SPACE',''
  ) );
#1077 = ORIENTED_EDGE('',*,*,#869,.F.);
#1078 = ADVANCED_FACE('',(#1079,#1130),#605,.F.);
#1079 = FACE_BOUND('',#1080,.T.);
#1080 = EDGE_LOOP('',(#1081,#1102,#1103,#1104,#1105,#1106,#1127,#1128,
    #1129));
#1081 = ORIENTED_EDGE('',*,*,#1082,.F.);
#1082 = EDGE_CURVE('',#842,#660,#1083,.T.);
#1083 = SEAM_CURVE('',#1084,(#1088,#1095),.PCURVE_S1.);
#1084 = LINE('',#1085,#1086);
#1085 = CARTESIAN_POINT('',(16.9,0.,0.));
#1086 = VECTOR('',#1087,1.);
#1087 = DIRECTION('',(0.,0.,1.));
#1088 = PCURVE('',#605,#1089);
#1089 = DEFINITIONAL_REPRESENTATION('',(#1090),#1094);
#1090 = LINE('',#1091,#1092);
#1091 = CARTESIAN_POINT('',(-6.28318530718,0.));
#1092 = VECTOR('',#1093,1.);
#1093 = DIRECTION('',(-0.,-1.));
#1094 = ( GEOMETRIC_REPRESENTATION_CONTEXT(2) 
PARAMETRIC_REPRESENTATION_CONTEXT() REPRESENTATION_CONTEXT('2D SPACE',''
  ) );
#1095 = PCURVE('',#605,#1096);
#1096 = DEFINITIONAL_REPRESENTATION('',(#1097),#1101);
#1097 = LINE('',#1098,#1099);
#1098 = CARTESIAN_POINT('',(-0.,0.));
#1099 = VECTOR('',#1100,1.);
#1100 = DIRECTION('',(-0.,-1.));
#1101 = ( GEOMETRIC_REPRESENTATION_CONTEXT(2) 
PARAMETRIC_REPRESENTATION_CONTEXT() REPRESENTATION_CONTEXT('2D SPACE',''
  ) );
#1102 = ORIENTED_EDGE('',*,*,#841,.F.);
#1103 = ORIENTED_EDGE('',*,*,#1082,.T.);
#1104 = ORIENTED_EDGE('',*,*,#659,.T.);
#1105 = ORIENTED_EDGE('',*,*,#553,.T.);
#1106 = ORIENTED_EDGE('',*,*,#1107,.T.);
#1107 = EDGE_CURVE('',#556,#812,#1108,.T.);
#1108 = SEAM_CURVE('',#1109,(#1113,#1120),.PCURVE_S1.);
#1109 = LINE('',#1110,#1111);
#1110 = CARTESIAN_POINT('',(16.9,0.,0.));
#1111 = VECTOR('',#1112,1.);
#1112 = DIRECTION('',(0.,0.,1.));
#1113 = PCURVE('',#605,#1114);
#1114 = DEFINITIONAL_REPRESENTATION('',(#1115),#1119);
#1115 = LINE('',#1116,#1117);
#1116 = CARTESIAN_POINT('',(-6.28318530718,0.));
#1117 = VECTOR('',#1118,1.);
#1118 = DIRECTION('',(-0.,-1.));
#1119 = ( GEOMETRIC_REPRESENTATION_CONTEXT(2) 
PARAMETRIC_REPRESENTATION_CONTEXT() REPRESENTATION_CONTEXT('2D SPACE',''
  ) );
#1120 = PCURVE('',#605,#1121);
#1121 = DEFINITIONAL_REPRESENTATION('',(#1122),#1126);
#1122 = LINE('',#1123,#1124);
#1123 = CARTESIAN_POINT('',(-0.,0.));
#1124 = VECTOR('',#1125,1.);
#1125 = DIRECTION('',(-0.,-1.));
#1126 = ( GEOMETRIC_REPRESENTATION_CONTEXT(2) 
PARAMETRIC_REPRESENTATION_CONTEXT() REPRESENTATION_CONTEXT('2D SPACE',''
  ) );
#1127 = ORIENTED_EDGE('',*,*,#811,.T.);
#1128 = ORIENTED_EDGE('',*,*,#1107,.F.);
#1129 = ORIENTED_EDGE('',*,*,#715,.T.);
#1130 = FACE_BOUND('',#1131,.T.);
#1131 = EDGE_LOOP('',(#1132));
#1132 = ORIENTED_EDGE('',*,*,#892,.F.);
#1133 = ( GEOMETRIC_REPRESENTATION_CONTEXT(3) 
GLOBAL_UNCERTAINTY_ASSIGNED_CONTEXT((#1137)) 
GLOBAL_UNIT_ASSIGNED_CONTEXT((#1134,#1135,#1136)) REPRESENTATION_CONTEXT
('Context #1','3D Context with UNIT and UNCERTAINTY') );
#1134 = ( LENGTH_UNIT() NAMED_UNIT(*) SI_UNIT(.MILLI.,.METRE.) );
#1135 = ( NAMED_UNIT(*) PLANE_ANGLE_UNIT() SI_UNIT($,.RADIAN.) );
#1136 = ( NAMED_UNIT(*) SI_UNIT($,.STERADIAN.) SOLID_ANGLE_UNIT() );
#1137 = UNCERTAINTY_MEASURE_WITH_UNIT(LENGTH_MEASURE(2.E-07),#1134,
  'distance_accuracy_value','confusion accuracy');
#1138 = PRODUCT_RELATED_PRODUCT_CATEGORY('part',$,(#7));
ENDSEC;
END-ISO-10303-21;
