  0
SECTION
  2
HEADER
  9
$ACADVER
  1
AC1024
  9
$ACADMAINTVER
 70
6
  9
$DWGCODEPAGE
  3
ANSI_1252
  9
$LASTSAVEDBY
  1
ezdxf
  9
$INSBASE
 10
0.0
 20
0.0
 30
0.0
  9
$EXTMIN
 10
1e+20
 20
1e+20
 30
1e+20
  9
$EXTMAX
 10
-1e+20
 20
-1e+20
 30
-1e+20
  9
$LIMMIN
 10
0.0
 20
0.0
  9
$LIMMAX
 10
420.0
 20
297.0
  9
$ORTHOMODE
 70
0
  9
$REGENMODE
 70
1
  9
$FILLMODE
 70
1
  9
$QTEXTMODE
 70
0
  9
$MIRRTEXT
 70
1
  9
$LTSCALE
 40
1.0
  9
$ATTMODE
 70
1
  9
$TEXTSIZE
 40
2.5
  9
$TRACEWID
 40
1.0
  9
$TEXTSTYLE
  7
Standard
  9
$CLAYER
  8
0
  9
$CELTYPE
  6
ByLayer
  9
$CECOLOR
 62
256
  9
$CELTSCALE
 40
1.0
  9
$DISPSILH
 70
0
  9
$DIMSCALE
 40
1.0
  9
$DIMASZ
 40
2.5
  9
$DIMEXO
 40
0.625
  9
$DIMDLI
 40
3.75
  9
$DIMRND
 40
0.0
  9
$DIMDLE
 40
0.0
  9
$DIMEXE
 40
1.25
  9
$DIMTP
 40
0.0
  9
$DIMTM
 40
0.0
  9
$DIMTXT
 40
2.5
  9
$DIMCEN
 40
2.5
  9
$DIMTSZ
 40
0.0
  9
$DIMTOL
 70
0
  9
$DIMLIM
 70
0
  9
$DIMTIH
 70
0
  9
$DIMTOH
 70
0
  9
$DIMSE1
 70
0
  9
$DIMSE2
 70
0
  9
$DIMTAD
 70
1
  9
$DIMZIN
 70
8
  9
$DIMBLK
  1

  9
$DIMASO
 70
1
  9
$DIMSHO
 70
1
  9
$DIMPOST
  1

  9
$DIMAPOST
  1

  9
$DIMALT
 70
0
  9
$DIMALTD
 70
3
  9
$DIMALTF
 40
0.03937007874
  9
$DIMLFAC
 40
1.0
  9
$DIMTOFL
 70
1
  9
$DIMTVP
 40
0.0
  9
$DIMTIX
 70
0
  9
$DIMSOXD
 70
0
  9
$DIMSAH
 70
0
  9
$DIMBLK1
  1

  9
$DIMBLK2
  1

  9
$DIMSTYLE
  2
ISO-25
  9
$DIMCLRD
 70
0
  9
$DIMCLRE
 70
0
  9
$DIMCLRT
 70
0
  9
$DIMTFAC
 40
1.0
  9
$DIMGAP
 40
0.625
  9
$DIMJUST
 70
0
  9
$DIMSD1
 70
0
  9
$DIMSD2
 70
0
  9
$DIMTOLJ
 70
0
  9
$DIMTZIN
 70
8
  9
$DIMALTZ
 70
0
  9
$DIMALTTZ
 70
0
  9
$DIMUPT
 70
0
  9
$DIMDEC
 70
2
  9
$DIMTDEC
 70
2
  9
$DIMALTU
 70
2
  9
$DIMALTTD
 70
3
  9
$DIMTXSTY
  7
Standard
  9
$DIMAUNIT
 70
0
  9
$DIMADEC
 70
0
  9
$DIMALTRND
 40
0.0
  9
$DIMAZIN
 70
0
  9
$DIMDSEP
 70
44
  9
$DIMATFIT
 70
3
  9
$DIMFRAC
 70
0
  9
$DIMLDRBLK
  1

  9
$DIMLUNIT
 70
2
  9
$DIMLWD
 70
-2
  9
$DIMLWE
 70
-2
  9
$DIMTMOVE
 70
0
  9
$DIMFXL
 40
1.0
  9
$DIMFXLON
 70
0
  9
$DIMJOGANG
 40
0.785398163397
  9
$DIMTFILL
 70
0
  9
$DIMTFILLCLR
 70
0
  9
$DIMARCSYM
 70
0
  9
$DIMLTYPE
  6

  9
$DIMLTEX1
  6

  9
$DIMLTEX2
  6

  9
$DIMTXTDIRECTION
 70
0
  9
$LUNITS
 70
2
  9
$LUPREC
 70
4
  9
$SKETCHINC
 40
1.0
  9
$FILLETRAD
 40
10.0
  9
$AUNITS
 70
0
  9
$AUPREC
 70
2
  9
$MENU
  1
.
  9
$ELEVATION
 40
0.0
  9
$PELEVATION
 40
0.0
  9
$THICKNESS
 40
0.0
  9
$LIMCHECK
 70
0
  9
$CHAMFERA
 40
0.0
  9
$CHAMFERB
 40
0.0
  9
$CHAMFERC
 40
0.0
  9
$CHAMFERD
 40
0.0
  9
$SKPOLY
 70
0
  9
$TDCREATE
 40
2461310.7073958335
  9
$TDUCREATE
 40
2458532.153996898
  9
$TDUPDATE
 40
2461310.7074074075
  9
$TDUUPDATE
 40
2458532.1544311
  9
$TDINDWG
 40
0.0
  9
$TDUSRTIMER
 40
0.0
  9
$USRTIMER
 70
1
  9
$ANGBASE
 50
0.0
  9
$ANGDIR
 70
0
  9
$PDMODE
 70
0
  9
$PDSIZE
 40
0.0
  9
$PLINEWID
 40
0.0
  9
$SPLFRAME
 70
0
  9
$SPLINETYPE
 70
6
  9
$SPLINESEGS
 70
8
  9
$HANDSEED
  5
170
  9
$SURFTAB1
 70
6
  9
$SURFTAB2
 70
6
  9
$SURFTYPE
 70
6
  9
$SURFU
 70
6
  9
$SURFV
 70
6
  9
$UCSBASE
  2

  9
$UCSNAME
  2

  9
$UCSORG
 10
0.0
 20
0.0
 30
0.0
  9
$UCSXDIR
 10
1.0
 20
0.0
 30
0.0
  9
$UCSYDIR
 10
0.0
 20
1.0
 30
0.0
  9
$UCSORTHOREF
  2

  9
$UCSORTHOVIEW
 70
0
  9
$UCSORGTOP
 10
0.0
 20
0.0
 30
0.0
  9
$UCSORGBOTTOM
 10
0.0
 20
0.0
 30
0.0
  9
$UCSORGLEFT
 10
0.0
 20
0.0
 30
0.0
  9
$UCSORGRIGHT
 10
0.0
 20
0.0
 30
0.0
  9
$UCSORGFRONT
 10
0.0
 20
0.0
 30
0.0
  9
$UCSORGBACK
 10
0.0
 20
0.0
 30
0.0
  9
$PUCSBASE
  2

  9
$PUCSNAME
  2

  9
$PUCSORG
 10
0.0
 20
0.0
 30
0.0
  9
$PUCSXDIR
 10
1.0
 20
0.0
 30
0.0
  9
$PUCSYDIR
 10
0.0
 20
1.0
 30
0.0
  9
$PUCSORTHOREF
  2

  9
$PUCSORTHOVIEW
 70
0
  9
$PUCSORGTOP
 10
0.0
 20
0.0
 30
0.0
  9
$PUCSORGBOTTOM
 10
0.0
 20
0.0
 30
0.0
  9
$PUCSORGLEFT
 10
0.0
 20
0.0
 30
0.0
  9
$PUCSORGRIGHT
 10
0.0
 20
0.0
 30
0.0
  9
$PUCSORGFRONT
 10
0.0
 20
0.0
 30
0.0
  9
$PUCSORGBACK
 10
0.0
 20
0.0
 30
0.0
  9
$USERI1
 70
0
  9
$USERI2
 70
0
  9
$USERI3
 70
0
  9
$USERI4
 70
0
  9
$USERI5
 70
0
  9
$USERR1
 40
0.0
  9
$USERR2
 40
0.0
  9
$USERR3
 40
0.0
  9
$USERR4
 40
0.0
  9
$USERR5
 40
0.0
  9
$WORLDVIEW
 70
1
  9
$SHADEDGE
 70
3
  9
$SHADEDIF
 70
70
  9
$TILEMODE
 70
1
  9
$MAXACTVP
 70
64
  9
$PINSBASE
 10
0.0
 20
0.0
 30
0.0
  9
$PLIMCHECK
 70
0
  9
$PEXTMIN
 10
1e+20
 20
1e+20
 30
1e+20
  9
$PEXTMAX
 10
-1e+20
 20
-1e+20
 30
-1e+20
  9
$PLIMMIN
 10
0.0
 20
0.0
  9
$PLIMMAX
 10
420.0
 20
297.0
  9
$UNITMODE
 70
0
  9
$VISRETAIN
 70
1
  9
$PLINEGEN
 70
0
  9
$PSLTSCALE
 70
1
  9
$TREEDEPTH
 70
3020
  9
$CMLSTYLE
  2
Standard
  9
$CMLJUST
 70
0
  9
$CMLSCALE
 40
20.0
  9
$PROXYGRAPHICS
 70
1
  9
$MEASUREMENT
 70
1
  9
$CELWEIGHT
370
-1
  9
$ENDCAPS
280
0
  9
$JOINSTYLE
280
0
  9
$LWDISPLAY
290
0
  9
$INSUNITS
 70
4
  9
$HYPERLINKBASE
  1

  9
$STYLESHEET
  1

  9
$XEDIT
290
1
  9
$CEPSNTYPE
380
0
  9
$PSTYLEMODE
290
1
  9
$FINGERPRINTGUID
  2
{3D51D1C2-02BD-4E34-AD0E-9520547E6FE4}
  9
$VERSIONGUID
  2
{8630D187-9F71-4C01-9020-256BCEA0F7A6}
  9
$EXTNAMES
290
1
  9
$PSVPSCALE
 40
0.0
  9
$OLESTARTUP
290
0
  9
$SORTENTS
280
127
  9
$INDEXCTL
280
0
  9
$HIDETEXT
280
1
  9
$XCLIPFRAME
280
1
  9
$HALOGAP
280
0
  9
$OBSCOLOR
 70
257
  9
$OBSLTYPE
280
0
  9
$INTERSECTIONDISPLAY
280
0
  9
$INTERSECTIONCOLOR
 70
257
  9
$DIMASSOC
280
2
  9
$PROJECTNAME
  1

  9
$CAMERADISPLAY
290
0
  9
$LENSLENGTH
 40
50.0
  9
$CAMERAHEIGHT
 40
0.0
  9
$STEPSPERSEC
 40
24.0
  9
$STEPSIZE
 40
100.0
  9
$3DDWFPREC
 40
2.0
  9
$PSOLWIDTH
 40
0.005
  9
$PSOLHEIGHT
 40
0.08
  9
$LOFTANG1
 40
1.570796326795
  9
$LOFTANG2
 40
1.570796326795
  9
$LOFTMAG1
 40
0.0
  9
$LOFTMAG2
 40
0.0
  9
$LOFTPARAM
 70
7
  9
$LOFTNORMALS
280
1
  9
$LATITUDE
 40
37.795
  9
$LONGITUDE
 40
-122.394
  9
$NORTHDIRECTION
 40
0.0
  9
$TIMEZONE
 70
-8000
  9
$LIGHTGLYPHDISPLAY
280
1
  9
$TILEMODELIGHTSYNCH
280
1
  9
$CMATERIAL
347
20
  9
$SOLIDHIST
280
0
  9
$SHOWHIST
280
1
  9
$DWFFRAME
280
2
  9
$DGNFRAME
280
2
  9
$REALWORLDSCALE
290
1
  9
$INTERFERECOLOR
 62
256
  9
$CSHADOW
280
0
  9
$SHADOWPLANELOCATION
 40
0.0
  0
ENDSEC
  0
SECTION
  2
CLASSES
  0
CLASS
  1
ACDBDICTIONARYWDFLT
  2
AcDbDictionaryWithDefault
  3
ObjectDBX Classes
 90
0
 91
0
280
0
281
0
  0
CLASS
  1
SUN
  2
AcDbSun
  3
SCENEOE
 90
1153
 91
0
280
0
281
0
  0
CLASS
  1
VISUALSTYLE
  2
AcDbVisualStyle
  3
ObjectDBX Classes
 90
4095
 91
0
280
0
281
0
  0
CLASS
  1
MATERIAL
  2
AcDbMaterial
  3
ObjectDBX Classes
 90
1153
 91
0
280
0
281
0
  0
CLASS
  1
SCALE
  2
AcDbScale
  3
ObjectDBX Classes
 90
1153
 91
0
280
0
281
0
  0
CLASS
  1
TABLESTYLE
  2
AcDbTableStyle
  3
ObjectDBX Classes
 90
4095
 91
0
280
0
281
0
  0
CLASS
  1
MLEADERSTYLE
  2
AcDbMLeaderStyle
  3
ACDB_MLEADERSTYLE_CLASS
 90
4095
 91
0
280
0
281
0
  0
CLASS
  1
DICTIONARYVAR
  2
AcDbDictionaryVar
  3
ObjectDBX Classes
 90
0
 91
0
280
0
281
0
  0
CLASS
  1
CELLSTYLEMAP
  2
AcDbCellStyleMap
  3
ObjectDBX Classes
 90
1152
 91
0
280
0
281
0
  0
CLASS
  1
MENTALRAYRENDERSETTINGS
  2
AcDbMentalRayRenderSettings
  3
SCENEOE
 90
1024
 91
0
280
0
281
0
  0
CLASS
  1
ACDBDETAILVIEWSTYLE
  2
AcDbDetailViewStyle
  3
ObjectDBX Classes
 90
1025
 91
0
280
0
281
0
  0
CLASS
  1
ACDBSECTIONVIEWSTYLE
  2
AcDbSectionViewStyle
  3
ObjectDBX Classes
 90
1025
 91
0
280
0
281
0
  0
CLASS
  1
RASTERVARIABLES
  2
AcDbRasterVariables
  3
ISM
 90
0
 91
0
280
0
281
0
  0
CLASS
  1
ACDBPLACEHOLDER
  2
AcDbPlaceHolder
  3
ObjectDBX Classes
 90
0
 91
0
280
0
281
0
  0
CLASS
  1
LAYOUT
  2
AcDbLayout
  3
ObjectDBX Classes
 90
0
 91
0
280
0
281
0
  0
ENDSEC
  0
SECTION
  2
TABLES
  0
TABLE
  2
VPORT
  5
8
330
0
100
AcDbSymbolTable
 70
1
  0
VPORT
  5
23
330
8
100
AcDbSymbolTableRecord
100
AcDbViewportTableRecord
  2
*Active
 70
0
 10
0.0
 20
0.0
 11
1.0
 21
1.0
 12
0.0
 22
0.0
 13
0.0
 23
0.0
 14
0.5
 24
0.5
 15
0.5
 25
0.5
 16
0.0
 26
0.0
 36
1.0
 17
0.0
 27
0.0
 37
0.0
 40
1000.0
 41
1.34
 42
50.0
 43
0.0
 44
0.0
 50
0.0
 51
0.0
 71
0
 72
1000
 73
1
 74
3
 75
0
 76
0
 77
0
 78
0
281
0
 65
0
146
0.0
  0
ENDTAB
  0
TABLE
  2
LTYPE
  5
2
330
0
100
AcDbSymbolTable
 70
3
  0
LTYPE
  5
24
330
2
100
AcDbSymbolTableRecord
100
AcDbLinetypeTableRecord
  2
ByBlock
 70
0
  3

 72
65
 73
0
 40
0.0
  0
LTYPE
  5
25
330
2
100
AcDbSymbolTableRecord
100
AcDbLinetypeTableRecord
  2
ByLayer
 70
0
  3

 72
65
 73
0
 40
0.0
  0
LTYPE
  5
26
330
2
100
AcDbSymbolTableRecord
100
AcDbLinetypeTableRecord
  2
Continuous
 70
0
  3

 72
65
 73
0
 40
0.0
  0
ENDTAB
  0
TABLE
  2
LAYER
  5
1
330
0
100
AcDbSymbolTable
 70
8
  0
LAYER
  5
27
330
1
100
AcDbSymbolTableRecord
100
AcDbLayerTableRecord
  2
0
 70
0
 62
7
  6
Continuous
370
-3
390
13
347
21
  0
LAYER
  5
28
330
1
100
AcDbSymbolTableRecord
100
AcDbLayerTableRecord
  2
Defpoints
 70
0
 62
7
  6
Continuous
290
0
370
-3
390
13
347
21
  0
LAYER
  5
2F
330
1
100
AcDbSymbolTableRecord
100
AcDbLayerTableRecord
  2
CUT_OUTER
 70
0
 62
7
  6
Continuous
370
-3
390
13
347
21
  0
LAYER
  5
30
330
1
100
AcDbSymbolTableRecord
100
AcDbLayerTableRecord
  2
CUT_HOLES
 70
0
 62
7
  6
Continuous
370
-3
390
13
347
21
  0
LAYER
  5
31
330
1
100
AcDbSymbolTableRecord
100
AcDbLayerTableRecord
  2
CUT_INNER
 70
0
 62
7
  6
Continuous
370
-3
390
13
347
21
  0
LAYER
  5
32
330
1
100
AcDbSymbolTableRecord
100
AcDbLayerTableRecord
  2
PART_MARK_NO_CUT
 70
0
 62
7
  6
Continuous
370
-3
390
13
347
21
  0
LAYER
  5
33
330
1
100
AcDbSymbolTableRecord
100
AcDbLayerTableRecord
  2
STOCK_NO_CUT
 70
0
 62
7
  6
Continuous
370
-3
390
13
347
21
  0
LAYER
  5
3E
330
1
100
AcDbSymbolTableRecord
100
AcDbLayerTableRecord
  2
MACHINING_NOTES
 70
0
 62
7
  6
Continuous
370
-3
390
13
347
21
  0
ENDTAB
  0
TABLE
  2
STYLE
  5
5
330
0
100
AcDbSymbolTable
 70
1
  0
STYLE
  5
29
330
5
100
AcDbSymbolTableRecord
100
AcDbTextStyleTableRecord
  2
Standard
 70
0
 40
0.0
 41
1.0
 50
0.0
 71
0
 42
2.5
  3
txt
  4

  0
ENDTAB
  0
TABLE
  2
VIEW
  5
7
330
0
100
AcDbSymbolTable
 70
0
  0
ENDTAB
  0
TABLE
  2
UCS
  5
6
330
0
100
AcDbSymbolTable
 70
0
  0
ENDTAB
  0
TABLE
  2
APPID
  5
3
330
0
100
AcDbSymbolTable
 70
3
  0
APPID
  5
2A
330
3
100
AcDbSymbolTableRecord
100
AcDbRegAppTableRecord
  2
ACAD
 70
0
  0
APPID
  5
16D
330
3
100
AcDbSymbolTableRecord
100
AcDbRegAppTableRecord
  2
HATCHBACKGROUNDCOLOR
 70
0
  0
APPID
  5
16E
330
3
100
AcDbSymbolTableRecord
100
AcDbRegAppTableRecord
  2
EZDXF
 70
0
  0
ENDTAB
  0
TABLE
  2
DIMSTYLE
  5
4
330
0
100
AcDbSymbolTable
 70
1
100
AcDbDimStyleTable
  0
DIMSTYLE
105
2B
330
4
100
AcDbSymbolTableRecord
100
AcDbDimStyleTableRecord
  2
Standard
 70
0
 40
1.0
 41
2.5
 42
0.625
 43
3.75
 44
1.25
 45
0.0
 46
0.0
 47
0.0
 48
0.0
 49
2.5
140
2.5
141
2.5
142
0.0
143
0.03937007874
144
1.0
145
0.0
146
1.0
147
0.625
148
0.0
 69
0
 70
0
 71
0
 72
0
 73
0
 74
0
 75
0
 76
0
 77
1
 78
8
 79
3
170
0
171
3
172
1
173
0
174
0
175
0
176
0
177
0
178
0
179
2
271
2
272
2
273
2
274
3
275
0
276
0
277
2
278
44
279
0
280
0
281
0
282
0
283
0
284
8
285
0
286
0
288
0
289
3
290
0
371
-2
372
-2
  0
ENDTAB
  0
TABLE
  2
BLOCK_RECORD
  5
9
330
0
100
AcDbSymbolTable
 70
2
  0
BLOCK_RECORD
  5
17
330
9
100
AcDbSymbolTableRecord
100
AcDbBlockTableRecord
  2
*Model_Space
340
1A
 70
0
280
1
281
0
  0
BLOCK_RECORD
  5
1B
330
9
100
AcDbSymbolTableRecord
100
AcDbBlockTableRecord
  2
*Paper_Space
340
1E
 70
0
280
1
281
0
  0
ENDTAB
  0
ENDSEC
  0
SECTION
  2
BLOCKS
  0
BLOCK
  5
18
330
17
100
AcDbEntity
  8
0
100
AcDbBlockBegin
  2
*Model_Space
 70
0
 10
0.0
 20
0.0
 30
0.0
  3
*Model_Space
  1

  0
ENDBLK
  5
19
330
17
100
AcDbEntity
  8
0
100
AcDbBlockEnd
  0
BLOCK
  5
1C
330
1B
100
AcDbEntity
  8
0
100
AcDbBlockBegin
  2
*Paper_Space
 70
0
 10
0.0
 20
0.0
 30
0.0
  3
*Paper_Space
  1

  0
ENDBLK
  5
1D
330
1B
100
AcDbEntity
  8
0
100
AcDbBlockEnd
  0
ENDSEC
  0
SECTION
  2
ENTITIES
  0
LWPOLYLINE
  5
34
330
17
100
AcDbEntity
  8
STOCK_NO_CUT
100
AcDbPolyline
 90
4
 70
1
 10
0.0
 20
0.0
 10
1219.2
 20
0.0
 10
1219.2
 20
2438.4
 10
0.0
 20
2438.4
  0
LWPOLYLINE
  5
35
330
17
100
AcDbEntity
  8
CUT_OUTER
100
AcDbPolyline
 90
4
 70
1
 10
10.0
 20
10.0
 10
60.8
 20
10.0
 10
60.8
 20
1460.0
 10
10.0
 20
1460.0
  0
TEXT
  5
36
330
17
100
AcDbEntity
  8
PART_MARK_NO_CUT
100
AcDbText
 10
12.0
 20
12.0
 30
0.0
 40
3.0
  1
CAP_SPACER #1
100
AcDbText
  0
LWPOLYLINE
  5
37
330
17
100
AcDbEntity
  8
CUT_OUTER
100
AcDbPolyline
 90
4
 70
1
 10
66.8
 20
10.0
 10
117.6
 20
10.0
 10
117.6
 20
1460.0
 10
66.8
 20
1460.0
  0
TEXT
  5
38
330
17
100
AcDbEntity
  8
PART_MARK_NO_CUT
100
AcDbText
 10
68.8
 20
12.0
 30
0.0
 40
3.0
  1
CAP_SPACER #2
100
AcDbText
  0
LWPOLYLINE
  5
39
330
17
100
AcDbEntity
  8
CUT_OUTER
100
AcDbPolyline
 90
80
 70
1
 10
10.0
 20
1477.2000000000003
 10
1130.0
 20
1466.0
 10
1130.0
 20
1522.40184760381
 10
1113.3239999999998
 20
1522.40184760381
 10
1113.3239999999998
 20
1502.40184760381
 10
1109.724
 20
1502.40184760381
 10
1109.724
 20
1522.40184760381
 10
1053.3239999999998
 20
1522.40184760381
 10
1053.3239999999998
 20
1502.40184760381
 10
1049.724
 20
1502.40184760381
 10
1049.724
 20
1522.40184760381
 10
993.3239999999998
 20
1522.40184760381
 10
993.3239999999998
 20
1502.40184760381
 10
989.7239999999999
 20
1502.40184760381
 10
989.7239999999999
 20
1522.40184760381
 10
933.324
 20
1522.40184760381
 10
933.324
 20
1502.40184760381
 10
929.724
 20
1502.40184760381
 10
929.724
 20
1522.40184760381
 10
873.324
 20
1522.40184760381
 10
873.324
 20
1502.40184760381
 10
869.724
 20
1502.40184760381
 10
869.724
 20
1522.40184760381
 10
813.324
 20
1522.40184760381
 10
813.324
 20
1502.40184760381
 10
809.724
 20
1502.40184760381
 10
809.724
 20
1522.40184760381
 10
753.324
 20
1522.40184760381
 10
753.324
 20
1502.40184760381
 10
749.724
 20
1502.40184760381
 10
749.724
 20
1522.40184760381
 10
693.324
 20
1522.40184760381
 10
693.324
 20
1502.40184760381
 10
689.724
 20
1502.40184760381
 10
689.724
 20
1522.40184760381
 10
633.324
 20
1522.40184760381
 10
633.324
 20
1502.40184760381
 10
629.724
 20
1502.40184760381
 10
629.724
 20
1522.40184760381
 10
573.324
 20
1522.40184760381
 10
573.324
 20
1502.40184760381
 10
569.724
 20
1502.40184760381
 10
569.724
 20
1522.40184760381
 10
513.3240000000001
 20
1522.40184760381
 10
513.3240000000001
 20
1502.40184760381
 10
509.724
 20
1502.40184760381
 10
509.724
 20
1522.40184760381
 10
453.324
 20
1522.40184760381
 10
453.324
 20
1502.40184760381
 10
449.724
 20
1502.40184760381
 10
449.724
 20
1522.40184760381
 10
393.324
 20
1522.40184760381
 10
393.324
 20
1502.40184760381
 10
389.724
 20
1502.40184760381
 10
389.724
 20
1522.40184760381
 10
333.324
 20
1522.40184760381
 10
333.324
 20
1502.40184760381
 10
329.724
 20
1502.40184760381
 10
329.724
 20
1522.40184760381
 10
273.324
 20
1522.40184760381
 10
273.324
 20
1502.40184760381
 10
269.724
 20
1502.40184760381
 10
269.724
 20
1522.40184760381
 10
213.324
 20
1522.40184760381
 10
213.324
 20
1502.40184760381
 10
209.724
 20
1502.40184760381
 10
209.724
 20
1522.40184760381
 10
153.324
 20
1522.40184760381
 10
153.324
 20
1502.40184760381
 10
149.724
 20
1502.40184760381
 10
149.724
 20
1522.40184760381
 10
93.324
 20
1522.40184760381
 10
93.324
 20
1502.40184760381
 10
89.724
 20
1502.40184760381
 10
89.724
 20
1522.40184760381
 10
33.324
 20
1522.40184760381
 10
33.324
 20
1502.40184760381
 10
29.724
 20
1502.40184760381
 10
29.724
 20
1522.40184760381
 10
10.0
 20
1522.40184760381
  0
TEXT
  5
3A
330
17
100
AcDbEntity
  8
PART_MARK_NO_CUT
100
AcDbText
 10
12.0
 20
1468.0
 30
0.0
 40
3.0
  1
WP_COMB #1
100
AcDbText
  0
LWPOLYLINE
  5
3B
330
17
100
AcDbEntity
  8
CUT_OUTER
100
AcDbPolyline
 90
80
 70
1
 10
1181.2018476038097
 20
10.000000000000002
 10
1192.40184760381
 20
1130.0
 10
1136.0
 20
1130.0
 10
1136.0
 20
1113.3239999999998
 10
1156.0
 20
1113.3239999999998
 10
1156.0
 20
1109.724
 10
1136.0
 20
1109.724
 10
1136.0
 20
1053.3239999999998
 10
1156.0
 20
1053.3239999999998
 10
1156.0
 20
1049.724
 10
1136.0
 20
1049.724
 10
1136.0
 20
993.3239999999998
 10
1156.0
 20
993.3239999999998
 10
1156.0
 20
989.7239999999999
 10
1136.0
 20
989.7239999999999
 10
1136.0
 20
933.324
 10
1156.0
 20
933.324
 10
1156.0
 20
929.724
 10
1136.0
 20
929.724
 10
1136.0
 20
873.324
 10
1156.0
 20
873.324
 10
1156.0
 20
869.724
 10
1136.0
 20
869.724
 10
1136.0
 20
813.324
 10
1156.0
 20
813.324
 10
1156.0
 20
809.724
 10
1136.0
 20
809.724
 10
1136.0
 20
753.324
 10
1156.0
 20
753.324
 10
1156.0
 20
749.724
 10
1136.0
 20
749.724
 10
1136.0
 20
693.324
 10
1156.0
 20
693.324
 10
1156.0
 20
689.724
 10
1136.0
 20
689.724
 10
1136.0
 20
633.324
 10
1156.0
 20
633.324
 10
1156.0
 20
629.724
 10
1136.0
 20
629.724
 10
1136.0
 20
573.324
 10
1156.0
 20
573.324
 10
1156.0
 20
569.724
 10
1136.0
 20
569.724
 10
1136.0
 20
513.3240000000001
 10
1156.0
 20
513.3240000000001
 10
1156.0
 20
509.724
 10
1136.0
 20
509.724
 10
1136.0
 20
453.324
 10
1156.0
 20
453.324
 10
1156.0
 20
449.724
 10
1136.0
 20
449.724
 10
1136.0
 20
393.324
 10
1156.0
 20
393.324
 10
1156.0
 20
389.724
 10
1136.0
 20
389.724
 10
1136.0
 20
333.324
 10
1156.0
 20
333.324
 10
1156.0
 20
329.724
 10
1136.0
 20
329.724
 10
1136.0
 20
273.324
 10
1156.0
 20
273.324
 10
1156.0
 20
269.724
 10
1136.0
 20
269.724
 10
1136.0
 20
213.324
 10
1156.0
 20
213.324
 10
1156.0
 20
209.724
 10
1136.0
 20
209.724
 10
1136.0
 20
153.324
 10
1156.0
 20
153.324
 10
1156.0
 20
149.724
 10
1136.0
 20
149.724
 10
1136.0
 20
93.324
 10
1156.0
 20
93.324
 10
1156.0
 20
89.724
 10
1136.0
 20
89.724
 10
1136.0
 20
33.324000000000005
 10
1156.0
 20
33.324000000000005
 10
1156.0
 20
29.724000000000004
 10
1136.0
 20
29.724000000000004
 10
1136.0
 20
10.000000000000004
  0
TEXT
  5
3C
330
17
100
AcDbEntity
  8
PART_MARK_NO_CUT
100
AcDbText
 10
1138.0
 20
12.0
 30
0.0
 40
3.0
  1
WP_COMB #2
100
AcDbText
  0
LWPOLYLINE
  5
3D
330
17
100
AcDbEntity
  8
CUT_OUTER
100
AcDbPolyline
 90
12
 70
1
 10
534.6
 20
1136.0
 10
534.6
 20
1283.0
 10
123.60000000000002
 20
1283.0
 10
123.60000000000002
 20
1136.0
 10
251.60000000000002
 20
1136.0
 10
251.60000000000002
 20
1146.0
 10
133.60000000000002
 20
1146.0
 10
133.60000000000002
 20
1273.0
 10
524.6
 20
1273.0
 10
524.6
 20
1146.0
 10
299.6
 20
1146.0
 10
299.6
 20
1136.0
  0
MTEXT
  5
3F
330
17
100
AcDbEntity
  8
MACHINING_NOTES
100
AcDbMText
 10
123.60000000000002
 20
1303.0
 30
0.0
 40
3.0
 41
150.0
 71
1
  1
Single full-depth opening in left border clears the hinge/index hardware. Two hinge-carrier bridges butt against right inner border at X137 local. No non-through hinge pockets.
 11
6.123233995736766e-17
 21
1.0
 31
0.0
  0
TEXT
  5
40
330
17
100
AcDbEntity
  8
PART_MARK_NO_CUT
100
AcDbText
 10
125.6
 20
1138.0
 30
0.0
 40
3.0
  1
H_SPOIL_GUARD_TOP #1
100
AcDbText
  0
LWPOLYLINE
  5
41
330
17
100
AcDbEntity
  8
CUT_OUTER
100
AcDbPolyline
 90
4
 70
1
 10
123.6
 20
10.0
 10
1089.696
 20
10.0
 10
1089.696
 20
40.0
 10
123.6
 20
40.0
  0
CIRCLE
  5
42
330
17
100
AcDbEntity
  8
CUT_HOLES
100
AcDbCircle
 10
151.648
 20
25.0
 30
0.0
 40
3.3
  0
CIRCLE
  5
43
330
17
100
AcDbEntity
  8
CUT_HOLES
100
AcDbCircle
 10
381.648
 20
25.0
 30
0.0
 40
3.3
  0
CIRCLE
  5
44
330
17
100
AcDbEntity
  8
CUT_HOLES
100
AcDbCircle
 10
606.648
 20
25.0
 30
0.0
 40
3.3
  0
CIRCLE
  5
45
330
17
100
AcDbEntity
  8
CUT_HOLES
100
AcDbCircle
 10
831.648
 20
25.0
 30
0.0
 40
3.3
  0
CIRCLE
  5
46
330
17
100
AcDbEntity
  8
CUT_HOLES
100
AcDbCircle
 10
1061.648
 20
25.0
 30
0.0
 40
3.3
  0
TEXT
  5
47
330
17
100
AcDbEntity
  8
PART_MARK_NO_CUT
100
AcDbText
 10
125.6
 20
12.0
 30
0.0
 40
3.0
  1
WT_RIM_FRONT #1
100
AcDbText
  0
LWPOLYLINE
  5
48
330
17
100
AcDbEntity
  8
CUT_OUTER
100
AcDbPolyline
 90
4
 70
1
 10
1125.696
 20
10.0
 10
1125.696
 20
976.096
 10
1095.696
 20
976.096
 10
1095.696
 20
10.000000000000002
  0
CIRCLE
  5
49
330
17
100
AcDbEntity
  8
CUT_HOLES
100
AcDbCircle
 10
1110.696
 20
38.048
 30
0.0
 40
3.3
  0
CIRCLE
  5
4A
330
17
100
AcDbEntity
  8
CUT_HOLES
100
AcDbCircle
 10
1110.696
 20
268.048
 30
0.0
 40
3.3
  0
CIRCLE
  5
4B
330
17
100
AcDbEntity
  8
CUT_HOLES
100
AcDbCircle
 10
1110.696
 20
493.048
 30
0.0
 40
3.3
  0
CIRCLE
  5
4C
330
17
100
AcDbEntity
  8
CUT_HOLES
100
AcDbCircle
 10
1110.696
 20
718.048
 30
0.0
 40
3.3
  0
CIRCLE
  5
4D
330
17
100
AcDbEntity
  8
CUT_HOLES
100
AcDbCircle
 10
1110.696
 20
948.048
 30
0.0
 40
3.3
  0
TEXT
  5
4E
330
17
100
AcDbEntity
  8
PART_MARK_NO_CUT
100
AcDbText
 10
1097.696
 20
12.0
 30
0.0
 40
3.0
  1
WT_RIM_REAR #1
100
AcDbText
  0
LWPOLYLINE
  5
4F
330
17
100
AcDbEntity
  8
CUT_OUTER
100
AcDbPolyline
 90
4
 70
1
 10
310.6
 20
982.096
 10
310.6
 20
1127.096
 10
123.60000000000002
 20
1127.096
 10
123.60000000000002
 20
982.096
  0
CIRCLE
  5
50
330
17
100
AcDbEntity
  8
CUT_HOLES
100
AcDbCircle
 10
287.90000000000003
 20
994.796
 30
0.0
 40
3.3
  0
CIRCLE
  5
51
330
17
100
AcDbEntity
  8
CUT_HOLES
100
AcDbCircle
 10
147.90000000000003
 20
994.796
 30
0.0
 40
3.3
  0
TEXT
  5
52
330
17
100
AcDbEntity
  8
PART_MARK_NO_CUT
100
AcDbText
 10
125.6
 20
984.096
 30
0.0
 40
3.0
  1
I_STRAINER_TRAY #1
100
AcDbText
  0
LWPOLYLINE
  5
53
330
17
100
AcDbEntity
  8
CUT_OUTER
100
AcDbPolyline
 90
4
 70
1
 10
488.6
 20
982.096
 10
488.6
 20
1096.296
 10
316.6
 20
1096.296
 10
316.6
 20
982.096
  0
CIRCLE
  5
54
330
17
100
AcDbEntity
  8
CUT_HOLES
100
AcDbCircle
 10
463.20000000000005
 20
1024.096
 30
0.0
 40
3.3
  0
CIRCLE
  5
55
330
17
100
AcDbEntity
  8
CUT_HOLES
100
AcDbCircle
 10
373.20000000000005
 20
1024.096
 30
0.0
 40
3.3
  0
CIRCLE
  5
56
330
17
100
AcDbEntity
  8
CUT_HOLES
100
AcDbCircle
 10
468.6
 20
1062.096
 30
0.0
 40
3.3
  0
CIRCLE
  5
57
330
17
100
AcDbEntity
  8
CUT_HOLES
100
AcDbCircle
 10
368.6
 20
1062.096
 30
0.0
 40
3.3
  0
TEXT
  5
58
330
17
100
AcDbEntity
  8
PART_MARK_NO_CUT
100
AcDbText
 10
318.6
 20
984.096
 30
0.0
 40
3.0
  1
G_RACK_BEAM_SHELF_2 #1
100
AcDbText
  0
LWPOLYLINE
  5
59
330
17
100
AcDbEntity
  8
CUT_OUTER
100
AcDbPolyline
 90
4
 70
1
 10
1100.696
 20
982.096
 10
1100.696
 20
1012.096
 10
494.5999999999999
 20
1012.096
 10
494.5999999999999
 20
982.096
  0
CIRCLE
  5
5A
330
17
100
AcDbEntity
  8
CUT_HOLES
100
AcDbCircle
 10
912.6479999999999
 20
997.096
 30
0.0
 40
3.3
  0
CIRCLE
  5
5B
330
17
100
AcDbEntity
  8
CUT_HOLES
100
AcDbCircle
 10
747.6479999999999
 20
997.096
 30
0.0
 40
3.3
  0
CIRCLE
  5
5C
330
17
100
AcDbEntity
  8
CUT_HOLES
100
AcDbCircle
 10
582.6479999999999
 20
997.096
 30
0.0
 40
3.3
  0
TEXT
  5
5D
330
17
100
AcDbEntity
  8
PART_MARK_NO_CUT
100
AcDbText
 10
496.6
 20
984.096
 30
0.0
 40
3.0
  1
WT_RIM_LEFT #1
100
AcDbText
  0
LWPOLYLINE
  5
5E
330
17
100
AcDbEntity
  8
CUT_OUTER
100
AcDbPolyline
 90
4
 70
1
 10
1100.696
 20
1018.096
 10
1100.696
 20
1048.096
 10
494.5999999999999
 20
1048.096
 10
494.5999999999999
 20
1018.096
  0
CIRCLE
  5
5F
330
17
100
AcDbEntity
  8
CUT_HOLES
100
AcDbCircle
 10
912.6479999999999
 20
1033.096
 30
0.0
 40
3.3
  0
CIRCLE
  5
60
330
17
100
AcDbEntity
  8
CUT_HOLES
100
AcDbCircle
 10
747.6479999999999
 20
1033.096
 30
0.0
 40
3.3
  0
CIRCLE
  5
61
330
17
100
AcDbEntity
  8
CUT_HOLES
100
AcDbCircle
 10
582.6479999999999
 20
1033.096
 30
0.0
 40
3.3
  0
TEXT
  5
62
330
17
100
AcDbEntity
  8
PART_MARK_NO_CUT
100
AcDbText
 10
496.6
 20
1020.096
 30
0.0
 40
3.0
  1
WT_RIM_RIGHT #1
100
AcDbText
  0
LWPOLYLINE
  5
63
330
17
100
AcDbEntity
  8
CUT_OUTER
100
AcDbPolyline
 90
4
 70
1
 10
139.84
 20
46.0
 10
139.84000000000006
 20
946.0
 10
123.60000000000005
 20
946.0
 10
123.6
 20
46.0
  0
TEXT
  5
64
330
17
100
AcDbEntity
  8
PART_MARK_NO_CUT
100
AcDbText
 10
125.6
 20
48.0
 30
0.0
 40
3.0
  1
WP_CRADLE_WEB_1_1 #1
100
AcDbText
  0
LWPOLYLINE
  5
65
330
17
100
AcDbEntity
  8
CUT_OUTER
100
AcDbPolyline
 90
4
 70
1
 10
123.6
 20
952.0
 10
1023.6
 20
952.0
 10
1023.6
 20
967.792
 10
123.6
 20
967.792
  0
TEXT
  5
66
330
17
100
AcDbEntity
  8
PART_MARK_NO_CUT
100
AcDbText
 10
125.6
 20
954.0
 30
0.0
 40
3.0
  1
WP_CRADLE_WEB_1_2 #1
100
AcDbText
  0
LWPOLYLINE
  5
67
330
17
100
AcDbEntity
  8
CUT_OUTER
100
AcDbPolyline
 90
4
 70
1
 10
295.6
 20
1289.0
 10
295.6
 20
1368.2
 10
123.60000000000002
 20
1368.2
 10
123.60000000000002
 20
1289.0
  0
CIRCLE
  5
68
330
17
100
AcDbEntity
  8
CUT_HOLES
100
AcDbCircle
 10
270.20000000000005
 20
1361.2
 30
0.0
 40
3.3
  0
CIRCLE
  5
69
330
17
100
AcDbEntity
  8
CUT_HOLES
100
AcDbCircle
 10
180.20000000000002
 20
1361.2
 30
0.0
 40
3.3
  0
CIRCLE
  5
6A
330
17
100
AcDbEntity
  8
CUT_HOLES
100
AcDbCircle
 10
275.6
 20
1323.2
 30
0.0
 40
3.3
  0
CIRCLE
  5
6B
330
17
100
AcDbEntity
  8
CUT_HOLES
100
AcDbCircle
 10
175.60000000000002
 20
1323.2
 30
0.0
 40
3.3
  0
TEXT
  5
6C
330
17
100
AcDbEntity
  8
PART_MARK_NO_CUT
100
AcDbText
 10
125.6
 20
1291.0
 30
0.0
 40
3.0
  1
G_RACK_BEAM_SHELF_1 #1
100
AcDbText
  0
LWPOLYLINE
  5
6D
330
17
100
AcDbEntity
  8
CUT_OUTER
100
AcDbPolyline
 90
4
 70
1
 10
157.08
 20
46.0
 10
157.08000000000007
 20
946.0
 10
145.84000000000006
 20
946.0
 10
145.84
 20
46.0
  0
TEXT
  5
6E
330
17
100
AcDbEntity
  8
PART_MARK_NO_CUT
100
AcDbText
 10
147.84
 20
48.0
 30
0.0
 40
3.0
  1
WP_CRADLE_WEB_2_1 #1
100
AcDbText
  0
LWPOLYLINE
  5
6F
330
17
100
AcDbEntity
  8
CUT_OUTER
100
AcDbPolyline
 90
4
 70
1
 10
806.6
 20
1102.296
 10
806.6
 20
1122.296
 10
316.6
 20
1122.296
 10
316.6
 20
1102.296
  0
TEXT
  5
70
330
17
100
AcDbEntity
  8
PART_MARK_NO_CUT
100
AcDbText
 10
318.6
 20
1104.296
 30
0.0
 40
3.0
  1
I_SUCTION_STANCHION #1
100
AcDbText
  0
LWPOLYLINE
  5
71
330
17
100
AcDbEntity
  8
CUT_OUTER
100
AcDbPolyline
 90
4
 70
1
 10
173.87200000000004
 20
46.0
 10
173.8720000000001
 20
946.0
 10
163.08000000000007
 20
946.0
 10
163.08
 20
46.0
  0
TEXT
  5
72
330
17
100
AcDbEntity
  8
PART_MARK_NO_CUT
100
AcDbText
 10
165.08
 20
48.0
 30
0.0
 40
3.0
  1
WP_CRADLE_WEB_2_2 #1
100
AcDbText
  0
LWPOLYLINE
  5
73
330
17
100
AcDbEntity
  8
CUT_OUTER
100
AcDbPolyline
 90
128
 70
1
 10
391.6
 20
1334.0
 10
391.5457955292328
 20
1336.2080453447338
 10
391.3833127002489
 20
1338.4107713148303
 10
391.11294294841514
 20
1340.6028713504913
 10
390.7353376181454
 20
1342.7790644907257
 10
390.2514063937545
 20
1344.934108095647
 10
389.66231510794944
 20
1347.0628104764507
 10
388.96948293323595
 20
1349.16004340265
 10
388.17457896300795
 20
1351.220754456429
 10
387.279518190555
 20
1353.2399792043627
 10
386.286456895676
 20
1355.21285315717
 10
385.19778745001224
 20
1357.134623488695
 10
384.01613255361457
 20
1359.000660485882
 10
382.74433891662903
 20
1360.8064687021595
 10
381.3854704013232
 20
1362.547697787364
 10
379.9428006409732
 20
1364.2201529681158
 10
378.4198051533947
 20
1365.8198051533946
 10
376.82015296811585
 20
1367.342800640973
 10
375.14769778736405
 20
1368.7854704013232
 10
373.40646870215954
 20
1370.144338916629
 10
371.60066048588214
 20
1371.4161325536145
 10
369.734623488695
 20
1372.5977874500122
 10
367.8128531571699
 20
1373.686456895676
 10
365.83997920436275
 20
1374.679518190555
 10
363.8207544564291
 20
1375.574578963008
 10
361.7600434026499
 20
1376.369482933236
 10
359.66281047645083
 20
1377.0623151079494
 10
357.5341080956469
 20
1377.6514063937545
 10
355.3790644907258
 20
1378.1353376181453
 10
353.2028713504913
 20
1378.5129429484152
 10
351.01077131483027
 20
1378.7833127002489
 10
348.80804534473384
 20
1378.9457955292328
 10
346.6
 20
1379.0
 10
344.3919546552662
 20
1378.9457955292328
 10
342.1892286851698
 20
1378.7833127002489
 10
339.99712864950874
 20
1378.5129429484152
 10
337.82093550927425
 20
1378.1353376181453
 10
335.66589190435315
 20
1377.6514063937545
 10
333.5371895235492
 20
1377.0623151079494
 10
331.43995659735015
 20
1376.369482933236
 10
329.37924554357096
 20
1375.574578963008
 10
327.36002079563735
 20
1374.679518190555
 10
325.38714684283013
 20
1373.686456895676
 10
323.46537651130507
 20
1372.5977874500122
 10
321.59933951411796
 20
1371.4161325536145
 10
319.7935312978405
 20
1370.144338916629
 10
318.052302212636
 20
1368.7854704013232
 10
316.3798470318842
 20
1367.342800640973
 10
314.7801948466054
 20
1365.8198051533946
 10
313.25719935902686
 20
1364.2201529681158
 10
311.81452959867687
 20
1362.547697787364
 10
310.455661083371
 20
1360.8064687021595
 10
309.1838674463855
 20
1359.000660485882
 10
308.0022125499878
 20
1357.134623488695
 10
306.91354310432405
 20
1355.21285315717
 10
305.92048180944505
 20
1353.2399792043627
 10
305.0254210369921
 20
1351.220754456429
 10
304.2305170667641
 20
1349.16004340265
 10
303.5376848920506
 20
1347.0628104764507
 10
302.94859360624554
 20
1344.934108095647
 10
302.4646623818546
 20
1342.779064490726
 10
302.0870570515849
 20
1340.6028713504913
 10
301.81668729975115
 20
1338.4107713148303
 10
301.65420447076724
 20
1336.2080453447338
 10
301.6
 20
1334.0
 10
301.65420447076724
 20
1331.7919546552662
 10
301.81668729975115
 20
1329.5892286851697
 10
302.0870570515849
 20
1327.3971286495087
 10
302.4646623818546
 20
1325.220935509274
 10
302.94859360624554
 20
1323.065891904353
 10
303.5376848920506
 20
1320.9371895235493
 10
304.2305170667641
 20
1318.83995659735
 10
305.0254210369921
 20
1316.779245543571
 10
305.92048180944505
 20
1314.7600207956373
 10
306.91354310432405
 20
1312.78714684283
 10
308.0022125499878
 20
1310.865376511305
 10
309.1838674463855
 20
1308.999339514118
 10
310.455661083371
 20
1307.1935312978405
 10
311.81452959867687
 20
1305.452302212636
 10
313.25719935902686
 20
1303.7798470318842
 10
314.78019484660535
 20
1302.1801948466054
 10
316.3798470318842
 20
1300.657199359027
 10
318.05230221263594
 20
1299.2145295986768
 10
319.79353129784056
 20
1297.855661083371
 10
321.5993395141179
 20
1296.5838674463855
 10
323.46537651130507
 20
1295.4022125499878
 10
325.38714684283013
 20
1294.313543104324
 10
327.3600207956373
 20
1293.320481809445
 10
329.37924554357096
 20
1292.425421036992
 10
331.43995659735015
 20
1291.630517066764
 10
333.5371895235492
 20
1290.9376848920506
 10
335.66589190435315
 20
1290.3485936062455
 10
337.82093550927425
 20
1289.8646623818547
 10
339.99712864950874
 20
1289.4870570515848
 10
342.1892286851698
 20
1289.2166872997511
 10
344.3919546552662
 20
1289.0542044707672
 10
346.6
 20
1289.0
 10
348.80804534473384
 20
1289.0542044707672
 10
351.0107713148302
 20
1289.2166872997511
 10
353.2028713504913
 20
1289.4870570515848
 10
355.3790644907258
 20
1289.8646623818547
 10
357.5341080956469
 20
1290.3485936062455
 10
359.66281047645083
 20
1290.9376848920506
 10
361.7600434026499
 20
1291.630517066764
 10
363.8207544564291
 20
1292.425421036992
 10
365.83997920436275
 20
1293.320481809445
 10
367.8128531571699
 20
1294.313543104324
 10
369.734623488695
 20
1295.4022125499878
 10
371.6006604858821
 20
1296.5838674463855
 10
373.4064687021595
 20
1297.855661083371
 10
375.14769778736405
 20
1299.2145295986768
 10
376.82015296811585
 20
1300.657199359027
 10
378.41980515339463
 20
1302.1801948466054
 10
379.9428006409732
 20
1303.7798470318842
 10
381.3854704013232
 20
1305.452302212636
 10
382.74433891662903
 20
1307.1935312978405
 10
384.01613255361457
 20
1308.999339514118
 10
385.19778745001224
 20
1310.865376511305
 10
386.286456895676
 20
1312.78714684283
 10
387.27951819055494
 20
1314.7600207956373
 10
388.1745789630079
 20
1316.7792455435708
 10
388.96948293323595
 20
1318.83995659735
 10
389.66231510794944
 20
1320.9371895235493
 10
390.2514063937545
 20
1323.065891904353
 10
390.73533761814537
 20
1325.220935509274
 10
391.11294294841514
 20
1327.3971286495087
 10
391.3833127002489
 20
1329.5892286851697
 10
391.5457955292328
 20
1331.7919546552662
  0
CIRCLE
  5
74
330
17
100
AcDbEntity
  8
CUT_HOLES
100
AcDbCircle
 10
371.34873734152916
 20
1358.7487373415292
 30
0.0
 40
3.3
  0
CIRCLE
  5
75
330
17
100
AcDbEntity
  8
CUT_HOLES
100
AcDbCircle
 10
321.8512626584709
 20
1358.7487373415292
 30
0.0
 40
3.3
  0
CIRCLE
  5
76
330
17
100
AcDbEntity
  8
CUT_HOLES
100
AcDbCircle
 10
321.85126265847083
 20
1309.2512626584708
 30
0.0
 40
3.3
  0
CIRCLE
  5
77
330
17
100
AcDbEntity
  8
CUT_HOLES
100
AcDbCircle
 10
371.34873734152916
 20
1309.2512626584708
 30
0.0
 40
3.3
  0
CIRCLE
  5
78
330
17
100
AcDbEntity
  8
CUT_HOLES
100
AcDbCircle
 10
346.6
 20
1334.0
 30
0.0
 40
24.25
  0
TEXT
  5
79
330
17
100
AcDbEntity
  8
PART_MARK_NO_CUT
100
AcDbText
 10
303.6
 20
1291.0
 30
0.0
 40
3.0
  1
H_WT_WASHOUT_FLANGE #1
100
AcDbText
  0
LWPOLYLINE
  5
7A
330
17
100
AcDbEntity
  8
CUT_OUTER
100
AcDbPolyline
 90
128
 70
1
 10
487.6
 20
1334.0
 10
487.5457955292328
 20
1336.2080453447338
 10
487.3833127002489
 20
1338.4107713148303
 10
487.11294294841514
 20
1340.6028713504913
 10
486.7353376181454
 20
1342.7790644907257
 10
486.2514063937545
 20
1344.934108095647
 10
485.66231510794944
 20
1347.0628104764507
 10
484.96948293323595
 20
1349.16004340265
 10
484.17457896300795
 20
1351.220754456429
 10
483.279518190555
 20
1353.2399792043627
 10
482.286456895676
 20
1355.21285315717
 10
481.19778745001224
 20
1357.134623488695
 10
480.01613255361457
 20
1359.000660485882
 10
478.74433891662903
 20
1360.8064687021595
 10
477.3854704013232
 20
1362.547697787364
 10
475.9428006409732
 20
1364.2201529681158
 10
474.4198051533947
 20
1365.8198051533946
 10
472.82015296811585
 20
1367.342800640973
 10
471.14769778736405
 20
1368.7854704013232
 10
469.40646870215954
 20
1370.144338916629
 10
467.60066048588214
 20
1371.4161325536145
 10
465.734623488695
 20
1372.5977874500122
 10
463.8128531571699
 20
1373.686456895676
 10
461.83997920436275
 20
1374.679518190555
 10
459.8207544564291
 20
1375.574578963008
 10
457.7600434026499
 20
1376.369482933236
 10
455.66281047645083
 20
1377.0623151079494
 10
453.5341080956469
 20
1377.6514063937545
 10
451.3790644907258
 20
1378.1353376181453
 10
449.2028713504913
 20
1378.5129429484152
 10
447.01077131483027
 20
1378.7833127002489
 10
444.80804534473384
 20
1378.9457955292328
 10
442.6
 20
1379.0
 10
440.3919546552662
 20
1378.9457955292328
 10
438.1892286851698
 20
1378.7833127002489
 10
435.99712864950874
 20
1378.5129429484152
 10
433.82093550927425
 20
1378.1353376181453
 10
431.66589190435315
 20
1377.6514063937545
 10
429.5371895235492
 20
1377.0623151079494
 10
427.43995659735015
 20
1376.369482933236
 10
425.37924554357096
 20
1375.574578963008
 10
423.36002079563735
 20
1374.679518190555
 10
421.38714684283013
 20
1373.686456895676
 10
419.46537651130507
 20
1372.5977874500122
 10
417.59933951411796
 20
1371.4161325536145
 10
415.7935312978405
 20
1370.144338916629
 10
414.052302212636
 20
1368.7854704013232
 10
412.3798470318842
 20
1367.342800640973
 10
410.7801948466054
 20
1365.8198051533946
 10
409.25719935902686
 20
1364.2201529681158
 10
407.81452959867687
 20
1362.547697787364
 10
406.455661083371
 20
1360.8064687021595
 10
405.1838674463855
 20
1359.000660485882
 10
404.0022125499878
 20
1357.134623488695
 10
402.91354310432405
 20
1355.21285315717
 10
401.92048180944505
 20
1353.2399792043627
 10
401.0254210369921
 20
1351.220754456429
 10
400.2305170667641
 20
1349.16004340265
 10
399.5376848920506
 20
1347.0628104764507
 10
398.94859360624554
 20
1344.934108095647
 10
398.4646623818546
 20
1342.779064490726
 10
398.0870570515849
 20
1340.6028713504913
 10
397.81668729975115
 20
1338.4107713148303
 10
397.65420447076724
 20
1336.2080453447338
 10
397.6
 20
1334.0
 10
397.65420447076724
 20
1331.7919546552662
 10
397.81668729975115
 20
1329.5892286851697
 10
398.0870570515849
 20
1327.3971286495087
 10
398.4646623818546
 20
1325.220935509274
 10
398.94859360624554
 20
1323.065891904353
 10
399.5376848920506
 20
1320.9371895235493
 10
400.2305170667641
 20
1318.83995659735
 10
401.0254210369921
 20
1316.779245543571
 10
401.92048180944505
 20
1314.7600207956373
 10
402.91354310432405
 20
1312.78714684283
 10
404.0022125499878
 20
1310.865376511305
 10
405.1838674463855
 20
1308.999339514118
 10
406.455661083371
 20
1307.1935312978405
 10
407.81452959867687
 20
1305.452302212636
 10
409.25719935902686
 20
1303.7798470318842
 10
410.78019484660535
 20
1302.1801948466054
 10
412.3798470318842
 20
1300.657199359027
 10
414.05230221263594
 20
1299.2145295986768
 10
415.79353129784056
 20
1297.855661083371
 10
417.5993395141179
 20
1296.5838674463855
 10
419.46537651130507
 20
1295.4022125499878
 10
421.38714684283013
 20
1294.313543104324
 10
423.3600207956373
 20
1293.320481809445
 10
425.37924554357096
 20
1292.425421036992
 10
427.43995659735015
 20
1291.630517066764
 10
429.5371895235492
 20
1290.9376848920506
 10
431.66589190435315
 20
1290.3485936062455
 10
433.82093550927425
 20
1289.8646623818547
 10
435.99712864950874
 20
1289.4870570515848
 10
438.1892286851698
 20
1289.2166872997511
 10
440.3919546552662
 20
1289.0542044707672
 10
442.6
 20
1289.0
 10
444.80804534473384
 20
1289.0542044707672
 10
447.0107713148302
 20
1289.2166872997511
 10
449.2028713504913
 20
1289.4870570515848
 10
451.3790644907258
 20
1289.8646623818547
 10
453.5341080956469
 20
1290.3485936062455
 10
455.66281047645083
 20
1290.9376848920506
 10
457.7600434026499
 20
1291.630517066764
 10
459.8207544564291
 20
1292.425421036992
 10
461.83997920436275
 20
1293.320481809445
 10
463.8128531571699
 20
1294.313543104324
 10
465.734623488695
 20
1295.4022125499878
 10
467.6006604858821
 20
1296.5838674463855
 10
469.4064687021595
 20
1297.855661083371
 10
471.14769778736405
 20
1299.2145295986768
 10
472.82015296811585
 20
1300.657199359027
 10
474.41980515339463
 20
1302.1801948466054
 10
475.9428006409732
 20
1303.7798470318842
 10
477.3854704013232
 20
1305.452302212636
 10
478.74433891662903
 20
1307.1935312978405
 10
480.01613255361457
 20
1308.999339514118
 10
481.19778745001224
 20
1310.865376511305
 10
482.286456895676
 20
1312.78714684283
 10
483.27951819055494
 20
1314.7600207956373
 10
484.1745789630079
 20
1316.7792455435708
 10
484.96948293323595
 20
1318.83995659735
 10
485.66231510794944
 20
1320.9371895235493
 10
486.2514063937545
 20
1323.065891904353
 10
486.73533761814537
 20
1325.220935509274
 10
487.11294294841514
 20
1327.3971286495087
 10
487.3833127002489
 20
1329.5892286851697
 10
487.5457955292328
 20
1331.7919546552662
  0
CIRCLE
  5
7B
330
17
100
AcDbEntity
  8
CUT_HOLES
100
AcDbCircle
 10
467.34873734152916
 20
1358.7487373415292
 30
0.0
 40
3.3
  0
CIRCLE
  5
7C
330
17
100
AcDbEntity
  8
CUT_HOLES
100
AcDbCircle
 10
417.8512626584709
 20
1358.7487373415292
 30
0.0
 40
3.3
  0
CIRCLE
  5
7D
330
17
100
AcDbEntity
  8
CUT_HOLES
100
AcDbCircle
 10
417.85126265847083
 20
1309.2512626584708
 30
0.0
 40
3.3
  0
CIRCLE
  5
7E
330
17
100
AcDbEntity
  8
CUT_HOLES
100
AcDbCircle
 10
467.34873734152916
 20
1309.2512626584708
 30
0.0
 40
3.3
  0
CIRCLE
  5
7F
330
17
100
AcDbEntity
  8
CUT_HOLES
100
AcDbCircle
 10
442.6
 20
1334.0
 30
0.0
 40
16.8
  0
TEXT
  5
80
330
17
100
AcDbEntity
  8
PART_MARK_NO_CUT
100
AcDbText
 10
399.6
 20
1291.0
 30
0.0
 40
3.0
  1
I_DRAIN_FIXED_FLANGE #1
100
AcDbText
  0
LWPOLYLINE
  5
81
330
17
100
AcDbEntity
  8
CUT_OUTER
100
AcDbPolyline
 90
128
 70
1
 10
583.6
 20
1334.0
 10
583.5457955292328
 20
1336.2080453447338
 10
583.3833127002489
 20
1338.4107713148303
 10
583.1129429484151
 20
1340.6028713504913
 10
582.7353376181454
 20
1342.7790644907257
 10
582.2514063937545
 20
1344.934108095647
 10
581.6623151079494
 20
1347.0628104764507
 10
580.969482933236
 20
1349.16004340265
 10
580.1745789630079
 20
1351.220754456429
 10
579.279518190555
 20
1353.2399792043627
 10
578.286456895676
 20
1355.21285315717
 10
577.1977874500122
 20
1357.134623488695
 10
576.0161325536145
 20
1359.000660485882
 10
574.7443389166291
 20
1360.8064687021595
 10
573.3854704013232
 20
1362.547697787364
 10
571.9428006409732
 20
1364.2201529681158
 10
570.4198051533947
 20
1365.8198051533946
 10
568.8201529681158
 20
1367.342800640973
 10
567.1476977873641
 20
1368.7854704013232
 10
565.4064687021595
 20
1370.144338916629
 10
563.6006604858821
 20
1371.4161325536145
 10
561.734623488695
 20
1372.5977874500122
 10
559.8128531571699
 20
1373.686456895676
 10
557.8399792043627
 20
1374.679518190555
 10
555.8207544564291
 20
1375.574578963008
 10
553.7600434026499
 20
1376.369482933236
 10
551.6628104764508
 20
1377.0623151079494
 10
549.534108095647
 20
1377.6514063937545
 10
547.3790644907258
 20
1378.1353376181453
 10
545.2028713504913
 20
1378.5129429484152
 10
543.0107713148302
 20
1378.7833127002489
 10
540.8080453447338
 20
1378.9457955292328
 10
538.6
 20
1379.0
 10
536.3919546552662
 20
1378.9457955292328
 10
534.1892286851698
 20
1378.7833127002489
 10
531.9971286495088
 20
1378.5129429484152
 10
529.8209355092742
 20
1378.1353376181453
 10
527.6658919043532
 20
1377.6514063937545
 10
525.5371895235493
 20
1377.0623151079494
 10
523.4399565973501
 20
1376.369482933236
 10
521.379245543571
 20
1375.574578963008
 10
519.3600207956373
 20
1374.679518190555
 10
517.3871468428301
 20
1373.686456895676
 10
515.4653765113051
 20
1372.5977874500122
 10
513.5993395141179
 20
1371.4161325536145
 10
511.7935312978405
 20
1370.144338916629
 10
510.052302212636
 20
1368.7854704013232
 10
508.3798470318842
 20
1367.342800640973
 10
506.7801948466054
 20
1365.8198051533946
 10
505.25719935902686
 20
1364.2201529681158
 10
503.81452959867687
 20
1362.547697787364
 10
502.455661083371
 20
1360.8064687021595
 10
501.1838674463855
 20
1359.000660485882
 10
500.0022125499878
 20
1357.134623488695
 10
498.91354310432405
 20
1355.21285315717
 10
497.92048180944505
 20
1353.2399792043627
 10
497.0254210369921
 20
1351.220754456429
 10
496.2305170667641
 20
1349.16004340265
 10
495.5376848920506
 20
1347.0628104764507
 10
494.94859360624554
 20
1344.934108095647
 10
494.4646623818546
 20
1342.779064490726
 10
494.0870570515849
 20
1340.6028713504913
 10
493.81668729975115
 20
1338.4107713148303
 10
493.65420447076724
 20
1336.2080453447338
 10
493.6
 20
1334.0
 10
493.65420447076724
 20
1331.7919546552662
 10
493.81668729975115
 20
1329.5892286851697
 10
494.0870570515849
 20
1327.3971286495087
 10
494.4646623818546
 20
1325.220935509274
 10
494.94859360624554
 20
1323.065891904353
 10
495.5376848920506
 20
1320.9371895235493
 10
496.2305170667641
 20
1318.83995659735
 10
497.0254210369921
 20
1316.779245543571
 10
497.92048180944505
 20
1314.7600207956373
 10
498.91354310432405
 20
1312.78714684283
 10
500.0022125499878
 20
1310.865376511305
 10
501.1838674463855
 20
1308.999339514118
 10
502.455661083371
 20
1307.1935312978405
 10
503.81452959867687
 20
1305.452302212636
 10
505.25719935902686
 20
1303.7798470318842
 10
506.78019484660535
 20
1302.1801948466054
 10
508.3798470318842
 20
1300.657199359027
 10
510.05230221263594
 20
1299.2145295986768
 10
511.79353129784056
 20
1297.855661083371
 10
513.5993395141179
 20
1296.5838674463855
 10
515.4653765113051
 20
1295.4022125499878
 10
517.3871468428301
 20
1294.313543104324
 10
519.3600207956373
 20
1293.320481809445
 10
521.379245543571
 20
1292.425421036992
 10
523.4399565973501
 20
1291.630517066764
 10
525.5371895235492
 20
1290.9376848920506
 10
527.6658919043531
 20
1290.3485936062455
 10
529.8209355092742
 20
1289.8646623818547
 10
531.9971286495087
 20
1289.4870570515848
 10
534.1892286851698
 20
1289.2166872997511
 10
536.3919546552662
 20
1289.0542044707672
 10
538.6
 20
1289.0
 10
540.8080453447338
 20
1289.0542044707672
 10
543.0107713148302
 20
1289.2166872997511
 10
545.2028713504914
 20
1289.4870570515848
 10
547.3790644907258
 20
1289.8646623818547
 10
549.5341080956468
 20
1290.3485936062455
 10
551.6628104764508
 20
1290.9376848920506
 10
553.7600434026499
 20
1291.630517066764
 10
555.8207544564291
 20
1292.425421036992
 10
557.8399792043627
 20
1293.320481809445
 10
559.8128531571699
 20
1294.313543104324
 10
561.734623488695
 20
1295.4022125499878
 10
563.6006604858821
 20
1296.5838674463855
 10
565.4064687021595
 20
1297.855661083371
 10
567.1476977873641
 20
1299.2145295986768
 10
568.8201529681158
 20
1300.657199359027
 10
570.4198051533947
 20
1302.1801948466054
 10
571.9428006409731
 20
1303.7798470318842
 10
573.3854704013231
 20
1305.452302212636
 10
574.7443389166291
 20
1307.1935312978405
 10
576.0161325536145
 20
1308.999339514118
 10
577.1977874500122
 20
1310.865376511305
 10
578.286456895676
 20
1312.78714684283
 10
579.279518190555
 20
1314.7600207956373
 10
580.1745789630079
 20
1316.7792455435708
 10
580.969482933236
 20
1318.83995659735
 10
581.6623151079494
 20
1320.9371895235493
 10
582.2514063937545
 20
1323.065891904353
 10
582.7353376181454
 20
1325.220935509274
 10
583.1129429484151
 20
1327.3971286495087
 10
583.3833127002489
 20
1329.5892286851697
 10
583.5457955292328
 20
1331.7919546552662
  0
CIRCLE
  5
82
330
17
100
AcDbEntity
  8
CUT_HOLES
100
AcDbCircle
 10
563.3487373415292
 20
1358.7487373415292
 30
0.0
 40
3.3
  0
CIRCLE
  5
83
330
17
100
AcDbEntity
  8
CUT_HOLES
100
AcDbCircle
 10
513.8512626584709
 20
1358.7487373415292
 30
0.0
 40
3.3
  0
CIRCLE
  5
84
330
17
100
AcDbEntity
  8
CUT_HOLES
100
AcDbCircle
 10
513.8512626584709
 20
1309.2512626584708
 30
0.0
 40
3.3
  0
CIRCLE
  5
85
330
17
100
AcDbEntity
  8
CUT_HOLES
100
AcDbCircle
 10
563.3487373415292
 20
1309.2512626584708
 30
0.0
 40
3.3
  0
CIRCLE
  5
86
330
17
100
AcDbEntity
  8
CUT_HOLES
100
AcDbCircle
 10
538.6
 20
1334.0
 30
0.0
 40
16.8
  0
TEXT
  5
87
330
17
100
AcDbEntity
  8
PART_MARK_NO_CUT
100
AcDbText
 10
495.6
 20
1291.0
 30
0.0
 40
3.0
  1
I_DRAIN_TAIL_FLANGE #1
100
AcDbText
  0
LWPOLYLINE
  5
88
330
17
100
AcDbEntity
  8
CUT_OUTER
100
AcDbPolyline
 90
4
 70
1
 10
1078.6
 20
46.0
 10
1078.6
 20
206.0
 10
1029.6
 20
206.0
 10
1029.6
 20
46.0
  0
TEXT
  5
89
330
17
100
AcDbEntity
  8
PART_MARK_NO_CUT
100
AcDbText
 10
1031.6
 20
48.0
 30
0.0
 40
3.0
  1
G_RACK_SPOIL_DROP #1
100
AcDbText
  0
LWPOLYLINE
  5
8A
330
17
100
AcDbEntity
  8
CUT_OUTER
100
AcDbPolyline
 90
4
 70
1
 10
1078.6
 20
212.0
 10
1078.6
 20
372.0
 10
1029.6
 20
372.0
 10
1029.6
 20
212.0
  0
TEXT
  5
8B
330
17
100
AcDbEntity
  8
PART_MARK_NO_CUT
100
AcDbText
 10
1031.6
 20
214.0
 30
0.0
 40
3.0
  1
G_RACK_SPOIL_DROP #2
100
AcDbText
  0
LWPOLYLINE
  5
8C
330
17
100
AcDbEntity
  8
CUT_OUTER
100
AcDbPolyline
 90
4
 70
1
 10
123.6
 20
1374.2
 10
213.6
 20
1374.2
 10
213.6
 20
1454.2
 10
123.6
 20
1454.2
  0
CIRCLE
  5
8D
330
17
100
AcDbEntity
  8
CUT_HOLES
100
AcDbCircle
 10
186.6
 20
1404.2
 30
0.0
 40
3.4
  0
CIRCLE
  5
8E
330
17
100
AcDbEntity
  8
CUT_HOLES
100
AcDbCircle
 10
186.6
 20
1429.2
 30
0.0
 40
3.015
  0
CIRCLE
  5
8F
330
17
100
AcDbEntity
  8
CUT_HOLES
100
AcDbCircle
 10
136.6
 20
1394.2
 30
0.0
 40
4.25
  0
CIRCLE
  5
90
330
17
100
AcDbEntity
  8
CUT_HOLES
100
AcDbCircle
 10
136.6
 20
1434.2
 30
0.0
 40
4.25
  0
MTEXT
  5
91
330
17
100
AcDbEntity
  8
MACHINING_NOTES
100
AcDbMText
 10
233.6
 20
1454.2
 30
0.0
 40
3.0
 41
150.0
 71
1
  1
M8 station: drill 6.8 and tap through plate and welded boss AFTER welding.\PLocator bore/slot final width 6.03 +0.01/-0.00; match to measured nominal 6 mm pin. Seat coplanarity and repeatability must be measured.
  0
TEXT
  5
92
330
17
100
AcDbEntity
  8
PART_MARK_NO_CUT
100
AcDbText
 10
125.6
 20
1376.2
 30
0.0
 40
3.0
  1
G_FRONT_SEAT_ROUND #1
100
AcDbText
  0
LWPOLYLINE
  5
93
330
17
100
AcDbEntity
  8
CUT_OUTER
100
AcDbPolyline
 90
4
 70
1
 10
620.6
 20
1136.0
 10
620.6
 20
1226.0
 10
540.6
 20
1226.0
 10
540.6
 20
1136.0
  0
CIRCLE
  5
94
330
17
100
AcDbEntity
  8
CUT_HOLES
100
AcDbCircle
 10
590.6
 20
1163.0
 30
0.0
 40
3.4
  0
CIRCLE
  5
95
330
17
100
AcDbEntity
  8
CUT_HOLES
100
AcDbCircle
 10
600.6
 20
1213.0
 30
0.0
 40
4.25
  0
CIRCLE
  5
96
330
17
100
AcDbEntity
  8
CUT_HOLES
100
AcDbCircle
 10
560.6
 20
1213.0
 30
0.0
 40
4.25
  0
LWPOLYLINE
  5
97
330
17
100
AcDbEntity
  8
CUT_HOLES
100
AcDbPolyline
 90
4
 70
1
 10
568.615
 20
1160.015
 10
568.615
 20
1165.985
 42
1.0
 10
562.585
 20
1165.985
 10
562.585
 20
1160.015
 42
1.0
  0
MTEXT
  5
98
330
17
100
AcDbEntity
  8
MACHINING_NOTES
100
AcDbMText
 10
540.6
 20
1246.0
 30
0.0
 40
3.0
 41
150.0
 71
1
  1
M8 station: drill 6.8 and tap through plate and welded boss AFTER welding.\PLocator bore/slot final width 6.03 +0.01/-0.00; match to measured nominal 6 mm pin. Seat coplanarity and repeatability must be measured.
 11
6.123233995736766e-17
 21
1.0
 31
0.0
  0
TEXT
  5
99
330
17
100
AcDbEntity
  8
PART_MARK_NO_CUT
100
AcDbText
 10
542.6
 20
1138.0
 30
0.0
 40
3.0
  1
G_FRONT_SEAT_RELIEVED #1
100
AcDbText
  0
LWPOLYLINE
  5
9A
330
17
100
AcDbEntity
  8
CUT_OUTER
100
AcDbPolyline
 90
4
 70
1
 10
669.6
 20
1232.0
 10
669.6
 20
1322.0
 10
589.6
 20
1322.0
 10
589.6
 20
1232.0
  0
CIRCLE
  5
9B
330
17
100
AcDbEntity
  8
CUT_HOLES
100
AcDbCircle
 10
639.6
 20
1295.0
 30
0.0
 40
3.4
  0
CIRCLE
  5
9C
330
17
100
AcDbEntity
  8
CUT_HOLES
100
AcDbCircle
 10
614.6
 20
1295.0
 30
0.0
 40
3.015
  0
MTEXT
  5
9D
330
17
100
AcDbEntity
  8
MACHINING_NOTES
100
AcDbMText
 10
589.6
 20
1342.0
 30
0.0
 40
3.0
 41
150.0
 71
1
  1
M8 station: drill 6.8 and tap through plate and welded boss AFTER welding.\PLocator bore/slot final width 6.03 +0.01/-0.00; match to measured nominal 6 mm pin. Seat coplanarity and repeatability must be measured.
 11
6.123233995736766e-17
 21
1.0
 31
0.0
  0
TEXT
  5
9E
330
17
100
AcDbEntity
  8
PART_MARK_NO_CUT
100
AcDbText
 10
591.6
 20
1234.0
 30
0.0
 40
3.0
  1
G_SEAT_ROUND #1
100
AcDbText
  0
LWPOLYLINE
  5
9F
330
17
100
AcDbEntity
  8
CUT_OUTER
100
AcDbPolyline
 90
4
 70
1
 10
706.6
 20
1136.0
 10
706.6
 20
1226.0
 10
626.6
 20
1226.0
 10
626.6
 20
1136.0
  0
CIRCLE
  5
A0
330
17
100
AcDbEntity
  8
CUT_HOLES
100
AcDbCircle
 10
676.6
 20
1199.0
 30
0.0
 40
3.4
  0
CIRCLE
  5
A1
330
17
100
AcDbEntity
  8
CUT_HOLES
100
AcDbCircle
 10
651.6
 20
1199.0
 30
0.0
 40
3.015
  0
MTEXT
  5
A2
330
17
100
AcDbEntity
  8
MACHINING_NOTES
100
AcDbMText
 10
626.6
 20
1246.0
 30
0.0
 40
3.0
 41
150.0
 71
1
  1
M8 station: drill 6.8 and tap through plate and welded boss AFTER welding.\PLocator bore/slot final width 6.03 +0.01/-0.00; match to measured nominal 6 mm pin. Seat coplanarity and repeatability must be measured.
 11
6.123233995736766e-17
 21
1.0
 31
0.0
  0
TEXT
  5
A3
330
17
100
AcDbEntity
  8
PART_MARK_NO_CUT
100
AcDbText
 10
628.6
 20
1138.0
 30
0.0
 40
3.0
  1
G_SEAT_ROUND #2
100
AcDbText
  0
LWPOLYLINE
  5
A4
330
17
100
AcDbEntity
  8
CUT_OUTER
100
AcDbPolyline
 90
4
 70
1
 10
669.6
 20
1328.0
 10
669.6
 20
1418.0
 10
589.6
 20
1418.0
 10
589.6
 20
1328.0
  0
CIRCLE
  5
A5
330
17
100
AcDbEntity
  8
CUT_HOLES
100
AcDbCircle
 10
639.6
 20
1391.0
 30
0.0
 40
3.4
  0
CIRCLE
  5
A6
330
17
100
AcDbEntity
  8
CUT_HOLES
100
AcDbCircle
 10
614.6
 20
1391.0
 30
0.0
 40
3.015
  0
MTEXT
  5
A7
330
17
100
AcDbEntity
  8
MACHINING_NOTES
100
AcDbMText
 10
589.6
 20
1438.0
 30
0.0
 40
3.0
 41
150.0
 71
1
  1
M8 station: drill 6.8 and tap through plate and welded boss AFTER welding.\PLocator bore/slot final width 6.03 +0.01/-0.00; match to measured nominal 6 mm pin. Seat coplanarity and repeatability must be measured.
 11
6.123233995736766e-17
 21
1.0
 31
0.0
  0
TEXT
  5
A8
330
17
100
AcDbEntity
  8
PART_MARK_NO_CUT
100
AcDbText
 10
591.6
 20
1330.0
 30
0.0
 40
3.0
  1
G_SEAT_ROUND #3
100
AcDbText
  0
LWPOLYLINE
  5
A9
330
17
100
AcDbEntity
  8
CUT_OUTER
100
AcDbPolyline
 90
4
 70
1
 10
755.6
 20
1232.0
 10
755.6
 20
1322.0
 10
675.6
 20
1322.0
 10
675.6
 20
1232.0
  0
CIRCLE
  5
AA
330
17
100
AcDbEntity
  8
CUT_HOLES
100
AcDbCircle
 10
725.6
 20
1259.0
 30
0.0
 40
3.4
  0
LWPOLYLINE
  5
AB
330
17
100
AcDbEntity
  8
CUT_HOLES
100
AcDbPolyline
 90
4
 70
1
 10
703.615
 20
1256.015
 10
703.615
 20
1261.985
 42
1.0
 10
697.585
 20
1261.985
 10
697.585
 20
1256.015
 42
1.0
  0
MTEXT
  5
AC
330
17
100
AcDbEntity
  8
MACHINING_NOTES
100
AcDbMText
 10
675.6
 20
1342.0
 30
0.0
 40
3.0
 41
150.0
 71
1
  1
M8 station: drill 6.8 and tap through plate and welded boss AFTER welding.\PLocator bore/slot final width 6.03 +0.01/-0.00; match to measured nominal 6 mm pin. Seat coplanarity and repeatability must be measured.
 11
6.123233995736766e-17
 21
1.0
 31
0.0
  0
TEXT
  5
AD
330
17
100
AcDbEntity
  8
PART_MARK_NO_CUT
100
AcDbText
 10
677.6
 20
1234.0
 30
0.0
 40
3.0
  1
G_SEAT_RELIEVED #1
100
AcDbText
  0
LWPOLYLINE
  5
AE
330
17
100
AcDbEntity
  8
CUT_OUTER
100
AcDbPolyline
 90
4
 70
1
 10
792.6
 20
1136.0
 10
792.6
 20
1226.0
 10
712.6
 20
1226.0
 10
712.6
 20
1136.0
  0
CIRCLE
  5
AF
330
17
100
AcDbEntity
  8
CUT_HOLES
100
AcDbCircle
 10
762.6
 20
1163.0
 30
0.0
 40
3.4
  0
LWPOLYLINE
  5
B0
330
17
100
AcDbEntity
  8
CUT_HOLES
100
AcDbPolyline
 90
4
 70
1
 10
740.615
 20
1160.015
 10
740.615
 20
1165.985
 42
1.0
 10
734.585
 20
1165.985
 10
734.585
 20
1160.015
 42
1.0
  0
MTEXT
  5
B1
330
17
100
AcDbEntity
  8
MACHINING_NOTES
100
AcDbMText
 10
712.6
 20
1246.0
 30
0.0
 40
3.0
 41
150.0
 71
1
  1
M8 station: drill 6.8 and tap through plate and welded boss AFTER welding.\PLocator bore/slot final width 6.03 +0.01/-0.00; match to measured nominal 6 mm pin. Seat coplanarity and repeatability must be measured.
 11
6.123233995736766e-17
 21
1.0
 31
0.0
  0
TEXT
  5
B2
330
17
100
AcDbEntity
  8
PART_MARK_NO_CUT
100
AcDbText
 10
714.6
 20
1138.0
 30
0.0
 40
3.0
  1
G_SEAT_RELIEVED #2
100
AcDbText
  0
LWPOLYLINE
  5
B3
330
17
100
AcDbEntity
  8
CUT_OUTER
100
AcDbPolyline
 90
4
 70
1
 10
755.6
 20
1328.0
 10
755.6
 20
1418.0
 10
675.6
 20
1418.0
 10
675.6
 20
1328.0
  0
CIRCLE
  5
B4
330
17
100
AcDbEntity
  8
CUT_HOLES
100
AcDbCircle
 10
725.6
 20
1355.0
 30
0.0
 40
3.4
  0
LWPOLYLINE
  5
B5
330
17
100
AcDbEntity
  8
CUT_HOLES
100
AcDbPolyline
 90
4
 70
1
 10
703.615
 20
1352.015
 10
703.615
 20
1357.985
 42
1.0
 10
697.585
 20
1357.985
 10
697.585
 20
1352.015
 42
1.0
  0
MTEXT
  5
B6
330
17
100
AcDbEntity
  8
MACHINING_NOTES
100
AcDbMText
 10
675.6
 20
1438.0
 30
0.0
 40
3.0
 41
150.0
 71
1
  1
M8 station: drill 6.8 and tap through plate and welded boss AFTER welding.\PLocator bore/slot final width 6.03 +0.01/-0.00; match to measured nominal 6 mm pin. Seat coplanarity and repeatability must be measured.
 11
6.123233995736766e-17
 21
1.0
 31
0.0
  0
TEXT
  5
B7
330
17
100
AcDbEntity
  8
PART_MARK_NO_CUT
100
AcDbText
 10
677.6
 20
1330.0
 30
0.0
 40
3.0
  1
G_SEAT_RELIEVED #3
100
AcDbText
  0
LWPOLYLINE
  5
B8
330
17
100
AcDbEntity
  8
CUT_OUTER
100
AcDbPolyline
 90
4
 70
1
 10
219.6
 20
1424.0
 10
438.79999999999995
 20
1424.0
 10
438.79999999999995
 20
1454.0
 10
219.6
 20
1454.0
  0
TEXT
  5
B9
330
17
100
AcDbEntity
  8
PART_MARK_NO_CUT
100
AcDbText
 10
221.6
 20
1426.0
 30
0.0
 40
3.0
  1
G_RACK_SPOIL_ARM #1
100
AcDbText
  0
LWPOLYLINE
  5
BA
330
17
100
AcDbEntity
  8
CUT_OUTER
100
AcDbPolyline
 90
4
 70
1
 10
219.6
 20
1385.0
 10
438.79999999999995
 20
1385.0
 10
438.79999999999995
 20
1415.0
 10
219.6
 20
1415.0
  0
TEXT
  5
BB
330
17
100
AcDbEntity
  8
PART_MARK_NO_CUT
100
AcDbText
 10
221.6
 20
1387.0
 30
0.0
 40
3.0
  1
G_RACK_SPOIL_ARM #2
100
AcDbText
  0
LWPOLYLINE
  5
BC
330
17
100
AcDbEntity
  8
CUT_OUTER
100
AcDbPolyline
 90
4
 70
1
 10
1106.696
 20
982.096
 10
1124.696
 20
982.096
 10
1124.696
 20
1347.096
 10
1106.696
 20
1347.096
  0
TEXT
  5
BD
330
17
100
AcDbEntity
  8
PART_MARK_NO_CUT
100
AcDbText
 10
1108.696
 20
984.096
 30
0.0
 40
3.0
  1
G_RACK_SPOIL_RUNNER #1
100
AcDbText
  0
LWPOLYLINE
  5
BE
330
17
100
AcDbEntity
  8
CUT_OUTER
100
AcDbPolyline
 90
4
 70
1
 10
809.8
 20
1424.0
 10
809.8
 20
1442.0
 10
444.79999999999995
 20
1442.0
 10
444.79999999999995
 20
1424.0
  0
TEXT
  5
BF
330
17
100
AcDbEntity
  8
PART_MARK_NO_CUT
100
AcDbText
 10
446.79999999999995
 20
1426.0
 30
0.0
 40
3.0
  1
G_RACK_SPOIL_RUNNER #2
100
AcDbText
  0
LWPOLYLINE
  5
C0
330
17
100
AcDbEntity
  8
CUT_OUTER
100
AcDbPolyline
 90
4
 70
1
 10
859.6
 20
1054.096
 10
859.6
 20
1072.096
 10
494.6
 20
1072.096
 10
494.6
 20
1054.096
  0
TEXT
  5
C1
330
17
100
AcDbEntity
  8
PART_MARK_NO_CUT
100
AcDbText
 10
496.6
 20
1056.096
 30
0.0
 40
3.0
  1
G_RACK_SPOIL_RUNNER #3
100
AcDbText
  0
LWPOLYLINE
  5
C2
330
17
100
AcDbEntity
  8
CUT_OUTER
100
AcDbPolyline
 90
4
 70
1
 10
859.6
 20
1078.096
 10
859.6
 20
1096.096
 10
494.6
 20
1096.096
 10
494.6
 20
1078.096
  0
TEXT
  5
C3
330
17
100
AcDbEntity
  8
PART_MARK_NO_CUT
100
AcDbText
 10
496.6
 20
1080.096
 30
0.0
 40
3.0
  1
G_RACK_SPOIL_RUNNER #4
100
AcDbText
  0
LWPOLYLINE
  5
C4
330
17
100
AcDbEntity
  8
CUT_OUTER
100
AcDbPolyline
 90
4
 70
1
 10
1180.8
 20
1353.096
 10
1180.8
 20
1371.096
 10
815.8
 20
1371.096
 10
815.8
 20
1353.096
  0
TEXT
  5
C5
330
17
100
AcDbEntity
  8
PART_MARK_NO_CUT
100
AcDbText
 10
817.8
 20
1355.096
 30
0.0
 40
3.0
  1
G_RACK_SPOIL_RUNNER #5
100
AcDbText
  0
LWPOLYLINE
  5
C6
330
17
100
AcDbEntity
  8
CUT_OUTER
100
AcDbPolyline
 90
4
 70
1
 10
1186.8
 20
1136.0
 10
1204.8
 20
1136.0
 10
1204.8
 20
1501.0
 10
1186.8
 20
1501.0
  0
TEXT
  5
C7
330
17
100
AcDbEntity
  8
PART_MARK_NO_CUT
100
AcDbText
 10
1188.8
 20
1138.0
 30
0.0
 40
3.0
  1
G_RACK_SPOIL_RUNNER #6
100
AcDbText
  0
LWPOLYLINE
  5
C8
330
17
100
AcDbEntity
  8
CUT_OUTER
100
AcDbPolyline
 90
4
 70
1
 10
186.36200000000005
 20
46.0
 10
186.3620000000001
 20
946.0
 10
179.8720000000001
 20
946.0
 10
179.87200000000004
 20
46.0
  0
TEXT
  5
C9
330
17
100
AcDbEntity
  8
PART_MARK_NO_CUT
100
AcDbText
 10
181.87200000000004
 20
48.0
 30
0.0
 40
3.0
  1
WP_CRADLE_WEB_3_1 #1
100
AcDbText
  0
LWPOLYLINE
  5
CA
330
17
100
AcDbEntity
  8
CUT_OUTER
100
AcDbPolyline
 90
4
 70
1
 10
198.40400000000008
 20
46.0
 10
198.40400000000014
 20
946.0
 10
192.3620000000001
 20
946.0
 10
192.36200000000005
 20
46.0
  0
TEXT
  5
CB
330
17
100
AcDbEntity
  8
PART_MARK_NO_CUT
100
AcDbText
 10
194.36200000000005
 20
48.0
 30
0.0
 40
3.0
  1
WP_CRADLE_WEB_3_2 #1
100
AcDbText
  0
LWPOLYLINE
  5
CC
330
17
100
AcDbEntity
  8
CUT_OUTER
100
AcDbPolyline
 90
4
 70
1
 10
761.6
 20
1377.096
 10
921.6
 20
1377.096
 10
921.6
 20
1407.096
 10
761.6
 20
1407.096
  0
TEXT
  5
CD
330
17
100
AcDbEntity
  8
PART_MARK_NO_CUT
100
AcDbText
 10
763.6
 20
1379.096
 30
0.0
 40
3.0
  1
G_RACK_SPOIL_FOOT #1
100
AcDbText
  0
LWPOLYLINE
  5
CE
330
17
100
AcDbEntity
  8
CUT_OUTER
100
AcDbPolyline
 90
4
 70
1
 10
1166.0
 20
1377.096
 10
1166.0
 20
1537.096
 10
1136.0
 20
1537.096
 10
1136.0
 20
1377.096
  0
TEXT
  5
CF
330
17
100
AcDbEntity
  8
PART_MARK_NO_CUT
100
AcDbText
 10
1138.0
 20
1379.096
 30
0.0
 40
3.0
  1
G_RACK_SPOIL_FOOT #2
100
AcDbText
  0
LWPOLYLINE
  5
D0
330
17
100
AcDbEntity
  8
CUT_OUTER
100
AcDbPolyline
 90
67
 70
1
 10
1029.6
 20
408.0
 10
1029.6361363138446
 20
406.5279697701775
 10
1029.744458199834
 20
405.0594857901132
 10
1029.9247047010565
 20
403.5980857663391
 10
1030.176441587903
 20
402.14729033951613
 10
1030.4990624041636
 20
400.71059460290206
 10
1030.8917899280336
 20
399.2914596823661
 10
1031.3536780445093
 20
397.8933043982334
 10
1031.8836140246613
 20
396.51949702904733
 10
1032.4803212062966
 20
395.1733471970916
 10
1033.1423620695493
 20
393.85809789522006
 10
1033.8681416999918
 20
392.57691767420334
 10
1034.6559116309236
 20
391.3328930094119
 10
1035.5037740555806
 20
390.129020865227
 10
1036.4096863991178
 20
388.96820147509067
 10
1037.371466239351
 20
387.85323135458947
 10
1038.3867965644035
 20
386.7867965644036
 10
1039.4532313545894
 20
385.77146623935124
 10
1040.5682014750905
 20
384.8096863991179
 10
1041.7290208652269
 20
383.90377405558064
 10
1042.9328930094118
 20
383.0559116309236
 10
1044.1769176742032
 20
382.2681416999918
 10
1045.45809789522
 20
381.54236206954937
 10
1046.7733471970914
 20
380.8803212062967
 10
1048.1194970290471
 20
380.2836140246614
 10
1049.4933043982332
 20
379.7536780445094
 10
1050.891459682366
 20
379.2917899280337
 10
1052.310594602902
 20
378.89906240416366
 10
1053.747290339516
 20
378.5764415879031
 10
1055.198085766339
 20
378.3247047010566
 10
1056.6594857901132
 20
378.1444581998341
 10
1058.1279697701773
 20
378.03613631384485
 10
1059.6
 20
378.0
 10
1061.0720302298225
 20
378.03613631384485
 10
1062.5405142098866
 20
378.1444581998341
 10
1064.0019142336607
 20
378.3247047010566
 10
1065.4527096604838
 20
378.5764415879031
 10
1066.8894053970978
 20
378.89906240416366
 10
1068.3085403176337
 20
379.2917899280337
 10
1069.7066956017666
 20
379.75367804450934
 10
1071.0805029709527
 20
380.2836140246614
 10
1072.4266528029084
 20
380.8803212062967
 10
1073.74190210478
 20
381.54236206954937
 10
1075.0230823257966
 20
382.2681416999918
 10
1076.267106990588
 20
383.0559116309236
 10
1077.470979134773
 20
383.90377405558064
 10
1078.6317985249093
 20
384.8096863991179
 10
1079.7467686454104
 20
385.77146623935124
 10
1080.8132034355963
 20
386.7867965644036
 10
1081.8285337606487
 20
387.8532313545894
 10
1082.790313600882
 20
388.96820147509067
 10
1083.6962259444192
 20
390.129020865227
 10
1084.5440883690762
 20
391.3328930094119
 10
1085.331858300008
 20
392.57691767420334
 10
1086.0576379304505
 20
393.85809789522006
 10
1086.7196787937032
 20
395.1733471970915
 10
1087.3163859753386
 20
396.5194970290473
 10
1087.8463219554906
 20
397.8933043982334
 10
1088.3082100719662
 20
399.2914596823661
 10
1088.7009375958362
 20
400.71059460290206
 10
1089.023558412097
 20
402.14729033951613
 10
1089.2752952989433
 20
403.5980857663392
 10
1089.4555418001657
 20
405.0594857901132
 10
1089.5638636861552
 20
406.52796977017744
 10
1089.6
 20
408.0
 10
1089.6
 20
443.0
 10
1029.6
 20
443.0
  0
CIRCLE
  5
D1
330
17
100
AcDbEntity
  8
CUT_HOLES
100
AcDbCircle
 10
1059.6
 20
408.0
 30
0.0
 40
16.8
  0
TEXT
  5
D2
330
17
100
AcDbEntity
  8
PART_MARK_NO_CUT
100
AcDbText
 10
1031.6
 20
380.0
 30
0.0
 40
3.0
  1
I_DRAIN_REDUCER_SUPPORT #1
100
AcDbText
  0
LWPOLYLINE
  5
D3
330
17
100
AcDbEntity
  8
CUT_OUTER
100
AcDbPolyline
 90
8
 70
1
 10
828.0
 20
1102.096
 10
828.0
 20
1347.096
 10
812.6
 20
1347.096
 10
812.6
 20
1226.096
 10
817.6
 20
1226.096
 10
817.6
 20
1198.096
 10
812.6
 20
1198.096
 10
812.6
 20
1102.096
  0
TEXT
  5
D4
330
17
100
AcDbEntity
  8
PART_MARK_NO_CUT
100
AcDbText
 10
814.6
 20
1104.096
 30
0.0
 40
3.0
  1
I_RACK_PANEL_WEB_SOCKET_RELIEF #1
100
AcDbText
  0
LWPOLYLINE
  5
D5
330
17
100
AcDbEntity
  8
CUT_OUTER
100
AcDbPolyline
 90
8
 70
1
 10
849.4
 20
1102.096
 10
849.4
 20
1347.096
 10
834.0
 20
1347.096
 10
834.0
 20
1226.096
 10
839.0
 20
1226.096
 10
839.0
 20
1198.096
 10
834.0
 20
1198.096
 10
834.0
 20
1102.096
  0
TEXT
  5
D6
330
17
100
AcDbEntity
  8
PART_MARK_NO_CUT
100
AcDbText
 10
836.0
 20
1104.096
 30
0.0
 40
3.0
  1
I_RACK_PANEL_WEB_SOCKET_RELIEF #2
100
AcDbText
  0
LWPOLYLINE
  5
D7
330
17
100
AcDbEntity
  8
CUT_OUTER
100
AcDbPolyline
 90
4
 70
1
 10
1029.6
 20
449.0
 10
1080.3999999999999
 20
449.0
 10
1080.3999999999999
 20
499.8
 10
1029.6
 20
499.8
  0
CIRCLE
  5
D8
330
17
100
AcDbEntity
  8
CUT_HOLES
100
AcDbCircle
 10
1055.0
 20
474.4
 30
0.0
 40
8.5
  0
TEXT
  5
D9
330
17
100
AcDbEntity
  8
PART_MARK_NO_CUT
100
AcDbText
 10
1031.6
 20
451.0
 30
0.0
 40
3.0
  1
FT_LEG_CLOSURE #1
100
AcDbText
  0
LWPOLYLINE
  5
DA
330
17
100
AcDbEntity
  8
CUT_OUTER
100
AcDbPolyline
 90
4
 70
1
 10
1029.6
 20
505.8
 10
1080.3999999999999
 20
505.8
 10
1080.3999999999999
 20
556.6
 10
1029.6
 20
556.6
  0
CIRCLE
  5
DB
330
17
100
AcDbEntity
  8
CUT_HOLES
100
AcDbCircle
 10
1055.0
 20
531.2
 30
0.0
 40
8.5
  0
TEXT
  5
DC
330
17
100
AcDbEntity
  8
PART_MARK_NO_CUT
100
AcDbText
 10
1031.6
 20
507.8
 30
0.0
 40
3.0
  1
FT_LEG_CLOSURE #2
100
AcDbText
  0
LWPOLYLINE
  5
DD
330
17
100
AcDbEntity
  8
CUT_OUTER
100
AcDbPolyline
 90
4
 70
1
 10
1029.6
 20
562.6
 10
1080.3999999999999
 20
562.6
 10
1080.3999999999999
 20
613.4
 10
1029.6
 20
613.4
  0
CIRCLE
  5
DE
330
17
100
AcDbEntity
  8
CUT_HOLES
100
AcDbCircle
 10
1055.0
 20
588.0
 30
0.0
 40
8.5
  0
TEXT
  5
DF
330
17
100
AcDbEntity
  8
PART_MARK_NO_CUT
100
AcDbText
 10
1031.6
 20
564.6
 30
0.0
 40
3.0
  1
FT_LEG_CLOSURE #3
100
AcDbText
  0
LWPOLYLINE
  5
E0
330
17
100
AcDbEntity
  8
CUT_OUTER
100
AcDbPolyline
 90
4
 70
1
 10
1029.6
 20
619.4
 10
1080.3999999999999
 20
619.4
 10
1080.3999999999999
 20
670.1999999999999
 10
1029.6
 20
670.1999999999999
  0
CIRCLE
  5
E1
330
17
100
AcDbEntity
  8
CUT_HOLES
100
AcDbCircle
 10
1055.0
 20
644.8
 30
0.0
 40
8.5
  0
TEXT
  5
E2
330
17
100
AcDbEntity
  8
PART_MARK_NO_CUT
100
AcDbText
 10
1031.6
 20
621.4
 30
0.0
 40
3.0
  1
FT_LEG_CLOSURE #4
100
AcDbText
  0
LWPOLYLINE
  5
E3
330
17
100
AcDbEntity
  8
CUT_OUTER
100
AcDbPolyline
 90
4
 70
1
 10
1029.6
 20
676.1999999999999
 10
1080.3999999999999
 20
676.1999999999999
 10
1080.3999999999999
 20
726.9999999999999
 10
1029.6
 20
726.9999999999999
  0
CIRCLE
  5
E4
330
17
100
AcDbEntity
  8
CUT_HOLES
100
AcDbCircle
 10
1055.0
 20
701.5999999999999
 30
0.0
 40
8.5
  0
TEXT
  5
E5
330
17
100
AcDbEntity
  8
PART_MARK_NO_CUT
100
AcDbText
 10
1031.6
 20
678.1999999999999
 30
0.0
 40
3.0
  1
FT_LEG_CLOSURE #5
100
AcDbText
  0
LWPOLYLINE
  5
E6
330
17
100
AcDbEntity
  8
CUT_OUTER
100
AcDbPolyline
 90
4
 70
1
 10
1029.6
 20
732.9999999999999
 10
1080.3999999999999
 20
732.9999999999999
 10
1080.3999999999999
 20
783.7999999999998
 10
1029.6
 20
783.7999999999998
  0
CIRCLE
  5
E7
330
17
100
AcDbEntity
  8
CUT_HOLES
100
AcDbCircle
 10
1055.0
 20
758.3999999999999
 30
0.0
 40
8.5
  0
TEXT
  5
E8
330
17
100
AcDbEntity
  8
PART_MARK_NO_CUT
100
AcDbText
 10
1031.6
 20
734.9999999999999
 30
0.0
 40
3.0
  1
FT_LEG_CLOSURE #6
100
AcDbText
  0
LWPOLYLINE
  5
E9
330
17
100
AcDbEntity
  8
CUT_OUTER
100
AcDbPolyline
 90
4
 70
1
 10
1130.696
 20
1136.0
 10
1180.696
 20
1136.0
 10
1180.696
 20
1186.8
 10
1130.696
 20
1186.8
  0
CIRCLE
  5
EA
330
17
100
AcDbEntity
  8
CUT_HOLES
100
AcDbCircle
 10
1140.696
 20
1161.4
 30
0.0
 40
5.0
  0
TEXT
  5
EB
330
17
100
AcDbEntity
  8
PART_MARK_NO_CUT
100
AcDbText
 10
1132.696
 20
1138.0
 30
0.0
 40
3.0
  1
H_BEAM_STACK_PAD_1 #1
100
AcDbText
  0
LWPOLYLINE
  5
EC
330
17
100
AcDbEntity
  8
CUT_OUTER
100
AcDbPolyline
 90
4
 70
1
 10
1130.696
 20
1192.8
 10
1180.696
 20
1192.8
 10
1180.696
 20
1243.6
 10
1130.696
 20
1243.6
  0
CIRCLE
  5
ED
330
17
100
AcDbEntity
  8
CUT_HOLES
100
AcDbCircle
 10
1140.696
 20
1218.2
 30
0.0
 40
5.0
  0
TEXT
  5
EE
330
17
100
AcDbEntity
  8
PART_MARK_NO_CUT
100
AcDbText
 10
1132.696
 20
1194.8
 30
0.0
 40
3.0
  1
H_BEAM_STACK_PAD_1 #2
100
AcDbText
  0
LWPOLYLINE
  5
EF
330
17
100
AcDbEntity
  8
CUT_OUTER
100
AcDbPolyline
 90
4
 70
1
 10
1130.696
 20
1249.6
 10
1180.696
 20
1249.6
 10
1180.696
 20
1300.3999999999999
 10
1130.696
 20
1300.3999999999999
  0
CIRCLE
  5
F0
330
17
100
AcDbEntity
  8
CUT_HOLES
100
AcDbCircle
 10
1140.696
 20
1275.0
 30
0.0
 40
5.0
  0
TEXT
  5
F1
330
17
100
AcDbEntity
  8
PART_MARK_NO_CUT
100
AcDbText
 10
1132.696
 20
1251.6
 30
0.0
 40
3.0
  1
H_BEAM_STACK_PAD_1 #3
100
AcDbText
  0
LWPOLYLINE
  5
F2
330
17
100
AcDbEntity
  8
CUT_OUTER
100
AcDbPolyline
 90
4
 70
1
 10
1080.3999999999999
 20
789.7999999999998
 10
1080.3999999999999
 20
839.7999999999998
 10
1029.6
 20
839.7999999999998
 10
1029.6
 20
789.7999999999998
  0
CIRCLE
  5
F3
330
17
100
AcDbEntity
  8
CUT_HOLES
100
AcDbCircle
 10
1054.9999999999998
 20
799.7999999999998
 30
0.0
 40
5.0
  0
TEXT
  5
F4
330
17
100
AcDbEntity
  8
PART_MARK_NO_CUT
100
AcDbText
 10
1031.6
 20
791.7999999999998
 30
0.0
 40
3.0
  1
H_BEAM_STACK_PAD_1 #4
100
AcDbText
  0
LWPOLYLINE
  5
F5
330
17
100
AcDbEntity
  8
CUT_OUTER
100
AcDbPolyline
 90
4
 70
1
 10
1080.3999999999999
 20
845.7999999999998
 10
1080.3999999999999
 20
895.7999999999998
 10
1029.6
 20
895.7999999999998
 10
1029.6
 20
845.7999999999998
  0
CIRCLE
  5
F6
330
17
100
AcDbEntity
  8
CUT_HOLES
100
AcDbCircle
 10
1054.9999999999998
 20
885.7999999999998
 30
0.0
 40
5.0
  0
TEXT
  5
F7
330
17
100
AcDbEntity
  8
PART_MARK_NO_CUT
100
AcDbText
 10
1031.6
 20
847.7999999999998
 30
0.0
 40
3.0
  1
H_BEAM_STACK_PAD_2 #1
100
AcDbText
  0
LWPOLYLINE
  5
F8
330
17
100
AcDbEntity
  8
CUT_OUTER
100
AcDbPolyline
 90
4
 70
1
 10
1080.3999999999999
 20
901.7999999999998
 10
1080.3999999999999
 20
951.7999999999998
 10
1029.6
 20
951.7999999999998
 10
1029.6
 20
901.7999999999998
  0
CIRCLE
  5
F9
330
17
100
AcDbEntity
  8
CUT_HOLES
100
AcDbCircle
 10
1054.9999999999998
 20
941.7999999999998
 30
0.0
 40
5.0
  0
TEXT
  5
FA
330
17
100
AcDbEntity
  8
PART_MARK_NO_CUT
100
AcDbText
 10
1031.6
 20
903.7999999999998
 30
0.0
 40
3.0
  1
H_BEAM_STACK_PAD_2 #2
100
AcDbText
  0
LWPOLYLINE
  5
FB
330
17
100
AcDbEntity
  8
CUT_OUTER
100
AcDbPolyline
 90
4
 70
1
 10
927.6
 20
1377.096
 10
977.6
 20
1377.096
 10
977.6
 20
1427.896
 10
927.6
 20
1427.896
  0
CIRCLE
  5
FC
330
17
100
AcDbEntity
  8
CUT_HOLES
100
AcDbCircle
 10
967.6
 20
1402.496
 30
0.0
 40
5.0
  0
TEXT
  5
FD
330
17
100
AcDbEntity
  8
PART_MARK_NO_CUT
100
AcDbText
 10
929.6
 20
1379.096
 30
0.0
 40
3.0
  1
H_BEAM_STACK_PAD_2 #3
100
AcDbText
  0
LWPOLYLINE
  5
FE
330
17
100
AcDbEntity
  8
CUT_OUTER
100
AcDbPolyline
 90
4
 70
1
 10
983.6
 20
1377.096
 10
1033.6
 20
1377.096
 10
1033.6
 20
1427.896
 10
983.6
 20
1427.896
  0
CIRCLE
  5
FF
330
17
100
AcDbEntity
  8
CUT_HOLES
100
AcDbCircle
 10
1023.6
 20
1402.496
 30
0.0
 40
5.0
  0
TEXT
  5
100
330
17
100
AcDbEntity
  8
PART_MARK_NO_CUT
100
AcDbText
 10
985.6
 20
1379.096
 30
0.0
 40
3.0
  1
H_BEAM_STACK_PAD_2 #4
100
AcDbText
  0
LWPOLYLINE
  5
101
330
17
100
AcDbEntity
  8
CUT_OUTER
100
AcDbPolyline
 90
4
 70
1
 10
1039.6
 20
1377.096
 10
1089.6
 20
1377.096
 10
1089.6
 20
1427.896
 10
1039.6
 20
1427.896
  0
CIRCLE
  5
102
330
17
100
AcDbEntity
  8
CUT_HOLES
100
AcDbCircle
 10
1064.6
 20
1392.496
 30
0.0
 40
9.0
  0
CIRCLE
  5
103
330
17
100
AcDbEntity
  8
CUT_HOLES
100
AcDbCircle
 10
1064.6
 20
1417.496
 30
0.0
 40
3.0
  0
TEXT
  5
104
330
17
100
AcDbEntity
  8
PART_MARK_NO_CUT
100
AcDbText
 10
1041.6
 20
1379.096
 30
0.0
 40
3.0
  1
G_BEAM_FOOT_BASE #1
100
AcDbText
  0
LWPOLYLINE
  5
105
330
17
100
AcDbEntity
  8
CUT_OUTER
100
AcDbPolyline
 90
4
 70
1
 10
916.4
 20
1054.096
 10
916.4
 20
1104.096
 10
865.6
 20
1104.096
 10
865.6
 20
1054.096
  0
CIRCLE
  5
106
330
17
100
AcDbEntity
  8
CUT_HOLES
100
AcDbCircle
 10
901.0
 20
1079.096
 30
0.0
 40
9.0
  0
CIRCLE
  5
107
330
17
100
AcDbEntity
  8
CUT_HOLES
100
AcDbCircle
 10
876.0
 20
1079.096
 30
0.0
 40
3.0
  0
TEXT
  5
108
330
17
100
AcDbEntity
  8
PART_MARK_NO_CUT
100
AcDbText
 10
867.6
 20
1056.096
 30
0.0
 40
3.0
  1
G_BEAM_FOOT_BASE #2
100
AcDbText
  0
LWPOLYLINE
  5
109
330
17
100
AcDbEntity
  8
CUT_OUTER
100
AcDbPolyline
 90
4
 70
1
 10
973.1999999999999
 20
1054.096
 10
973.1999999999999
 20
1104.096
 10
922.4
 20
1104.096
 10
922.4
 20
1054.096
  0
CIRCLE
  5
10A
330
17
100
AcDbEntity
  8
CUT_HOLES
100
AcDbCircle
 10
957.8
 20
1079.096
 30
0.0
 40
9.0
  0
CIRCLE
  5
10B
330
17
100
AcDbEntity
  8
CUT_HOLES
100
AcDbCircle
 10
932.8
 20
1079.096
 30
0.0
 40
3.0
  0
TEXT
  5
10C
330
17
100
AcDbEntity
  8
PART_MARK_NO_CUT
100
AcDbText
 10
924.4
 20
1056.096
 30
0.0
 40
3.0
  1
G_BEAM_FOOT_BASE #3
100
AcDbText
  0
LWPOLYLINE
  5
10D
330
17
100
AcDbEntity
  8
CUT_OUTER
100
AcDbPolyline
 90
4
 70
1
 10
1030.0
 20
1054.096
 10
1030.0
 20
1104.096
 10
979.2
 20
1104.096
 10
979.2
 20
1054.096
  0
CIRCLE
  5
10E
330
17
100
AcDbEntity
  8
CUT_HOLES
100
AcDbCircle
 10
1014.6
 20
1079.096
 30
0.0
 40
9.0
  0
CIRCLE
  5
10F
330
17
100
AcDbEntity
  8
CUT_HOLES
100
AcDbCircle
 10
989.6
 20
1079.096
 30
0.0
 40
3.0
  0
TEXT
  5
110
330
17
100
AcDbEntity
  8
PART_MARK_NO_CUT
100
AcDbText
 10
981.1999999999999
 20
1056.096
 30
0.0
 40
3.0
  1
G_BEAM_FOOT_BASE #4
100
AcDbText
  0
LWPOLYLINE
  5
111
330
17
100
AcDbEntity
  8
CUT_OUTER
100
AcDbPolyline
 90
4
 70
1
 10
1086.8
 20
1054.096
 10
1086.8
 20
1104.096
 10
1036.0
 20
1104.096
 10
1036.0
 20
1054.096
  0
CIRCLE
  5
112
330
17
100
AcDbEntity
  8
CUT_HOLES
100
AcDbCircle
 10
1071.3999999999999
 20
1079.096
 30
0.0
 40
9.0
  0
CIRCLE
  5
113
330
17
100
AcDbEntity
  8
CUT_HOLES
100
AcDbCircle
 10
1046.3999999999999
 20
1079.096
 30
0.0
 40
3.0
  0
TEXT
  5
114
330
17
100
AcDbEntity
  8
PART_MARK_NO_CUT
100
AcDbText
 10
1038.0
 20
1056.096
 30
0.0
 40
3.0
  1
G_BEAM_FOOT_BASE #5
100
AcDbText
  0
LWPOLYLINE
  5
115
330
17
100
AcDbEntity
  8
CUT_OUTER
100
AcDbPolyline
 90
4
 70
1
 10
855.4
 20
1110.096
 10
905.4
 20
1110.096
 10
905.4
 20
1160.896
 10
855.4
 20
1160.896
  0
CIRCLE
  5
116
330
17
100
AcDbEntity
  8
CUT_HOLES
100
AcDbCircle
 10
880.4
 20
1125.496
 30
0.0
 40
9.0
  0
CIRCLE
  5
117
330
17
100
AcDbEntity
  8
CUT_HOLES
100
AcDbCircle
 10
880.4
 20
1150.496
 30
0.0
 40
3.0
  0
TEXT
  5
118
330
17
100
AcDbEntity
  8
PART_MARK_NO_CUT
100
AcDbText
 10
857.4
 20
1112.096
 30
0.0
 40
3.0
  1
G_BEAM_FOOT_BASE #6
100
AcDbText
  0
LWPOLYLINE
  5
119
330
17
100
AcDbEntity
  8
CUT_OUTER
100
AcDbPolyline
 90
4
 70
1
 10
855.4
 20
1166.896
 10
905.4
 20
1166.896
 10
905.4
 20
1217.696
 10
855.4
 20
1217.696
  0
CIRCLE
  5
11A
330
17
100
AcDbEntity
  8
CUT_HOLES
100
AcDbCircle
 10
880.4
 20
1182.296
 30
0.0
 40
9.0
  0
CIRCLE
  5
11B
330
17
100
AcDbEntity
  8
CUT_HOLES
100
AcDbCircle
 10
880.4
 20
1207.296
 30
0.0
 40
3.0
  0
TEXT
  5
11C
330
17
100
AcDbEntity
  8
PART_MARK_NO_CUT
100
AcDbText
 10
857.4
 20
1168.896
 30
0.0
 40
3.0
  1
G_BEAM_FOOT_BASE #7
100
AcDbText
  0
LWPOLYLINE
  5
11D
330
17
100
AcDbEntity
  8
CUT_OUTER
100
AcDbPolyline
 90
4
 70
1
 10
855.4
 20
1223.696
 10
905.4
 20
1223.696
 10
905.4
 20
1274.4959999999999
 10
855.4
 20
1274.4959999999999
  0
CIRCLE
  5
11E
330
17
100
AcDbEntity
  8
CUT_HOLES
100
AcDbCircle
 10
880.4
 20
1239.096
 30
0.0
 40
9.0
  0
CIRCLE
  5
11F
330
17
100
AcDbEntity
  8
CUT_HOLES
100
AcDbCircle
 10
880.4
 20
1264.096
 30
0.0
 40
3.0
  0
TEXT
  5
120
330
17
100
AcDbEntity
  8
PART_MARK_NO_CUT
100
AcDbText
 10
857.4
 20
1225.696
 30
0.0
 40
3.0
  1
G_BEAM_FOOT_BASE #8
100
AcDbText
  0
LWPOLYLINE
  5
121
330
17
100
AcDbEntity
  8
CUT_OUTER
100
AcDbPolyline
 90
4
 70
1
 10
444.79999999999995
 20
1385.0
 10
524.0
 20
1385.0
 10
524.0
 20
1415.0
 10
444.79999999999995
 20
1415.0
  0
TEXT
  5
122
330
17
100
AcDbEntity
  8
PART_MARK_NO_CUT
100
AcDbText
 10
446.79999999999995
 20
1387.0
 30
0.0
 40
3.0
  1
H_SPOIL_GUARD_ARM #1
100
AcDbText
  0
LWPOLYLINE
  5
123
330
17
100
AcDbEntity
  8
CUT_OUTER
100
AcDbPolyline
 90
4
 70
1
 10
1130.696
 20
1306.3999999999999
 10
1179.9959999999999
 20
1306.3999999999999
 10
1179.9959999999999
 20
1346.3999999999999
 10
1130.696
 20
1346.3999999999999
  0
TEXT
  5
124
330
17
100
AcDbEntity
  8
PART_MARK_NO_CUT
100
AcDbText
 10
1132.696
 20
1308.3999999999999
 30
0.0
 40
3.0
  1
G_HW_MOUNT_SHELF #1
100
AcDbText
  0
LWPOLYLINE
  5
125
330
17
100
AcDbEntity
  8
CUT_OUTER
100
AcDbPolyline
 90
4
 70
1
 10
815.8
 20
1433.896
 10
877.6719999999999
 20
1433.896
 10
877.6719999999999
 20
1459.896
 10
815.8
 20
1459.896
  0
CIRCLE
  5
126
330
17
100
AcDbEntity
  8
CUT_HOLES
100
AcDbCircle
 10
865.6719999999999
 20
1446.896
 30
0.0
 40
10.0
  0
TEXT
  5
127
330
17
100
AcDbEntity
  8
PART_MARK_NO_CUT
100
AcDbText
 10
817.8
 20
1435.896
 30
0.0
 40
3.0
  1
I_SUCTION_REAR_EYE #1
100
AcDbText
  0
LWPOLYLINE
  5
128
330
17
100
AcDbEntity
  8
CUT_OUTER
100
AcDbPolyline
 90
4
 70
1
 10
883.6719999999999
 20
1433.896
 10
945.5439999999999
 20
1433.896
 10
945.5439999999999
 20
1459.896
 10
883.6719999999999
 20
1459.896
  0
CIRCLE
  5
129
330
17
100
AcDbEntity
  8
CUT_HOLES
100
AcDbCircle
 10
933.5439999999999
 20
1446.896
 30
0.0
 40
10.0
  0
TEXT
  5
12A
330
17
100
AcDbEntity
  8
PART_MARK_NO_CUT
100
AcDbText
 10
885.6719999999999
 20
1435.896
 30
0.0
 40
3.0
  1
I_SUCTION_REAR_EYE #2
100
AcDbText
  0
LWPOLYLINE
  5
12B
330
17
100
AcDbEntity
  8
CUT_OUTER
100
AcDbPolyline
 90
53
 70
1
 10
1001.5439999999999
 20
1433.896
 10
951.5439999999999
 20
1433.896
 10
951.5439999999999
 20
1459.896
 10
1001.5439999999999
 20
1459.896
 10
1001.5439999999999
 20
1457.3611658371954
 10
1000.7271871665253
 20
1457.5651988372103
 10
999.8970632167067
 20
1457.7055800965065
 10
999.0585806156002
 20
1457.7814721096952
 10
998.2167416954277
 20
1457.7924221100013
 10
997.3765688119902
 20
1457.7383647704414
 10
996.5430743816229
 20
1457.619622593559
 10
995.7212309774482
 20
1457.4369039873952
 10
994.9159416633295
 20
1457.191299039175
 10
994.1320107425149
 20
1456.8842730119152
 10
993.3741150954783
 20
1456.5176576027643
 10
992.6467762779571
 20
1456.0936400152154
 10
991.9543335456474
 20
1455.6147499103943
 10
991.3009179664892
 20
1455.083844315267
 10
990.6904277749853
 20
1454.5040905778046
 10
990.1265051155905
 20
1453.8789474707924
 10
989.6125143139162
 20
1453.2121445570178
 10
989.1515218053845
 20
1452.5076599389447
 10
988.7462778410755
 20
1451.7696965256137
 10
988.3992000799099
 20
1451.0026569583629
 10
988.1123591650539
 20
1450.2111173449584
 10
987.8874663705986
 20
1449.399799958835
 10
987.72586339221
 20
1448.573545066323
 10
987.6285143426616
 20
1447.7372820499363
 10
987.5959999999999
 20
1446.896
 10
987.6285143426616
 20
1446.0547179500636
 10
987.72586339221
 20
1445.2184549336769
 10
987.8874663705986
 20
1444.3922000411649
 10
988.1123591650539
 20
1443.5808826550415
 10
988.3992000799099
 20
1442.789343041637
 10
988.7462778410755
 20
1442.0223034743863
 10
989.1515218053845
 20
1441.2843400610552
 10
989.6125143139162
 20
1440.579855442982
 10
990.1265051155905
 20
1439.9130525292076
 10
990.6904277749853
 20
1439.2879094221953
 10
991.3009179664892
 20
1438.708155684733
 10
991.9543335456474
 20
1438.1772500896056
 10
992.6467762779571
 20
1437.6983599847845
 10
993.3741150954783
 20
1437.2743423972356
 10
994.1320107425149
 20
1436.9077269880847
 10
994.9159416633295
 20
1436.600700960825
 10
995.721230977448
 20
1436.3550960126047
 10
996.5430743816229
 20
1436.172377406441
 10
997.3765688119902
 20
1436.0536352295585
 10
998.2167416954277
 20
1435.9995778899986
 10
999.0585806156002
 20
1436.0105278903047
 10
999.8970632167067
 20
1436.0864199034934
 10
1000.7271871665253
 20
1436.2268011627896
 10
1001.5439999999999
 20
1436.4308341628046
  0
TEXT
  5
12C
330
17
100
AcDbEntity
  8
PART_MARK_NO_CUT
100
AcDbText
 10
953.5439999999999
 20
1435.896
 30
0.0
 40
3.0
  1
H_REFILL_STAY #1
100
AcDbText
  0
LWPOLYLINE
  5
12D
330
17
100
AcDbEntity
  8
CUT_OUTER
100
AcDbPolyline
 90
4
 70
1
 10
1037.5439999999999
 20
1433.896
 10
1037.5439999999999
 20
1459.896
 10
1007.5439999999999
 20
1459.896
 10
1007.5439999999999
 20
1433.896
  0
CIRCLE
  5
12E
330
17
100
AcDbEntity
  8
CUT_HOLES
100
AcDbCircle
 10
1022.5439999999999
 20
1452.896
 30
0.0
 40
3.3
  0
TEXT
  5
12F
330
17
100
AcDbEntity
  8
PART_MARK_NO_CUT
100
AcDbText
 10
1009.5439999999999
 20
1435.896
 30
0.0
 40
3.0
  1
WP_HOLD_TAB_1 #1
100
AcDbText
  0
LWPOLYLINE
  5
130
330
17
100
AcDbEntity
  8
CUT_OUTER
100
AcDbPolyline
 90
4
 70
1
 10
1073.5439999999999
 20
1433.896
 10
1073.5439999999999
 20
1459.896
 10
1043.5439999999999
 20
1459.896
 10
1043.5439999999999
 20
1433.896
  0
CIRCLE
  5
131
330
17
100
AcDbEntity
  8
CUT_HOLES
100
AcDbCircle
 10
1058.5439999999999
 20
1440.896
 30
0.0
 40
3.3
  0
TEXT
  5
132
330
17
100
AcDbEntity
  8
PART_MARK_NO_CUT
100
AcDbText
 10
1045.5439999999999
 20
1435.896
 30
0.0
 40
3.0
  1
WP_HOLD_TAB_2 #1
100
AcDbText
  0
LWPOLYLINE
  5
133
330
17
100
AcDbEntity
  8
CUT_OUTER
100
AcDbPolyline
 90
4
 70
1
 10
1109.5439999999999
 20
1433.896
 10
1109.5439999999999
 20
1459.896
 10
1079.5439999999999
 20
1459.896
 10
1079.5439999999999
 20
1433.896
  0
CIRCLE
  5
134
330
17
100
AcDbEntity
  8
CUT_HOLES
100
AcDbCircle
 10
1094.5439999999999
 20
1452.896
 30
0.0
 40
3.3
  0
TEXT
  5
135
330
17
100
AcDbEntity
  8
PART_MARK_NO_CUT
100
AcDbText
 10
1081.5439999999999
 20
1435.896
 30
0.0
 40
3.0
  1
WP_HOLD_TAB_3 #1
100
AcDbText
  0
LWPOLYLINE
  5
136
330
17
100
AcDbEntity
  8
CUT_OUTER
100
AcDbPolyline
 90
4
 70
1
 10
530.0
 20
1385.0
 10
556.0
 20
1385.0
 10
556.0
 20
1415.0
 10
530.0
 20
1415.0
  0
CIRCLE
  5
137
330
17
100
AcDbEntity
  8
CUT_HOLES
100
AcDbCircle
 10
537.0
 20
1400.0
 30
0.0
 40
3.3
  0
TEXT
  5
138
330
17
100
AcDbEntity
  8
PART_MARK_NO_CUT
100
AcDbText
 10
532.0
 20
1387.0
 30
0.0
 40
3.0
  1
WP_HOLD_TAB_4 #1
100
AcDbText
  0
LWPOLYLINE
  5
139
330
17
100
AcDbEntity
  8
CUT_OUTER
100
AcDbPolyline
 90
4
 70
1
 10
562.0
 20
1385.0
 10
582.0
 20
1385.0
 10
582.0
 20
1415.952
 10
562.0
 20
1415.952
  0
TEXT
  5
13A
330
17
100
AcDbEntity
  8
PART_MARK_NO_CUT
100
AcDbText
 10
564.0
 20
1387.0
 30
0.0
 40
3.0
  1
I_SUCTION_STANDOFF #1
100
AcDbText
  0
LWPOLYLINE
  5
13B
330
17
100
AcDbEntity
  8
CUT_OUTER
100
AcDbPolyline
 90
4
 70
1
 10
1126.552
 20
1377.096
 10
1126.552
 20
1397.096
 10
1095.6
 20
1397.096
 10
1095.6
 20
1377.096
  0
TEXT
  5
13C
330
17
100
AcDbEntity
  8
PART_MARK_NO_CUT
100
AcDbText
 10
1097.6
 20
1379.096
 30
0.0
 40
3.0
  1
I_SUCTION_STANDOFF #2
100
AcDbText
  0
LWPOLYLINE
  5
13D
330
17
100
AcDbEntity
  8
CUT_OUTER
100
AcDbPolyline
 90
4
 70
1
 10
1125.6
 20
1403.096
 10
1125.6
 20
1423.096
 10
1095.6
 20
1423.096
 10
1095.6
 20
1403.096
  0
CIRCLE
  5
13E
330
17
100
AcDbEntity
  8
CUT_HOLES
100
AcDbCircle
 10
1110.6
 20
1413.096
 30
0.0
 40
3.3
  0
TEXT
  5
13F
330
17
100
AcDbEntity
  8
PART_MARK_NO_CUT
100
AcDbText
 10
1097.6
 20
1405.096
 30
0.0
 40
3.0
  1
G_PANEL_CLAMP_20x30 #1
100
AcDbText
  0
LWPOLYLINE
  5
140
330
17
100
AcDbEntity
  8
CUT_OUTER
100
AcDbPolyline
 90
4
 70
1
 10
1202.0
 20
1507.0
 10
1202.0
 20
1527.0
 10
1172.0
 20
1527.0
 10
1172.0
 20
1507.0
  0
CIRCLE
  5
141
330
17
100
AcDbEntity
  8
CUT_HOLES
100
AcDbCircle
 10
1187.0
 20
1517.0
 30
0.0
 40
3.3
  0
TEXT
  5
142
330
17
100
AcDbEntity
  8
PART_MARK_NO_CUT
100
AcDbText
 10
1174.0
 20
1509.0
 30
0.0
 40
3.0
  1
G_PANEL_CLAMP_20x30 #2
100
AcDbText
  0
LWPOLYLINE
  5
143
330
17
100
AcDbEntity
  8
CUT_OUTER
100
AcDbPolyline
 90
4
 70
1
 10
1202.0
 20
1533.0
 10
1202.0
 20
1553.0
 10
1172.0
 20
1553.0
 10
1172.0
 20
1533.0
  0
CIRCLE
  5
144
330
17
100
AcDbEntity
  8
CUT_HOLES
100
AcDbCircle
 10
1187.0
 20
1543.0
 30
0.0
 40
3.3
  0
TEXT
  5
145
330
17
100
AcDbEntity
  8
PART_MARK_NO_CUT
100
AcDbText
 10
1174.0
 20
1535.0
 30
0.0
 40
3.0
  1
G_PANEL_CLAMP_20x30 #3
100
AcDbText
  0
LWPOLYLINE
  5
146
330
17
100
AcDbEntity
  8
CUT_OUTER
100
AcDbPolyline
 90
4
 70
1
 10
570.6
 20
1232.0
 10
570.6
 20
1252.0
 10
540.6
 20
1252.0
 10
540.6
 20
1232.0
  0
CIRCLE
  5
147
330
17
100
AcDbEntity
  8
CUT_HOLES
100
AcDbCircle
 10
555.6
 20
1242.0
 30
0.0
 40
3.3
  0
TEXT
  5
148
330
17
100
AcDbEntity
  8
PART_MARK_NO_CUT
100
AcDbText
 10
542.6
 20
1234.0
 30
0.0
 40
3.0
  1
G_PANEL_CLAMP_20x30 #4
100
AcDbText
  0
LWPOLYLINE
  5
149
330
17
100
AcDbEntity
  8
CUT_OUTER
100
AcDbPolyline
 90
4
 70
1
 10
570.6
 20
1258.0
 10
570.6
 20
1278.0
 10
540.6
 20
1278.0
 10
540.6
 20
1258.0
  0
CIRCLE
  5
14A
330
17
100
AcDbEntity
  8
CUT_HOLES
100
AcDbCircle
 10
555.6
 20
1268.0
 30
0.0
 40
3.3
  0
TEXT
  5
14B
330
17
100
AcDbEntity
  8
PART_MARK_NO_CUT
100
AcDbText
 10
542.6
 20
1260.0
 30
0.0
 40
3.0
  1
G_PANEL_CLAMP_20x30 #5
100
AcDbText
  0
LWPOLYLINE
  5
14C
330
17
100
AcDbEntity
  8
CUT_OUTER
100
AcDbPolyline
 90
4
 70
1
 10
791.6
 20
1232.0
 10
791.6
 20
1252.0
 10
761.6
 20
1252.0
 10
761.6
 20
1232.0
  0
CIRCLE
  5
14D
330
17
100
AcDbEntity
  8
CUT_HOLES
100
AcDbCircle
 10
776.6
 20
1242.0
 30
0.0
 40
3.3
  0
TEXT
  5
14E
330
17
100
AcDbEntity
  8
PART_MARK_NO_CUT
100
AcDbText
 10
763.6
 20
1234.0
 30
0.0
 40
3.0
  1
G_PANEL_CLAMP_20x30 #6
100
AcDbText
  0
LWPOLYLINE
  5
14F
330
17
100
AcDbEntity
  8
CUT_OUTER
100
AcDbPolyline
 90
4
 70
1
 10
791.6
 20
1258.0
 10
791.6
 20
1278.0
 10
761.6
 20
1278.0
 10
761.6
 20
1258.0
  0
CIRCLE
  5
150
330
17
100
AcDbEntity
  8
CUT_HOLES
100
AcDbCircle
 10
776.6
 20
1268.0
 30
0.0
 40
3.3
  0
TEXT
  5
151
330
17
100
AcDbEntity
  8
PART_MARK_NO_CUT
100
AcDbText
 10
763.6
 20
1260.0
 30
0.0
 40
3.0
  1
G_PANEL_CLAMP_20x30 #7
100
AcDbText
  0
LWPOLYLINE
  5
152
330
17
100
AcDbEntity
  8
CUT_OUTER
100
AcDbPolyline
 90
4
 70
1
 10
791.6
 20
1284.0
 10
791.6
 20
1304.0
 10
761.6
 20
1304.0
 10
761.6
 20
1284.0
  0
CIRCLE
  5
153
330
17
100
AcDbEntity
  8
CUT_HOLES
100
AcDbCircle
 10
776.6
 20
1294.0
 30
0.0
 40
3.3
  0
TEXT
  5
154
330
17
100
AcDbEntity
  8
PART_MARK_NO_CUT
100
AcDbText
 10
763.6
 20
1286.0
 30
0.0
 40
3.0
  1
G_PANEL_CLAMP_20x30 #8
100
AcDbText
  0
LWPOLYLINE
  5
155
330
17
100
AcDbEntity
  8
CUT_OUTER
100
AcDbPolyline
 90
4
 70
1
 10
791.6
 20
1310.0
 10
791.6
 20
1330.0
 10
761.6
 20
1330.0
 10
761.6
 20
1310.0
  0
CIRCLE
  5
156
330
17
100
AcDbEntity
  8
CUT_HOLES
100
AcDbCircle
 10
776.6
 20
1320.0
 30
0.0
 40
3.3
  0
TEXT
  5
157
330
17
100
AcDbEntity
  8
PART_MARK_NO_CUT
100
AcDbText
 10
763.6
 20
1312.0
 30
0.0
 40
3.0
  1
G_PANEL_CLAMP_20x30 #9
100
AcDbText
  0
LWPOLYLINE
  5
158
330
17
100
AcDbEntity
  8
CUT_OUTER
100
AcDbPolyline
 90
4
 70
1
 10
761.6
 20
1336.0
 10
781.6
 20
1336.0
 10
781.6
 20
1366.0
 10
761.6
 20
1366.0
  0
CIRCLE
  5
159
330
17
100
AcDbEntity
  8
CUT_HOLES
100
AcDbCircle
 10
771.6
 20
1351.0
 30
0.0
 40
3.3
  0
TEXT
  5
15A
330
17
100
AcDbEntity
  8
PART_MARK_NO_CUT
100
AcDbText
 10
763.6
 20
1338.0
 30
0.0
 40
3.0
  1
G_PANEL_CLAMP_20x30 #10
100
AcDbText
  0
LWPOLYLINE
  5
15B
330
17
100
AcDbEntity
  8
CUT_OUTER
100
AcDbPolyline
 90
4
 70
1
 10
855.4
 20
1280.4959999999999
 10
875.4
 20
1280.4959999999999
 10
875.4
 20
1310.4959999999999
 10
855.4
 20
1310.4959999999999
  0
CIRCLE
  5
15C
330
17
100
AcDbEntity
  8
CUT_HOLES
100
AcDbCircle
 10
865.4
 20
1295.4959999999999
 30
0.0
 40
3.3
  0
TEXT
  5
15D
330
17
100
AcDbEntity
  8
PART_MARK_NO_CUT
100
AcDbText
 10
857.4
 20
1282.4959999999999
 30
0.0
 40
3.0
  1
G_PANEL_CLAMP_20x30 #11
100
AcDbText
  0
LWPOLYLINE
  5
15E
330
17
100
AcDbEntity
  8
CUT_OUTER
100
AcDbPolyline
 90
4
 70
1
 10
855.4
 20
1316.4959999999999
 10
875.4
 20
1316.4959999999999
 10
875.4
 20
1346.4959999999999
 10
855.4
 20
1346.4959999999999
  0
CIRCLE
  5
15F
330
17
100
AcDbEntity
  8
CUT_HOLES
100
AcDbCircle
 10
865.4
 20
1331.4959999999999
 30
0.0
 40
3.3
  0
TEXT
  5
160
330
17
100
AcDbEntity
  8
PART_MARK_NO_CUT
100
AcDbText
 10
857.4
 20
1318.4959999999999
 30
0.0
 40
3.0
  1
G_PANEL_CLAMP_20x30 #12
100
AcDbText
  0
LWPOLYLINE
  5
161
330
17
100
AcDbEntity
  8
CUT_OUTER
100
AcDbPolyline
 90
4
 70
1
 10
881.4
 20
1280.4959999999999
 10
901.4
 20
1280.4959999999999
 10
901.4
 20
1310.4959999999999
 10
881.4
 20
1310.4959999999999
  0
CIRCLE
  5
162
330
17
100
AcDbEntity
  8
CUT_HOLES
100
AcDbCircle
 10
891.4
 20
1295.4959999999999
 30
0.0
 40
3.3
  0
TEXT
  5
163
330
17
100
AcDbEntity
  8
PART_MARK_NO_CUT
100
AcDbText
 10
883.4
 20
1282.4959999999999
 30
0.0
 40
3.0
  1
G_PANEL_CLAMP_20x30 #13
100
AcDbText
  0
LWPOLYLINE
  5
164
330
17
100
AcDbEntity
  8
CUT_OUTER
100
AcDbPolyline
 90
4
 70
1
 10
881.4
 20
1316.4959999999999
 10
901.4
 20
1316.4959999999999
 10
901.4
 20
1346.4959999999999
 10
881.4
 20
1346.4959999999999
  0
CIRCLE
  5
165
330
17
100
AcDbEntity
  8
CUT_HOLES
100
AcDbCircle
 10
891.4
 20
1331.4959999999999
 30
0.0
 40
3.3
  0
TEXT
  5
166
330
17
100
AcDbEntity
  8
PART_MARK_NO_CUT
100
AcDbText
 10
883.4
 20
1318.4959999999999
 30
0.0
 40
3.0
  1
G_PANEL_CLAMP_20x30 #14
100
AcDbText
  0
LWPOLYLINE
  5
167
330
17
100
AcDbEntity
  8
CUT_OUTER
100
AcDbPolyline
 90
4
 70
1
 10
907.4
 20
1280.4959999999999
 10
927.4
 20
1280.4959999999999
 10
927.4
 20
1310.4959999999999
 10
907.4
 20
1310.4959999999999
  0
CIRCLE
  5
168
330
17
100
AcDbEntity
  8
CUT_HOLES
100
AcDbCircle
 10
917.4
 20
1295.4959999999999
 30
0.0
 40
3.3
  0
TEXT
  5
169
330
17
100
AcDbEntity
  8
PART_MARK_NO_CUT
100
AcDbText
 10
909.4
 20
1282.4959999999999
 30
0.0
 40
3.0
  1
G_PANEL_CLAMP_20x30 #15
100
AcDbText
  0
LWPOLYLINE
  5
16A
330
17
100
AcDbEntity
  8
CUT_OUTER
100
AcDbPolyline
 90
4
 70
1
 10
907.4
 20
1316.4959999999999
 10
927.4
 20
1316.4959999999999
 10
927.4
 20
1346.4959999999999
 10
907.4
 20
1346.4959999999999
  0
CIRCLE
  5
16B
330
17
100
AcDbEntity
  8
CUT_HOLES
100
AcDbCircle
 10
917.4
 20
1331.4959999999999
 30
0.0
 40
3.3
  0
TEXT
  5
16C
330
17
100
AcDbEntity
  8
PART_MARK_NO_CUT
100
AcDbText
 10
909.4
 20
1318.4959999999999
 30
0.0
 40
3.0
  1
G_PANEL_CLAMP_20x30 #16
100
AcDbText
  0
ENDSEC
  0
SECTION
  2
OBJECTS
  0
DICTIONARY
  5
A
330
0
100
AcDbDictionary
281
1
  3
ACAD_COLOR
350
B
  3
ACAD_GROUP
350
C
  3
ACAD_LAYOUT
350
D
  3
ACAD_MATERIAL
350
E
  3
ACAD_MLEADERSTYLE
350
F
  3
ACAD_MLINESTYLE
350
10
  3
ACAD_PLOTSETTINGS
350
11
  3
ACAD_PLOTSTYLENAME
350
12
  3
ACAD_SCALELIST
350
14
  3
ACAD_TABLESTYLE
350
15
  3
ACAD_VISUALSTYLE
350
16
  3
EZDXF_META
350
2D
  0
DICTIONARY
  5
B
330
A
100
AcDbDictionary
281
1
  0
DICTIONARY
  5
C
330
A
100
AcDbDictionary
281
1
  0
DICTIONARY
  5
D
330
A
100
AcDbDictionary
281
1
  3
Model
350
1A
  3
Layout1
350
1E
  0
DICTIONARY
  5
E
330
A
100
AcDbDictionary
281
1
  3
ByBlock
350
1F
  3
ByLayer
350
20
  3
Global
350
21
  0
DICTIONARY
  5
F
330
A
100
AcDbDictionary
281
1
  3
Standard
350
2C
  0
DICTIONARY
  5
10
330
A
100
AcDbDictionary
281
1
  3
Standard
350
22
  0
DICTIONARY
  5
11
330
A
100
AcDbDictionary
281
1
  0
ACDBDICTIONARYWDFLT
  5
12
330
A
100
AcDbDictionary
281
1
  3
Normal
350
13
100
AcDbDictionaryWithDefault
340
13
  0
ACDBPLACEHOLDER
  5
13
330
12
  0
DICTIONARY
  5
14
330
A
100
AcDbDictionary
281
1
  0
DICTIONARY
  5
15
330
A
100
AcDbDictionary
281
1
  0
DICTIONARY
  5
16
330
A
100
AcDbDictionary
281
1
  0
LAYOUT
  5
1A
330
D
100
AcDbPlotSettings
  1

  4
A3
  6

 40
7.5
 41
20.0
 42
7.5
 43
20.0
 44
420.0
 45
297.0
 46
0.0
 47
0.0
 48
0.0
 49
0.0
140
0.0
141
0.0
142
1.0
143
1.0
 70
1024
 72
1
 73
0
 74
5
  7

 75
16
 76
0
 77
2
 78
300
147
1.0
148
0.0
149
0.0
100
AcDbLayout
  1
Model
 70
1
 71
0
 10
0.0
 20
0.0
 11
420.0
 21
297.0
 12
0.0
 22
0.0
 32
0.0
 14
1e+20
 24
1e+20
 34
1e+20
 15
-1e+20
 25
-1e+20
 35
-1e+20
146
0.0
 13
0.0
 23
0.0
 33
0.0
 16
1.0
 26
0.0
 36
0.0
 17
0.0
 27
1.0
 37
0.0
 76
1
330
17
  0
LAYOUT
  5
1E
330
D
100
AcDbPlotSettings
  1

  4
A3
  6

 40
7.5
 41
20.0
 42
7.5
 43
20.0
 44
420.0
 45
297.0
 46
0.0
 47
0.0
 48
0.0
 49
0.0
140
0.0
141
0.0
142
1.0
143
1.0
 70
0
 72
1
 73
0
 74
5
  7

 75
16
 76
0
 77
2
 78
300
147
1.0
148
0.0
149
0.0
100
AcDbLayout
  1
Layout1
 70
1
 71
1
 10
0.0
 20
0.0
 11
420.0
 21
297.0
 12
0.0
 22
0.0
 32
0.0
 14
1e+20
 24
1e+20
 34
1e+20
 15
-1e+20
 25
-1e+20
 35
-1e+20
146
0.0
 13
0.0
 23
0.0
 33
0.0
 16
1.0
 26
0.0
 36
0.0
 17
0.0
 27
1.0
 37
0.0
 76
1
330
1B
  0
MATERIAL
  5
1F
102
{ACAD_REACTORS
330
E
102
}
330
E
100
AcDbMaterial
  1
ByBlock
  2

 70
0
 40
1.0
 71
1
 41
1.0
 91
-1023410177
 42
1.0
 72
1
  3

 73
1
 74
1
 75
1
 44
0.5
 73
0
 45
1.0
 46
1.0
 77
1
  4

 78
1
 79
1
170
1
 48
1.0
171
1
  6

172
1
173
1
174
1
140
1.0
141
1.0
175
1
  7

176
1
177
1
178
1
143
1.0
179
1
  8

270
1
271
1
272
1
145
1.0
146
1.0
273
1
  9

274
1
275
1
276
1
 42
1.0
 72
1
  3

 73
1
 74
1
 75
1
 94
63
  0
MATERIAL
  5
20
102
{ACAD_REACTORS
330
E
102
}
330
E
100
AcDbMaterial
  1
ByLayer
  2

 70
0
 40
1.0
 71
1
 41
1.0
 91
-1023410177
 42
1.0
 72
1
  3

 73
1
 74
1
 75
1
 44
0.5
 73
0
 45
1.0
 46
1.0
 77
1
  4

 78
1
 79
1
170
1
 48
1.0
171
1
  6

172
1
173
1
174
1
140
1.0
141
1.0
175
1
  7

176
1
177
1
178
1
143
1.0
179
1
  8

270
1
271
1
272
1
145
1.0
146
1.0
273
1
  9

274
1
275
1
276
1
 42
1.0
 72
1
  3

 73
1
 74
1
 75
1
 94
63
  0
MATERIAL
  5
21
102
{ACAD_REACTORS
330
E
102
}
330
E
100
AcDbMaterial
  1
Global
  2

 70
0
 40
1.0
 71
1
 41
1.0
 91
-1023410177
 42
1.0
 72
1
  3

 73
1
 74
1
 75
1
 44
0.5
 73
0
 45
1.0
 46
1.0
 77
1
  4

 78
1
 79
1
170
1
 48
1.0
171
1
  6

172
1
173
1
174
1
140
1.0
141
1.0
175
1
  7

176
1
177
1
178
1
143
1.0
179
1
  8

270
1
271
1
272
1
145
1.0
146
1.0
273
1
  9

274
1
275
1
276
1
 42
1.0
 72
1
  3

 73
1
 74
1
 75
1
 94
63
  0
MLINESTYLE
  5
22
102
{ACAD_REACTORS
330
10
102
}
330
10
100
AcDbMlineStyle
  2
Standard
 70
0
  3

 62
256
 51
90.0
 52
90.0
 71
2
 49
0.5
 62
256
  6
BYLAYER
 49
-0.5
 62
256
  6
BYLAYER
  0
MLEADERSTYLE
  5
2C
102
{ACAD_REACTORS
330
F
102
}
330
F
100
AcDbMLeaderStyle
179
2
170
2
171
1
172
0
 90
2
 40
0.0
 41
0.0
173
1
 91
-1056964608
 92
-2
290
1
 42
2.0
291
1
 43
8.0
  3
Standard
 44
4.0
300

342
29
174
1
175
1
176
0
178
1
 93
-1056964608
 45
4.0
292
0
297
0
 46
4.0
 94
-1056964608
 47
1.0
 49
1.0
140
1.0
294
1
141
0.0
177
0
142
1.0
295
0
296
0
143
3.75
271
0
272
9
273
9
  0
DICTIONARY
  5
2D
330
A
100
AcDbDictionary
280
1
281
1
  3
CREATED_BY_EZDXF
350
2E
  3
WRITTEN_BY_EZDXF
350
16F
  0
DICTIONARYVAR
  5
2E
330
2D
100
DictionaryVariables
280
0
  1
1.4.4 @ 2026-09-26T20:58:39.870900+00:00
  0
DICTIONARYVAR
  5
16F
330
2D
100
DictionaryVariables
280
0
  1
1.4.4 @ 2026-09-26T20:58:40.527612+00:00
  0
ENDSEC
  0
EOF
