  0
SECTION
  2
HEADER
  9
$ACADVER
  1
AC1024
  9
$ACADMAINTVER
 70
6
  9
$DWGCODEPAGE
  3
ANSI_1252
  9
$LASTSAVEDBY
  1
ezdxf
  9
$INSBASE
 10
0.0
 20
0.0
 30
0.0
  9
$EXTMIN
 10
1e+20
 20
1e+20
 30
1e+20
  9
$EXTMAX
 10
-1e+20
 20
-1e+20
 30
-1e+20
  9
$LIMMIN
 10
0.0
 20
0.0
  9
$LIMMAX
 10
420.0
 20
297.0
  9
$ORTHOMODE
 70
0
  9
$REGENMODE
 70
1
  9
$FILLMODE
 70
1
  9
$QTEXTMODE
 70
0
  9
$MIRRTEXT
 70
1
  9
$LTSCALE
 40
1.0
  9
$ATTMODE
 70
1
  9
$TEXTSIZE
 40
2.5
  9
$TRACEWID
 40
1.0
  9
$TEXTSTYLE
  7
Standard
  9
$CLAYER
  8
0
  9
$CELTYPE
  6
ByLayer
  9
$CECOLOR
 62
256
  9
$CELTSCALE
 40
1.0
  9
$DISPSILH
 70
0
  9
$DIMSCALE
 40
1.0
  9
$DIMASZ
 40
2.5
  9
$DIMEXO
 40
0.625
  9
$DIMDLI
 40
3.75
  9
$DIMRND
 40
0.0
  9
$DIMDLE
 40
0.0
  9
$DIMEXE
 40
1.25
  9
$DIMTP
 40
0.0
  9
$DIMTM
 40
0.0
  9
$DIMTXT
 40
2.5
  9
$DIMCEN
 40
2.5
  9
$DIMTSZ
 40
0.0
  9
$DIMTOL
 70
0
  9
$DIMLIM
 70
0
  9
$DIMTIH
 70
0
  9
$DIMTOH
 70
0
  9
$DIMSE1
 70
0
  9
$DIMSE2
 70
0
  9
$DIMTAD
 70
1
  9
$DIMZIN
 70
8
  9
$DIMBLK
  1

  9
$DIMASO
 70
1
  9
$DIMSHO
 70
1
  9
$DIMPOST
  1

  9
$DIMAPOST
  1

  9
$DIMALT
 70
0
  9
$DIMALTD
 70
3
  9
$DIMALTF
 40
0.03937007874
  9
$DIMLFAC
 40
1.0
  9
$DIMTOFL
 70
1
  9
$DIMTVP
 40
0.0
  9
$DIMTIX
 70
0
  9
$DIMSOXD
 70
0
  9
$DIMSAH
 70
0
  9
$DIMBLK1
  1

  9
$DIMBLK2
  1

  9
$DIMSTYLE
  2
ISO-25
  9
$DIMCLRD
 70
0
  9
$DIMCLRE
 70
0
  9
$DIMCLRT
 70
0
  9
$DIMTFAC
 40
1.0
  9
$DIMGAP
 40
0.625
  9
$DIMJUST
 70
0
  9
$DIMSD1
 70
0
  9
$DIMSD2
 70
0
  9
$DIMTOLJ
 70
0
  9
$DIMTZIN
 70
8
  9
$DIMALTZ
 70
0
  9
$DIMALTTZ
 70
0
  9
$DIMUPT
 70
0
  9
$DIMDEC
 70
2
  9
$DIMTDEC
 70
2
  9
$DIMALTU
 70
2
  9
$DIMALTTD
 70
3
  9
$DIMTXSTY
  7
Standard
  9
$DIMAUNIT
 70
0
  9
$DIMADEC
 70
0
  9
$DIMALTRND
 40
0.0
  9
$DIMAZIN
 70
0
  9
$DIMDSEP
 70
44
  9
$DIMATFIT
 70
3
  9
$DIMFRAC
 70
0
  9
$DIMLDRBLK
  1

  9
$DIMLUNIT
 70
2
  9
$DIMLWD
 70
-2
  9
$DIMLWE
 70
-2
  9
$DIMTMOVE
 70
0
  9
$DIMFXL
 40
1.0
  9
$DIMFXLON
 70
0
  9
$DIMJOGANG
 40
0.785398163397
  9
$DIMTFILL
 70
0
  9
$DIMTFILLCLR
 70
0
  9
$DIMARCSYM
 70
0
  9
$DIMLTYPE
  6

  9
$DIMLTEX1
  6

  9
$DIMLTEX2
  6

  9
$DIMTXTDIRECTION
 70
0
  9
$LUNITS
 70
2
  9
$LUPREC
 70
4
  9
$SKETCHINC
 40
1.0
  9
$FILLETRAD
 40
10.0
  9
$AUNITS
 70
0
  9
$AUPREC
 70
2
  9
$MENU
  1
.
  9
$ELEVATION
 40
0.0
  9
$PELEVATION
 40
0.0
  9
$THICKNESS
 40
0.0
  9
$LIMCHECK
 70
0
  9
$CHAMFERA
 40
0.0
  9
$CHAMFERB
 40
0.0
  9
$CHAMFERC
 40
0.0
  9
$CHAMFERD
 40
0.0
  9
$SKPOLY
 70
0
  9
$TDCREATE
 40
2461310.7073842594
  9
$TDUCREATE
 40
2458532.153996898
  9
$TDUPDATE
 40
2461310.7073842594
  9
$TDUUPDATE
 40
2458532.1544311
  9
$TDINDWG
 40
0.0
  9
$TDUSRTIMER
 40
0.0
  9
$USRTIMER
 70
1
  9
$ANGBASE
 50
0.0
  9
$ANGDIR
 70
0
  9
$PDMODE
 70
0
  9
$PDSIZE
 40
0.0
  9
$PLINEWID
 40
0.0
  9
$SPLFRAME
 70
0
  9
$SPLINETYPE
 70
6
  9
$SPLINESEGS
 70
8
  9
$HANDSEED
  5
79
  9
$SURFTAB1
 70
6
  9
$SURFTAB2
 70
6
  9
$SURFTYPE
 70
6
  9
$SURFU
 70
6
  9
$SURFV
 70
6
  9
$UCSBASE
  2

  9
$UCSNAME
  2

  9
$UCSORG
 10
0.0
 20
0.0
 30
0.0
  9
$UCSXDIR
 10
1.0
 20
0.0
 30
0.0
  9
$UCSYDIR
 10
0.0
 20
1.0
 30
0.0
  9
$UCSORTHOREF
  2

  9
$UCSORTHOVIEW
 70
0
  9
$UCSORGTOP
 10
0.0
 20
0.0
 30
0.0
  9
$UCSORGBOTTOM
 10
0.0
 20
0.0
 30
0.0
  9
$UCSORGLEFT
 10
0.0
 20
0.0
 30
0.0
  9
$UCSORGRIGHT
 10
0.0
 20
0.0
 30
0.0
  9
$UCSORGFRONT
 10
0.0
 20
0.0
 30
0.0
  9
$UCSORGBACK
 10
0.0
 20
0.0
 30
0.0
  9
$PUCSBASE
  2

  9
$PUCSNAME
  2

  9
$PUCSORG
 10
0.0
 20
0.0
 30
0.0
  9
$PUCSXDIR
 10
1.0
 20
0.0
 30
0.0
  9
$PUCSYDIR
 10
0.0
 20
1.0
 30
0.0
  9
$PUCSORTHOREF
  2

  9
$PUCSORTHOVIEW
 70
0
  9
$PUCSORGTOP
 10
0.0
 20
0.0
 30
0.0
  9
$PUCSORGBOTTOM
 10
0.0
 20
0.0
 30
0.0
  9
$PUCSORGLEFT
 10
0.0
 20
0.0
 30
0.0
  9
$PUCSORGRIGHT
 10
0.0
 20
0.0
 30
0.0
  9
$PUCSORGFRONT
 10
0.0
 20
0.0
 30
0.0
  9
$PUCSORGBACK
 10
0.0
 20
0.0
 30
0.0
  9
$USERI1
 70
0
  9
$USERI2
 70
0
  9
$USERI3
 70
0
  9
$USERI4
 70
0
  9
$USERI5
 70
0
  9
$USERR1
 40
0.0
  9
$USERR2
 40
0.0
  9
$USERR3
 40
0.0
  9
$USERR4
 40
0.0
  9
$USERR5
 40
0.0
  9
$WORLDVIEW
 70
1
  9
$SHADEDGE
 70
3
  9
$SHADEDIF
 70
70
  9
$TILEMODE
 70
1
  9
$MAXACTVP
 70
64
  9
$PINSBASE
 10
0.0
 20
0.0
 30
0.0
  9
$PLIMCHECK
 70
0
  9
$PEXTMIN
 10
1e+20
 20
1e+20
 30
1e+20
  9
$PEXTMAX
 10
-1e+20
 20
-1e+20
 30
-1e+20
  9
$PLIMMIN
 10
0.0
 20
0.0
  9
$PLIMMAX
 10
420.0
 20
297.0
  9
$UNITMODE
 70
0
  9
$VISRETAIN
 70
1
  9
$PLINEGEN
 70
0
  9
$PSLTSCALE
 70
1
  9
$TREEDEPTH
 70
3020
  9
$CMLSTYLE
  2
Standard
  9
$CMLJUST
 70
0
  9
$CMLSCALE
 40
20.0
  9
$PROXYGRAPHICS
 70
1
  9
$MEASUREMENT
 70
1
  9
$CELWEIGHT
370
-1
  9
$ENDCAPS
280
0
  9
$JOINSTYLE
280
0
  9
$LWDISPLAY
290
0
  9
$INSUNITS
 70
4
  9
$HYPERLINKBASE
  1

  9
$STYLESHEET
  1

  9
$XEDIT
290
1
  9
$CEPSNTYPE
380
0
  9
$PSTYLEMODE
290
1
  9
$FINGERPRINTGUID
  2
{3EFBA64D-C611-49F7-8B4D-79CE3D400126}
  9
$VERSIONGUID
  2
{EA52AEAE-84CC-4301-8360-A17D04CEB53A}
  9
$EXTNAMES
290
1
  9
$PSVPSCALE
 40
0.0
  9
$OLESTARTUP
290
0
  9
$SORTENTS
280
127
  9
$INDEXCTL
280
0
  9
$HIDETEXT
280
1
  9
$XCLIPFRAME
280
1
  9
$HALOGAP
280
0
  9
$OBSCOLOR
 70
257
  9
$OBSLTYPE
280
0
  9
$INTERSECTIONDISPLAY
280
0
  9
$INTERSECTIONCOLOR
 70
257
  9
$DIMASSOC
280
2
  9
$PROJECTNAME
  1

  9
$CAMERADISPLAY
290
0
  9
$LENSLENGTH
 40
50.0
  9
$CAMERAHEIGHT
 40
0.0
  9
$STEPSPERSEC
 40
24.0
  9
$STEPSIZE
 40
100.0
  9
$3DDWFPREC
 40
2.0
  9
$PSOLWIDTH
 40
0.005
  9
$PSOLHEIGHT
 40
0.08
  9
$LOFTANG1
 40
1.570796326795
  9
$LOFTANG2
 40
1.570796326795
  9
$LOFTMAG1
 40
0.0
  9
$LOFTMAG2
 40
0.0
  9
$LOFTPARAM
 70
7
  9
$LOFTNORMALS
280
1
  9
$LATITUDE
 40
37.795
  9
$LONGITUDE
 40
-122.394
  9
$NORTHDIRECTION
 40
0.0
  9
$TIMEZONE
 70
-8000
  9
$LIGHTGLYPHDISPLAY
280
1
  9
$TILEMODELIGHTSYNCH
280
1
  9
$CMATERIAL
347
20
  9
$SOLIDHIST
280
0
  9
$SHOWHIST
280
1
  9
$DWFFRAME
280
2
  9
$DGNFRAME
280
2
  9
$REALWORLDSCALE
290
1
  9
$INTERFERECOLOR
 62
256
  9
$CSHADOW
280
0
  9
$SHADOWPLANELOCATION
 40
0.0
  0
ENDSEC
  0
SECTION
  2
CLASSES
  0
CLASS
  1
ACDBDICTIONARYWDFLT
  2
AcDbDictionaryWithDefault
  3
ObjectDBX Classes
 90
0
 91
0
280
0
281
0
  0
CLASS
  1
SUN
  2
AcDbSun
  3
SCENEOE
 90
1153
 91
0
280
0
281
0
  0
CLASS
  1
VISUALSTYLE
  2
AcDbVisualStyle
  3
ObjectDBX Classes
 90
4095
 91
0
280
0
281
0
  0
CLASS
  1
MATERIAL
  2
AcDbMaterial
  3
ObjectDBX Classes
 90
1153
 91
0
280
0
281
0
  0
CLASS
  1
SCALE
  2
AcDbScale
  3
ObjectDBX Classes
 90
1153
 91
0
280
0
281
0
  0
CLASS
  1
TABLESTYLE
  2
AcDbTableStyle
  3
ObjectDBX Classes
 90
4095
 91
0
280
0
281
0
  0
CLASS
  1
MLEADERSTYLE
  2
AcDbMLeaderStyle
  3
ACDB_MLEADERSTYLE_CLASS
 90
4095
 91
0
280
0
281
0
  0
CLASS
  1
DICTIONARYVAR
  2
AcDbDictionaryVar
  3
ObjectDBX Classes
 90
0
 91
0
280
0
281
0
  0
CLASS
  1
CELLSTYLEMAP
  2
AcDbCellStyleMap
  3
ObjectDBX Classes
 90
1152
 91
0
280
0
281
0
  0
CLASS
  1
MENTALRAYRENDERSETTINGS
  2
AcDbMentalRayRenderSettings
  3
SCENEOE
 90
1024
 91
0
280
0
281
0
  0
CLASS
  1
ACDBDETAILVIEWSTYLE
  2
AcDbDetailViewStyle
  3
ObjectDBX Classes
 90
1025
 91
0
280
0
281
0
  0
CLASS
  1
ACDBSECTIONVIEWSTYLE
  2
AcDbSectionViewStyle
  3
ObjectDBX Classes
 90
1025
 91
0
280
0
281
0
  0
CLASS
  1
RASTERVARIABLES
  2
AcDbRasterVariables
  3
ISM
 90
0
 91
0
280
0
281
0
  0
CLASS
  1
ACDBPLACEHOLDER
  2
AcDbPlaceHolder
  3
ObjectDBX Classes
 90
0
 91
0
280
0
281
0
  0
CLASS
  1
LAYOUT
  2
AcDbLayout
  3
ObjectDBX Classes
 90
0
 91
0
280
0
281
0
  0
ENDSEC
  0
SECTION
  2
TABLES
  0
TABLE
  2
VPORT
  5
8
330
0
100
AcDbSymbolTable
 70
1
  0
VPORT
  5
23
330
8
100
AcDbSymbolTableRecord
100
AcDbViewportTableRecord
  2
*Active
 70
0
 10
0.0
 20
0.0
 11
1.0
 21
1.0
 12
0.0
 22
0.0
 13
0.0
 23
0.0
 14
0.5
 24
0.5
 15
0.5
 25
0.5
 16
0.0
 26
0.0
 36
1.0
 17
0.0
 27
0.0
 37
0.0
 40
1000.0
 41
1.34
 42
50.0
 43
0.0
 44
0.0
 50
0.0
 51
0.0
 71
0
 72
1000
 73
1
 74
3
 75
0
 76
0
 77
0
 78
0
281
0
 65
0
146
0.0
  0
ENDTAB
  0
TABLE
  2
LTYPE
  5
2
330
0
100
AcDbSymbolTable
 70
3
  0
LTYPE
  5
24
330
2
100
AcDbSymbolTableRecord
100
AcDbLinetypeTableRecord
  2
ByBlock
 70
0
  3

 72
65
 73
0
 40
0.0
  0
LTYPE
  5
25
330
2
100
AcDbSymbolTableRecord
100
AcDbLinetypeTableRecord
  2
ByLayer
 70
0
  3

 72
65
 73
0
 40
0.0
  0
LTYPE
  5
26
330
2
100
AcDbSymbolTableRecord
100
AcDbLinetypeTableRecord
  2
Continuous
 70
0
  3

 72
65
 73
0
 40
0.0
  0
ENDTAB
  0
TABLE
  2
LAYER
  5
1
330
0
100
AcDbSymbolTable
 70
7
  0
LAYER
  5
27
330
1
100
AcDbSymbolTableRecord
100
AcDbLayerTableRecord
  2
0
 70
0
 62
7
  6
Continuous
370
-3
390
13
347
21
  0
LAYER
  5
28
330
1
100
AcDbSymbolTableRecord
100
AcDbLayerTableRecord
  2
Defpoints
 70
0
 62
7
  6
Continuous
290
0
370
-3
390
13
347
21
  0
LAYER
  5
2F
330
1
100
AcDbSymbolTableRecord
100
AcDbLayerTableRecord
  2
CUT_OUTER
 70
0
 62
7
  6
Continuous
370
-3
390
13
347
21
  0
LAYER
  5
30
330
1
100
AcDbSymbolTableRecord
100
AcDbLayerTableRecord
  2
CUT_HOLES
 70
0
 62
7
  6
Continuous
370
-3
390
13
347
21
  0
LAYER
  5
31
330
1
100
AcDbSymbolTableRecord
100
AcDbLayerTableRecord
  2
CUT_INNER
 70
0
 62
7
  6
Continuous
370
-3
390
13
347
21
  0
LAYER
  5
32
330
1
100
AcDbSymbolTableRecord
100
AcDbLayerTableRecord
  2
PART_MARK_NO_CUT
 70
0
 62
7
  6
Continuous
370
-3
390
13
347
21
  0
LAYER
  5
33
330
1
100
AcDbSymbolTableRecord
100
AcDbLayerTableRecord
  2
STOCK_NO_CUT
 70
0
 62
7
  6
Continuous
370
-3
390
13
347
21
  0
ENDTAB
  0
TABLE
  2
STYLE
  5
5
330
0
100
AcDbSymbolTable
 70
1
  0
STYLE
  5
29
330
5
100
AcDbSymbolTableRecord
100
AcDbTextStyleTableRecord
  2
Standard
 70
0
 40
0.0
 41
1.0
 50
0.0
 71
0
 42
2.5
  3
txt
  4

  0
ENDTAB
  0
TABLE
  2
VIEW
  5
7
330
0
100
AcDbSymbolTable
 70
0
  0
ENDTAB
  0
TABLE
  2
UCS
  5
6
330
0
100
AcDbSymbolTable
 70
0
  0
ENDTAB
  0
TABLE
  2
APPID
  5
3
330
0
100
AcDbSymbolTable
 70
3
  0
APPID
  5
2A
330
3
100
AcDbSymbolTableRecord
100
AcDbRegAppTableRecord
  2
ACAD
 70
0
  0
APPID
  5
76
330
3
100
AcDbSymbolTableRecord
100
AcDbRegAppTableRecord
  2
HATCHBACKGROUNDCOLOR
 70
0
  0
APPID
  5
77
330
3
100
AcDbSymbolTableRecord
100
AcDbRegAppTableRecord
  2
EZDXF
 70
0
  0
ENDTAB
  0
TABLE
  2
DIMSTYLE
  5
4
330
0
100
AcDbSymbolTable
 70
1
100
AcDbDimStyleTable
  0
DIMSTYLE
105
2B
330
4
100
AcDbSymbolTableRecord
100
AcDbDimStyleTableRecord
  2
Standard
 70
0
 40
1.0
 41
2.5
 42
0.625
 43
3.75
 44
1.25
 45
0.0
 46
0.0
 47
0.0
 48
0.0
 49
2.5
140
2.5
141
2.5
142
0.0
143
0.03937007874
144
1.0
145
0.0
146
1.0
147
0.625
148
0.0
 69
0
 70
0
 71
0
 72
0
 73
0
 74
0
 75
0
 76
0
 77
1
 78
8
 79
3
170
0
171
3
172
1
173
0
174
0
175
0
176
0
177
0
178
0
179
2
271
2
272
2
273
2
274
3
275
0
276
0
277
2
278
44
279
0
280
0
281
0
282
0
283
0
284
8
285
0
286
0
288
0
289
3
290
0
371
-2
372
-2
  0
ENDTAB
  0
TABLE
  2
BLOCK_RECORD
  5
9
330
0
100
AcDbSymbolTable
 70
2
  0
BLOCK_RECORD
  5
17
330
9
100
AcDbSymbolTableRecord
100
AcDbBlockTableRecord
  2
*Model_Space
340
1A
 70
0
280
1
281
0
  0
BLOCK_RECORD
  5
1B
330
9
100
AcDbSymbolTableRecord
100
AcDbBlockTableRecord
  2
*Paper_Space
340
1E
 70
0
280
1
281
0
  0
ENDTAB
  0
ENDSEC
  0
SECTION
  2
BLOCKS
  0
BLOCK
  5
18
330
17
100
AcDbEntity
  8
0
100
AcDbBlockBegin
  2
*Model_Space
 70
0
 10
0.0
 20
0.0
 30
0.0
  3
*Model_Space
  1

  0
ENDBLK
  5
19
330
17
100
AcDbEntity
  8
0
100
AcDbBlockEnd
  0
BLOCK
  5
1C
330
1B
100
AcDbEntity
  8
0
100
AcDbBlockBegin
  2
*Paper_Space
 70
0
 10
0.0
 20
0.0
 30
0.0
  3
*Paper_Space
  1

  0
ENDBLK
  5
1D
330
1B
100
AcDbEntity
  8
0
100
AcDbBlockEnd
  0
ENDSEC
  0
SECTION
  2
ENTITIES
  0
LWPOLYLINE
  5
34
330
17
100
AcDbEntity
  8
STOCK_NO_CUT
100
AcDbPolyline
 90
4
 70
1
 10
0.0
 20
0.0
 10
1219.2
 20
0.0
 10
1219.2
 20
2438.4
 10
0.0
 20
2438.4
  0
LWPOLYLINE
  5
35
330
17
100
AcDbEntity
  8
CUT_OUTER
100
AcDbPolyline
 90
4
 70
1
 10
10.0
 20
10.0
 10
976.096
 20
10.0
 10
976.096
 20
676.096
 10
10.0
 20
676.096
  0
CIRCLE
  5
36
330
17
100
AcDbEntity
  8
CUT_HOLES
100
AcDbCircle
 10
38.048
 20
25.0
 30
0.0
 40
3.3
  0
CIRCLE
  5
37
330
17
100
AcDbEntity
  8
CUT_HOLES
100
AcDbCircle
 10
38.048
 20
661.096
 30
0.0
 40
3.3
  0
CIRCLE
  5
38
330
17
100
AcDbEntity
  8
CUT_HOLES
100
AcDbCircle
 10
268.048
 20
25.0
 30
0.0
 40
3.3
  0
CIRCLE
  5
39
330
17
100
AcDbEntity
  8
CUT_HOLES
100
AcDbCircle
 10
268.048
 20
661.096
 30
0.0
 40
3.3
  0
CIRCLE
  5
3A
330
17
100
AcDbEntity
  8
CUT_HOLES
100
AcDbCircle
 10
493.048
 20
25.0
 30
0.0
 40
3.3
  0
CIRCLE
  5
3B
330
17
100
AcDbEntity
  8
CUT_HOLES
100
AcDbCircle
 10
493.048
 20
661.096
 30
0.0
 40
3.3
  0
CIRCLE
  5
3C
330
17
100
AcDbEntity
  8
CUT_HOLES
100
AcDbCircle
 10
718.048
 20
25.0
 30
0.0
 40
3.3
  0
CIRCLE
  5
3D
330
17
100
AcDbEntity
  8
CUT_HOLES
100
AcDbCircle
 10
718.048
 20
661.096
 30
0.0
 40
3.3
  0
CIRCLE
  5
3E
330
17
100
AcDbEntity
  8
CUT_HOLES
100
AcDbCircle
 10
948.048
 20
25.0
 30
0.0
 40
3.3
  0
CIRCLE
  5
3F
330
17
100
AcDbEntity
  8
CUT_HOLES
100
AcDbCircle
 10
948.048
 20
661.096
 30
0.0
 40
3.3
  0
CIRCLE
  5
40
330
17
100
AcDbEntity
  8
CUT_HOLES
100
AcDbCircle
 10
25.0
 20
228.048
 30
0.0
 40
3.3
  0
CIRCLE
  5
41
330
17
100
AcDbEntity
  8
CUT_HOLES
100
AcDbCircle
 10
25.0
 20
393.048
 30
0.0
 40
3.3
  0
CIRCLE
  5
42
330
17
100
AcDbEntity
  8
CUT_HOLES
100
AcDbCircle
 10
25.0
 20
558.048
 30
0.0
 40
3.3
  0
CIRCLE
  5
43
330
17
100
AcDbEntity
  8
CUT_HOLES
100
AcDbCircle
 10
961.096
 20
228.048
 30
0.0
 40
3.3
  0
CIRCLE
  5
44
330
17
100
AcDbEntity
  8
CUT_HOLES
100
AcDbCircle
 10
961.096
 20
393.048
 30
0.0
 40
3.3
  0
CIRCLE
  5
45
330
17
100
AcDbEntity
  8
CUT_HOLES
100
AcDbCircle
 10
961.096
 20
558.048
 30
0.0
 40
3.3
  0
LWPOLYLINE
  5
46
330
17
100
AcDbEntity
  8
CUT_INNER
100
AcDbPolyline
 90
4
 70
1
 10
40.0
 20
40.0
 10
946.096
 20
40.0
 10
946.096
 20
646.096
 10
40.0
 20
646.096
  0
TEXT
  5
47
330
17
100
AcDbEntity
  8
PART_MARK_NO_CUT
100
AcDbText
 10
12.0
 20
12.0
 30
0.0
 40
3.0
  1
WT_GASKET #1
100
AcDbText
  0
LWPOLYLINE
  5
48
330
17
100
AcDbEntity
  8
CUT_OUTER
100
AcDbPolyline
 90
4
 70
1
 10
1197.096
 20
10.0
 10
1197.096
 20
370.0
 10
982.096
 20
370.0
 10
982.096
 20
10.000000000000012
  0
CIRCLE
  5
49
330
17
100
AcDbEntity
  8
CUT_HOLES
100
AcDbCircle
 10
1187.096
 20
20.0
 30
0.0
 40
2.75
  0
CIRCLE
  5
4A
330
17
100
AcDbEntity
  8
CUT_HOLES
100
AcDbCircle
 10
1187.096
 20
190.0
 30
0.0
 40
2.75
  0
CIRCLE
  5
4B
330
17
100
AcDbEntity
  8
CUT_HOLES
100
AcDbCircle
 10
1187.096
 20
360.0
 30
0.0
 40
2.75
  0
CIRCLE
  5
4C
330
17
100
AcDbEntity
  8
CUT_HOLES
100
AcDbCircle
 10
992.096
 20
20.000000000000014
 30
0.0
 40
2.75
  0
CIRCLE
  5
4D
330
17
100
AcDbEntity
  8
CUT_HOLES
100
AcDbCircle
 10
992.096
 20
190.0
 30
0.0
 40
2.75
  0
CIRCLE
  5
4E
330
17
100
AcDbEntity
  8
CUT_HOLES
100
AcDbCircle
 10
992.096
 20
360.0
 30
0.0
 40
2.75
  0
LWPOLYLINE
  5
4F
330
17
100
AcDbEntity
  8
CUT_INNER
100
AcDbPolyline
 90
4
 70
1
 10
1177.096
 20
30.0
 10
1177.096
 20
350.0
 10
1002.096
 20
350.0
 10
1002.096
 20
30.00000000000001
  0
TEXT
  5
50
330
17
100
AcDbEntity
  8
PART_MARK_NO_CUT
100
AcDbText
 10
984.096
 20
12.0
 30
0.0
 40
3.0
  1
H_WT_CLARIFIED_GASKET #1
100
AcDbText
  0
LWPOLYLINE
  5
51
330
17
100
AcDbEntity
  8
CUT_OUTER
100
AcDbPolyline
 90
4
 70
1
 10
1122.096
 20
376.0
 10
1122.096
 20
686.0
 10
982.096
 20
686.0
 10
982.096
 20
376.0
  0
CIRCLE
  5
52
330
17
100
AcDbEntity
  8
CUT_HOLES
100
AcDbCircle
 10
1112.096
 20
386.0
 30
0.0
 40
2.75
  0
CIRCLE
  5
53
330
17
100
AcDbEntity
  8
CUT_HOLES
100
AcDbCircle
 10
1112.096
 20
531.0
 30
0.0
 40
2.75
  0
CIRCLE
  5
54
330
17
100
AcDbEntity
  8
CUT_HOLES
100
AcDbCircle
 10
1112.096
 20
676.0
 30
0.0
 40
2.75
  0
CIRCLE
  5
55
330
17
100
AcDbEntity
  8
CUT_HOLES
100
AcDbCircle
 10
992.096
 20
386.0
 30
0.0
 40
2.75
  0
CIRCLE
  5
56
330
17
100
AcDbEntity
  8
CUT_HOLES
100
AcDbCircle
 10
992.096
 20
531.0
 30
0.0
 40
2.75
  0
CIRCLE
  5
57
330
17
100
AcDbEntity
  8
CUT_HOLES
100
AcDbCircle
 10
992.096
 20
676.0
 30
0.0
 40
2.75
  0
LWPOLYLINE
  5
58
330
17
100
AcDbEntity
  8
CUT_INNER
100
AcDbPolyline
 90
4
 70
1
 10
1102.096
 20
396.0
 10
1102.096
 20
666.0
 10
1002.096
 20
666.0
 10
1002.096
 20
396.0
  0
TEXT
  5
59
330
17
100
AcDbEntity
  8
PART_MARK_NO_CUT
100
AcDbText
 10
984.096
 20
378.0
 30
0.0
 40
3.0
  1
H_WT_SETTLING_GASKET #1
100
AcDbText
  0
LWPOLYLINE
  5
5A
330
17
100
AcDbEntity
  8
CUT_OUTER
100
AcDbPolyline
 90
4
 70
1
 10
10.0
 20
682.096
 10
185.0
 20
682.096
 10
185.0
 20
792.096
 10
10.0
 20
792.096
  0
CIRCLE
  5
5B
330
17
100
AcDbEntity
  8
CUT_HOLES
100
AcDbCircle
 10
20.0
 20
692.096
 30
0.0
 40
2.75
  0
CIRCLE
  5
5C
330
17
100
AcDbEntity
  8
CUT_HOLES
100
AcDbCircle
 10
175.0
 20
692.096
 30
0.0
 40
2.75
  0
CIRCLE
  5
5D
330
17
100
AcDbEntity
  8
CUT_HOLES
100
AcDbCircle
 10
20.0
 20
782.096
 30
0.0
 40
2.75
  0
CIRCLE
  5
5E
330
17
100
AcDbEntity
  8
CUT_HOLES
100
AcDbCircle
 10
175.0
 20
782.096
 30
0.0
 40
2.75
  0
LWPOLYLINE
  5
5F
330
17
100
AcDbEntity
  8
CUT_INNER
100
AcDbPolyline
 90
4
 70
1
 10
25.0
 20
697.096
 10
170.0
 20
697.096
 10
170.0
 20
777.096
 10
25.0
 20
777.096
  0
TEXT
  5
60
330
17
100
AcDbEntity
  8
PART_MARK_NO_CUT
100
AcDbText
 10
12.0
 20
684.096
 30
0.0
 40
3.0
  1
I_CAB_GLAND_GASKET_MAINS #1
100
AcDbText
  0
LWPOLYLINE
  5
61
330
17
100
AcDbEntity
  8
CUT_OUTER
100
AcDbPolyline
 90
4
 70
1
 10
191.0
 20
682.096
 10
366.0
 20
682.096
 10
366.0
 20
792.096
 10
191.0
 20
792.096
  0
CIRCLE
  5
62
330
17
100
AcDbEntity
  8
CUT_HOLES
100
AcDbCircle
 10
201.0
 20
692.096
 30
0.0
 40
2.75
  0
CIRCLE
  5
63
330
17
100
AcDbEntity
  8
CUT_HOLES
100
AcDbCircle
 10
356.0
 20
692.096
 30
0.0
 40
2.75
  0
CIRCLE
  5
64
330
17
100
AcDbEntity
  8
CUT_HOLES
100
AcDbCircle
 10
201.0
 20
782.096
 30
0.0
 40
2.75
  0
CIRCLE
  5
65
330
17
100
AcDbEntity
  8
CUT_HOLES
100
AcDbCircle
 10
356.0
 20
782.096
 30
0.0
 40
2.75
  0
LWPOLYLINE
  5
66
330
17
100
AcDbEntity
  8
CUT_INNER
100
AcDbPolyline
 90
4
 70
1
 10
206.0
 20
697.096
 10
351.0
 20
697.096
 10
351.0
 20
777.096
 10
206.0
 20
777.096
  0
TEXT
  5
67
330
17
100
AcDbEntity
  8
PART_MARK_NO_CUT
100
AcDbText
 10
193.0
 20
684.096
 30
0.0
 40
3.0
  1
I_CAB_GLAND_GASKET_SIGNAL #1
100
AcDbText
  0
LWPOLYLINE
  5
68
330
17
100
AcDbEntity
  8
CUT_OUTER
100
AcDbPolyline
 90
128
 70
1
 10
462.0
 20
727.096
 10
461.9457955292328
 20
729.3040453447338
 10
461.78331270024887
 20
731.5067713148302
 10
461.5129429484151
 20
733.6988713504912
 10
461.1353376181454
 20
735.8750644907258
 10
460.6514063937545
 20
738.0301080956468
 10
460.0623151079494
 20
740.1588104764508
 10
459.36948293323593
 20
742.2560434026499
 10
458.5745789630079
 20
744.3167544564291
 10
457.679518190555
 20
746.3359792043627
 10
456.686456895676
 20
748.3088531571699
 10
455.5977874500122
 20
750.230623488695
 10
454.41613255361455
 20
752.0966604858821
 10
453.144338916629
 20
753.9024687021595
 10
451.78547040132315
 20
755.6436977873641
 10
450.34280064097317
 20
757.3161529681158
 10
448.81980515339467
 20
758.9158051533947
 10
447.2201529681158
 20
760.4388006409731
 10
445.54769778736403
 20
761.8814704013232
 10
443.8064687021595
 20
763.2403389166291
 10
442.0006604858821
 20
764.5121325536145
 10
440.13462348869496
 20
765.6937874500122
 10
438.2128531571699
 20
766.782456895676
 10
436.2399792043627
 20
767.775518190555
 10
434.22075445642906
 20
768.6705789630079
 10
432.1600434026499
 20
769.465482933236
 10
430.0628104764508
 20
770.1583151079494
 10
427.9341080956469
 20
770.7474063937544
 10
425.7790644907258
 20
771.2313376181454
 10
423.6028713504913
 20
771.6089429484151
 10
421.41077131483024
 20
771.8793127002489
 10
419.2080453447338
 20
772.0417955292328
 10
417.0
 20
772.096
 10
414.7919546552662
 20
772.0417955292328
 10
412.58922868516976
 20
771.8793127002489
 10
410.3971286495087
 20
771.6089429484151
 10
408.2209355092742
 20
771.2313376181454
 10
406.0658919043531
 20
770.7474063937544
 10
403.9371895235492
 20
770.1583151079494
 10
401.8399565973501
 20
769.465482933236
 10
399.77924554357094
 20
768.6705789630079
 10
397.76002079563733
 20
767.775518190555
 10
395.7871468428301
 20
766.782456895676
 10
393.86537651130504
 20
765.6937874500122
 10
391.99933951411793
 20
764.5121325536145
 10
390.1935312978405
 20
763.2403389166291
 10
388.45230221263597
 20
761.8814704013232
 10
386.7798470318842
 20
760.4388006409731
 10
385.1801948466054
 20
758.9158051533947
 10
383.65719935902683
 20
757.3161529681158
 10
382.21452959867685
 20
755.6436977873641
 10
380.855661083371
 20
753.9024687021595
 10
379.58386744638545
 20
752.0966604858821
 10
378.4022125499878
 20
750.230623488695
 10
377.313543104324
 20
748.3088531571699
 10
376.320481809445
 20
746.3359792043627
 10
375.4254210369921
 20
744.3167544564291
 10
374.63051706676407
 20
742.2560434026499
 10
373.9376848920506
 20
740.1588104764508
 10
373.3485936062455
 20
738.0301080956469
 10
372.8646623818546
 20
735.8750644907258
 10
372.4870570515849
 20
733.6988713504912
 10
372.21668729975113
 20
731.5067713148302
 10
372.0542044707672
 20
729.3040453447338
 10
372.0
 20
727.096
 10
372.0542044707672
 20
724.8879546552662
 10
372.21668729975113
 20
722.6852286851698
 10
372.4870570515849
 20
720.4931286495088
 10
372.8646623818546
 20
718.3169355092742
 10
373.3485936062455
 20
716.1618919043532
 10
373.9376848920506
 20
714.0331895235493
 10
374.63051706676407
 20
711.9359565973501
 10
375.4254210369921
 20
709.8752455435709
 10
376.320481809445
 20
707.8560207956373
 10
377.313543104324
 20
705.8831468428301
 10
378.4022125499878
 20
703.961376511305
 10
379.58386744638545
 20
702.0953395141179
 10
380.855661083371
 20
700.2895312978405
 10
382.21452959867685
 20
698.5483022126359
 10
383.65719935902683
 20
696.8758470318842
 10
385.18019484660533
 20
695.2761948466053
 10
386.7798470318842
 20
693.7531993590269
 10
388.4523022126359
 20
692.3105295986768
 10
390.19353129784054
 20
690.9516610833709
 10
391.9993395141179
 20
689.6798674463855
 10
393.86537651130504
 20
688.4982125499878
 10
395.7871468428301
 20
687.409543104324
 10
397.7600207956373
 20
686.416481809445
 10
399.77924554357094
 20
685.5214210369921
 10
401.8399565973501
 20
684.726517066764
 10
403.9371895235492
 20
684.0336848920506
 10
406.0658919043531
 20
683.4445936062456
 10
408.2209355092742
 20
682.9606623818546
 10
410.3971286495087
 20
682.5830570515849
 10
412.58922868516976
 20
682.3126872997511
 10
414.7919546552662
 20
682.1502044707672
 10
417.0
 20
682.096
 10
419.2080453447338
 20
682.1502044707672
 10
421.4107713148302
 20
682.3126872997511
 10
423.6028713504913
 20
682.5830570515849
 10
425.7790644907258
 20
682.9606623818546
 10
427.9341080956469
 20
683.4445936062456
 10
430.0628104764508
 20
684.0336848920506
 10
432.1600434026499
 20
684.726517066764
 10
434.22075445642906
 20
685.5214210369921
 10
436.2399792043627
 20
686.416481809445
 10
438.2128531571699
 20
687.409543104324
 10
440.13462348869496
 20
688.4982125499878
 10
442.00066048588207
 20
689.6798674463855
 10
443.80646870215946
 20
690.9516610833709
 10
445.54769778736403
 20
692.3105295986768
 10
447.2201529681158
 20
693.7531993590269
 10
448.8198051533946
 20
695.2761948466053
 10
450.34280064097317
 20
696.8758470318842
 10
451.78547040132315
 20
698.5483022126359
 10
453.144338916629
 20
700.2895312978405
 10
454.41613255361455
 20
702.0953395141179
 10
455.5977874500122
 20
703.961376511305
 10
456.686456895676
 20
705.8831468428301
 10
457.6795181905549
 20
707.8560207956373
 10
458.57457896300787
 20
709.8752455435709
 10
459.36948293323593
 20
711.9359565973501
 10
460.0623151079494
 20
714.0331895235491
 10
460.6514063937545
 20
716.1618919043531
 10
461.13533761814534
 20
718.3169355092742
 10
461.5129429484151
 20
720.4931286495087
 10
461.78331270024887
 20
722.6852286851698
 10
461.9457955292328
 20
724.8879546552662
  0
CIRCLE
  5
69
330
17
100
AcDbEntity
  8
CUT_HOLES
100
AcDbCircle
 10
441.74873734152914
 20
751.8447373415291
 30
0.0
 40
3.3
  0
CIRCLE
  5
6A
330
17
100
AcDbEntity
  8
CUT_HOLES
100
AcDbCircle
 10
392.25126265847086
 20
751.8447373415291
 30
0.0
 40
3.3
  0
CIRCLE
  5
6B
330
17
100
AcDbEntity
  8
CUT_HOLES
100
AcDbCircle
 10
392.2512626584708
 20
702.3472626584709
 30
0.0
 40
3.3
  0
CIRCLE
  5
6C
330
17
100
AcDbEntity
  8
CUT_HOLES
100
AcDbCircle
 10
441.74873734152914
 20
702.3472626584709
 30
0.0
 40
3.3
  0
CIRCLE
  5
6D
330
17
100
AcDbEntity
  8
CUT_HOLES
100
AcDbCircle
 10
417.0
 20
727.096
 30
0.0
 40
24.25
  0
TEXT
  5
6E
330
17
100
AcDbEntity
  8
PART_MARK_NO_CUT
100
AcDbText
 10
374.0
 20
684.096
 30
0.0
 40
3.0
  1
H_WT_WASHOUT_GASKET #1
100
AcDbText
  0
LWPOLYLINE
  5
6F
330
17
100
AcDbEntity
  8
CUT_OUTER
100
AcDbPolyline
 90
128
 70
1
 10
558.0
 20
727.096
 10
557.9457955292328
 20
729.3040453447338
 10
557.7833127002489
 20
731.5067713148302
 10
557.5129429484151
 20
733.6988713504912
 10
557.1353376181454
 20
735.8750644907258
 10
556.6514063937544
 20
738.0301080956468
 10
556.0623151079494
 20
740.1588104764508
 10
555.369482933236
 20
742.2560434026499
 10
554.5745789630079
 20
744.3167544564291
 10
553.679518190555
 20
746.3359792043627
 10
552.686456895676
 20
748.3088531571699
 10
551.5977874500122
 20
750.230623488695
 10
550.4161325536145
 20
752.0966604858821
 10
549.1443389166291
 20
753.9024687021595
 10
547.7854704013232
 20
755.6436977873641
 10
546.3428006409731
 20
757.3161529681158
 10
544.8198051533947
 20
758.9158051533947
 10
543.2201529681158
 20
760.4388006409731
 10
541.5476977873641
 20
761.8814704013232
 10
539.8064687021595
 20
763.2403389166291
 10
538.0006604858821
 20
764.5121325536145
 10
536.134623488695
 20
765.6937874500122
 10
534.2128531571699
 20
766.782456895676
 10
532.2399792043627
 20
767.775518190555
 10
530.2207544564291
 20
768.6705789630079
 10
528.1600434026499
 20
769.465482933236
 10
526.0628104764507
 20
770.1583151079494
 10
523.9341080956469
 20
770.7474063937544
 10
521.7790644907258
 20
771.2313376181454
 10
519.6028713504912
 20
771.6089429484151
 10
517.4107713148302
 20
771.8793127002489
 10
515.2080453447338
 20
772.0417955292328
 10
513.0
 20
772.096
 10
510.7919546552662
 20
772.0417955292328
 10
508.58922868516976
 20
771.8793127002489
 10
506.3971286495087
 20
771.6089429484151
 10
504.2209355092742
 20
771.2313376181454
 10
502.0658919043531
 20
770.7474063937544
 10
499.9371895235492
 20
770.1583151079494
 10
497.8399565973501
 20
769.465482933236
 10
495.77924554357094
 20
768.6705789630079
 10
493.76002079563733
 20
767.775518190555
 10
491.7871468428301
 20
766.782456895676
 10
489.86537651130504
 20
765.6937874500122
 10
487.99933951411793
 20
764.5121325536145
 10
486.1935312978405
 20
763.2403389166291
 10
484.45230221263597
 20
761.8814704013232
 10
482.7798470318842
 20
760.4388006409731
 10
481.1801948466054
 20
758.9158051533947
 10
479.65719935902683
 20
757.3161529681158
 10
478.21452959867685
 20
755.6436977873641
 10
476.855661083371
 20
753.9024687021595
 10
475.58386744638545
 20
752.0966604858821
 10
474.4022125499878
 20
750.230623488695
 10
473.313543104324
 20
748.3088531571699
 10
472.320481809445
 20
746.3359792043627
 10
471.4254210369921
 20
744.3167544564291
 10
470.63051706676407
 20
742.2560434026499
 10
469.9376848920506
 20
740.1588104764508
 10
469.3485936062455
 20
738.0301080956469
 10
468.8646623818546
 20
735.8750644907258
 10
468.4870570515849
 20
733.6988713504912
 10
468.21668729975113
 20
731.5067713148302
 10
468.0542044707672
 20
729.3040453447338
 10
468.0
 20
727.096
 10
468.0542044707672
 20
724.8879546552662
 10
468.21668729975113
 20
722.6852286851698
 10
468.4870570515849
 20
720.4931286495088
 10
468.8646623818546
 20
718.3169355092742
 10
469.3485936062455
 20
716.1618919043532
 10
469.9376848920506
 20
714.0331895235493
 10
470.63051706676407
 20
711.9359565973501
 10
471.4254210369921
 20
709.8752455435709
 10
472.320481809445
 20
707.8560207956373
 10
473.313543104324
 20
705.8831468428301
 10
474.4022125499878
 20
703.961376511305
 10
475.58386744638545
 20
702.0953395141179
 10
476.855661083371
 20
700.2895312978405
 10
478.21452959867685
 20
698.5483022126359
 10
479.65719935902683
 20
696.8758470318842
 10
481.18019484660533
 20
695.2761948466053
 10
482.7798470318842
 20
693.7531993590269
 10
484.4523022126359
 20
692.3105295986768
 10
486.19353129784054
 20
690.9516610833709
 10
487.9993395141179
 20
689.6798674463855
 10
489.86537651130504
 20
688.4982125499878
 10
491.7871468428301
 20
687.409543104324
 10
493.7600207956373
 20
686.416481809445
 10
495.77924554357094
 20
685.5214210369921
 10
497.8399565973501
 20
684.726517066764
 10
499.9371895235492
 20
684.0336848920506
 10
502.0658919043531
 20
683.4445936062456
 10
504.2209355092742
 20
682.9606623818546
 10
506.3971286495087
 20
682.5830570515849
 10
508.58922868516976
 20
682.3126872997511
 10
510.7919546552662
 20
682.1502044707672
 10
513.0
 20
682.096
 10
515.2080453447338
 20
682.1502044707672
 10
517.4107713148302
 20
682.3126872997511
 10
519.6028713504913
 20
682.5830570515849
 10
521.7790644907258
 20
682.9606623818546
 10
523.9341080956468
 20
683.4445936062456
 10
526.0628104764507
 20
684.0336848920506
 10
528.1600434026499
 20
684.726517066764
 10
530.2207544564291
 20
685.5214210369921
 10
532.2399792043627
 20
686.416481809445
 10
534.2128531571699
 20
687.409543104324
 10
536.134623488695
 20
688.4982125499878
 10
538.0006604858821
 20
689.6798674463855
 10
539.8064687021595
 20
690.9516610833709
 10
541.5476977873641
 20
692.3105295986768
 10
543.2201529681158
 20
693.7531993590269
 10
544.8198051533947
 20
695.2761948466053
 10
546.3428006409731
 20
696.8758470318842
 10
547.7854704013231
 20
698.5483022126359
 10
549.1443389166291
 20
700.2895312978405
 10
550.4161325536145
 20
702.0953395141179
 10
551.5977874500122
 20
703.961376511305
 10
552.686456895676
 20
705.8831468428301
 10
553.679518190555
 20
707.8560207956373
 10
554.5745789630079
 20
709.8752455435709
 10
555.369482933236
 20
711.9359565973501
 10
556.0623151079494
 20
714.0331895235491
 10
556.6514063937544
 20
716.1618919043531
 10
557.1353376181454
 20
718.3169355092742
 10
557.5129429484151
 20
720.4931286495087
 10
557.7833127002489
 20
722.6852286851698
 10
557.9457955292328
 20
724.8879546552662
  0
CIRCLE
  5
70
330
17
100
AcDbEntity
  8
CUT_HOLES
100
AcDbCircle
 10
537.7487373415291
 20
751.8447373415291
 30
0.0
 40
3.3
  0
CIRCLE
  5
71
330
17
100
AcDbEntity
  8
CUT_HOLES
100
AcDbCircle
 10
488.25126265847086
 20
751.8447373415291
 30
0.0
 40
3.3
  0
CIRCLE
  5
72
330
17
100
AcDbEntity
  8
CUT_HOLES
100
AcDbCircle
 10
488.2512626584708
 20
702.3472626584709
 30
0.0
 40
3.3
  0
CIRCLE
  5
73
330
17
100
AcDbEntity
  8
CUT_HOLES
100
AcDbCircle
 10
537.7487373415291
 20
702.3472626584709
 30
0.0
 40
3.3
  0
CIRCLE
  5
74
330
17
100
AcDbEntity
  8
CUT_HOLES
100
AcDbCircle
 10
513.0
 20
727.096
 30
0.0
 40
17.0
  0
TEXT
  5
75
330
17
100
AcDbEntity
  8
PART_MARK_NO_CUT
100
AcDbText
 10
470.0
 20
684.096
 30
0.0
 40
3.0
  1
I_DRAIN_TAIL_GASKET #1
100
AcDbText
  0
ENDSEC
  0
SECTION
  2
OBJECTS
  0
DICTIONARY
  5
A
330
0
100
AcDbDictionary
281
1
  3
ACAD_COLOR
350
B
  3
ACAD_GROUP
350
C
  3
ACAD_LAYOUT
350
D
  3
ACAD_MATERIAL
350
E
  3
ACAD_MLEADERSTYLE
350
F
  3
ACAD_MLINESTYLE
350
10
  3
ACAD_PLOTSETTINGS
350
11
  3
ACAD_PLOTSTYLENAME
350
12
  3
ACAD_SCALELIST
350
14
  3
ACAD_TABLESTYLE
350
15
  3
ACAD_VISUALSTYLE
350
16
  3
EZDXF_META
350
2D
  0
DICTIONARY
  5
B
330
A
100
AcDbDictionary
281
1
  0
DICTIONARY
  5
C
330
A
100
AcDbDictionary
281
1
  0
DICTIONARY
  5
D
330
A
100
AcDbDictionary
281
1
  3
Model
350
1A
  3
Layout1
350
1E
  0
DICTIONARY
  5
E
330
A
100
AcDbDictionary
281
1
  3
ByBlock
350
1F
  3
ByLayer
350
20
  3
Global
350
21
  0
DICTIONARY
  5
F
330
A
100
AcDbDictionary
281
1
  3
Standard
350
2C
  0
DICTIONARY
  5
10
330
A
100
AcDbDictionary
281
1
  3
Standard
350
22
  0
DICTIONARY
  5
11
330
A
100
AcDbDictionary
281
1
  0
ACDBDICTIONARYWDFLT
  5
12
330
A
100
AcDbDictionary
281
1
  3
Normal
350
13
100
AcDbDictionaryWithDefault
340
13
  0
ACDBPLACEHOLDER
  5
13
330
12
  0
DICTIONARY
  5
14
330
A
100
AcDbDictionary
281
1
  0
DICTIONARY
  5
15
330
A
100
AcDbDictionary
281
1
  0
DICTIONARY
  5
16
330
A
100
AcDbDictionary
281
1
  0
LAYOUT
  5
1A
330
D
100
AcDbPlotSettings
  1

  4
A3
  6

 40
7.5
 41
20.0
 42
7.5
 43
20.0
 44
420.0
 45
297.0
 46
0.0
 47
0.0
 48
0.0
 49
0.0
140
0.0
141
0.0
142
1.0
143
1.0
 70
1024
 72
1
 73
0
 74
5
  7

 75
16
 76
0
 77
2
 78
300
147
1.0
148
0.0
149
0.0
100
AcDbLayout
  1
Model
 70
1
 71
0
 10
0.0
 20
0.0
 11
420.0
 21
297.0
 12
0.0
 22
0.0
 32
0.0
 14
1e+20
 24
1e+20
 34
1e+20
 15
-1e+20
 25
-1e+20
 35
-1e+20
146
0.0
 13
0.0
 23
0.0
 33
0.0
 16
1.0
 26
0.0
 36
0.0
 17
0.0
 27
1.0
 37
0.0
 76
1
330
17
  0
LAYOUT
  5
1E
330
D
100
AcDbPlotSettings
  1

  4
A3
  6

 40
7.5
 41
20.0
 42
7.5
 43
20.0
 44
420.0
 45
297.0
 46
0.0
 47
0.0
 48
0.0
 49
0.0
140
0.0
141
0.0
142
1.0
143
1.0
 70
0
 72
1
 73
0
 74
5
  7

 75
16
 76
0
 77
2
 78
300
147
1.0
148
0.0
149
0.0
100
AcDbLayout
  1
Layout1
 70
1
 71
1
 10
0.0
 20
0.0
 11
420.0
 21
297.0
 12
0.0
 22
0.0
 32
0.0
 14
1e+20
 24
1e+20
 34
1e+20
 15
-1e+20
 25
-1e+20
 35
-1e+20
146
0.0
 13
0.0
 23
0.0
 33
0.0
 16
1.0
 26
0.0
 36
0.0
 17
0.0
 27
1.0
 37
0.0
 76
1
330
1B
  0
MATERIAL
  5
1F
102
{ACAD_REACTORS
330
E
102
}
330
E
100
AcDbMaterial
  1
ByBlock
  2

 70
0
 40
1.0
 71
1
 41
1.0
 91
-1023410177
 42
1.0
 72
1
  3

 73
1
 74
1
 75
1
 44
0.5
 73
0
 45
1.0
 46
1.0
 77
1
  4

 78
1
 79
1
170
1
 48
1.0
171
1
  6

172
1
173
1
174
1
140
1.0
141
1.0
175
1
  7

176
1
177
1
178
1
143
1.0
179
1
  8

270
1
271
1
272
1
145
1.0
146
1.0
273
1
  9

274
1
275
1
276
1
 42
1.0
 72
1
  3

 73
1
 74
1
 75
1
 94
63
  0
MATERIAL
  5
20
102
{ACAD_REACTORS
330
E
102
}
330
E
100
AcDbMaterial
  1
ByLayer
  2

 70
0
 40
1.0
 71
1
 41
1.0
 91
-1023410177
 42
1.0
 72
1
  3

 73
1
 74
1
 75
1
 44
0.5
 73
0
 45
1.0
 46
1.0
 77
1
  4

 78
1
 79
1
170
1
 48
1.0
171
1
  6

172
1
173
1
174
1
140
1.0
141
1.0
175
1
  7

176
1
177
1
178
1
143
1.0
179
1
  8

270
1
271
1
272
1
145
1.0
146
1.0
273
1
  9

274
1
275
1
276
1
 42
1.0
 72
1
  3

 73
1
 74
1
 75
1
 94
63
  0
MATERIAL
  5
21
102
{ACAD_REACTORS
330
E
102
}
330
E
100
AcDbMaterial
  1
Global
  2

 70
0
 40
1.0
 71
1
 41
1.0
 91
-1023410177
 42
1.0
 72
1
  3

 73
1
 74
1
 75
1
 44
0.5
 73
0
 45
1.0
 46
1.0
 77
1
  4

 78
1
 79
1
170
1
 48
1.0
171
1
  6

172
1
173
1
174
1
140
1.0
141
1.0
175
1
  7

176
1
177
1
178
1
143
1.0
179
1
  8

270
1
271
1
272
1
145
1.0
146
1.0
273
1
  9

274
1
275
1
276
1
 42
1.0
 72
1
  3

 73
1
 74
1
 75
1
 94
63
  0
MLINESTYLE
  5
22
102
{ACAD_REACTORS
330
10
102
}
330
10
100
AcDbMlineStyle
  2
Standard
 70
0
  3

 62
256
 51
90.0
 52
90.0
 71
2
 49
0.5
 62
256
  6
BYLAYER
 49
-0.5
 62
256
  6
BYLAYER
  0
MLEADERSTYLE
  5
2C
102
{ACAD_REACTORS
330
F
102
}
330
F
100
AcDbMLeaderStyle
179
2
170
2
171
1
172
0
 90
2
 40
0.0
 41
0.0
173
1
 91
-1056964608
 92
-2
290
1
 42
2.0
291
1
 43
8.0
  3
Standard
 44
4.0
300

342
29
174
1
175
1
176
0
178
1
 93
-1056964608
 45
4.0
292
0
297
0
 46
4.0
 94
-1056964608
 47
1.0
 49
1.0
140
1.0
294
1
141
0.0
177
0
142
1.0
295
0
296
0
143
3.75
271
0
272
9
273
9
  0
DICTIONARY
  5
2D
330
A
100
AcDbDictionary
280
1
281
1
  3
CREATED_BY_EZDXF
350
2E
  3
WRITTEN_BY_EZDXF
350
78
  0
DICTIONARYVAR
  5
2E
330
2D
100
DictionaryVariables
280
0
  1
1.4.4 @ 2026-09-26T20:58:38.344588+00:00
  0
DICTIONARYVAR
  5
78
330
2D
100
DictionaryVariables
280
0
  1
1.4.4 @ 2026-09-26T20:58:38.381226+00:00
  0
ENDSEC
  0
EOF
